<svg width="308" height="79" viewBox="0 0 308 79" fill="none" xmlns="http://www.w3.org/2000/svg">
<g clip-path="url(#clip0_1_5)">
<path d="M73.35 24.4H76.27V48.31H73.35V24.4Z" fill="#323043"/>
<path d="M98.79 48.8L83.88 31.42V48.3H80.99V23.9L95.9 41.21V24.4H98.79V48.8Z" fill="#323043"/>
<path d="M123.47 48.8L108.56 31.42V48.3H105.67V23.9L120.58 41.21V24.4H123.47V48.8Z" fill="#323043"/>
<path d="M177.99 24.4L167.68 48.8L157.47 24.4H160.56L167.72 41.97L175.01 24.4H178H177.99Z" fill="#323043"/>
<path d="M219.07 27.06H212.11V48.31H209.15V27.06H202.15V24.4H219.06V27.06H219.07Z" fill="#323043"/>
<path d="M221.16 24.4H224.08V48.31H221.16V24.4Z" fill="#323043"/>
<path d="M274.92 48.8L260.01 31.42V48.3H257.12V23.9L272.03 41.21V24.4H274.92V48.8Z" fill="#323043"/>
<path d="M278.34 45.91L279.85 43.78C281.44 45.17 283.46 45.97 285.56 46.05C287.99 46.24 290.12 44.43 290.31 42C290.31 41.96 290.31 41.92 290.31 41.88C290.31 36.46 279.47 37.84 279.47 30.32C279.47 26.61 282.43 23.95 286.66 23.95C288.78 23.98 290.85 24.63 292.61 25.82L291.26 27.95C289.93 27.07 288.38 26.58 286.79 26.54C284.23 26.54 282.39 28.15 282.39 30.19C282.39 35.58 293.36 34.3 293.36 41.85C293.36 45.79 290.31 48.75 285.61 48.75C282.91 48.75 280.31 47.74 278.32 45.93L278.34 45.91Z" fill="#323043"/>
<path d="M199.86 48.31H202.95L191.23 23.91L179.49 48.31H182.58L186.4 39.96H196.05L199.86 48.31ZM187.4 37.77L191.23 29.4L195.05 37.77H187.4Z" fill="#323043"/>
<path d="M112.53 11.11C112.53 7.45999 115.49 4.50999 119.13 4.50999C122.78 4.50999 125.73 7.46999 125.73 11.11C125.73 14.76 122.77 17.71 119.13 17.71C115.49 17.72 112.54 14.78 112.53 11.15C112.53 11.14 112.53 11.12 112.53 11.11Z" fill="#C50C33"/>
<path d="M254.69 11.11C254.69 7.45999 257.65 4.50999 261.29 4.50999C264.93 4.50999 267.89 7.46999 267.89 11.11C267.89 14.75 264.93 17.71 261.29 17.71C257.65 17.72 254.7 14.78 254.69 11.15C254.69 11.14 254.69 11.12 254.69 11.11Z" fill="#C50C33"/>
<path d="M278.77 4.43C278.77 1.98 280.75 0 283.2 0C285.65 0 287.63 1.98 287.63 4.43C287.63 6.88 285.65 8.86 283.2 8.86C280.76 8.86 278.78 6.9 278.77 4.46C278.77 4.46 278.77 4.44 278.77 4.43Z" fill="#C50C33"/>
<path d="M92.79 4.43C92.79 1.98 94.77 0 97.22 0C99.67 0 101.65 1.98 101.65 4.43C101.65 6.88 99.67 8.86 97.22 8.86C94.78 8.86 92.8 6.9 92.79 4.46C92.79 4.46 92.79 4.44 92.79 4.43Z" fill="#C50C33"/>
<path d="M302.71 15.01C302.71 13.69 303.78 12.62 305.1 12.62C306.42 12.62 307.49 13.69 307.49 15.01C307.49 16.33 306.42 17.4 305.1 17.4C303.78 17.4 302.71 16.34 302.71 15.02C302.71 15.02 302.71 15.02 302.71 15.01Z" fill="#C50C33"/>
<path d="M72.79 15.01C72.79 13.69 73.86 12.62 75.18 12.62C76.5 12.62 77.57 13.69 77.57 15.01C77.57 16.33 76.5 17.4 75.18 17.4C73.86 17.4 72.79 16.34 72.79 15.02C72.79 15.02 72.79 15.02 72.79 15.01Z" fill="#C50C33"/>
<path d="M156.37 58.6C156.37 54.95 159.33 52 162.97 52C166.62 52 169.57 54.96 169.57 58.6C169.57 62.24 166.61 65.2 162.97 65.2C159.33 65.21 156.38 62.27 156.37 58.64C156.37 58.63 156.37 58.61 156.37 58.6Z" fill="#C50C33"/>
<path d="M210.42 58.6C210.42 54.95 213.38 52 217.02 52C220.67 52 223.62 54.96 223.62 58.6C223.62 62.24 220.66 65.2 217.02 65.2C213.38 65.21 210.43 62.27 210.42 58.64C210.42 58.63 210.42 58.61 210.42 58.6Z" fill="#C50C33"/>
<path d="M227.51 35.88C227.51 28.78 233.27 23.02 240.37 23.02C247.47 23.02 253.23 28.78 253.23 35.88C253.23 42.98 247.47 48.74 240.37 48.74C233.29 48.76 227.53 43.04 227.51 35.96C227.51 35.93 227.51 35.91 227.51 35.88Z" fill="#C50C33"/>
<path d="M180.73 69.3C180.73 64.22 184.85 60.11 189.92 60.11C194.99 60.11 199.11 64.23 199.11 69.3C199.11 74.37 194.99 78.49 189.92 78.49C184.86 78.51 180.74 74.42 180.73 69.35C180.73 69.33 180.73 69.31 180.73 69.29V69.3Z" fill="#C50C33"/>
<path d="M18.29 48.8L3.68 33V48.31H0V23.8L14.62 39.7V24.3H18.3V48.8H18.29Z" fill="#C50C33"/>
<path d="M42.67 36.32C42.67 42.99 37.91 48.31 31.34 48.31H23.1V24.3H31.34C37.91 24.3 42.67 29.62 42.67 36.32ZM38.79 36.32C38.79 31.98 35.87 27.71 30.71 27.71H26.8V44.92H30.71C35.23 44.87 38.85 41.17 38.8 36.65C38.8 36.54 38.8 36.42 38.79 36.31V36.32Z" fill="#C50C33"/>
<path d="M60.53 27.71H53.83V48.3H50.09V27.71H43.36V24.29H60.54V27.71H60.53Z" fill="#C50C33"/>
<path d="M128.28 35.84C128.3 28.74 134.07 23 141.17 23.02C148.27 23.04 154.01 28.81 153.99 35.91C153.97 43 148.22 48.73 141.13 48.73C134.03 48.73 128.27 42.96 128.27 35.86V35.84H128.28ZM151.8 35.84C151.69 29.95 146.82 25.26 140.93 25.38C135.04 25.49 130.35 30.36 130.47 36.25C130.58 42.06 135.32 46.72 141.14 46.72C147.06 46.69 151.84 41.87 151.81 35.95V35.85L151.8 35.84Z" fill="#323043"/>
<path d="M137.39 35.89C137.39 33.82 139.07 32.14 141.14 32.14C143.21 32.14 144.89 33.82 144.89 35.89C144.89 37.96 143.21 39.64 141.14 39.64C139.08 39.64 137.4 37.98 137.39 35.91V35.89Z" fill="#C50C33"/>
</g>
<defs>
<clipPath id="clip0_1_5">
<rect width="307.49" height="78.5" fill="white"/>
</clipPath>
</defs>
</svg>
