<svg width="14" height="17" viewBox="0 0 14 17" fill="none" xmlns="http://www.w3.org/2000/svg">
<path d="M4.82092 0.661972H5.17948C5.17948 0.661972 5.20935 0.661972 5.21931 0.661972C5.26911 0.661972 5.31892 0.661972 5.36872 0.673303C5.68744 0.695966 5.99621 0.763954 6.30497 0.854604C8.22725 1.46649 9.70133 3.4268 9.81089 5.84036C9.83081 6.27095 9.81089 6.69021 9.74117 7.10947C9.64157 7.76668 9.43241 8.37857 9.13361 8.95646L9.09376 9.02445C9.09376 9.02445 9.12365 9.04711 9.14357 9.06977C10.04 10.0896 12.8288 13.2623 13.7252 14.2822C13.765 14.3275 13.8049 14.3728 13.8248 14.4408V14.6221C13.8049 14.6901 13.7949 14.7467 13.765 14.8147C13.7053 14.9734 13.6156 15.098 13.516 15.2227C13.3666 15.3926 13.2172 15.5739 13.0579 15.7439C12.9085 15.9139 12.7391 16.0385 12.53 16.0952H12.3706C12.3109 16.0725 12.2611 16.0158 12.2113 15.9705C11.3248 14.962 8.55593 11.8119 7.66949 10.8035L7.61968 10.7468L7.57985 10.7695C6.68345 11.4153 5.69741 11.6986 4.64164 11.6193C4.3528 11.5966 4.07391 11.5513 3.80499 11.472C2.4305 11.0754 1.28511 10.0216 0.65763 8.5712C0.378749 7.91399 0.209423 7.22278 0.169583 6.49758C0.169583 6.45225 0.159618 6.40693 0.149658 6.3616C0.149658 6.2143 0.149658 6.06699 0.149658 5.93101C0.149658 5.88569 0.159622 5.85169 0.169583 5.80637C0.189503 5.4551 0.239297 5.10383 0.318977 4.75256C0.846859 2.44098 2.64964 0.775285 4.7512 0.673303C4.77112 0.673303 4.79104 0.673303 4.81096 0.673303L4.82092 0.661972ZM1.77315 6.14631C1.77315 8.1746 3.21735 9.80631 4.99023 9.81764C6.77308 9.81764 8.21729 8.1746 8.21729 6.14631C8.21729 4.11801 6.77309 2.48631 5.0002 2.48631C3.21736 2.48631 1.77314 4.12934 1.7831 6.14631H1.77315Z" fill="#C50C33"/>
</svg>
