<svg width="14" height="13" viewBox="0 0 14 13" fill="none" xmlns="http://www.w3.org/2000/svg">
<path d="M13.18 3.39C12.99 4.08 12.72 4.74 12.49 5.42C12.37 5.78 12.24 6.13 12.11 6.49C12.03 6.7 11.93 6.89001 11.74 7.02001C11.59 7.13001 11.42 7.19 11.23 7.19C10.39 7.19 9.55999 7.19 8.71999 7.19C7.36999 7.19 6.01999 7.19 4.66999 7.19H4.57999L4.75999 8.32C4.75999 8.32 4.80999 8.32 4.82999 8.32C6.89999 8.32 8.96999 8.32 11.04 8.32C11.14 8.32 11.24 8.32 11.33 8.35001C11.53 8.39001 11.65 8.52001 11.68 8.72001C11.7 8.88 11.68 9.03001 11.62 9.18001C11.54 9.38 11.38 9.44 11.18 9.45C10.77 9.45 10.36 9.45 9.93999 9.45C8.14999 9.45 6.34999 9.45 4.55999 9.45C4.20999 9.45 3.96999 9.29 3.80999 9C3.65999 8.74 3.57999 8.45 3.52999 8.15C3.38999 7.43 3.24999 6.7 3.11999 5.98C2.98999 5.28 2.85999 4.58 2.72999 3.89C2.62999 3.38 2.52999 2.87 2.43999 2.36C2.43999 2.31 2.40999 2.31 2.36999 2.31C2.09999 2.31 1.83999 2.3 1.56999 2.31C1.16999 2.33 0.949986 2.04 0.879986 1.78C0.859986 1.7 0.839987 1.62001 0.829987 1.53C0.829987 1.47 0.829987 1.41 0.829987 1.36V1.34C0.879987 1.06 1.07999 0.880005 1.36999 0.880005C1.84999 0.880005 2.33999 0.880005 2.81999 0.880005C3.01999 0.880005 3.18999 0.960005 3.32999 1.11C3.45999 1.25 3.50999 1.43 3.53999 1.61C3.59999 1.95 3.64999 2.29 3.69999 2.64C3.69999 2.7 3.72999 2.71 3.77999 2.71C4.73999 2.71 5.69999 2.71 6.65999 2.71C8.30999 2.71 9.94999 2.71 11.6 2.71C11.92 2.71 12.24 2.71 12.55 2.73C12.86 2.76 13.11 2.9 13.18 3.24V3.4V3.39ZM11.82 3.82L3.97999 3.79V3.82C4.11999 4.54 4.25999 5.25 4.39999 5.97001C4.40999 6.04001 4.43999 6.06001 4.50999 6.06001C5.15999 6.06001 5.79999 6.06001 6.44999 6.06001C7.93999 6.06001 9.42999 6.06001 10.92 6.06001C10.96 6.06001 10.98 6.05 11 6.01C11.22 5.44 11.43 4.86 11.65 4.29L11.83 3.81L11.82 3.82Z" fill="white"/>
<path d="M10.12 12.14C10.03 12.12 9.93998 12.11 9.84998 12.09C9.30998 11.93 8.95998 11.4 9.01998 10.85C9.06998 10.34 9.47998 9.91001 9.98998 9.83001C10.63 9.73001 11.19 10.11 11.34 10.74C11.46 11.25 11.17 11.81 10.69 12.02C10.55 12.08 10.4 12.1 10.26 12.14H10.13H10.12Z" fill="white"/>
<path d="M6.12999 10.94C6.12999 11.57 5.59999 12.1 4.96999 12.1C4.31999 12.1 3.77999 11.57 3.78999 10.93C3.78999 10.29 4.30999 9.78 4.93999 9.77C5.60999 9.77 6.12999 10.27 6.12999 10.93V10.94Z" fill="white"/>
</svg>
