<svg width="108" height="56" viewBox="0 0 108 56" fill="none" xmlns="http://www.w3.org/2000/svg">
<path d="M104.259 0.000709511C105.48 -0.0616311 106.951 3.99051 108 9.64792H101.661C101.661 8.44786 101.77 6.63998 102.303 4.5204C102.772 2.6346 103.398 0.0630501 104.275 0.000709511H104.259Z" fill="#323043"/>
<path d="M104.228 0.000732422C104.118 0.000732422 104.024 0.000732422 103.915 0.000732422C103.805 0.000732422 103.711 0.000732422 103.602 0.000732422H4.3983C4.30439 0.000732422 4.19483 0.000732422 4.08526 0.000732422C3.97569 0.000732422 3.86613 0.000732422 3.77222 0.000732422C4.19483 0.826745 4.49222 1.54366 4.68004 2.01122C6.04178 5.42437 6.33917 8.33879 6.33917 9.74145C6.33917 10.3337 6.33917 10.9415 6.33917 11.5337V37.5298L54 55.0163L101.661 37.5298V11.5337C101.661 10.9415 101.661 10.3337 101.661 9.74145C101.661 8.35437 101.958 5.42437 103.32 2.01122C103.508 1.54366 103.805 0.842331 104.228 0.000732422Z" fill="#C50C33"/>
<path d="M3.74087 0.000709511C2.52 -0.0616311 1.0487 3.99051 0 9.64792H6.33913C6.33913 8.44786 6.22957 6.63998 5.69739 4.5204C5.24348 2.6346 4.60174 0.0630501 3.74087 0.000709511Z" fill="#323043"/>
</svg>
