<svg width="192" height="49" viewBox="0 0 192 49" fill="none" xmlns="http://www.w3.org/2000/svg">
<g clip-path="url(#clip0_6_552)">
<path d="M45.7957 15.2319H47.6143V30.1605H45.7957V15.2319Z" fill="white"/>
<path d="M61.6946 30.4634L52.3812 19.625V30.1604H50.5764V14.915L59.8898 25.7121V15.218H61.6946V30.4496V30.4634Z" fill="white"/>
<path d="M77.0976 30.4634L67.7842 19.625V30.1604H65.9793V14.915L75.2928 25.7121V15.218H77.0976V30.4496V30.4634Z" fill="white"/>
<path d="M111.141 15.2319L104.707 30.4635L98.3284 15.2319H100.257L104.735 26.1943L109.281 15.2319H111.141Z" fill="white"/>
<path d="M136.795 16.8846H132.441V30.1469H130.595V16.8846H126.227V15.2183H136.795V16.8846Z" fill="white"/>
<path d="M138.09 15.2319H139.908V30.1605H138.09V15.2319Z" fill="white"/>
<path d="M171.665 30.4634L162.351 19.625V30.1604H160.547V14.915L169.86 25.7121V15.218H171.665V30.4496V30.4634Z" fill="white"/>
<path d="M173.8 28.6591L174.737 27.3232C175.729 28.1908 176.983 28.6866 178.305 28.7417C179.821 28.8657 181.157 27.7364 181.281 26.2077V26.1388C181.281 22.751 174.517 23.6186 174.517 18.9224C174.517 16.6088 176.363 14.9424 179.008 14.9424C180.331 14.9562 181.626 15.3693 182.714 16.113L181.874 17.4488C181.047 16.898 180.083 16.595 179.091 16.5675C177.493 16.5675 176.349 17.5728 176.349 18.8398C176.349 22.2001 183.196 21.4013 183.196 26.1113C183.196 28.5764 181.295 30.4219 178.361 30.4219C176.68 30.4219 175.054 29.7884 173.814 28.6591H173.8Z" fill="white"/>
<path d="M124.795 30.1466H126.723L119.408 14.915L112.078 30.1466H114.007L116.39 24.9271H122.411L124.795 30.1466ZM117.01 23.5637L119.408 18.3442L121.791 23.5637H117.01Z" fill="white"/>
<path d="M70.2641 6.941C70.2641 4.66866 72.1102 2.82324 74.3835 2.82324C76.6567 2.82324 78.5029 4.66866 78.5029 6.941C78.5029 9.21335 76.6567 11.0588 74.3835 11.0588C72.1102 11.0588 70.2641 9.22712 70.2641 6.96855C70.2641 6.96855 70.2641 6.95478 70.2641 6.941Z" fill="#C50C33"/>
<path d="M159.031 6.941C159.031 4.66866 160.877 2.82324 163.15 2.82324C165.424 2.82324 167.27 4.66866 167.27 6.941C167.27 9.21335 165.424 11.0588 163.15 11.0588C160.877 11.0588 159.031 9.22712 159.031 6.96855C159.031 6.96855 159.031 6.95478 159.031 6.941Z" fill="#C50C33"/>
<path d="M174.062 2.76813C174.062 1.23946 175.302 0 176.831 0C178.361 0 179.6 1.23946 179.6 2.76813C179.6 4.2968 178.361 5.53626 176.831 5.53626C175.302 5.53626 174.076 4.31057 174.062 2.7819C174.062 2.7819 174.062 2.7819 174.062 2.76813Z" fill="#C50C33"/>
<path d="M57.9334 2.76813C57.9334 1.23946 59.1734 0 60.7026 0C62.2319 0 63.4719 1.23946 63.4719 2.76813C63.4719 4.2968 62.2319 5.53626 60.7026 5.53626C59.1734 5.53626 57.9472 4.31057 57.9334 2.7819C57.9334 2.7819 57.9334 2.7819 57.9334 2.76813Z" fill="#C50C33"/>
<path d="M189.01 9.36479C189.01 8.53849 189.685 7.87744 190.498 7.87744C191.311 7.87744 191.986 8.55226 191.986 9.36479C191.986 10.1773 191.311 10.8521 190.498 10.8521C189.672 10.8521 189.01 10.1911 189.01 9.36479Z" fill="#C50C33"/>
<path d="M45.4512 9.36479C45.4512 8.53849 46.1263 7.87744 46.9391 7.87744C47.752 7.87744 48.4271 8.55226 48.4271 9.36479C48.4271 10.1773 47.752 10.8521 46.9391 10.8521C46.1125 10.8521 45.4512 10.1911 45.4512 9.36479Z" fill="#C50C33"/>
<path d="M97.6395 36.5777C97.6395 34.3054 99.4856 32.46 101.759 32.46C104.032 32.46 105.878 34.3054 105.878 36.5777C105.878 38.8501 104.032 40.6955 101.759 40.6955C99.4856 40.6955 97.6395 38.8638 97.6395 36.6053C97.6395 36.6053 97.6395 36.5915 97.6395 36.5777Z" fill="#C50C33"/>
<path d="M131.394 36.5777C131.394 34.3054 133.24 32.46 135.513 32.46C137.786 32.46 139.633 34.3054 139.633 36.5777C139.633 38.8501 137.786 40.6955 135.513 40.6955C133.24 40.6955 131.394 38.8638 131.394 36.6053C131.394 36.6053 131.394 36.5915 131.394 36.5777Z" fill="#C50C33"/>
<path d="M142.057 22.3927C142.057 17.9582 145.653 14.3638 150.09 14.3638C154.526 14.3638 158.122 17.9582 158.122 22.3927C158.122 26.8272 154.526 30.4217 150.09 30.4217C145.667 30.4217 142.071 26.8685 142.057 22.4478C142.057 22.434 142.057 22.4203 142.057 22.3927Z" fill="#C50C33"/>
<path d="M112.85 43.257C112.85 40.0895 115.426 37.5142 118.595 37.5142C121.763 37.5142 124.34 40.0895 124.34 43.257C124.34 46.4245 121.763 48.9998 118.595 48.9998C115.44 48.9998 112.863 46.452 112.85 43.2983C112.85 43.2983 112.85 43.2708 112.85 43.257Z" fill="#C50C33"/>
<path d="M11.4214 30.4633L2.3008 20.6027V30.1603H0V14.8599L9.12055 24.7755V15.1628H11.4214V30.4495V30.4633Z" fill="#C50C33"/>
<path d="M26.6452 22.6687C26.6452 26.8278 23.6693 30.1468 19.5637 30.1468H14.411V15.1631H19.5637C23.6693 15.1631 26.6452 18.4821 26.6452 22.6687ZM24.2204 22.6687C24.2204 19.9694 22.4018 17.2977 19.1779 17.2977H16.7394V28.0397H19.1779C22.0023 28.0122 24.2618 25.6985 24.2342 22.8753C24.2342 22.8064 24.2342 22.7376 24.2342 22.6687H24.2204Z" fill="#C50C33"/>
<path d="M37.7911 17.2977H33.6028V30.1468H31.2606V17.2977H27.0586V15.1631H37.7911V17.2977Z" fill="#C50C33"/>
<path d="M80.101 22.3794C80.101 17.9449 83.7107 14.3642 88.1469 14.378C92.5832 14.378 96.1653 17.9862 96.1515 22.4207C96.1515 26.8414 92.5557 30.4221 88.1194 30.4221C83.6831 30.4221 80.0872 26.8277 80.0872 22.3931L80.101 22.3794ZM94.7876 22.3794C94.7187 18.7023 91.6739 15.7827 87.9954 15.8516C84.3169 15.9204 81.3961 18.964 81.465 22.641C81.5339 26.263 84.496 29.1689 88.1194 29.1689C91.8117 29.1551 94.8014 26.1391 94.7876 22.4482V22.3794Z" fill="white"/>
<path d="M85.791 22.4066C85.791 21.1121 86.8381 20.0654 88.1332 20.0654C89.4282 20.0654 90.4753 21.1121 90.4753 22.4066C90.4753 23.7012 89.4282 24.7478 88.1332 24.7478C86.8381 24.7478 85.791 23.715 85.791 22.4204V22.4066Z" fill="#C50C33"/>
</g>
<defs>
<clipPath id="clip0_6_552">
<rect width="192" height="49" fill="white"/>
</clipPath>
</defs>
</svg>
