<svg width="15" height="15" viewBox="0 0 15 15" fill="none" xmlns="http://www.w3.org/2000/svg">
<g clip-path="url(#clip0_1_45)">
<path d="M7.43999 2.51C7.77999 2.81 8.11999 3.11 8.45999 3.41C9.59999 4.41 10.73 5.42 11.87 6.42C11.97 6.51 12.05 6.61 12.16 6.68C12.62 6.94 12.68 7.34 12.68 7.83C12.65 9.75 12.67 11.66 12.67 13.58C12.67 13.96 12.58 14.04 12.23 14.03C11.27 14.01 10.31 14.03 9.35999 14.03H9.09999C9.09999 13.94 9.08999 13.85 9.08999 13.77C9.08999 12.93 9.08999 12.1 9.08999 11.26C9.08999 10.93 8.97999 10.81 8.63999 10.81C7.83999 10.81 7.03999 10.81 6.23999 10.81C5.90999 10.81 5.78999 10.93 5.78999 11.26C5.78999 12.08 5.78999 12.9 5.78999 13.73C5.78999 13.93 5.68666 14.03 5.47999 14.03C4.53999 14.03 3.58999 14.03 2.64999 14.03C2.32999 14.03 2.23999 13.94 2.23999 13.63C2.23999 11.52 2.23999 9.41 2.23999 7.3C2.23999 7.21 2.27999 7.09 2.34999 7.03C4.02999 5.54 5.70999 4.05 7.38999 2.56C7.40999 2.55 7.42999 2.54 7.45999 2.52L7.43999 2.51Z" fill="white"/>
<path d="M14.88 6.53L14.1 7.41C13.75 7.11 13.43 6.82 13.1 6.54C11.47 5.09 9.83999 3.65 8.19999 2.2C7.98999 2.01 7.76999 1.82 7.55999 1.63C7.45999 1.53 7.38999 1.53 7.27999 1.63C5.35999 3.33 3.43999 5.02 1.51999 6.71C1.26999 6.93 1.00999 7.15 0.73999 7.39L-0.0100098 6.54C0.17999 6.37 0.35999 6.21 0.53999 6.05C1.97999 4.78 3.41999 3.5 4.85999 2.23C5.64999 1.53 6.44999 0.829998 7.22999 0.119998C7.36999 -2.06381e-06 7.44999 -0.0200021 7.59999 0.119998C9.27999 1.62 10.97 3.1 12.66 4.59C13.34 5.19 14.01 5.78 14.69 6.38C14.75 6.43 14.8 6.49 14.87 6.56L14.88 6.53Z" fill="white"/>
</g>
<defs>
<clipPath id="clip0_1_45">
<rect width="14.88" height="14.03" fill="white"/>
</clipPath>
</defs>
</svg>
