<svg width="435" height="111" viewBox="0 0 435 111" fill="none" xmlns="http://www.w3.org/2000/svg">
<g clip-path="url(#clip0_1_97)">
<path d="M103.765 34.4927H107.899V68.3004H103.765V34.4927Z" fill="white"/>
<path d="M139.759 69.0089L118.661 44.4354V68.3122H114.574V33.796L135.672 58.275V34.4927H139.759V68.9971V69.0089Z" fill="white"/>
<path d="M174.678 69.0089L153.58 44.4354V68.3122H149.493V33.796L170.591 58.275V34.4927H174.678V68.9971V69.0089Z" fill="white"/>
<path d="M251.793 34.4927L237.204 68.9971L222.757 34.4927H227.128L237.251 59.3378L247.564 34.4927H251.793Z" fill="white"/>
<path d="M309.913 38.2596H300.061V68.3122H295.879V38.2596H285.98V34.4927H309.913V38.2596Z" fill="white"/>
<path d="M312.866 34.4927H317V68.3004H312.866V34.4927Z" fill="white"/>
<path d="M388.918 69.0089L367.82 44.4354V68.3122H363.732V33.796L384.83 58.275V34.4927H388.918V68.9971V69.0089Z" fill="white"/>
<path d="M393.749 64.9232L395.887 61.9002C398.132 63.8722 400.991 65.0059 403.967 65.1003C407.405 65.3719 410.417 62.8095 410.689 59.3732C410.689 59.3141 410.689 59.2669 410.689 59.2079C410.689 51.5441 395.356 53.4926 395.356 42.8531C395.356 37.6101 399.538 33.8432 405.527 33.8432C408.527 33.8786 411.457 34.7997 413.938 36.4883L412.036 39.5113C410.157 38.2714 407.972 37.5747 405.716 37.5156C402.089 37.5156 399.49 39.7947 399.49 42.676C399.49 50.2924 415.012 48.4857 415.012 59.1606C415.012 64.7343 410.689 68.9145 404.05 68.9145C400.234 68.9145 396.549 67.4856 393.737 64.9232H393.749Z" fill="white"/>
<path d="M282.731 68.3122H287.102L270.517 33.8078L253.908 68.3122H258.278L263.689 56.5037H277.344L282.743 68.3122H282.731ZM265.094 53.4099L270.517 41.566L275.927 53.4099H265.106H265.094Z" fill="white"/>
<path d="M159.203 15.7171C159.203 10.5568 163.385 6.3766 168.547 6.3766C173.709 6.3766 177.891 10.5568 177.891 15.7171C177.891 20.8774 173.709 25.0577 168.547 25.0577C163.409 25.0695 159.227 20.9129 159.203 15.7762C159.203 15.7526 159.203 15.7407 159.203 15.7171Z" fill="#C50C33"/>
<path d="M360.295 15.7171C360.295 10.5568 364.477 6.3766 369.639 6.3766C374.801 6.3766 378.983 10.5568 378.983 15.7171C378.983 20.8774 374.801 25.0577 369.639 25.0577C364.5 25.0695 360.319 20.9129 360.295 15.7762C360.295 15.7526 360.295 15.7407 360.295 15.7171Z" fill="#C50C33"/>
<path d="M394.363 6.27032C394.363 2.81043 397.175 0 400.636 0C404.097 0 406.909 2.81043 406.909 6.27032C406.909 9.73021 404.097 12.5406 400.636 12.5406C397.187 12.5406 394.375 9.76564 394.363 6.31755C394.363 6.30574 394.363 6.29394 394.363 6.28213V6.27032Z" fill="#C50C33"/>
<path d="M131.266 6.27032C131.266 2.81043 134.077 0 137.538 0C140.999 0 143.811 2.81043 143.811 6.27032C143.811 9.73021 140.999 12.5406 137.538 12.5406C134.089 12.5406 131.277 9.76564 131.266 6.31755C131.266 6.30574 131.266 6.29394 131.266 6.28213V6.27032Z" fill="#C50C33"/>
<path d="M428.231 21.2199C428.231 19.3541 429.743 17.8427 431.61 17.8427C433.476 17.8427 434.988 19.3541 434.988 21.2199C434.988 23.0856 433.476 24.5971 431.61 24.5971C429.743 24.5971 428.231 23.0974 428.231 21.2317C428.231 21.2317 428.231 21.2199 428.231 21.2081V21.2199Z" fill="#C50C33"/>
<path d="M102.973 21.2199C102.973 19.3541 104.486 17.8427 106.352 17.8427C108.218 17.8427 109.73 19.3541 109.73 21.2199C109.73 23.0856 108.218 24.5971 106.352 24.5971C104.486 24.5971 102.973 23.0974 102.973 21.2317C102.973 21.2317 102.973 21.2199 102.973 21.2081V21.2199Z" fill="#C50C33"/>
<path d="M221.209 82.8721C221.209 77.7118 225.391 73.5316 230.553 73.5316C235.716 73.5316 239.897 77.7118 239.897 82.8721C239.897 88.0324 235.716 92.2127 230.553 92.2127C225.415 92.2245 221.233 88.0679 221.209 82.9312C221.209 82.9076 221.209 82.8957 221.209 82.8721Z" fill="#C50C33"/>
<path d="M297.674 82.8721C297.674 77.7118 301.856 73.5316 307.019 73.5316C312.181 73.5316 316.363 77.7118 316.363 82.8721C316.363 88.0324 312.181 92.2127 307.019 92.2127C301.88 92.2245 297.698 88.0679 297.674 82.9312C297.674 82.9076 297.674 82.8957 297.674 82.8721Z" fill="#C50C33"/>
<path d="M321.844 50.7294C321.844 40.6921 329.983 32.5443 340.036 32.5443C350.077 32.5443 358.228 40.6803 358.228 50.7294C358.228 60.7666 350.089 68.9145 340.036 68.9145C330.018 68.9499 321.879 60.8493 321.844 50.8474C321.844 50.812 321.844 50.7766 321.844 50.7412V50.7294Z" fill="#C50C33"/>
<path d="M255.679 97.9988C255.679 90.8193 261.503 84.9977 268.686 84.9977C275.868 84.9977 281.692 90.8193 281.692 97.9988C281.692 105.178 275.868 111 268.686 111C261.527 111.024 255.703 105.237 255.679 98.0815C255.679 98.0579 255.679 98.0343 255.679 97.9988Z" fill="#C50C33"/>
<path d="M25.8822 69.0089L5.20951 46.6672V68.3122H0V33.6661L20.6727 56.1495V34.3628H25.8822V69.0089Z" fill="#C50C33"/>
<path d="M60.3524 51.3552C60.3524 60.7784 53.619 68.3122 44.3222 68.3122H32.6628V34.3628H44.3222C53.619 34.3628 60.3524 41.8848 60.3524 51.367V51.3552ZM54.8712 51.3552C54.8712 45.2266 50.7366 39.1806 43.4362 39.1806H37.9078V63.518H43.4362C49.827 63.4471 54.9538 58.216 54.883 51.8276C54.883 51.674 54.883 51.5087 54.8712 51.3552Z" fill="#C50C33"/>
<path d="M85.6321 39.1924H76.1581V68.3122H70.8659V39.1924H61.3446V34.3628H85.6439V39.1924H85.6321Z" fill="#C50C33"/>
<path d="M181.482 50.6939C181.506 40.6567 189.669 32.5324 199.722 32.5679C209.763 32.5915 217.89 40.7512 217.854 50.8002C217.831 60.8256 209.692 68.9263 199.674 68.9263C189.621 68.9263 181.482 60.7784 181.482 50.7294V50.7057V50.6939ZM214.759 50.6939C214.606 42.3571 207.719 35.7326 199.379 35.8979C191.039 36.0514 184.412 42.9357 184.577 51.2725C184.731 59.4913 191.441 66.0686 199.674 66.0686C208.05 66.0332 214.807 59.2079 214.771 50.8356C214.771 50.7884 214.771 50.7412 214.771 50.6939H214.759Z" fill="white"/>
<path d="M194.358 50.753C194.358 47.8245 196.733 45.451 199.662 45.451C202.592 45.451 204.966 47.8245 204.966 50.753C204.966 53.6815 202.592 56.055 199.662 56.055C196.745 56.055 194.37 53.7051 194.358 50.7884C194.358 50.7884 194.358 50.7648 194.358 50.753Z" fill="#C50C33"/>
</g>
<defs>
<clipPath id="clip0_1_97">
<rect width="435" height="111" fill="white"/>
</clipPath>
</defs>
</svg>
