<svg width="26" height="18" viewBox="0 0 26 18" fill="none" xmlns="http://www.w3.org/2000/svg">
<path d="M0.272347 0.643702C0.647065 0.304916 1.02178 0.135522 1.46463 0.0338859C1.63496 7.23801e-06 1.83935 0 2.00968 0C9.36778 0 16.6918 0 24.0499 0C24.4587 0 24.8334 0.0677578 25.14 0.304908C25.2763 0.406544 25.4125 0.542061 25.5488 0.677575C25.3444 0.846968 25.1741 1.01636 25.0037 1.15187C22.2104 3.4895 19.383 5.82712 16.5896 8.16475C15.5677 9.01171 14.5116 9.89256 13.4897 10.7395C12.9106 11.2138 12.4337 11.1461 11.9567 10.7395C10.6963 9.62154 9.40185 8.53742 8.14143 7.41943C5.55247 5.18344 2.9635 2.94745 0.374542 0.711461C0.374542 0.711461 0.306412 0.677581 0.238281 0.643702H0.272347Z" fill="#8B8787"/>
<path d="M1.396 17.0748L9.70793 10.5363C10.2189 10.9767 10.7299 11.4171 11.2409 11.8575C11.5475 12.1285 11.854 12.3996 12.1606 12.6706C12.4672 12.9416 12.876 12.9755 13.2167 12.7384C13.7958 12.2979 14.3408 11.8236 14.9199 11.3493C15.2946 11.0444 15.6694 10.7395 16.0781 10.4007L24.5604 17.0748H1.396Z" fill="#8B8787"/>
<path d="M17.3394 9.31664L25.9579 2.1005C26.0601 2.77807 25.9579 15.652 25.8557 16.0246L17.3394 9.31664Z" fill="#8B8787"/>
<path d="M0.0681306 16.0585C0.0681306 15.8213 0 15.618 0 15.4486C0 11.1122 0 6.74185 0 2.40538C0 2.33762 0 2.26987 0 2.16823L8.44819 9.45213L0.0681306 16.0585Z" fill="#8B8787"/>
</svg>
