<svg width="121" height="64" viewBox="0 0 121 64" fill="none" xmlns="http://www.w3.org/2000/svg">
<path d="M3.40193 31.9361L0 0H121L118.54 31.9041L116.592 31.7602L118.876 1.95005H2.17212L5.33448 31.7283L3.40193 31.9361Z" fill="#C50C33"/>
<path d="M119.93 0.975098H1.08606V7.73634H119.93V0.975098Z" fill="#C50C33"/>
<path d="M25.1871 60.4197H21.6094V64.0001H25.1871V60.4197Z" fill="#C50C33"/>
<path d="M100.62 60.5476H97.1705V64.0002H100.62V60.5476Z" fill="#C50C33"/>
<path d="M116.656 21.0029V57.8141H4.36021V21.0029H116.656ZM116.656 17.918H4.36021C2.65126 17.918 1.27771 19.3086 1.27771 21.0029V57.8141C1.27771 59.5244 2.66723 60.899 4.36021 60.899H116.656C118.365 60.899 119.738 59.5084 119.738 57.8141V21.0029C119.738 19.2926 118.349 17.918 116.656 17.918Z" fill="#C50C33"/>
<path d="M107.903 28.883V47.2327H13.1126V28.883H107.903ZM107.903 25.7981H13.1126C11.4036 25.7981 10.0301 27.1887 10.0301 28.883V47.2327C10.0301 48.9429 11.4196 50.3176 13.1126 50.3176H107.903C109.612 50.3176 110.986 48.927 110.986 47.2327V28.883C110.986 27.1727 109.596 25.7981 107.903 25.7981Z" fill="#C50C33"/>
</svg>
