<svg width="87" height="88" viewBox="0 0 87 88" fill="none" xmlns="http://www.w3.org/2000/svg">
<path d="M17.2376 37.507H14.549V46.7966H17.2376V37.507Z" fill="#C50C33"/>
<path d="M30.4283 37.3815H27.7397V46.8245H30.4283V37.3815Z" fill="#C50C33"/>
<path d="M28.4959 39.2087H24.4071V36.5306H28.4959C29.098 36.5306 29.7562 35.7495 29.7562 34.6336C29.7562 33.5178 29.098 32.7367 28.4959 32.7367H16.2994C15.6972 32.7367 15.0391 33.5178 15.0391 34.6336C15.0391 35.7495 15.6972 36.5306 16.2994 36.5306H19.198V39.2087H16.2994C14.1149 39.2087 12.3506 37.1583 12.3506 34.6336C12.3506 32.109 14.1289 30.0586 16.2994 30.0586H28.4959C30.6803 30.0586 32.4447 32.109 32.4447 34.6336C32.4447 37.1583 30.6663 39.2087 28.4959 39.2087Z" fill="#C50C33"/>
<path d="M51.8247 21.6896H41.5746V24.3677H51.8247V21.6896Z" fill="#C50C33"/>
<path d="M43.283 49.3352C37.8358 49.3352 33.3969 44.9136 33.3969 39.4877V7.67156H36.0855V39.5016C36.0855 43.449 39.3061 46.6711 43.283 46.6711C47.2598 46.6711 50.4804 43.463 50.4804 39.5016V7.54602H53.169V39.5016C53.169 44.9275 48.7301 49.3492 43.283 49.3492V49.3352Z" fill="#C50C33"/>
<path d="M51.0686 9.40117H45.7755V6.72309H51.0686C52.1888 6.72309 53.099 5.81645 53.099 4.70059C53.099 3.58472 52.1888 2.67808 51.0686 2.67808H35.2733C34.1531 2.67808 33.2429 3.58472 33.2429 4.70059C33.2429 5.81645 34.1531 6.72309 35.2733 6.72309H39.0261V9.40117H35.2733C32.6688 9.40117 30.5543 7.29498 30.5543 4.70059C30.5543 2.1062 32.6688 0 35.2733 0H51.0686C53.6731 0 55.7875 2.1062 55.7875 4.70059C55.7875 7.29498 53.6731 9.40117 51.0686 9.40117Z" fill="#C50C33"/>
<path d="M50.9985 87.986H50.7325L50.4804 87.8883C47.5118 86.6609 45.5094 84.7639 44.5012 82.2253C42.7088 77.7339 44.8373 72.9497 44.9353 72.7404C45.3274 72.043 53.225 57.9134 55.7175 54.8029C57.4679 52.627 57.6919 48.3169 57.6359 46.8524V37.507H60.3245V46.7966C60.3245 46.9918 60.5625 53.0733 57.818 56.4767C55.4655 59.4058 47.4278 73.7726 47.3298 73.94C47.3298 73.94 45.6494 77.8455 47.0077 81.2489C47.7079 83.0064 49.1502 84.3733 51.2646 85.3079H78.1362C78.6683 85.266 84.1434 84.5965 84.3114 77.3294L70.7986 53.6033V37.3954H73.4872V52.892L87 76.632V76.9807C87 87.2467 78.3182 87.972 78.2342 87.986H50.9985Z" fill="#C50C33"/>
<path d="M71.5688 39.2087H67.494V36.5306H71.5688C72.1709 36.5306 72.8291 35.7495 72.8291 34.6336C72.8291 33.5178 72.1709 32.7367 71.5688 32.7367H59.3723C58.7702 32.7367 58.112 33.5178 58.112 34.6336C58.112 35.7495 58.7702 36.5306 59.3723 36.5306H62.2709V39.2087H59.3723C57.1878 39.2087 55.4235 37.1583 55.4235 34.6336C55.4235 32.109 57.2018 30.0586 59.3723 30.0586H71.5688C73.7533 30.0586 75.5176 32.109 75.5176 34.6336C75.5176 37.1583 73.7392 39.2087 71.5688 39.2087Z" fill="#C50C33"/>
<path d="M22.4466 87.986C10.0681 87.986 0 78.2222 0 66.2266C0 54.2311 10.0681 44.4672 22.4466 44.4672C34.8252 44.4672 44.8933 54.2311 44.8933 66.2266C44.8933 78.2222 34.8252 87.986 22.4466 87.986ZM22.4466 47.1314C11.5524 47.1314 2.68856 55.6956 2.68856 66.2127C2.68856 76.7297 11.5524 85.294 22.4466 85.294C33.3409 85.294 42.2047 76.7297 42.2047 66.2127C42.2047 55.6956 33.3409 47.1314 22.4466 47.1314Z" fill="#C50C33"/>
<path d="M23.0488 82.7554C21.1024 82.7554 19.0019 82.4485 16.7475 81.8209C6.97346 79.1288 4.14487 71.7641 4.761 65.7663C5.20909 61.3447 7.53357 57.9971 10.2641 57.8158C15.8093 57.4392 18.8759 58.3598 23.4969 64.9015C27.8798 71.1085 30.7364 72.1547 35.6794 69.3789L35.8054 69.6021C36.0435 68.9605 36.2535 68.3049 36.4496 67.6773C37.1077 65.5711 37.0377 63.8275 36.2395 62.628C35.2733 61.1634 33.3969 60.6752 31.9826 60.5218C28.2859 60.1312 26.8716 62.5443 26.8016 62.6419L24.4351 61.3587C24.5191 61.1913 26.7035 57.2579 32.2627 57.8576C35.1053 58.1645 37.2617 59.3083 38.48 61.1494C39.3482 62.4606 40.1463 64.8039 39.0121 68.4723C36.0715 77.9572 30.6944 82.7275 23.0208 82.7414L23.0488 82.7554ZM12.2105 60.4241C11.6644 60.4241 11.0763 60.452 10.4462 60.4939C9.28393 60.5776 7.75762 62.8651 7.43555 66.0453C6.93145 70.9551 9.29794 77.0087 17.4616 79.2544C26.9136 81.8488 31.6746 77.8874 34.3351 72.9497C28.748 74.8467 25.0092 71.7223 21.2984 66.4637C17.7697 61.4702 15.6132 60.4381 12.1965 60.4381L12.2105 60.4241Z" fill="#C50C33"/>
<path d="M12.5186 68.4165C11.1463 68.4165 10.0261 67.3007 10.0261 65.9337C10.0261 64.5668 11.1463 63.4509 12.5186 63.4509C13.8909 63.4509 15.0111 64.5668 15.0111 65.9337C15.0111 67.3007 13.8909 68.4165 12.5186 68.4165ZM12.5186 65.7385C12.4066 65.7385 12.3225 65.8221 12.3225 65.9337C12.3225 66.1569 12.7146 66.1569 12.7146 65.9337C12.7146 65.8221 12.6306 65.7385 12.5186 65.7385Z" fill="#C50C33"/>
<path d="M13.6668 74.763C12.6446 74.763 11.8185 73.94 11.8185 72.9079C11.8185 71.8757 12.6446 71.0527 13.6668 71.0527C14.689 71.0527 15.5152 71.8757 15.5152 72.9079C15.5152 73.94 14.689 74.763 13.6668 74.763ZM13.6668 72.0849C13.2047 72.0849 12.8267 72.4615 12.8267 72.9218C12.8267 73.3821 13.2047 73.7587 13.6668 73.7587C14.1289 73.7587 14.507 73.3821 14.507 72.9218C14.507 72.4615 14.1289 72.0849 13.6668 72.0849Z" fill="#C50C33"/>
<path d="M19.436 72.6708C18.3998 72.6708 17.5456 71.8199 17.5456 70.7877C17.5456 69.7556 18.3858 68.9047 19.436 68.9047C20.4862 68.9047 21.3264 69.7556 21.3264 70.7877C21.3264 71.8199 20.4722 72.6708 19.436 72.6708ZM19.436 69.9927C19.0019 69.9927 18.6379 70.3553 18.6379 70.7877C18.6379 71.2201 19.0019 71.5828 19.436 71.5828C19.8701 71.5828 20.2342 71.2201 20.2342 70.7877C20.2342 70.3553 19.8701 69.9927 19.436 69.9927Z" fill="#C50C33"/>
<path d="M77.8841 83.397H52.7349L52.4549 83.2575C50.5225 82.323 47.3018 79.4775 48.9961 75.4465C50.7045 71.3875 55.5075 65.3618 55.7175 65.0968L56.1236 64.5947H70.2525V67.2727H57.4259C56.2496 68.7931 52.7769 73.3961 51.4746 76.4786C50.4944 78.7941 52.6229 80.2726 53.379 80.7189H77.6321C78.8643 80.4679 79.1164 79.9099 79.2004 79.7286C79.8445 78.3338 78.6123 75.6836 78.1362 74.8746C75.9377 71.5688 73.0951 67.6215 72.409 67.1193C72.409 67.1193 72.465 67.1612 72.577 67.203L73.5152 64.6923C73.9073 64.8318 74.9435 65.2223 80.4046 73.4519C80.6987 73.954 82.9812 77.9153 81.6369 80.8445C81.2028 81.779 80.2226 82.9786 77.9961 83.3831L77.8701 83.411L77.8841 83.397Z" fill="#C50C33"/>
<path d="M61.4867 72.6708C60.4505 72.6708 59.5963 71.8199 59.5963 70.7877C59.5963 69.7556 60.4365 68.9047 61.4867 68.9047C62.537 68.9047 63.3771 69.7556 63.3771 70.7877C63.3771 71.8199 62.5229 72.6708 61.4867 72.6708ZM61.4867 69.9927C61.0526 69.9927 60.6886 70.3553 60.6886 70.7877C60.6886 71.2201 61.0526 71.5828 61.4867 71.5828C61.9208 71.5828 62.2849 71.2201 62.2849 70.7877C62.2849 70.3553 61.9208 69.9927 61.4867 69.9927Z" fill="#C50C33"/>
<path d="M63.7412 78.4454C62.719 78.4454 61.8928 77.6224 61.8928 76.5903C61.8928 75.5581 62.719 74.7491 63.7412 74.7491C64.7634 74.7491 65.5896 75.572 65.5896 76.5903C65.5896 77.6085 64.7634 78.4454 63.7412 78.4454ZM63.7412 75.7673C63.2791 75.7673 62.901 76.1439 62.901 76.6042C62.901 77.0645 63.2791 77.4411 63.7412 77.4411C64.2033 77.4411 64.5814 77.0645 64.5814 76.6042C64.5814 76.1439 64.2033 75.7673 63.7412 75.7673Z" fill="#C50C33"/>
<path d="M69.4404 75.9765C68.2221 75.9765 67.2419 74.9862 67.2419 73.7727C67.2419 72.5592 68.2361 71.5688 69.4404 71.5688C70.6446 71.5688 71.6388 72.5592 71.6388 73.7727C71.6388 74.9862 70.6446 75.9765 69.4404 75.9765ZM69.4404 73.2984C69.1743 73.2984 68.9503 73.5216 68.9503 73.7866C68.9503 74.0517 69.1743 74.2748 69.4404 74.2748C69.7064 74.2748 69.9305 74.0517 69.9305 73.7866C69.9305 73.5216 69.7064 73.2984 69.4404 73.2984Z" fill="#C50C33"/>
</svg>
