<svg width="108" height="53" viewBox="0 0 108 53" fill="none" xmlns="http://www.w3.org/2000/svg">
<g clip-path="url(#clip0_59_1420)">
<path d="M52.882 53H1.66873C0.750927 53 0 52.2486 0 51.3302V21.7912C0 20.8728 0.750927 20.1213 1.66873 20.1213H52.882C53.7998 20.1213 54.5507 20.8728 54.5507 21.7912V51.3302C54.5507 52.2486 53.7998 53 52.882 53ZM3.33745 49.6604H51.2132V23.461H3.33745V49.6437V49.6604Z" fill="#C50C33"/>
<path d="M106.331 43.8161H52.882C51.9642 43.8161 51.2133 43.0647 51.2133 42.1463V28.5372C51.2133 27.6188 51.9642 26.8674 52.882 26.8674H106.331C107.249 26.8674 108 27.6188 108 28.5372V42.1463C108 43.0647 107.249 43.8161 106.331 43.8161ZM54.5674 40.4764H104.663V30.2071H54.5674V40.4764Z" fill="#C50C33"/>
<path d="M43.4035 22.4924H13.0494C12.5488 22.4924 12.0815 22.2754 11.7645 21.8913C11.4474 21.5072 11.3139 21.023 11.3974 20.5221L14.7515 1.38595C14.885 0.584436 15.5859 0 16.4035 0H40.0828C40.9004 0 41.5846 0.584436 41.7348 1.38595L45.0723 20.5388C45.1557 21.023 45.0222 21.5239 44.7051 21.908C44.3881 22.2921 43.9208 22.5091 43.4202 22.5091L43.4035 22.4924ZM15.0352 19.1528H41.4178L38.6644 3.33963H17.7886L15.0352 19.1528Z" fill="#C50C33"/>
<path d="M87.0408 43.0814C86.123 43.0814 85.3721 42.3299 85.3721 41.4115V28.5372C85.3721 27.6188 86.123 26.8674 87.0408 26.8674C87.9586 26.8674 88.7095 27.6188 88.7095 28.5372V41.4115C88.7095 42.3299 87.9586 43.0814 87.0408 43.0814Z" fill="#C50C33"/>
</g>
<defs>
<clipPath id="clip0_59_1420">
<rect width="108" height="53" fill="white"/>
</clipPath>
</defs>
</svg>
