<svg width="77" height="95" viewBox="0 0 77 95" fill="none" xmlns="http://www.w3.org/2000/svg">
<path d="M65.2152 94.1278H5.68921C2.55864 94.1278 0 91.5692 0 88.4386V83.0805C0 79.9499 2.55864 77.3913 5.68921 77.3913H65.2152C68.3458 77.3913 70.9044 79.9499 70.9044 83.0805V88.4386C70.9044 91.5692 68.3458 94.1278 65.2152 94.1278ZM5.68921 80.4015C4.21423 80.4015 3.01016 81.6055 3.01016 83.0805V88.4386C3.01016 89.9136 4.21423 91.1176 5.68921 91.1176H65.2152C66.6902 91.1176 67.8943 89.9136 67.8943 88.4386V83.0805C67.8943 81.6055 66.6902 80.4015 65.2152 80.4015H5.68921Z" fill="#C50C33"/>
<path d="M47.7864 79.0469H44.7762V65.6215C44.7762 60.2785 40.4265 55.9288 35.0835 55.9288C29.7404 55.9288 25.3907 60.2785 25.3907 65.6215V79.0469H22.3806V65.6215C22.3806 58.6229 28.0848 52.9186 35.0835 52.9186C42.0821 52.9186 47.7864 58.6229 47.7864 65.6215V79.0469Z" fill="#C50C33"/>
<path d="M35.3393 74.7875C31.1552 74.7875 27.7537 71.386 27.7537 67.2019C27.7537 63.0178 31.1552 59.6163 35.3393 59.6163C39.5235 59.6163 42.925 63.0178 42.925 67.2019C42.925 71.386 39.5235 74.7875 35.3393 74.7875ZM35.3393 62.6264C32.8108 62.6264 30.7639 64.6733 30.7639 67.2019C30.7639 69.7304 32.8108 71.7773 35.3393 71.7773C37.8679 71.7773 39.9148 69.7154 39.9148 67.2019C39.9148 64.6884 37.8679 62.6264 35.3393 62.6264Z" fill="#C50C33"/>
<path d="M43.843 36.2123C39.388 36.2123 35.7607 32.5851 35.7607 28.13C35.7607 23.675 39.388 20.0477 43.843 20.0477C48.2981 20.0477 51.9253 23.675 51.9253 28.13C51.9253 32.5851 48.2981 36.2123 43.843 36.2123ZM43.843 23.0729C41.0436 23.0729 38.7709 25.3456 38.7709 28.1451C38.7709 30.9445 41.0436 33.2172 43.843 33.2172C46.6425 33.2172 48.9152 30.9445 48.9152 28.1451C48.9152 25.3456 46.6425 23.0729 43.843 23.0729Z" fill="#C50C33"/>
<path d="M23.9007 65.7871H1.82117V56.0793H26.5647V59.0895H4.83133V62.777H23.9007V65.7871Z" fill="#C50C33"/>
<path d="M60.8956 65.7871H46.2813V62.777H60.8956C64.7637 62.777 67.9093 59.6314 67.9093 55.7633V39.4031C67.9093 35.535 64.7637 32.3894 60.8956 32.3894H50.4203V29.3792H60.8956C66.4193 29.3792 70.9195 33.8794 70.9195 39.4031V55.7633C70.9195 61.2869 66.4193 65.7871 60.8956 65.7871Z" fill="#C50C33"/>
<path d="M61.016 70.3626H46.0706V67.3525H61.016C68.1652 67.3525 73.9898 61.5278 73.9898 54.3787V40.1707C73.9898 33.0215 68.1652 27.1969 61.016 27.1969H49.9537V24.1867H61.016C69.8358 24.1867 77 31.3509 77 40.1707V54.3787C77 63.1984 69.8358 70.3626 61.016 70.3626Z" fill="#C50C33"/>
<path d="M33.774 45.2277L17.3235 34.647L37.1304 3.85303L53.5809 14.4338L48.2078 22.787L45.6792 21.1464L49.4269 15.3368L38.0334 8.00705L21.4775 33.744L32.871 41.0737L38.4398 32.4195L40.9683 34.045L33.774 45.2277Z" fill="#C50C33"/>
<path d="M48.1626 13.9822L39.2977 8.86493L44.415 0L53.2799 5.11728L48.1626 13.9822ZM43.4216 7.76622L47.0639 9.87334L49.171 6.23104L45.5287 4.12393L43.4216 7.76622Z" fill="#C50C33"/>
<path d="M26.2637 48.7195L17.3987 43.6022L22.516 34.7373L31.381 39.8546L26.2637 48.7195ZM21.5227 42.5035L25.165 44.6106L27.2721 40.9683L23.6298 38.8612L21.5227 42.5035Z" fill="#C50C33"/>
</svg>
