<svg width="85" height="80" viewBox="0 0 85 80" fill="none" xmlns="http://www.w3.org/2000/svg">
<path d="M22.1438 47.929H18.5403C20.0524 54.3943 24.0798 59.865 29.5204 63.2895L31.0183 60.1066C26.7365 57.3073 23.5287 53.0018 22.1297 47.929H22.1438Z" fill="#B12D36"/>
<path d="M66.4597 47.929H62.8562C61.4572 52.9876 58.2494 57.3073 53.9676 60.1066L55.409 63.3179C60.8778 59.9076 64.9335 54.4085 66.4456 47.929H66.4597Z" fill="#B12D36"/>
<path d="M32.4173 23.6021V19.7087C25.1396 23.0053 19.7415 29.7549 18.2859 37.8827H21.8329C23.133 31.73 27.0756 26.5435 32.4173 23.6163V23.6021Z" fill="#B12D36"/>
<path d="M72.4372 37.8686H75.9559C74.133 23.7584 63.6475 12.3481 50.0673 9.20782V12.8171C61.7257 15.8437 70.6708 25.7052 72.4372 37.8828V37.8686Z" fill="#B12D36"/>
<path d="M9.04407 37.8686H12.5628C14.202 26.5862 22.0025 17.3073 32.4173 13.5844V9.87567C20.0524 13.7833 10.754 24.6394 9.04407 37.8686Z" fill="#B12D36"/>
<path d="M81.4813 37.8686H85C83.0499 18.7709 68.6218 3.35346 50.0673 0V3.56661C66.6858 6.84902 79.5736 20.7034 81.4813 37.8686Z" fill="#B12D36"/>
<path d="M32.4173 4.1492V0.525757C15.0781 4.76021 1.85121 19.6519 0 37.8686H3.5187C5.32751 21.5844 17.0141 8.26998 32.4173 4.1492Z" fill="#B12D36"/>
<path d="M25.5777 71.6163L27.0898 68.4334C19.7556 64.0426 14.414 56.6394 12.7747 47.929H9.22778C10.9235 58.0462 17.0848 66.643 25.5777 71.6163Z" fill="#B12D36"/>
<path d="M61.4572 76.7886L62.8986 80C74.6135 73.5631 83.0075 61.7833 84.8304 47.929H81.3117C79.5312 60.3481 71.9568 70.9201 61.4572 76.7886Z" fill="#B12D36"/>
<path d="M23.2178 76.6039C12.8737 70.7069 5.44058 60.2345 3.67416 47.929H0.155457C1.96427 61.627 10.2028 73.3073 21.7057 79.7869L23.2178 76.6039Z" fill="#B12D36"/>
<path d="M63.1671 37.8686H66.714C65.0889 28.8313 58.6027 21.4849 50.0673 18.7141V22.4512C56.6667 25.0089 61.6833 30.778 63.1671 37.8686Z" fill="#B12D36"/>
<path d="M75.7722 47.929H72.2253C70.5719 56.7105 65.1737 64.1563 57.7548 68.5329L59.1962 71.7442C67.8163 66.7851 74.0623 58.1314 75.7722 47.929Z" fill="#B12D36"/>
</svg>
