<svg width="61" height="82" viewBox="0 0 61 82" fill="none" xmlns="http://www.w3.org/2000/svg">
<path d="M23.8039 60.5013C23.3403 60.5013 22.8899 60.4487 22.4395 60.3305C20.8632 59.9362 19.5253 58.8455 18.7703 57.3475C18.6245 57.0583 18.4921 56.7692 18.3596 56.467C18.2271 56.1648 18.0947 55.8757 17.949 55.5866C17.2072 54.1542 15.9488 53.5103 14.3327 53.6942L14.1605 53.7205C13.6571 53.7731 13.1537 53.8388 12.6636 53.8651C11.0078 53.9571 9.47123 53.3789 8.33203 52.2487C7.19283 51.1317 6.60999 49.6074 6.68947 47.9779C6.70271 47.5837 6.7557 47.1763 6.79544 46.7821C6.82193 46.5455 6.84843 46.2958 6.87492 46.0593C6.99414 44.6007 6.26558 43.3391 4.94093 42.6821C4.68925 42.5638 4.43757 42.4455 4.18588 42.3404C3.762 42.1564 3.33811 41.9593 2.90098 41.7228C1.57633 40.9869 0.622584 39.791 0.225189 38.3587C-0.172205 36.9263 0.0132459 35.4151 0.768295 34.1141C1.05972 33.6016 1.40413 33.1417 1.72204 32.708L2.00022 32.3269C2.92747 31.026 2.96721 29.817 2.13268 28.4109C1.96048 28.1218 1.74853 27.8327 1.5101 27.5305C1.40413 27.3859 1.29815 27.2545 1.19218 27.1099C0.105971 25.625 -0.251684 23.9035 0.18545 22.2609C0.622584 20.6183 1.78827 19.291 3.45733 18.5157C3.64278 18.4237 3.84148 18.3449 4.02693 18.266C4.45081 18.0821 4.86145 17.9112 5.19262 17.701C6.42454 16.9125 6.9544 15.9269 6.86167 14.5997C6.84843 14.3237 6.80869 14.0609 6.78219 13.7981C6.72921 13.3513 6.68947 12.9045 6.67622 12.4446C6.63648 10.8545 7.20608 9.38271 8.30554 8.292C9.40499 7.2013 10.9018 6.64938 12.4782 6.66252C13.008 6.67566 13.5511 6.72822 14.1472 6.80707C15.9752 7.05675 17.3529 6.32085 18.1079 4.66508C18.1874 4.49425 18.2536 4.32341 18.3331 4.15258C18.5053 3.77149 18.6643 3.37726 18.8762 3.00931C19.6578 1.59008 20.9294 0.604503 22.466 0.210273C24.0159 -0.170817 25.6187 0.0920033 26.9831 0.972452C27.2745 1.16957 27.5659 1.37982 27.8441 1.59008C27.9765 1.69521 28.1223 1.80034 28.2547 1.89232C29.7648 2.96989 31.1822 2.98303 32.6923 1.93175C32.8645 1.81348 33.0367 1.68207 33.2089 1.5638C33.4076 1.41925 33.6063 1.2747 33.805 1.13014C35.2356 0.131426 36.9047 -0.197099 38.4942 0.183991C40.0838 0.56508 41.4085 1.6295 42.2033 3.15386C42.3622 3.45611 42.4947 3.77149 42.6271 4.07373C42.7331 4.31027 42.8391 4.55995 42.9583 4.79649C43.7796 6.3997 45.0248 7.03047 46.8395 6.79393C47.4091 6.71508 47.9257 6.67566 48.4159 6.66252C50.0319 6.60995 51.542 7.18816 52.6547 8.27886C53.7674 9.36957 54.3503 10.8545 54.2973 12.4577C54.2973 12.8519 54.2443 13.2462 54.2046 13.6404C54.1781 13.8638 54.1516 14.0872 54.1383 14.3106C54.0059 16.1109 54.6947 17.241 56.3505 18.0032C56.5227 18.0821 56.6817 18.1478 56.8539 18.2266C57.1718 18.358 57.4764 18.5026 57.7811 18.6471C59.2912 19.4093 60.3642 20.684 60.7881 22.2215C61.2119 23.759 60.9338 25.4016 60.0065 26.8208C59.8078 27.1231 59.5959 27.4122 59.3839 27.7013C59.1852 27.9773 58.9865 28.2401 58.8011 28.5292C58.0725 29.6856 58.0858 30.8157 58.8276 32.0904C58.9998 32.3926 59.225 32.6949 59.4634 33.0103C59.6091 33.2074 59.7548 33.4045 59.8873 33.6016C60.9073 35.0603 61.2252 36.7555 60.7881 38.3587C60.3509 39.9619 59.2117 41.2628 57.5957 42.0119C57.397 42.1039 57.1983 42.1959 56.9863 42.2878C56.6022 42.4587 56.2445 42.6164 55.9266 42.7872C54.5887 43.5625 54.0191 44.5744 54.1118 45.9673C54.1251 46.2433 54.1648 46.5192 54.1913 46.7952C54.2311 47.15 54.2708 47.5048 54.284 47.8596C54.3768 49.568 53.8072 51.1317 52.668 52.275C51.5288 53.4183 49.9657 54.0096 48.2304 53.9176L47.6608 53.8519C47.3429 53.8125 47.0117 53.7862 46.6938 53.7468C44.9983 53.5366 43.6471 54.2593 42.9186 55.7968C42.8126 56.0071 42.7199 56.2305 42.6271 56.4407C42.4549 56.8218 42.296 57.2029 42.0973 57.5577C41.3555 58.9244 40.1368 59.91 38.64 60.3173C37.1431 60.7247 35.58 60.5276 34.2289 59.726C33.805 59.4763 33.4208 59.1872 33.0499 58.9244L32.6923 58.6616C31.1822 57.584 29.7781 57.5708 28.2547 58.6353C28.0825 58.7535 27.9103 58.885 27.7249 59.0164C27.5129 59.1741 27.301 59.3317 27.0758 59.4763C26.0823 60.1596 24.9166 60.5276 23.7509 60.5276L23.8039 60.5013ZM14.8493 50.9215C17.2469 50.9215 19.2869 52.1567 20.4261 54.325C20.5983 54.6535 20.7572 55.0083 20.9162 55.35C21.0354 55.6128 21.1414 55.8625 21.2738 56.1122C21.6712 56.9007 22.3335 57.4526 23.1416 57.6497C23.9496 57.86 24.8106 57.6891 25.5392 57.1766C25.7379 57.0452 25.9233 56.9007 26.122 56.7561C26.3075 56.6116 26.5062 56.4801 26.7049 56.3356C29.1952 54.601 31.9108 54.6141 34.3746 56.375L34.7587 56.651C35.0899 56.8875 35.3946 57.1241 35.6992 57.2949C36.3881 57.7023 37.1828 57.8074 37.9379 57.5971C38.6929 57.3869 39.3155 56.8875 39.6864 56.191C39.8454 55.8888 39.9779 55.5866 40.1103 55.2712C40.2163 55.0215 40.3223 54.7718 40.4415 54.5353C41.6999 51.9333 44.177 50.593 47.0647 50.9346C47.3826 50.9741 47.6873 51.0003 48.0052 51.0398L48.4423 51.0923C49.3564 51.1055 50.1644 50.8295 50.734 50.2644C51.3036 49.6862 51.595 48.8715 51.542 47.9516C51.5288 47.6362 51.489 47.334 51.4625 47.0186C51.4228 46.7032 51.3963 46.401 51.3698 46.0856C51.1976 43.6414 52.2971 41.6439 54.549 40.343C54.9994 40.0801 55.463 39.883 55.9001 39.6859C56.0856 39.6071 56.2578 39.5282 56.4432 39.4494C57.3042 39.042 57.9136 38.3849 58.1255 37.5702C58.3507 36.7555 58.1653 35.8882 57.6222 35.1128C57.5029 34.942 57.3705 34.7712 57.238 34.6003C56.9598 34.2324 56.6817 33.8513 56.43 33.4308C55.1583 31.2757 55.1716 29.0548 56.4432 27.0311C56.6552 26.6894 56.8936 26.3609 57.1453 26.0324C57.3307 25.7827 57.5029 25.5462 57.6751 25.2833C58.1653 24.5212 58.3242 23.6801 58.1123 22.9048C57.9003 22.1295 57.344 21.4725 56.5359 21.0651C56.2843 20.9337 56.0193 20.8285 55.7544 20.7103C55.569 20.6314 55.3835 20.5526 55.198 20.4606C52.4825 19.2253 51.1579 17.0045 51.3698 14.0609C51.3831 13.7981 51.4228 13.5484 51.4493 13.2856C51.489 12.9702 51.5155 12.6417 51.5288 12.3263C51.5553 11.4984 51.2638 10.7362 50.7075 10.1843C50.1511 9.63239 49.3696 9.35643 48.5218 9.36957C48.1244 9.38271 47.7006 9.42213 47.2237 9.48784C44.2432 9.89521 41.8456 8.65995 40.4812 6.01861C40.3355 5.7295 40.203 5.42726 40.0706 5.13816C39.9646 4.88848 39.8586 4.6388 39.7262 4.38912C39.3023 3.57437 38.6267 3.02245 37.8187 2.82534C37.0106 2.62822 36.1496 2.82534 35.3813 3.35098C35.2091 3.46925 35.0369 3.60066 34.8647 3.73207C34.6793 3.87662 34.4806 4.02117 34.2819 4.15258C31.8048 5.8872 29.0893 5.86091 26.6254 4.10002C26.4664 3.99489 26.3207 3.87662 26.1618 3.75835C25.9233 3.58752 25.6982 3.40354 25.4465 3.24585C24.7312 2.78591 23.9099 2.64136 23.1283 2.83848C22.3468 3.03559 21.6977 3.54809 21.3003 4.28399C21.1414 4.57309 21.0089 4.88848 20.8764 5.19072C20.797 5.38784 20.7042 5.57181 20.6248 5.76893C19.3531 8.52854 16.7833 9.92149 13.7498 9.50098C13.2597 9.43527 12.8226 9.39585 12.3987 9.38271C11.5774 9.35643 10.8091 9.65867 10.266 10.1975C9.70966 10.7494 9.41824 11.4984 9.44473 12.3263C9.44473 12.7074 9.49772 13.0885 9.53746 13.4564C9.56395 13.7587 9.60369 14.0609 9.61694 14.3632C9.7759 16.7023 8.76916 18.6471 6.67622 19.9744C6.15961 20.3029 5.62975 20.5394 5.11314 20.7497C4.94093 20.8285 4.76873 20.8942 4.59653 20.9731C3.68252 21.3936 3.05993 22.0769 2.83474 22.918C2.6228 23.7458 2.8215 24.6526 3.40434 25.4542L3.69577 25.8353C3.96069 26.1901 4.23887 26.558 4.49055 26.9654C5.89468 29.3176 5.80195 31.7093 4.23887 33.8907L3.9342 34.2981C3.64278 34.6923 3.3646 35.0734 3.15266 35.4414C2.76851 36.1116 2.66254 36.8737 2.87448 37.5833C3.07318 38.293 3.5633 38.8974 4.22562 39.2785C4.57003 39.4625 4.92769 39.6202 5.28534 39.7779C5.57676 39.9093 5.86819 40.0407 6.14636 40.1721C8.49099 41.3285 9.82888 43.6545 9.61694 46.2433C9.59045 46.5192 9.56395 46.7952 9.53746 47.0712C9.49772 47.3997 9.45798 47.7414 9.44473 48.0699C9.40499 48.9241 9.69642 49.6994 10.266 50.2644C10.8356 50.8295 11.6304 51.1186 12.4914 51.0792C12.9286 51.0529 13.3657 51.0003 13.8028 50.9609L13.9883 50.9346C14.2664 50.8952 14.5579 50.8821 14.8228 50.8821L14.8493 50.9215ZM30.5066 51.4734C18.7305 51.4734 9.12682 41.9593 9.11357 30.2507C9.11357 24.6263 11.3257 19.3042 15.3659 15.2962C19.4061 11.275 24.7577 9.06732 30.4271 9.05418H30.4536C42.2562 9.05418 51.8732 18.5289 51.8864 30.1718C51.8997 41.8936 42.3225 51.4603 30.5331 51.4734H30.5066ZM11.8953 30.2375C11.9086 40.4218 20.2539 48.7138 30.5066 48.7138H30.5331C40.7991 48.7007 49.1312 40.3824 49.1047 30.1718C49.0914 20.0401 40.7197 11.8007 30.4536 11.8007H30.4271C25.4862 11.8007 20.8367 13.7324 17.3264 17.2279C13.8161 20.7234 11.8821 25.3359 11.8953 30.2375Z" fill="#B12D36"/>
<path d="M14.5049 57.9388C14.6109 58.1622 14.7168 58.4119 14.7831 58.5564C16.3991 62.2885 19.8565 64.6013 23.7907 64.6013C25.4067 64.6013 26.9831 64.207 28.4269 63.4449C26.4664 67.6237 24.506 71.7894 22.5455 75.9551C21.8169 73.9445 21.0751 71.9471 20.3466 69.9365C19.4988 67.6237 17.949 67.1375 16.8098 67.1375C16.121 67.1375 15.5249 67.3215 15.0745 67.4792C13.0478 68.2019 11.0343 68.9378 9.0076 69.6737C10.8489 65.7577 12.6901 61.8417 14.5181 57.9256M14.8493 55.074C14.4651 55.074 14.0015 55.1135 13.4054 55.1529C12.8623 55.1923 12.6239 55.4026 12.4119 55.8625C9.88187 61.2766 7.33854 66.6776 4.79522 72.0785C4.57003 72.5516 4.38458 73.0115 4.79522 73.4715C5.00716 73.708 5.2456 73.8 5.48404 73.8C5.72247 73.8 6.00065 73.708 6.26558 73.616C9.51096 72.4333 12.7696 71.2506 16.015 70.0811C16.3461 69.9628 16.5978 69.8971 16.8098 69.8971C17.2469 69.8971 17.4853 70.1862 17.737 70.8827C18.9292 74.1285 20.1214 77.3744 21.3003 80.6333C21.4858 81.1195 21.711 81.5663 22.3336 81.5795H22.3468C22.9164 81.5795 23.1548 81.1984 23.3668 80.7385C26.5327 73.9971 29.6986 67.2558 32.891 60.475C31.9107 59.5945 31.2484 59.1609 30.5596 59.1609C29.937 59.1609 29.2879 59.5157 28.3739 60.199C28.3077 60.2385 28.2547 60.291 28.1885 60.3304C26.8109 61.3554 25.2743 61.8285 23.7907 61.8285C21.1016 61.8285 18.5583 60.2647 17.3396 57.4526C16.5051 55.534 16.2402 55.074 14.8493 55.074Z" fill="#B12D36"/>
<path d="M46.4024 58.2016L46.7203 58.8718C48.4556 62.5644 50.2439 66.349 52.0056 70.1205C50.787 69.6868 49.5815 69.2401 48.3894 68.8064L46.2037 68.0179C45.6341 67.8077 44.9585 67.5843 44.2035 67.5843C41.6999 67.5843 40.8786 69.792 40.5739 70.633L39.5275 73.4715C39.1698 74.4439 38.8122 75.4163 38.4545 76.3888C37.3153 73.9708 36.1894 71.566 35.0634 69.1481C35.7787 67.5843 36.5073 66.0468 37.2093 64.5487C38.0704 64.483 38.9711 64.4042 39.8851 64.1676C42.8258 63.4054 45.0115 61.408 46.3891 58.2016M46.1772 54.9952C45.7798 54.9952 45.4089 55.0872 45.0512 55.3763C44.5214 55.8099 44.1107 56.467 43.8326 57.1109C42.9186 59.2529 41.5012 60.9086 39.1831 61.5C38.0174 61.8022 36.759 61.7891 35.3681 61.9336C34.3613 64.0888 33.2354 66.4673 32.1359 68.859C32.03 69.0824 32.1227 69.4372 32.2287 69.6868C33.9904 73.4846 35.7787 77.2692 37.567 81.067C37.7922 81.5401 38.0041 82.0131 38.6267 82.0131H38.6929C39.3553 81.9737 39.5407 81.4743 39.7262 80.975C40.8786 77.8474 42.0178 74.7199 43.1702 71.5792C43.4882 70.6987 43.7001 70.3439 44.1902 70.3439C44.4419 70.3439 44.7731 70.4359 45.2367 70.6067C48.4688 71.7763 51.6877 72.959 54.9199 74.0891C55.0391 74.1285 55.1848 74.1548 55.3438 74.1548C55.6484 74.1548 55.9796 74.0759 56.1385 73.9183C56.3637 73.6817 56.4167 73.051 56.2578 72.7093C53.6217 67.0192 50.9459 61.3423 48.2701 55.6654C48.2039 55.5077 48.0979 55.258 47.992 55.258C47.3959 55.2054 46.7733 54.9952 46.1904 54.9952H46.1772Z" fill="#B12D36"/>
<path d="M28.2017 32.5634C29.8443 30.9208 31.3412 29.4227 32.838 27.9247C34.4938 26.2689 36.1629 24.6131 37.8319 22.9705C38.8651 21.9586 40.3752 21.9192 41.3422 22.8654C42.3755 23.8772 42.3755 25.3622 41.3025 26.4397C37.567 30.1586 33.8182 33.8776 30.0562 37.5833C29.0495 38.582 27.4997 38.5952 26.4929 37.5965C24.2013 35.3493 21.9362 33.0891 19.671 30.8288C18.6378 29.7907 18.6245 28.2532 19.6048 27.2939C20.5983 26.3215 22.0951 26.3477 23.1681 27.3859C24.7179 28.8971 26.2413 30.4215 27.7646 31.9458C27.9103 32.0904 28.003 32.2875 28.2017 32.5634Z" fill="#B12D36"/>
</svg>
