<svg width="49" height="86" viewBox="0 0 49 86" fill="none" xmlns="http://www.w3.org/2000/svg">
<path d="M12.3255 12.6291C12.3255 10.1989 12.3255 7.79524 12.3255 5.40488C12.3255 4.46201 12.3255 3.51915 12.3255 2.57628C12.3255 1.4475 12.9949 0.690548 14.1238 0.677268C17.4316 0.650709 20.7394 0.650709 24.0471 0.677268C25.0579 0.677268 25.7273 1.5139 25.7273 2.6294C25.7273 5.78999 25.7273 8.95058 25.7273 12.1112C25.7273 12.3369 25.7273 12.5627 25.7273 12.6424C27.4731 13.3728 29.1795 13.9836 30.7809 14.7937C33.1961 16.0154 35.2044 17.7418 36.4645 20.2384C37.0289 21.3805 37.3308 22.5757 37.3308 23.8505C37.3308 43.8897 37.3308 63.9157 37.3308 83.9549C37.3308 85.429 36.7008 86.0266 35.165 86.0266C26.9743 86.0266 18.7704 86.0266 10.5797 86.0266C7.74444 86.0266 4.89606 86.0266 2.06081 86.0266C0.721942 86.0266 0.0393805 85.3493 0.0393805 83.9947C0.0393805 71.286 0.0393805 58.5905 0.0393805 45.8817C0.0393805 38.8036 0.0918852 31.7122 0.0131282 24.634C-0.0262503 21.2211 1.39138 18.6448 3.9116 16.5599C6.31369 14.5679 9.13582 13.4657 12.1023 12.722C12.1548 12.7088 12.2205 12.6822 12.3386 12.6556L12.3255 12.6291ZM33.7474 82.4145V25.6831H3.59657V82.4145H33.7474ZM33.4061 22.071C33.2617 21.7922 33.1567 21.5664 33.0386 21.3672C32.0672 19.7736 30.6496 18.6714 29.022 17.8879C22.9314 14.9531 16.6834 14.8203 10.3566 16.9849C8.20386 17.7285 6.26119 18.8573 4.79105 20.6766C4.47603 21.075 4.23976 21.5398 3.9116 22.071H33.4061ZM22.1701 4.24954H15.9089V11.912H22.1701V4.24954Z" fill="#B12D36"/>
<path d="M35.4275 7.72883C36.1889 7.99442 36.7533 8.18034 37.3308 8.39282C38.289 8.73809 38.7747 9.73408 38.4597 10.6637C38.1578 11.5667 37.1864 12.0979 36.2545 11.7792C34.0624 11.0488 31.8835 10.2918 29.7177 9.5216C28.8776 9.21617 28.5232 8.60529 28.5363 7.66243C28.5363 6.79924 28.9563 6.20165 29.7308 5.93605C31.8178 5.20567 33.8918 4.48856 35.9788 3.78473C37.0421 3.42617 37.9871 3.82457 38.3547 4.75415C38.7485 5.73686 38.2497 6.77268 37.1996 7.1578C36.6745 7.34371 36.1364 7.51635 35.4407 7.74211L35.4275 7.72883Z" fill="#B12D36"/>
<path d="M43.0276 3.82456C43.0276 4.8471 42.2663 5.61733 41.2687 5.63061C40.3367 5.63061 39.4967 4.76742 39.5098 3.798C39.536 2.77545 40.2973 2.04506 41.3212 2.05834C42.3188 2.07162 43.0407 2.81529 43.0276 3.82456Z" fill="#B12D36"/>
<path d="M49 13.7048C49 14.7273 48.1993 15.5241 47.228 15.4975C46.2435 15.471 45.4691 14.6476 45.4822 13.6649C45.4953 12.6557 46.2829 11.912 47.3067 11.9386C48.2912 11.9518 49.0131 12.7088 49.0131 13.718L49 13.7048Z" fill="#B12D36"/>
<path d="M49 1.75281C49 2.77536 48.2255 3.57214 47.2542 3.57214C46.2829 3.57214 45.4953 2.76208 45.4822 1.76609C45.4822 0.783386 46.2829 -0.0134021 47.2805 0.0131575C48.2649 0.0264373 49.0131 0.783386 49.0131 1.75281H49Z" fill="#B12D36"/>
<path d="M42.3188 9.40213C41.2949 9.40213 40.573 8.64518 40.573 7.60935C40.573 6.63993 41.3737 5.84314 42.3057 5.84314C43.3032 5.84314 44.0908 6.63993 44.0908 7.62263C44.0908 8.6319 43.3164 9.40213 42.3188 9.38885V9.40213Z" fill="#B12D36"/>
<path d="M43.0276 11.6198C43.0276 12.6424 42.2794 13.4126 41.2687 13.4126C40.3105 13.4126 39.4835 12.576 39.4966 11.6066C39.5098 10.6371 40.2842 9.8669 41.2424 9.85362C42.24 9.84034 43.0145 10.6106 43.0145 11.6198H43.0276Z" fill="#B12D36"/>
<path d="M18.7048 27.9673C22.787 27.9673 26.8561 27.9673 30.9384 27.9673C32.146 27.9673 32.9073 28.6578 32.9073 29.7335C32.9073 30.8091 32.1329 31.5262 30.9515 31.5262C22.8133 31.5262 14.6751 31.5262 6.54996 31.5262C5.8674 31.5262 5.25047 31.4067 4.81731 30.8224C4.38414 30.2248 4.30539 29.5741 4.65979 28.9101C4.98795 28.286 5.52612 27.954 6.23493 27.954C9.28021 27.954 12.3255 27.954 15.3707 27.954C16.4865 27.954 17.6022 27.954 18.7179 27.954L18.7048 27.9673Z" fill="#B12D36"/>
</svg>
