<svg width="41" height="76" viewBox="0 0 41 76" fill="none" xmlns="http://www.w3.org/2000/svg">
<path d="M18.0552 75.3612C8.10465 75.3612 0 67.2139 0 57.1837C0 50.8701 3.25164 45.0366 8.55695 41.726V9.8137C8.55695 4.53396 12.811 0.251099 18.0552 0.251099C23.2993 0.251099 27.5534 4.53396 27.5534 9.8137V41.7383C32.8587 45.0489 36.1103 50.8824 36.1103 57.196C36.1103 67.214 28.0179 75.3735 18.0552 75.3735V75.3612ZM18.0552 3.27864C14.4857 3.27864 11.5763 6.20773 11.5763 9.8014L11.6008 43.4859L10.8062 43.9289C6.00209 46.5996 3.01938 51.6824 3.01938 57.196C3.01938 65.5402 9.76714 72.3337 18.0552 72.3337C26.3432 72.3337 33.0909 65.5402 33.0909 57.196C33.0909 51.6824 30.1082 46.5996 25.3041 43.9289L24.5095 43.4859L24.534 42.4152V9.8137C24.534 6.22003 21.6246 3.29095 18.0552 3.29095V3.27864Z" fill="#B12D36"/>
<path d="M18.0552 64.9002C12.8232 64.9002 8.55695 60.6174 8.55695 55.3376C8.55695 50.0579 12.811 45.775 18.0552 45.775C23.2993 45.775 27.5534 50.0579 27.5534 55.3376C27.5534 60.6174 23.2993 64.9002 18.0552 64.9002ZM18.0552 48.8149C14.4857 48.8149 11.5763 51.744 11.5763 55.3376C11.5763 58.9313 14.4857 61.8604 18.0552 61.8604C21.6246 61.8604 24.534 58.9313 24.534 55.3376C24.534 51.744 21.6246 48.8149 18.0552 48.8149Z" fill="#B12D36"/>
<path d="M18.0552 48.8148C17.2239 48.8148 16.5516 48.1379 16.5516 47.3011V25.0868C16.5516 24.2499 17.2239 23.573 18.0552 23.573C18.8864 23.573 19.5587 24.2499 19.5587 25.0868V47.3011C19.5587 48.1379 18.8864 48.8148 18.0552 48.8148Z" fill="#B12D36"/>
<path d="M39.4964 13.715H30.8783C30.0471 13.715 29.3748 13.0382 29.3748 12.2013C29.3748 11.3644 30.0471 10.6875 30.8783 10.6875H39.4964C40.3276 10.6875 41 11.3644 41 12.2013C41 13.0382 40.3276 13.715 39.4964 13.715Z" fill="#B12D36"/>
<path d="M38.274 20.3239H32.003C31.294 20.3239 30.7194 19.7455 30.7194 19.0317C30.7194 18.3179 31.294 17.7394 32.003 17.7394H38.274C38.983 17.7394 39.5575 18.3179 39.5575 19.0317C39.5575 19.7455 38.983 20.3239 38.274 20.3239Z" fill="#B12D36"/>
<path d="M39.4964 27.3759H30.8783C30.0471 27.3759 29.3748 26.699 29.3748 25.8622C29.3748 25.0253 30.0471 24.3484 30.8783 24.3484H39.4964C40.3276 24.3484 41 25.0253 41 25.8622C41 26.699 40.3276 27.3759 39.4964 27.3759Z" fill="#B12D36"/>
<path d="M38.274 33.9848H32.003C31.294 33.9848 30.7194 33.4064 30.7194 32.6926C30.7194 31.9788 31.294 31.4003 32.003 31.4003H38.274C38.983 31.4003 39.5575 31.9788 39.5575 32.6926C39.5575 33.4064 38.983 33.9848 38.274 33.9848Z" fill="#B12D36"/>
<path d="M39.4964 41.0245H30.8783C30.0471 41.0245 29.3748 40.3476 29.3748 39.5107C29.3748 38.6738 30.0471 37.9969 30.8783 37.9969H39.4964C40.3276 37.9969 41 38.6738 41 39.5107C41 40.3476 40.3276 41.0245 39.4964 41.0245Z" fill="#B12D36"/>
</svg>
