<svg width="85" height="80" viewBox="0 0 85 80" fill="none" xmlns="http://www.w3.org/2000/svg">
<path d="M32.123 42.4679C32.123 36.7586 36.7803 32.104 42.493 32.104C48.2056 32.104 52.8629 36.7586 52.8629 42.4679C52.8629 46.3491 50.7101 49.7381 47.5443 51.5099L49.092 54.477C53.3273 52.1427 56.2117 47.6287 56.2117 42.4538C56.2117 34.8884 50.0629 28.7432 42.493 28.7432C34.923 28.7432 28.7742 34.8884 28.7742 42.4538C28.7742 47.6006 31.6305 52.1005 35.8517 54.4348L37.4276 51.4818C34.2617 49.7099 32.123 46.3209 32.123 42.4538V42.4679Z" fill="#B12D36"/>
<path d="M50.1895 42.4679C50.1895 38.2211 46.7423 34.7759 42.493 34.7759C38.2437 34.7759 34.7964 38.2211 34.7964 42.4679C34.7964 46.7147 38.2437 50.16 42.493 50.16C46.7423 50.16 50.1895 46.7147 50.1895 42.4679ZM42.493 46.8131C40.101 46.8131 38.1452 44.8585 38.1452 42.4679C38.1452 40.0773 40.101 38.1227 42.493 38.1227C44.8849 38.1227 46.8408 40.0773 46.8408 42.4679C46.8408 44.8585 44.8849 46.8131 42.493 46.8131Z" fill="#B12D36"/>
<path d="M66.3988 42.4679C66.3988 29.2916 55.677 18.5762 42.493 18.5762C29.3089 18.5762 18.5872 29.2916 18.5872 42.4679C18.5872 51.4958 23.6244 59.3707 31.0396 63.4347L32.6155 60.4816C26.2556 56.9801 21.9359 50.2302 21.9359 42.4679C21.9359 31.1337 31.1521 21.923 42.493 21.923C53.8338 21.923 63.05 31.1337 63.05 42.4679C63.05 50.2724 58.6741 57.0645 52.2438 60.5519L53.7916 63.519C61.2912 59.4832 66.3988 51.5662 66.3988 42.4679Z" fill="#B12D36"/>
<path d="M42.493 0C19.0656 0 0 19.0543 0 42.4679C0 58.5692 9.0192 72.6173 22.2736 79.8172L23.8495 76.8641C11.6504 70.2268 3.34878 57.3036 3.34878 42.4679C3.34878 20.8965 20.9088 3.34681 42.493 3.34681C64.0771 3.34681 81.6371 20.8965 81.6371 42.4679C81.6371 57.4301 73.1948 70.4518 60.8128 77.0329L62.3605 80C75.812 72.8564 84.9859 58.7239 84.9859 42.4679C85 19.0543 65.9344 0 42.493 0Z" fill="#B12D36"/>
<path d="M75.4461 42.4679C75.4461 24.3136 60.6721 9.54828 42.507 9.54828C24.342 9.54828 9.55389 24.3136 9.55389 42.4679C9.55389 54.9411 16.5329 65.8112 26.7762 71.3939L28.3521 68.4409C19.15 63.4207 12.8886 53.6615 12.8886 42.4679C12.8886 26.1558 26.1712 12.8951 42.4789 12.8951C58.7866 12.8951 72.0692 26.1698 72.0692 42.4679C72.0692 53.7459 65.7093 63.5753 56.3946 68.5674L57.9424 71.5346C68.3405 65.994 75.4321 55.0396 75.4321 42.4679H75.4461Z" fill="#B12D36"/>
</svg>
