<svg width="81" height="81" viewBox="0 0 81 81" fill="none" xmlns="http://www.w3.org/2000/svg">
<path d="M40.4934 81C18.164 81 0 62.836 0 40.4934C0 18.1509 18.164 0 40.4934 0C62.8228 0 80.9868 18.164 80.9868 40.4934C80.9868 62.8228 62.8228 80.9868 40.4934 80.9868V81ZM40.4934 2.63629C19.6272 2.63629 2.63629 19.6272 2.63629 40.4934C2.63629 61.3596 19.6272 78.3505 40.4934 78.3505C61.3596 78.3505 78.3505 61.3596 78.3505 40.4934C78.3505 19.6272 61.3728 2.63629 40.4934 2.63629Z" fill="#C50C33"/>
<path d="M69.3476 15.3169H60.6479C59.9229 15.3169 59.3297 14.7237 59.3297 13.9987C59.3297 13.2737 59.9229 12.6806 60.6479 12.6806H68.0295V5.20669C68.0295 4.48172 68.6226 3.88855 69.3476 3.88855C70.0726 3.88855 70.6658 4.48172 70.6658 5.20669V13.9987C70.6658 14.7237 70.0726 15.3169 69.3476 15.3169Z" fill="#C50C33"/>
<path d="M11.5206 77.5464C10.7956 77.5464 10.2025 76.9533 10.2025 76.2283V66.8563C10.2025 66.1313 10.7956 65.5381 11.5206 65.5381H21.644C22.3689 65.5381 22.9621 66.1313 22.9621 66.8563C22.9621 67.5813 22.3689 68.1744 21.644 68.1744H12.8387V76.2283C12.8387 76.9533 12.2456 77.5464 11.5206 77.5464Z" fill="#C50C33"/>
<path d="M41.1525 62.2164C40.4275 62.2164 39.8343 61.6233 39.8343 60.8983V51.6317C17.3863 50.999 16.5427 37.2903 16.0945 29.8033C16.0286 28.8146 15.9759 27.8788 15.8836 27.1142C15.8046 26.5079 16.1604 25.9279 16.7273 25.7038C16.8854 25.6511 32.0705 20.2072 41.1261 35.3658C43.591 30.726 50.1554 22.1844 64.3255 24.7416C64.8527 24.8338 65.2613 25.2293 65.38 25.7434C65.4722 26.1784 67.6735 36.3281 61.7287 43.8942C57.8138 48.8768 51.3549 51.4736 42.5233 51.6185H42.4838V60.8719C42.4838 61.5969 41.8906 62.1901 41.1657 62.1901L41.1525 62.2164ZM42.4706 38.7666V49.0086C50.4586 48.8768 56.2452 46.6096 59.646 42.2861C63.9037 36.8817 63.3105 29.6583 62.9414 27.2065C47.6509 24.9525 43.0374 37.0794 42.4706 38.7666ZM18.599 27.8919C18.6386 28.4456 18.6781 29.0387 18.7177 29.6451C19.179 37.1849 19.8776 48.4286 39.8343 48.9954V38.5689C39.8343 38.5689 39.8343 38.4898 39.8343 38.4503C39.7684 38.3712 39.7157 38.2921 39.6762 38.213C32.9536 25.282 21.9339 27.022 18.599 27.9051V27.8919Z" fill="#C50C33"/>
<path d="M40.8493 51.6449C40.4934 51.6449 40.1507 51.4999 39.8871 51.2363L23.9639 34.3245C23.463 33.7972 23.4893 32.9536 24.0166 32.4659C24.5438 31.965 25.3743 31.9914 25.8752 32.5186L41.7984 49.4304C42.2993 49.9577 42.2729 50.8013 41.7456 51.289C41.4952 51.5263 41.1656 51.6449 40.8361 51.6449H40.8493Z" fill="#C50C33"/>
<path d="M41.6006 51.0518C41.2843 51.0518 40.9679 50.9331 40.7175 50.7091C40.177 50.2213 40.1375 49.3909 40.6252 48.8505L51.1176 37.3167C51.6054 36.7763 52.4358 36.7367 52.9762 37.2244C53.5167 37.7121 53.5562 38.5426 53.0685 39.083L42.5761 50.6168C42.3124 50.9068 41.9565 51.0518 41.6006 51.0518Z" fill="#C50C33"/>
<path d="M56.7725 35.2999C55.6521 35.2999 54.7294 34.3772 54.7294 33.2568C54.7294 32.1364 55.6521 31.2137 56.7725 31.2137C57.8929 31.2137 58.8156 32.1364 58.8156 33.2568C58.8156 34.3772 57.8929 35.2999 56.7725 35.2999ZM56.7725 32.6636C56.443 32.6636 56.1793 32.9273 56.1793 33.2568C56.1793 33.5863 56.443 33.85 56.7725 33.85C57.102 33.85 57.3657 33.5863 57.3657 33.2568C57.3657 32.9273 57.102 32.6636 56.7725 32.6636Z" fill="#C50C33"/>
</svg>
