<svg width="83" height="84" viewBox="0 0 83 84" fill="none" xmlns="http://www.w3.org/2000/svg">
<g clip-path="url(#clip0_6_667)">
<path d="M1.2738 84.0001C0.878923 84.0001 0.496787 83.8224 0.24203 83.4798C-0.140107 82.9595 -0.0636794 82.2234 0.42036 81.7919L30.5327 54.6337L21.285 49.3163C20.9029 49.1006 20.6608 48.6818 20.6481 48.2376C20.6354 47.7934 20.8647 47.3746 21.2468 47.1335L43.0413 33.4529L33.87 28.4528C33.4624 28.237 33.2076 27.8055 33.2076 27.3487C33.2076 26.8918 33.4624 26.4603 33.87 26.2319L81.1148 0.152406C81.6753 -0.152171 82.3631 -0.0125732 82.7452 0.495056C83.1274 1.00269 83.0764 1.71337 82.6306 2.15754L57.4224 27.1456L65.3835 32.3234C65.7529 32.5646 65.9695 32.9707 65.9567 33.4021C65.944 33.8336 65.7274 34.2397 65.358 34.4682L42.4171 48.5803L51.2317 53.2758C51.6394 53.4916 51.8941 53.9104 51.9069 54.3799C51.9196 54.8495 51.6648 55.2683 51.27 55.4967L1.91069 83.8351C1.70689 83.9493 1.49034 84.0001 1.2738 84.0001ZM24.3803 48.1742L33.3223 53.3012C33.679 53.5043 33.9082 53.8596 33.9464 54.2657C33.9847 54.6718 33.8318 55.0652 33.5388 55.3444L10.9546 75.7131L47.9963 54.4561L39.2581 49.7986C38.8505 49.5828 38.5958 49.1767 38.583 48.7199C38.5703 48.263 38.7996 47.8442 39.1817 47.6031L62.301 33.3768L54.7092 28.4401C54.3907 28.2243 54.1742 27.8944 54.136 27.5009C54.0978 27.1202 54.2379 26.7395 54.5054 26.473L74.351 6.80235L37.1182 27.3613L46.1621 32.2854C46.5569 32.5011 46.8117 32.9072 46.8244 33.3641C46.8372 33.8082 46.6079 34.2397 46.2258 34.4809L24.3803 48.1869V48.1742Z" fill="#C50C33"/>
<path d="M48.7606 67.0705C48.353 67.0705 47.9581 66.8802 47.7161 66.5248C47.3212 65.9538 47.4613 65.1542 48.0345 64.7608L55.6645 59.5069C56.2377 59.1135 57.0402 59.2531 57.4351 59.8241C57.8299 60.3952 57.6898 61.1947 57.1166 61.5881L49.4866 66.8421C49.2701 66.9944 49.0153 67.0705 48.7606 67.0705Z" fill="#C50C33"/>
<path d="M21.7308 40.5977C21.3232 40.5977 20.9283 40.4073 20.6863 40.052C20.2914 39.4682 20.4315 38.6814 21.0175 38.288L28.9787 32.8183C29.5519 32.4249 30.3544 32.5645 30.7492 33.1355C31.1441 33.7193 31.004 34.5061 30.418 34.8995L22.4569 40.3693C22.2403 40.5215 21.9856 40.5977 21.7308 40.5977Z" fill="#C50C33"/>
<path d="M60.8106 60.6998C59.2693 60.6998 58.021 59.4561 58.021 57.9205C58.021 56.3849 59.2693 55.1412 60.8106 55.1412C62.3519 55.1412 63.6002 56.3849 63.6002 57.9205C63.6002 59.4561 62.3519 60.6998 60.8106 60.6998ZM60.8106 57.6794C60.6832 57.6794 60.5686 57.7809 60.5686 57.9205C60.5686 58.187 61.0526 58.187 61.0526 57.9205C61.0526 57.7936 60.9507 57.6794 60.8106 57.6794Z" fill="#C50C33"/>
<path d="M16.7376 44.8364C15.3237 44.8364 14.1773 43.6942 14.1773 42.2855C14.1773 40.8768 15.3237 39.7347 16.7376 39.7347C18.1515 39.7347 19.2979 40.8768 19.2979 42.2855C19.2979 43.6942 18.1515 44.8364 16.7376 44.8364ZM16.7376 42.2601H16.7503C16.7503 42.2601 16.7503 42.2601 16.7376 42.2601Z" fill="#C50C33"/>
</g>
<defs>
<clipPath id="clip0_6_667">
<rect width="83" height="84" fill="white"/>
</clipPath>
</defs>
</svg>
