<svg width="93" height="75" viewBox="0 0 93 75" fill="none" xmlns="http://www.w3.org/2000/svg">
<g clip-path="url(#clip0_59_4)">
<path d="M81.4912 61.8824H23.7603C17.8901 61.8824 13.1086 57.103 13.1086 51.2353V23.7647C13.1086 17.8971 17.8901 13.1177 23.7603 13.1177H81.4912C87.3614 13.1177 92.1429 17.8971 92.1429 23.7647V51.2353C92.1429 57.103 87.3614 61.8824 81.4912 61.8824ZM23.7603 16.0441C19.5085 16.0441 16.0511 19.5 16.0511 23.75V51.2206C16.0511 55.4706 19.5085 58.9265 23.7603 58.9265H81.4912C85.743 58.9265 89.2004 55.4706 89.2004 51.2206V23.7647C89.2004 19.5147 85.743 16.0589 81.4912 16.0589H23.7603V16.0441Z" fill="#C50C33"/>
<path d="M12.1965 26.2353H1.89788C0.853311 26.2353 0 25.3823 0 24.3382C0 23.2941 0.853311 22.4412 1.89788 22.4412H12.1817C13.2263 22.4412 14.0796 23.2941 14.0796 24.3382C14.0796 25.3823 13.2263 26.2353 12.1817 26.2353H12.1965Z" fill="#C50C33"/>
<path d="M14.3739 29.956H12.7114C9.5924 29.956 7.06189 27.4266 7.06189 24.3089C7.06189 21.1913 9.5924 18.6619 12.7114 18.6619H14.3739C15.1831 18.6619 15.8451 19.3236 15.8451 20.1325V28.4854C15.8451 29.2942 15.1831 29.956 14.3739 29.956ZM12.7114 21.603C11.2107 21.603 10.0043 22.8236 10.0043 24.3089C10.0043 25.7942 11.2255 27.0148 12.7114 27.0148H12.9027V21.603H12.7114Z" fill="#C50C33"/>
<path d="M12.1965 46.7499H1.89788C0.853311 46.7499 0 45.897 0 44.8529C0 43.8088 0.853311 42.9558 1.89788 42.9558H12.1817C13.2263 42.9558 14.0796 43.8088 14.0796 44.8529C14.0796 45.897 13.2263 46.7499 12.1817 46.7499H12.1965Z" fill="#C50C33"/>
<path d="M14.3739 50.4706H12.7114C9.5924 50.4706 7.06189 47.9412 7.06189 44.8236C7.06189 41.7059 9.5924 39.1765 12.7114 39.1765H14.3739C15.1831 39.1765 15.8451 39.8383 15.8451 40.6471V49C15.8451 49.8089 15.1831 50.4706 14.3739 50.4706ZM12.7114 42.1177C11.2107 42.1177 10.0043 43.3383 10.0043 44.8236C10.0043 46.3089 11.2255 47.5295 12.7114 47.5295H12.9027V42.1177H12.7114Z" fill="#C50C33"/>
<path d="M70.7953 14.0882C69.7508 14.0882 68.8975 13.2353 68.8975 12.1912V1.89706C68.8975 0.852941 69.7508 0 70.7953 0C71.8399 0 72.6932 0.852941 72.6932 1.89706V12.1765C72.6932 13.2206 71.8399 14.0735 70.7953 14.0735V14.0882Z" fill="#C50C33"/>
<path d="M75.0031 15.8382H66.6465C65.8373 15.8382 65.1753 15.1765 65.1753 14.3677V12.7059C65.1753 9.58825 67.7058 7.05884 70.8248 7.05884C73.9438 7.05884 76.4743 9.58825 76.4743 12.7059V14.3677C76.4743 15.1765 75.8123 15.8382 75.0031 15.8382ZM68.1177 12.8971H73.5319V12.7059C73.5319 11.2059 72.3107 10 70.8248 10C69.3389 10 68.1177 11.2206 68.1177 12.7059V12.8971Z" fill="#C50C33"/>
<path d="M38.7374 14.0882C37.6928 14.0882 36.8395 13.2353 36.8395 12.1912V1.89706C36.8395 0.852941 37.6928 0 38.7374 0C39.7819 0 40.6352 0.852941 40.6352 1.89706V12.1765C40.6352 13.2206 39.7819 14.0735 38.7374 14.0735V14.0882Z" fill="#C50C33"/>
<path d="M42.9451 15.8382H34.5885C33.7794 15.8382 33.1173 15.1765 33.1173 14.3677V12.7059C33.1173 9.58825 35.6478 7.05884 38.7668 7.05884C41.8858 7.05884 44.4163 9.58825 44.4163 12.7059V14.3677C44.4163 15.1765 43.7543 15.8382 42.9451 15.8382ZM36.0598 12.8971H41.4739V12.7059C41.4739 11.2059 40.2528 10 38.7668 10C37.2809 10 36.0598 11.2206 36.0598 12.7059V12.8971Z" fill="#C50C33"/>
<path d="M71.2956 75.0001C70.251 75.0001 69.3977 74.1472 69.3977 73.103V62.8089C69.3977 61.7648 70.251 60.9119 71.2956 60.9119C72.3402 60.9119 73.1935 61.7648 73.1935 62.8089V73.103C73.1935 74.1472 72.3402 75.0001 71.2956 75.0001Z" fill="#C50C33"/>
<path d="M71.2514 67.9413C68.1324 67.9413 65.6019 65.4119 65.6019 62.2942V60.6325C65.6019 59.8236 66.264 59.1619 67.0732 59.1619H75.4297C76.2389 59.1619 76.9009 59.8236 76.9009 60.6325V62.2942C76.9009 65.4119 74.3704 67.9413 71.2514 67.9413ZM68.5444 62.103V62.2942C68.5444 63.7942 69.7655 65.0001 71.2514 65.0001C72.7374 65.0001 73.9585 63.7795 73.9585 62.2942V62.103H68.5444Z" fill="#C50C33"/>
<path d="M80.8292 26.2354H25.0697C24.2606 26.2354 23.5985 25.5736 23.5985 24.7648C23.5985 23.956 24.2606 23.2942 25.0697 23.2942H80.8292C81.6384 23.2942 82.3004 23.956 82.3004 24.7648C82.3004 25.5736 81.6384 26.2354 80.8292 26.2354Z" fill="#C50C33"/>
<path d="M80.8292 36.647H25.0697C24.2606 36.647 23.5985 35.9852 23.5985 35.1764C23.5985 34.3676 24.2606 33.7058 25.0697 33.7058H80.8292C81.6384 33.7058 82.3004 34.3676 82.3004 35.1764C82.3004 35.9852 81.6384 36.647 80.8292 36.647Z" fill="#C50C33"/>
<path d="M80.8292 47.0442H25.0697C24.2606 47.0442 23.5985 46.3824 23.5985 45.5736C23.5985 44.7648 24.2606 44.103 25.0697 44.103H80.8292C81.6384 44.103 82.3004 44.7648 82.3004 45.5736C82.3004 46.3824 81.6384 47.0442 80.8292 47.0442Z" fill="#C50C33"/>
</g>
<defs>
<clipPath id="clip0_59_4">
<rect width="92.1429" height="75" fill="white"/>
</clipPath>
</defs>
</svg>
