<svg width="57" height="93" viewBox="0 0 57 93" fill="none" xmlns="http://www.w3.org/2000/svg">
<path d="M10.3418 87.4793C11.2289 89.4845 12.7678 90.6693 14.9222 90.961C15.6463 91.0521 16.3705 91.0339 17.1852 91.0886V92.0182H20.4982V90.8881H21.168C26.1648 90.8881 31.1615 90.8881 36.1582 90.8881C36.7194 90.8881 36.8461 91.0703 36.8461 91.599V92.0365H39.6703V91.7995C39.6703 91.5078 39.6885 91.2162 39.7066 90.8881C40.3402 90.8881 40.9195 90.9245 41.4808 90.8881C43.8162 90.7058 45.6266 89.6485 46.6223 87.4611C48.6318 83.0497 50.5871 78.6202 52.5604 74.1906C54.6605 69.4694 56.0002 64.5841 56.0002 59.3707C56.0002 50.5845 56.0183 16.2964 56.0002 7.5102C55.964 3.31761 52.7415 0.0182287 48.7043 0C35.2349 0 21.7836 0 8.3142 0C6.9745 0 5.70722 0.364573 4.56666 1.09372C2.17693 2.62493 1.00017 4.84882 1.00017 7.67426C1.00017 16.2782 0.982069 50.4022 1.00017 59.0061C1.00017 60.8655 1.145 62.7248 1.41657 64.5659C1.99589 68.6491 3.60715 72.4042 5.29082 76.1228C6.9926 79.8962 8.64007 83.6877 10.3056 87.4611L10.3418 87.4793ZM4.2951 8.14821C4.2951 7.3826 4.13217 6.63523 4.43994 5.88785C5.1641 4.19259 6.61242 3.20824 8.53144 3.20824C15.1756 3.20824 21.8379 3.20824 28.4821 3.20824C35.1262 3.20824 41.7885 3.20824 48.4327 3.20824C50.6414 3.20824 52.3432 4.59362 52.7414 6.68992C52.7958 6.96335 52.8139 7.23677 52.8139 7.5102C52.8139 16.424 52.8139 50.8762 52.8139 59.79C52.8139 63.3446 52.0716 66.7715 50.7319 70.0345C49.0301 74.1724 47.1835 78.2374 45.4093 82.3388C44.8843 83.5419 44.3774 84.7268 43.9067 85.9663C43.436 87.2423 42.4946 87.8074 41.2454 87.8256C39.0186 87.8621 36.7918 87.8256 34.5831 87.8256C28.5183 87.8256 22.4534 87.8256 16.4067 87.8256C15.936 87.8256 15.4472 87.7892 15.0127 87.6616C14.2885 87.4428 13.7273 87.0236 13.4014 86.2944C11.3557 81.6461 9.29181 76.9978 7.22795 72.3495C5.27272 67.9382 4.2951 63.3446 4.31321 58.514C4.34942 50.2382 4.31321 16.424 4.31321 8.14821H4.2951Z" fill="#C50C33"/>
<path d="M28.4276 8.56738C34.1665 8.56738 39.9236 8.56738 45.6626 8.56738C47.1652 8.56738 47.654 9.04133 47.654 10.5543C47.654 17.9734 47.5997 50.8943 47.6721 58.3134C47.7083 62.4148 46.9299 66.2975 45.1919 69.9979C44.9203 70.563 44.6669 71.1463 44.4134 71.7297C43.997 72.7505 43.653 72.9874 42.5306 72.9874C37.8236 72.9874 33.1165 72.9874 28.4095 72.9874C23.7205 72.9874 19.0316 72.9874 14.3607 72.9874C13.1297 72.9874 12.84 72.7869 12.3512 71.6567C11.7538 70.2167 11.0658 68.7948 10.5408 67.3365C9.56318 64.6569 9.14679 61.868 9.14679 59.0061C9.14679 51.3682 9.14679 18.2286 9.14679 10.5908C9.14679 9.0231 9.61749 8.56738 11.1563 8.56738C16.8953 8.56738 22.6524 8.56738 28.3914 8.56738H28.4276ZM12.315 11.6116C12.315 11.9032 12.315 12.1402 12.315 12.3772C12.315 19.0306 12.3874 51.2224 12.2969 57.8759C12.2426 61.8497 13.0029 65.5866 14.7409 69.1412C14.9401 69.5422 15.1392 69.6698 15.5737 69.6698C21.6567 69.6698 27.7396 69.6698 33.8226 69.6698C36.3209 69.6698 38.8193 69.6698 41.3176 69.6698C41.5349 69.6698 41.8788 69.5422 41.9694 69.3599C43.5263 66.0788 44.5401 62.6518 44.522 58.9514C44.4858 51.8969 44.522 19.3223 44.522 12.2678C44.522 12.0673 44.5039 11.8485 44.4858 11.6298H12.3331L12.315 11.6116Z" fill="#C50C33"/>
<path d="M33.37 80.4249C33.37 83.0863 31.1794 85.3284 28.5362 85.3284C25.8568 85.3284 23.6481 83.141 23.63 80.4431C23.6119 77.7635 25.8387 75.5032 28.5 75.5032C31.1794 75.5032 33.37 77.7088 33.3881 80.4249H33.37ZM28.5181 78.6932C27.5948 78.6932 26.8163 79.4223 26.7801 80.352C26.7439 81.2999 27.5043 82.1019 28.4638 82.1202C29.4233 82.1202 30.2017 81.3546 30.2017 80.4067C30.2017 79.4953 29.4233 78.6932 28.5181 78.6932Z" fill="#C50C33"/>
<path d="M39.8331 15.8042H16.841C16.3211 15.8042 15.8996 16.2286 15.8996 16.7521C15.8996 17.2756 16.3211 17.7 16.841 17.7H39.8331C40.353 17.7 40.7745 17.2756 40.7745 16.7521C40.7745 16.2286 40.353 15.8042 39.8331 15.8042Z" fill="#C50C33"/>
<path d="M39.8331 20.9812H16.841C16.3211 20.9812 15.8996 21.4056 15.8996 21.9291C15.8996 22.4526 16.3211 22.877 16.841 22.877H39.8331C40.353 22.877 40.7745 22.4526 40.7745 21.9291C40.7745 21.4056 40.353 20.9812 39.8331 20.9812Z" fill="#C50C33"/>
<path d="M39.8331 26.1582H16.841C16.3211 26.1582 15.8996 26.5826 15.8996 27.1061C15.8996 27.6296 16.3211 28.054 16.841 28.054H39.8331C40.353 28.054 40.7745 27.6296 40.7745 27.1061C40.7745 26.5826 40.353 26.1582 39.8331 26.1582Z" fill="#C50C33"/>
<path d="M39.8331 31.335H16.841C16.3211 31.335 15.8996 31.7593 15.8996 32.2828C15.8996 32.8064 16.3211 33.2307 16.841 33.2307H39.8331C40.353 33.2307 40.7745 32.8064 40.7745 32.2828C40.7745 31.7593 40.353 31.335 39.8331 31.335Z" fill="#C50C33"/>
<path d="M18.398 43.2019H18.3798C17.01 43.2019 15.8996 44.32 15.8996 45.6992V45.7175C15.8996 47.0967 17.01 48.2148 18.3798 48.2148H18.398C19.7678 48.2148 20.8782 47.0967 20.8782 45.7175V45.6992C20.8782 44.32 19.7678 43.2019 18.398 43.2019Z" fill="#C50C33"/>
<path d="M26.237 43.2019H26.2189C24.8491 43.2019 23.7386 44.32 23.7386 45.6992V45.7175C23.7386 47.0967 24.8491 48.2148 26.2189 48.2148H26.237C27.6068 48.2148 28.7173 47.0967 28.7173 45.7175V45.6992C28.7173 44.32 27.6068 43.2019 26.237 43.2019Z" fill="#C50C33"/>
<path d="M34.0399 43.2019H34.0218C32.6519 43.2019 31.5415 44.32 31.5415 45.6992V45.7175C31.5415 47.0967 32.6519 48.2148 34.0218 48.2148H34.0399C35.4097 48.2148 36.5201 47.0967 36.5201 45.7175V45.6992C36.5201 44.32 35.4097 43.2019 34.0399 43.2019Z" fill="#C50C33"/>
<path d="M21.3127 50.4568H21.2946C19.9248 50.4568 18.8143 51.5749 18.8143 52.9541V52.9723C18.8143 54.3516 19.9248 55.4697 21.2946 55.4697H21.3127C22.6825 55.4697 23.7929 54.3516 23.7929 52.9723V52.9541C23.7929 51.5749 22.6825 50.4568 21.3127 50.4568Z" fill="#C50C33"/>
<path d="M29.1699 50.4568H29.1518C27.782 50.4568 26.6715 51.5749 26.6715 52.9541V52.9723C26.6715 54.3516 27.782 55.4697 29.1518 55.4697H29.1699C30.5397 55.4697 31.6501 54.3516 31.6501 52.9723V52.9541C31.6501 51.5749 30.5397 50.4568 29.1699 50.4568Z" fill="#C50C33"/>
<path d="M36.9727 50.4568H36.9546C35.5848 50.4568 34.4743 51.5749 34.4743 52.9541V52.9723C34.4743 54.3516 35.5848 55.4697 36.9546 55.4697H36.9727C38.3425 55.4697 39.4529 54.3516 39.4529 52.9723V52.9541C39.4529 51.5749 38.3425 50.4568 36.9727 50.4568Z" fill="#C50C33"/>
<path d="M18.398 58.4045H18.3798C17.01 58.4045 15.8996 59.5226 15.8996 60.9019V60.9201C15.8996 62.2993 17.01 63.4174 18.3798 63.4174H18.398C19.7678 63.4174 20.8782 62.2993 20.8782 60.9201V60.9019C20.8782 59.5226 19.7678 58.4045 18.398 58.4045Z" fill="#C50C33"/>
<path d="M26.2551 58.4045H26.237C24.8672 58.4045 23.7568 59.5226 23.7568 60.9019V60.9201C23.7568 62.2993 24.8672 63.4174 26.237 63.4174H26.2551C27.6249 63.4174 28.7354 62.2993 28.7354 60.9201V60.9019C28.7354 59.5226 27.6249 58.4045 26.2551 58.4045Z" fill="#C50C33"/>
<path d="M34.0579 58.4045H34.0398C32.67 58.4045 31.5596 59.5226 31.5596 60.9019V60.9201C31.5596 62.2993 32.67 63.4174 34.0398 63.4174H34.0579C35.4277 63.4174 36.5382 62.2993 36.5382 60.9201V60.9019C36.5382 59.5226 35.4277 58.4045 34.0579 58.4045Z" fill="#C50C33"/>
</svg>
