<svg width="81" height="54" viewBox="0 0 81 54" fill="none" xmlns="http://www.w3.org/2000/svg">
<g clip-path="url(#clip0_59_1418)">
<path d="M70.51 53.05H10.06C4.51 53.05 0 48.54 0 42.99V10.06C0 4.51 4.51 0 10.06 0H70.51C76.06 0 80.57 4.51 80.57 10.06V42.99C80.57 48.54 76.06 53.05 70.51 53.05ZM10.06 2C5.61 2 2 5.62 2 10.06V42.99C2 47.43 5.61 51.05 10.06 51.05H70.51C74.95 51.05 78.57 47.44 78.57 42.99V10.06C78.57 5.62 74.96 2 70.51 2H10.06Z" fill="#C50C33"/>
<path d="M57.95 44.7799H22.05C17.83 44.7799 14.4 41.3499 14.4 37.1299V14.5399C14.4 10.3199 17.83 6.88989 22.05 6.88989H57.95C62.17 6.88989 65.6 10.3199 65.6 14.5399V37.1399C65.6 41.3599 62.17 44.7899 57.95 44.7899V44.7799ZM22.05 8.88989C18.93 8.88989 16.4 11.4199 16.4 14.5399V37.1399C16.4 40.2599 18.93 42.7899 22.05 42.7899H57.95C61.07 42.7899 63.6 40.2599 63.6 37.1399V14.5399C63.6 11.4199 61.07 8.88989 57.95 8.88989H22.05Z" fill="#C50C33"/>
<path d="M30.56 35.63C30.56 35.63 30.53 35.63 30.52 35.63C30.09 35.61 29.72 35.33 29.6 34.92L25.21 20.24L24.29 24.73C24.19 25.2 23.79 25.53 23.31 25.53H15.4C14.85 25.53 14.4 25.08 14.4 24.53C14.4 23.98 14.85 23.53 15.4 23.53H22.5L24.05 15.94C24.14 15.49 24.53 15.16 24.99 15.14C25.44 15.11 25.86 15.41 25.99 15.85L30.68 31.55L35.54 19.01C35.69 18.63 36.04 18.38 36.44 18.37C36.84 18.36 37.21 18.59 37.38 18.96L39.98 24.68L40.65 21.82C40.74 21.44 41.05 21.14 41.43 21.07C41.81 20.99 42.21 21.15 42.44 21.48L45.27 25.53L46.38 21.95C46.5 21.55 46.86 21.27 47.28 21.25C47.68 21.23 48.08 21.46 48.25 21.84L49.63 24.92L50.57 21.77C50.69 21.37 51.05 21.09 51.46 21.06C51.87 21.04 52.27 21.27 52.44 21.65L54.83 26.95L64.55 26.59C65.11 26.57 65.57 27 65.59 27.55C65.61 28.1 65.18 28.57 64.63 28.59L54.24 28.97C53.84 29.01 53.46 28.75 53.29 28.38L51.72 24.91L50.77 28.07C50.65 28.47 50.29 28.75 49.88 28.78C49.46 28.78 49.07 28.57 48.9 28.19L47.5 25.08L46.57 28.08C46.46 28.44 46.15 28.71 45.77 28.77C45.39 28.83 45.02 28.67 44.8 28.35L42.08 24.46L41.25 28C41.15 28.42 40.8 28.73 40.37 28.77C39.94 28.8 39.54 28.58 39.36 28.19L36.53 21.96L31.48 35C31.33 35.39 30.96 35.64 30.55 35.64L30.56 35.63Z" fill="#C50C33"/>
<path d="M9.81995 15.6799H5.95995C5.04995 15.6799 4.31995 14.9399 4.31995 14.0399C4.31995 13.1399 5.05995 12.3999 5.95995 12.3999H9.81995C10.7299 12.3999 11.4599 13.1399 11.4599 14.0399C11.4599 14.9399 10.7199 15.6799 9.81995 15.6799ZM5.95995 13.3899C5.60995 13.3899 5.31995 13.6799 5.31995 14.0299C5.31995 14.3799 5.60995 14.6699 5.95995 14.6699H9.81995C10.1699 14.6699 10.4599 14.3799 10.4599 14.0299C10.4599 13.6799 10.1699 13.3899 9.81995 13.3899H5.95995Z" fill="#C50C33"/>
<path d="M9.81995 20.7299H5.95995C5.04995 20.7299 4.31995 19.99 4.31995 19.09C4.31995 18.19 5.05995 17.45 5.95995 17.45H9.81995C10.7299 17.45 11.4599 18.19 11.4599 19.09C11.4599 19.99 10.7199 20.7299 9.81995 20.7299ZM5.95995 18.44C5.60995 18.44 5.31995 18.73 5.31995 19.08C5.31995 19.43 5.60995 19.7199 5.95995 19.7199H9.81995C10.1699 19.7199 10.4599 19.43 10.4599 19.08C10.4599 18.73 10.1699 18.44 9.81995 18.44H5.95995Z" fill="#C50C33"/>
<path d="M9.81995 25.79H5.95995C5.04995 25.79 4.31995 25.05 4.31995 24.15C4.31995 23.25 5.05995 22.51 5.95995 22.51H9.81995C10.7299 22.51 11.4599 23.25 11.4599 24.15C11.4599 25.05 10.7199 25.79 9.81995 25.79ZM5.95995 23.5C5.60995 23.5 5.31995 23.79 5.31995 24.14C5.31995 24.49 5.60995 24.78 5.95995 24.78H9.81995C10.1699 24.78 10.4599 24.49 10.4599 24.14C10.4599 23.79 10.1699 23.5 9.81995 23.5H5.95995Z" fill="#C50C33"/>
<path d="M9.81995 30.8401H5.95995C5.04995 30.8401 4.31995 30.1001 4.31995 29.2001C4.31995 28.3001 5.05995 27.5601 5.95995 27.5601H9.81995C10.7299 27.5601 11.4599 28.3001 11.4599 29.2001C11.4599 30.1001 10.7199 30.8401 9.81995 30.8401ZM5.95995 28.5501C5.60995 28.5501 5.31995 28.8401 5.31995 29.1901C5.31995 29.5401 5.60995 29.8301 5.95995 29.8301H9.81995C10.1699 29.8301 10.4599 29.5401 10.4599 29.1901C10.4599 28.8401 10.1699 28.5501 9.81995 28.5501H5.95995Z" fill="#C50C33"/>
<path d="M9.81995 35.8901H5.95995C5.04995 35.8901 4.31995 35.1501 4.31995 34.2501C4.31995 33.3501 5.05995 32.6101 5.95995 32.6101H9.81995C10.7299 32.6101 11.4599 33.3501 11.4599 34.2501C11.4599 35.1501 10.7199 35.8901 9.81995 35.8901ZM5.95995 33.6001C5.60995 33.6001 5.31995 33.8901 5.31995 34.2401C5.31995 34.5901 5.60995 34.8801 5.95995 34.8801H9.81995C10.1699 34.8801 10.4599 34.5901 10.4599 34.2401C10.4599 33.8901 10.1699 33.6001 9.81995 33.6001H5.95995Z" fill="#C50C33"/>
<path d="M73.9399 15.6799H70.0799C69.1699 15.6799 68.4399 14.9399 68.4399 14.0399C68.4399 13.1399 69.1799 12.3999 70.0799 12.3999H73.9399C74.8499 12.3999 75.5799 13.1399 75.5799 14.0399C75.5799 14.9399 74.8399 15.6799 73.9399 15.6799ZM70.0799 13.3899C69.7199 13.3899 69.4399 13.6799 69.4399 14.0299C69.4399 14.3799 69.7299 14.6699 70.0799 14.6699H73.9399C74.2999 14.6699 74.5799 14.3799 74.5799 14.0299C74.5799 13.6799 74.2899 13.3899 73.9399 13.3899H70.0799Z" fill="#C50C33"/>
<path d="M73.9399 20.7299H70.0799C69.1699 20.7299 68.4399 19.99 68.4399 19.09C68.4399 18.19 69.1799 17.45 70.0799 17.45H73.9399C74.8499 17.45 75.5799 18.19 75.5799 19.09C75.5799 19.99 74.8399 20.7299 73.9399 20.7299ZM70.0799 18.44C69.7199 18.44 69.4399 18.73 69.4399 19.08C69.4399 19.43 69.7299 19.7199 70.0799 19.7199H73.9399C74.2999 19.7199 74.5799 19.43 74.5799 19.08C74.5799 18.73 74.2899 18.44 73.9399 18.44H70.0799Z" fill="#C50C33"/>
<path d="M73.9399 25.79H70.0799C69.1699 25.79 68.4399 25.05 68.4399 24.15C68.4399 23.25 69.1799 22.51 70.0799 22.51H73.9399C74.8499 22.51 75.5799 23.25 75.5799 24.15C75.5799 25.05 74.8399 25.79 73.9399 25.79ZM70.0799 23.5C69.7199 23.5 69.4399 23.79 69.4399 24.14C69.4399 24.49 69.7299 24.78 70.0799 24.78H73.9399C74.2999 24.78 74.5799 24.49 74.5799 24.14C74.5799 23.79 74.2899 23.5 73.9399 23.5H70.0799Z" fill="#C50C33"/>
<path d="M73.9399 30.8401H70.0799C69.1699 30.8401 68.4399 30.1001 68.4399 29.2001C68.4399 28.3001 69.1799 27.5601 70.0799 27.5601H73.9399C74.8499 27.5601 75.5799 28.3001 75.5799 29.2001C75.5799 30.1001 74.8399 30.8401 73.9399 30.8401ZM70.0799 28.5501C69.7199 28.5501 69.4399 28.8401 69.4399 29.1901C69.4399 29.5401 69.7299 29.8301 70.0799 29.8301H73.9399C74.2999 29.8301 74.5799 29.5401 74.5799 29.1901C74.5799 28.8401 74.2899 28.5501 73.9399 28.5501H70.0799Z" fill="#C50C33"/>
<path d="M73.9399 35.8901H70.0799C69.1699 35.8901 68.4399 35.1501 68.4399 34.2501C68.4399 33.3501 69.1799 32.6101 70.0799 32.6101H73.9399C74.8499 32.6101 75.5799 33.3501 75.5799 34.2501C75.5799 35.1501 74.8399 35.8901 73.9399 35.8901ZM70.0799 33.6001C69.7199 33.6001 69.4399 33.8901 69.4399 34.2401C69.4399 34.5901 69.7299 34.8801 70.0799 34.8801H73.9399C74.2999 34.8801 74.5799 34.5901 74.5799 34.2401C74.5799 33.8901 74.2899 33.6001 73.9399 33.6001H70.0799Z" fill="#C50C33"/>
<path d="M23.41 49.6201H19.55C18.64 49.6201 17.91 48.8801 17.91 47.9801C17.91 47.0801 18.65 46.3401 19.55 46.3401H23.41C24.32 46.3401 25.05 47.0801 25.05 47.9801C25.05 48.8801 24.31 49.6201 23.41 49.6201ZM19.55 47.3301C19.2 47.3301 18.91 47.6201 18.91 47.9701C18.91 48.3201 19.2 48.6101 19.55 48.6101H23.41C23.76 48.6101 24.05 48.3201 24.05 47.9701C24.05 47.6201 23.76 47.3301 23.41 47.3301H19.55Z" fill="#C50C33"/>
<path d="M28.57 49.6201H27.68C27.02 49.6201 26.48 49.0801 26.48 48.4201V47.5301C26.48 46.8701 27.02 46.3301 27.68 46.3301H28.57C29.23 46.3301 29.77 46.8701 29.77 47.5301V48.4201C29.77 49.0801 29.23 49.6201 28.57 49.6201ZM27.68 47.3301C27.57 47.3301 27.48 47.4201 27.48 47.5301V48.4201C27.48 48.5301 27.57 48.6201 27.68 48.6201H28.57C28.68 48.6201 28.77 48.5301 28.77 48.4201V47.5301C28.77 47.4201 28.68 47.3301 28.57 47.3301H27.68Z" fill="#C50C33"/>
<path d="M55.59 49.6201H51.73C50.82 49.6201 50.09 48.8801 50.09 47.9801C50.09 47.0801 50.83 46.3401 51.73 46.3401H55.59C56.5 46.3401 57.23 47.0801 57.23 47.9801C57.23 48.8801 56.49 49.6201 55.59 49.6201ZM51.73 47.3301C51.38 47.3301 51.09 47.6201 51.09 47.9701C51.09 48.3201 51.38 48.6101 51.73 48.6101H55.59C55.94 48.6101 56.23 48.3201 56.23 47.9701C56.23 47.6201 55.94 47.3301 55.59 47.3301H51.73Z" fill="#C50C33"/>
<path d="M60.75 49.6201H59.86C59.2 49.6201 58.66 49.0801 58.66 48.4201V47.5301C58.66 46.8701 59.2 46.3301 59.86 46.3301H60.75C61.41 46.3301 61.95 46.8701 61.95 47.5301V48.4201C61.95 49.0801 61.41 49.6201 60.75 49.6201ZM59.86 47.3301C59.75 47.3301 59.66 47.4201 59.66 47.5301V48.4201C59.66 48.5301 59.75 48.6201 59.86 48.6201H60.75C60.86 48.6201 60.95 48.5301 60.95 48.4201V47.5301C60.95 47.4201 60.86 47.3301 60.75 47.3301H59.86Z" fill="#C50C33"/>
</g>
<defs>
<clipPath id="clip0_59_1418">
<rect width="80.57" height="53.05" fill="white"/>
</clipPath>
</defs>
</svg>
