<svg width="90" height="90" viewBox="0 0 90 90" fill="none" xmlns="http://www.w3.org/2000/svg">
<path d="M62.7375 67.4083H27.1919V36.7451H62.7375V67.4083ZM29.8024 64.7977H60.127V39.3556H29.8024V64.7977Z" fill="#B12D36"/>
<path d="M45.5644 60.2117C34.7413 60.2117 23.2408 57.3612 23.2408 52.0837C23.2408 46.8062 34.7413 43.9558 45.5644 43.9558C56.3876 43.9558 67.888 46.8062 67.888 52.0837C67.888 57.3612 56.3876 60.2117 45.5644 60.2117ZM45.5644 45.6914C33.429 45.6914 24.9765 49.064 24.9765 52.0837C24.9765 55.1035 33.429 58.476 45.5644 58.476C57.6999 58.476 66.1524 55.1035 66.1524 52.0837C66.1524 49.064 57.6999 45.6914 45.5644 45.6914Z" fill="#B12D36"/>
<path d="M45.5644 42.7987C33.048 42.7987 23.2408 38.3537 23.2408 32.6811C23.2408 27.0085 33.048 22.5635 45.5644 22.5635C58.0809 22.5635 67.888 27.0085 67.888 32.6811C67.888 38.3537 58.0809 42.7987 45.5644 42.7987ZM45.5644 24.3133C34.4026 24.3133 24.9765 28.1515 24.9765 32.6811C24.9765 37.2107 34.4026 41.0489 45.5644 41.0489C56.7262 41.0489 66.1524 37.2107 66.1524 32.6811C66.1524 28.1515 56.7262 24.3133 45.5644 24.3133Z" fill="#B12D36"/>
<path d="M32.1166 48.6124C31.6369 48.6124 31.2418 48.2173 31.2418 47.7376V35.2352C31.2418 34.7554 31.6369 34.3603 32.1166 34.3603C32.5964 34.3603 32.9915 34.7554 32.9915 35.2352V47.7376C32.9915 48.2173 32.5964 48.6124 32.1166 48.6124Z" fill="#B12D36"/>
<path d="M35.7855 48.6124C35.3057 48.6124 34.9106 48.2173 34.9106 47.7376V35.2352C34.9106 34.7554 35.3057 34.3603 35.7855 34.3603C36.2653 34.3603 36.6604 34.7554 36.6604 35.2352V47.7376C36.6604 48.2173 36.2653 48.6124 35.7855 48.6124Z" fill="#B12D36"/>
<path d="M39.4685 48.6124C38.9887 48.6124 38.5936 48.2173 38.5936 47.7376V35.2352C38.5936 34.7554 38.9887 34.3603 39.4685 34.3603C39.9483 34.3603 40.3434 34.7554 40.3434 35.2352V47.7376C40.3434 48.2173 39.9483 48.6124 39.4685 48.6124Z" fill="#B12D36"/>
<path d="M43.1515 48.6124C42.6717 48.6124 42.2766 48.2173 42.2766 47.7376V35.2352C42.2766 34.7554 42.6717 34.3603 43.1515 34.3603C43.6312 34.3603 44.0263 34.7554 44.0263 35.2352V47.7376C44.0263 48.2173 43.6312 48.6124 43.1515 48.6124Z" fill="#B12D36"/>
<path d="M46.8203 48.6124C46.3405 48.6124 45.9454 48.2173 45.9454 47.7376V35.2352C45.9454 34.7554 46.3405 34.3603 46.8203 34.3603C47.3001 34.3603 47.6952 34.7554 47.6952 35.2352V47.7376C47.6952 48.2173 47.3001 48.6124 46.8203 48.6124Z" fill="#B12D36"/>
<path d="M50.5033 48.6124C50.0235 48.6124 49.6284 48.2173 49.6284 47.7376V35.2352C49.6284 34.7554 50.0235 34.3603 50.5033 34.3603C50.983 34.3603 51.3782 34.7554 51.3782 35.2352V47.7376C51.3782 48.2173 50.983 48.6124 50.5033 48.6124Z" fill="#B12D36"/>
<path d="M54.1863 48.6124C53.7065 48.6124 53.3114 48.2173 53.3114 47.7376V35.2352C53.3114 34.7554 53.7065 34.3603 54.1863 34.3603C54.666 34.3603 55.0611 34.7554 55.0611 35.2352V47.7376C55.0611 48.2173 54.666 48.6124 54.1863 48.6124Z" fill="#B12D36"/>
<path d="M57.8551 48.6124C57.3753 48.6124 56.9802 48.2173 56.9802 47.7376V35.2352C56.9802 34.7554 57.3753 34.3603 57.8551 34.3603C58.3349 34.3603 58.73 34.7554 58.73 35.2352V47.7376C58.73 48.2173 58.3349 48.6124 57.8551 48.6124Z" fill="#B12D36"/>
<path d="M27.2201 41.571H14.5061C14.0263 41.571 13.6312 41.1759 13.6312 40.6961C13.6312 40.2164 14.0263 39.8213 14.5061 39.8213H24.2568L17.0038 35.1505C16.5945 34.8965 16.4816 34.3462 16.7498 33.9511C17.0179 33.5419 17.5541 33.429 17.9492 33.683L27.6858 39.9483C28.0103 40.1599 28.1656 40.555 28.0527 40.9219C27.9398 41.2888 27.6011 41.5428 27.2201 41.5428V41.571Z" fill="#B12D36"/>
<path d="M17.921 50.2775C17.6529 50.2775 17.3848 50.1364 17.2154 49.8965C16.9755 49.5155 17.0884 48.9934 17.4694 48.7535L24.3697 44.3368H15.0706C14.619 44.3368 14.238 43.9699 14.238 43.5042C14.238 43.0386 14.6049 42.6717 15.0706 42.6717H27.206C27.5729 42.6717 27.8975 42.9116 27.9962 43.2644C28.095 43.6171 27.9539 43.9981 27.6435 44.1957L18.3443 50.1364C18.2032 50.2211 18.048 50.2634 17.8928 50.2634L17.921 50.2775Z" fill="#B12D36"/>
<path d="M75.4939 42.3895H62.7799C62.3989 42.3895 62.0602 42.1355 61.9473 41.7686C61.8344 41.4017 61.9896 41.0066 62.3142 40.7949L72.0508 34.5297C72.46 34.2757 72.9962 34.3885 73.2502 34.7978C73.5042 35.207 73.3913 35.7432 72.9821 35.9972L65.7291 40.6679H75.4798C75.9595 40.6679 76.3546 41.063 76.3546 41.5428C76.3546 42.0226 75.9595 42.4177 75.4798 42.4177L75.4939 42.3895Z" fill="#B12D36"/>
<path d="M72.079 51.096C71.9238 51.096 71.7686 51.0536 71.6274 50.969L62.3283 45.0282C62.0178 44.8307 61.8767 44.4497 61.9755 44.0969C62.0743 43.7441 62.3988 43.5042 62.7657 43.5042H74.9012C75.3528 43.5042 75.7337 43.8711 75.7337 44.3368C75.7337 44.8025 75.3669 45.1693 74.9012 45.1693H65.6021L72.5023 49.5861C72.8833 49.826 72.9962 50.3481 72.7563 50.7291C72.6011 50.9831 72.333 51.1101 72.0649 51.1101L72.079 51.096Z" fill="#B12D36"/>
<path d="M45.7479 2.61053C47.0884 2.61053 48.429 2.70931 49.7695 2.86453C50.5739 2.9492 51.3782 3.09031 52.1966 3.2173C52.5635 3.27375 52.5776 3.28786 52.5776 3.66886C52.5776 5.31984 52.5776 6.97083 52.5776 8.60771C52.5776 8.74882 52.5776 8.87582 52.5776 9.01693C52.6058 9.66603 52.9163 10.047 53.5513 10.2023C57.0931 11.063 60.4233 12.4318 63.5419 14.3227C63.81 14.4779 64.0499 14.5626 64.2756 14.5626C64.572 14.5626 64.8542 14.4214 65.1505 14.1251C66.3782 12.8975 67.6058 11.6839 68.8335 10.4563C68.9323 10.3575 68.9887 10.2305 69.0875 10.0894C71.2465 11.5851 73.1374 13.2502 74.9295 15.0282C76.7215 16.8203 78.3725 18.7253 79.8542 20.8278C79.7554 20.9407 79.6566 21.0536 79.5579 21.1524C78.3302 22.3801 77.1026 23.6077 75.8749 24.8354C75.6773 25.0329 75.508 25.2446 75.4516 25.5268C75.381 25.8655 75.4939 26.1477 75.6491 26.444C76.2136 27.4459 76.778 28.4478 77.286 29.4779C78.3584 31.6651 79.1486 33.9511 79.7413 36.3217C79.9389 37.1402 80.3058 37.4224 81.1242 37.4224C81.858 37.4224 82.5917 37.4224 83.3255 37.4224C84.1722 37.4224 85.0188 37.4224 85.8796 37.4224H86.1477C86.1477 37.4224 86.2747 37.4224 86.3453 37.4224C86.3735 37.4224 86.4158 37.4224 86.444 37.4224H86.4723C86.6275 37.4224 86.7122 37.4929 86.7404 37.6764C86.825 38.2973 86.9379 38.9182 87.0226 39.5532C87.2484 41.1336 87.3471 42.7281 87.3754 44.3368C87.3754 45.5221 87.3189 46.7074 87.2766 47.9069C87.2201 49.2756 87.0367 50.6162 86.8109 51.9567C86.7122 52.5212 86.7686 52.5776 86.4299 52.5776C86.3453 52.5776 86.2465 52.5776 86.1054 52.5776H86.0772C85.6679 52.5776 85.2587 52.5776 84.8354 52.5776C84.3697 52.5776 83.8899 52.5776 83.4243 52.5776C82.6482 52.5776 81.8721 52.5776 81.0819 52.5776C80.8279 52.5776 80.5598 52.6341 80.334 52.7328C79.9953 52.8739 79.8401 53.1985 79.7554 53.5513C79.5579 54.2992 79.3603 55.0611 79.1345 55.809C78.3161 58.4619 77.1872 60.9737 75.762 63.3584C75.7197 63.429 75.6773 63.5136 75.635 63.5842C75.2963 64.1769 75.3528 64.6425 75.8326 65.1223C77.0602 66.35 78.2879 67.5776 79.5155 68.8053C79.6143 68.904 79.7131 69.0169 79.826 69.1298C78.1609 71.9944 72.1778 77.9915 69.1298 79.8401C69.0452 79.7554 68.9464 79.6707 68.8476 79.5861C67.6058 78.3443 66.35 77.1025 65.1082 75.8608C64.8542 75.6068 64.572 75.4516 64.2474 75.4516C64.1628 75.4516 64.0922 75.4516 64.0075 75.4798C63.8241 75.5221 63.6407 75.6209 63.4713 75.7197C62.286 76.4252 61.0583 77.0743 59.7883 77.6529C57.8128 78.556 55.7667 79.2615 53.6501 79.7695C52.9586 79.9389 52.5353 80.334 52.5494 81.1947C52.5635 82.8316 52.5494 84.4685 52.5494 86.1054C52.5494 86.2183 52.5494 86.3311 52.5494 86.444C52.5494 86.7121 52.5212 86.7404 52.2531 86.7827C51.4064 86.9097 50.5597 87.0508 49.7131 87.1496C48.175 87.333 46.6369 87.4177 45.0988 87.4177C44.4073 87.4177 43.73 87.4036 43.0386 87.3754C41.9944 87.333 40.9643 87.2201 39.9342 87.1072C39.2004 87.0226 38.4666 86.8956 37.7328 86.7968C37.3942 86.7404 37.3942 86.7404 37.3942 86.4017C37.3942 84.6237 37.3942 82.8316 37.3942 81.0536C37.3942 80.3904 37.0979 80.0094 36.4629 79.8401C36.4205 79.8401 36.3641 79.826 36.3217 79.8119C34.699 79.4026 33.1044 78.8946 31.5522 78.2738C29.8589 77.5964 28.2361 76.7921 26.6698 75.8467C26.5287 75.762 26.4017 75.6773 26.2465 75.6068C26.063 75.5221 25.8937 75.4798 25.7244 75.4798C25.4845 75.4798 25.2446 75.5644 25.0329 75.7338C24.92 75.8184 24.8072 75.9313 24.7084 76.0442C23.5372 77.2154 22.366 78.3866 21.1806 79.5579C21.0819 79.6566 20.969 79.7554 20.8279 79.8965C16.6792 76.9191 13.1232 73.3631 10.1317 69.2145C10.2587 69.0734 10.3575 68.9464 10.4704 68.8335C11.6416 67.6623 12.8128 66.477 13.984 65.3057C14.0687 65.2211 14.1675 65.1364 14.238 65.0376C14.5767 64.6566 14.6472 64.2192 14.4073 63.7676C14.2945 63.5419 14.1534 63.3443 14.0405 63.1185C12.333 60.1834 11.063 57.079 10.2446 53.7912C10.2305 53.7347 10.2164 53.6783 10.2023 53.6077C10.0188 52.9022 9.63783 52.6058 8.88995 52.6058C8.14206 52.6058 7.38007 52.6058 6.63218 52.6058C5.70086 52.6058 4.76953 52.6058 3.8382 52.6058H3.27376C2.34244 47.5541 2.35655 42.5306 3.27376 37.4788C3.4431 37.4788 3.58421 37.4647 3.72532 37.4647C4.68486 37.4647 5.64441 37.4647 6.58985 37.4647H8.81939C8.81939 37.4647 8.91817 37.4647 8.9605 37.4647C9.60961 37.4647 10.0047 37.1402 10.174 36.5193C10.5127 35.207 10.8937 33.9229 11.3594 32.6529C12.1214 30.5927 13.0527 28.6171 14.1816 26.7262C14.2662 26.571 14.365 26.4299 14.4356 26.2747C14.6331 25.8372 14.5626 25.428 14.2662 25.0611C14.1816 24.9624 14.0969 24.8777 14.0122 24.793C12.8128 23.5936 11.6134 22.3942 10.4139 21.1947C10.3293 21.1101 10.2446 21.0113 10.1317 20.8984C13.1091 16.7357 16.6792 13.1797 20.842 10.1881C20.9831 10.3151 21.0819 10.4139 21.1947 10.5268C22.3942 11.7262 23.6077 12.9116 24.7931 14.1251C25.0894 14.4214 25.4139 14.6049 25.7667 14.6049C26.0207 14.6049 26.2747 14.5202 26.5428 14.3368C26.5851 14.3086 26.6275 14.2803 26.6698 14.2662C28.5042 13.1656 30.4233 12.2483 32.4271 11.5005C33.7253 11.0207 35.0518 10.5974 36.3923 10.2869C37.0555 10.1317 37.4224 9.63781 37.4083 8.98871C37.3801 7.29539 37.4083 5.58795 37.4083 3.89463C37.4083 3.79586 37.4083 3.69708 37.4083 3.5983C37.3942 3.41486 37.493 3.33019 37.6623 3.30197C38.1703 3.23142 38.6642 3.13264 39.1722 3.07619C40.3716 2.9492 41.5569 2.80809 42.7564 2.72342C43.3349 2.68109 43.9135 2.68109 44.5061 2.68109C44.7319 2.68109 44.9718 2.68109 45.1976 2.68109C45.3246 2.68109 45.4516 2.68109 45.5786 2.68109H45.7479M45.7479 0.0705499H44.5061C43.8994 0.0705499 43.2502 0.0705499 42.587 0.112883C41.5146 0.183438 40.4563 0.296326 39.4262 0.409214L38.8899 0.465658C38.4807 0.507991 38.0997 0.578546 37.747 0.63499C37.5917 0.663212 37.4365 0.691434 37.2813 0.705545C35.7573 0.931321 34.7272 2.20131 34.8119 3.71119V5.31984C34.8119 6.20884 34.8119 7.09783 34.8119 7.98682C33.7535 8.26904 32.667 8.62182 31.524 9.04515C29.5908 9.76481 27.7423 10.6256 26.0066 11.6275C25.3434 10.9642 24.6943 10.301 24.0452 9.66603L23.0433 8.67826C22.9586 8.5936 22.874 8.50893 22.7752 8.42427L22.6623 8.31138C22.1543 7.8316 21.5052 7.59172 20.8561 7.59172C20.3199 7.59172 19.7836 7.76105 19.3321 8.0856C14.9436 11.2465 11.1477 15.0423 8.02917 19.3885C7.2954 20.4045 7.39418 21.8015 8.25495 22.7046L8.35373 22.8034C8.43839 22.888 8.50895 22.9727 8.59361 23.0433L10.7526 25.2023L11.5993 26.0489C10.5692 27.8692 9.68016 29.7883 8.94639 31.7639C8.59361 32.7375 8.26906 33.7535 7.95862 34.8683H3.75354C3.61243 34.8683 3.47132 34.8683 3.3161 34.8824H3.1891C1.97555 34.9388 0.945447 35.8278 0.733782 37.0273C-0.239877 42.3753 -0.225766 47.7799 0.733782 53.0856C0.959558 54.3274 2.04611 55.2305 3.30199 55.2305H6.64629C7.06962 55.2305 7.50707 55.2305 7.9304 55.2305C8.77706 58.3067 9.9906 61.27 11.571 64.0499L11.2183 64.4026C10.3575 65.2634 9.49672 66.1383 8.62184 66.9991C8.50895 67.1119 8.39606 67.2389 8.26906 67.3801L8.17028 67.493C7.36596 68.4102 7.2954 69.7648 8.01506 70.7526C11.1618 75.1129 14.9577 78.9088 19.3039 82.0273C19.7554 82.3518 20.2916 82.5212 20.8279 82.5212C21.4911 82.5212 22.1402 82.2813 22.6341 81.7874L22.7611 81.6745C22.8598 81.5757 22.9445 81.5052 23.0292 81.4205L24.6378 79.8119L25.9784 78.4713C27.46 79.318 29.0122 80.0658 30.5786 80.7008C31.905 81.2371 33.3161 81.7027 34.7836 82.1119C34.7836 82.7469 34.7836 83.3819 34.7836 84.031V86.4299C34.7836 88.0527 35.7432 89.1674 37.3518 89.4073L37.9163 89.492C38.4807 89.5767 39.0593 89.6754 39.6661 89.7319C40.7244 89.8448 41.825 89.9577 42.9398 90.0141C43.6736 90.0423 44.4073 90.0564 45.1129 90.0564C46.8486 90.0564 48.4713 89.9577 50.0518 89.7742C50.7573 89.6896 51.4629 89.5767 52.1402 89.4779L52.6623 89.3932C54.1581 89.1674 55.0894 88.1232 55.174 86.5993C55.174 86.4723 55.174 86.3311 55.174 86.2041V84.7084C55.174 83.8476 55.174 82.9727 55.174 82.1119C57.1073 81.5898 59.0264 80.8984 60.8749 80.0659C61.9332 79.5861 62.9774 79.0499 63.9934 78.4713C64.7413 79.2192 65.4892 79.9671 66.2371 80.715L66.9991 81.477C67.0978 81.5757 67.1966 81.6745 67.3095 81.7592L67.366 81.8156C67.8598 82.2672 68.4948 82.4929 69.1298 82.4929C69.5955 82.4929 70.0753 82.3659 70.4845 82.1119C73.9135 80.0235 80.1929 73.73 82.0696 70.4845C82.6623 69.4826 82.5071 68.1985 81.7027 67.366L81.604 67.2672C81.5193 67.1684 81.4346 67.0837 81.3359 66.9991L80.0659 65.7291C79.5014 65.1646 78.937 64.6143 78.3867 64.0499C79.7272 61.7074 80.7996 59.2239 81.604 56.6275C81.7451 56.1618 81.8862 55.6961 81.9991 55.2305C82.4647 55.2305 82.9304 55.2305 83.3961 55.2305H86.3876C86.9803 55.2305 88.9417 55.047 89.3227 52.6058L89.3509 52.4365C89.6331 50.7573 89.7883 49.3744 89.8589 48.0621V47.6952C89.9295 46.6087 89.9718 45.4939 89.9577 44.3509C89.9436 42.6152 89.8166 40.8937 89.5908 39.2427C89.5485 38.8899 89.492 38.5372 89.4356 38.1985C89.3932 37.9163 89.3509 37.6482 89.3086 37.3659C89.0969 35.8984 87.9257 34.8683 86.4582 34.8683C86.4158 34.8683 86.3312 34.8683 86.2888 34.8683H82.0273C81.3782 32.4976 80.588 30.381 79.6143 28.3913C79.2192 27.587 78.7959 26.8109 78.3725 26.063C79.3744 25.0611 80.3763 24.0593 81.3782 23.0574C81.4911 22.9445 81.5899 22.8316 81.7027 22.7046L81.7733 22.6199C82.5917 21.7168 82.6623 20.3763 81.9708 19.3744C80.5033 17.2719 78.7959 15.2681 76.7498 13.222C74.6896 11.1759 72.6717 9.45437 70.555 7.98682C70.1035 7.67638 69.5814 7.52116 69.0593 7.52116C68.2408 7.52116 67.4365 7.90216 66.9285 8.62182C66.8862 8.67826 66.858 8.7206 66.8297 8.77704C65.8843 9.72248 64.9389 10.6679 63.9934 11.6134C61.2277 10.0329 58.2644 8.81937 55.174 7.97271V7.15428C55.174 6.01128 55.174 4.85418 55.174 3.71119C55.174 2.03198 54.2286 0.931321 52.5776 0.677323L51.985 0.578546C51.3641 0.479769 50.715 0.380992 50.0518 0.310437C48.4149 0.126994 47.0461 0.0423279 45.7338 0.0423279L45.7479 0.0705499Z" fill="#B12D36"/>
</svg>
