<svg width="90" height="67" viewBox="0 0 90 67" fill="none" xmlns="http://www.w3.org/2000/svg">
<g clip-path="url(#clip0_6_1345)">
<path d="M77.993 66.9999H12.0071C5.38202 66.9999 0 61.5986 0 54.9794V23.3394C0 16.7069 5.39524 11.3188 12.0071 11.3188H77.993C84.618 11.3188 90 16.7201 90 23.3394V54.9794C90 61.6119 84.6048 66.9999 77.993 66.9999ZM12.0071 12.8678C6.24155 12.8678 1.54716 17.5674 1.54716 23.3394V54.9794C1.54716 60.7514 6.24155 65.451 12.0071 65.451H77.993C83.7585 65.451 88.4528 60.7514 88.4528 54.9794V23.3394C88.4528 17.5674 83.7585 12.8678 77.993 12.8678H12.0071Z" fill="#C50C33"/>
<path d="M23.948 12.8413C23.5513 12.8413 23.1281 12.5501 23.0885 12.1529C23.0752 11.9544 23.062 11.8352 23.062 11.7028V6.26181C23.062 2.80656 25.958 0 29.5284 0H60.0749C63.6321 0 66.5413 2.80656 66.5413 6.26181V11.7161C66.5413 11.8352 66.5413 11.9411 66.5281 12.0603C66.4884 12.4574 66.1578 12.8413 65.7611 12.8413H24.0009C24.0009 12.8413 23.9744 12.8413 23.948 12.8413ZM24.5827 11.3057H65.0074V6.24857C65.0074 3.64058 62.7858 1.50919 60.0617 1.50919H29.5151C26.7911 1.50919 24.5695 3.62735 24.5695 6.24857V11.3057H24.5827Z" fill="#C50C33"/>
<path d="M10.407 60.2881C8.68792 60.2881 7.29944 58.8848 7.29944 57.1771V20.1755C7.29944 18.4545 8.70114 17.0645 10.407 17.0645C12.1128 17.0645 13.5145 18.4677 13.5145 20.1755V57.1638C13.5145 58.8848 12.1128 60.2749 10.407 60.2749V60.2881ZM10.407 18.6266C9.54745 18.6266 8.8466 19.3282 8.8466 20.1887V57.1771C8.8466 58.0376 9.54745 58.7392 10.407 58.7392C11.2665 58.7392 11.9674 58.0376 11.9674 57.1771V20.1755C11.9674 19.315 11.2665 18.6134 10.407 18.6134V18.6266Z" fill="#C50C33"/>
<path d="M23.1942 28.3834H21.3561C18.9494 28.3834 16.9923 26.4241 16.9923 24.0147C16.9923 21.6053 18.9494 19.646 21.3561 19.646H23.1942C24.7943 19.646 26.2488 20.5197 27.0026 21.8965H30.3614C31.5383 21.8965 32.4904 22.8497 32.4904 24.0279C32.4904 25.2062 31.5383 26.1593 30.3614 26.1593H26.9761C26.2092 27.5229 24.7678 28.3834 23.181 28.3834H23.1942ZM21.3561 21.0758C19.7428 21.0758 18.4205 22.3996 18.4205 24.0147C18.4205 25.6298 19.7428 26.9536 21.3561 26.9536H23.1942C24.3711 26.9536 25.429 26.252 25.8918 25.1532C25.9976 24.8884 26.2621 24.7163 26.553 24.7163H30.3746C30.7581 24.7163 31.0755 24.3986 31.0755 24.0147C31.0755 23.6308 30.7581 23.3131 30.3746 23.3131H26.5662C26.2753 23.3131 26.024 23.141 25.905 22.8762C25.4422 21.7774 24.3843 21.0625 23.1942 21.0625H21.3561V21.0758Z" fill="#C50C33"/>
<path d="M30.5598 39.014H20.9198C18.7246 39.014 16.9395 37.2268 16.9395 35.0292C16.9395 32.8316 18.7246 31.0444 20.9198 31.0444H30.5598C32.7549 31.0444 34.5401 32.8316 34.5401 35.0292C34.5401 37.2268 32.7549 39.014 30.5598 39.014ZM20.9198 32.5933C19.5842 32.5933 18.4866 33.6921 18.4866 35.0292C18.4866 36.3663 19.5842 37.4651 20.9198 37.4651H30.5598C31.8954 37.4651 32.9929 36.3663 32.9929 35.0292C32.9929 33.6921 31.8954 32.5933 30.5598 32.5933H20.9198Z" fill="#C50C33"/>
<path d="M30.5598 50.346H20.9198C18.7246 50.346 16.9395 48.5588 16.9395 46.3613C16.9395 44.1637 18.7246 42.3765 20.9198 42.3765H30.5598C32.7549 42.3765 34.5401 44.1637 34.5401 46.3613C34.5401 48.5588 32.7549 50.346 30.5598 50.346ZM20.9198 43.9254C19.5842 43.9254 18.4866 45.0242 18.4866 46.3613C18.4866 47.6983 19.5842 48.7971 20.9198 48.7971H30.5598C31.8954 48.7971 32.9929 47.6983 32.9929 46.3613C32.9929 45.0242 31.8954 43.9254 30.5598 43.9254H20.9198Z" fill="#C50C33"/>
<path d="M55.5657 60.2881C53.8466 60.2881 52.4581 58.8848 52.4581 57.1771V20.1755C52.4581 18.4545 53.8598 17.0645 55.5657 17.0645C57.2715 17.0645 58.6732 18.4677 58.6732 20.1755V57.1638C58.6732 58.8848 57.2715 60.2749 55.5657 60.2749V60.2881ZM55.5657 18.6266C54.7061 18.6266 54.0053 19.3282 54.0053 20.1887V57.1771C54.0053 58.0376 54.7061 58.7392 55.5657 58.7392C56.4252 58.7392 57.1261 58.0376 57.1261 57.1771V20.1755C57.1261 19.315 56.4252 18.6134 55.5657 18.6134V18.6266Z" fill="#C50C33"/>
<path d="M68.3662 28.3834H66.5281C64.1214 28.3834 62.1643 26.4241 62.1643 24.0147C62.1643 21.6053 64.1214 19.646 66.5281 19.646H68.3662C69.9662 19.646 71.4208 20.5197 72.1746 21.8965H75.5334C76.7103 21.8965 77.6624 22.8497 77.6624 24.0279C77.6624 25.2062 76.7103 26.1593 75.5334 26.1593H72.1481C71.3812 27.5229 69.9398 28.3834 68.353 28.3834H68.3662ZM66.5281 21.0758C64.9148 21.0758 63.5925 22.3996 63.5925 24.0147C63.5925 25.6298 64.9148 26.9536 66.5281 26.9536H68.3662C69.5431 26.9536 70.601 26.252 71.0638 25.1664C71.1696 24.9017 71.4341 24.7296 71.725 24.7296H75.5466C75.9301 24.7296 76.2475 24.4119 76.2475 24.0279C76.2475 23.644 75.9301 23.3263 75.5466 23.3263H71.7382C71.4473 23.3263 71.196 23.1542 71.077 22.8894C70.6142 21.7906 69.5563 21.0758 68.3662 21.0758H66.5281Z" fill="#C50C33"/>
<path d="M75.7185 39.014H66.0785C63.8833 39.014 62.0981 37.2268 62.0981 35.0292C62.0981 32.8316 63.8833 31.0444 66.0785 31.0444H75.7185C77.9136 31.0444 79.6988 32.8316 79.6988 35.0292C79.6988 37.2268 77.9136 39.014 75.7185 39.014ZM66.0785 32.5933C64.7429 32.5933 63.6453 33.6921 63.6453 35.0292C63.6453 36.3663 64.7429 37.4651 66.0785 37.4651H75.7185C77.0541 37.4651 78.1516 36.3663 78.1516 35.0292C78.1516 33.6921 77.0541 32.5933 75.7185 32.5933H66.0785Z" fill="#C50C33"/>
<path d="M75.7185 50.346H66.0785C63.8833 50.346 62.0981 48.5588 62.0981 46.3613C62.0981 44.1637 63.8833 42.3765 66.0785 42.3765H75.7185C77.9136 42.3765 79.6988 44.1637 79.6988 46.3613C79.6988 48.5588 77.9136 50.346 75.7185 50.346ZM66.0785 43.9254C64.7429 43.9254 63.6453 45.0242 63.6453 46.3613C63.6453 47.6983 64.7429 48.7971 66.0785 48.7971H75.7185C77.0541 48.7971 78.1516 47.6983 78.1516 46.3613C78.1516 45.0242 77.0541 43.9254 75.7185 43.9254H66.0785Z" fill="#C50C33"/>
<path d="M40.9932 58.1302C40.5701 58.1302 40.213 57.786 40.213 57.3492V17.8455C40.213 17.4219 40.5568 17.0645 40.9932 17.0645C41.4296 17.0645 41.7734 17.4087 41.7734 17.8455V57.3624C41.7734 57.786 41.4296 58.1435 40.9932 58.1435V58.1302Z" fill="#C50C33"/>
</g>
<defs>
<clipPath id="clip0_6_1345">
<rect width="90" height="67" fill="white"/>
</clipPath>
</defs>
</svg>
