<svg width="44" height="92" viewBox="0 0 44 92" fill="none" xmlns="http://www.w3.org/2000/svg">
<path d="M13.243 91.9999C11.9083 91.7489 10.544 91.5866 9.23896 91.2323C7.22211 90.6566 5.54634 89.6382 4.98281 87.4093C4.90866 87.1141 4.55275 86.8631 4.28581 86.6417C1.64611 84.3243 0 81.5345 0 77.9476C0 62.1389 0 46.3301 0.0444894 30.5214C0.0444894 26.964 1.55713 23.9233 3.97439 21.3845C5.16077 20.1446 6.67341 19.1999 8.02292 18.1076C8.26019 17.9157 8.55679 17.5909 8.55679 17.3253C8.58645 12.9118 8.58645 8.51309 8.58645 4.05534C7.78564 3.81917 6.91068 3.70108 6.80688 2.63831C6.73273 1.79695 7.19245 1.3246 7.88945 0.985107H35.9178C36.6889 1.2508 37.2376 1.73791 37.1486 2.60879C37.0448 3.56824 36.3182 3.89297 35.4135 3.98154C35.4135 4.20295 35.3839 4.4096 35.3839 4.61625C35.3839 8.82306 35.3839 13.0299 35.3691 17.2367C35.3691 17.7828 35.5322 18.0633 35.9919 18.3437C39.64 20.5431 42.2649 23.5543 43.2882 27.7463C43.5996 29.0305 43.7479 30.3738 43.7479 31.6875C43.8517 46.9206 43.8814 62.1684 43.9852 77.4015C44.0148 81.2245 42.4725 84.221 39.64 86.686C39.3286 86.9517 39.0617 87.3502 38.9282 87.734C38.4537 89.033 37.5935 90.0515 36.3478 90.509C34.7907 91.0847 33.1298 91.3947 31.4985 91.7932C31.0684 91.8965 30.6235 91.9113 30.1786 91.9704H13.243V91.9999ZM41.0192 54.1533H40.7374C40.7374 46.3006 40.7374 38.4626 40.7374 30.6099C40.7374 28.7058 40.1887 26.9197 39.1358 25.3403C36.1847 20.9121 31.8989 18.8309 26.6788 18.6094C23.5349 18.4766 20.3613 18.4766 17.2174 18.6242C15.4378 18.7128 13.5841 18.9785 11.9083 19.5689C6.51028 21.4583 2.81766 26.0193 2.86215 32.1893C2.96596 47.0534 2.9363 61.9175 2.86215 76.7963C2.84732 80.2946 4.16717 82.9515 6.94034 85.0033C7.2666 85.2542 7.63734 85.6675 7.68183 86.0365C7.83013 87.424 8.74958 88.044 9.9063 88.3835C10.9147 88.6787 11.9973 88.9444 13.0502 88.9444C18.9673 89.0034 24.8844 89.0182 30.8015 88.9296C32.1213 88.9149 33.456 88.4278 34.761 88.0292C35.5174 87.8078 35.9771 87.2321 36.1847 86.376C36.3182 85.8004 36.7482 85.2099 37.2228 84.8409C39.7883 82.863 41.0934 80.3684 41.0637 77.0768C40.9896 69.4307 41.034 61.7994 41.034 54.1533H41.0192ZM23.4904 4.02582V15.7163C26.5305 15.6425 29.5113 15.5982 32.4031 16.661V4.02582H23.4904ZM11.5079 16.5725C14.3404 15.5982 17.1581 15.6868 19.9609 15.7016C20.5838 15.7016 20.4799 15.2587 20.4799 14.8897C20.4799 12.0261 20.4799 9.1478 20.4799 6.28422C20.4799 5.54618 20.4799 4.8229 20.4799 4.05534H11.5079V16.5725Z" fill="#C50C33"/>
<path d="M13.3914 21.8863C13.7621 22.2258 14.3553 22.5211 14.5184 22.9786C14.6667 23.4067 14.5184 24.1152 14.2218 24.4695C13.7918 25.0009 13.1096 25.3256 12.5609 25.7684C11.1224 26.9345 10.203 28.4401 9.62459 30.1966C9.23902 31.3775 8.52719 31.7908 7.68189 31.4956C6.76244 31.1709 6.45102 30.3442 6.83659 29.1634C7.80053 26.2112 9.66908 23.9676 12.294 22.3292C12.5609 22.1668 12.8871 22.0782 13.3914 21.8716V21.8863Z" fill="#C50C33"/>
<path d="M16.0903 84.1029C16.6093 84.1915 17.158 84.2062 17.6326 84.3834C18.2851 84.6343 18.5372 85.2395 18.3889 85.9037C18.2554 86.5089 17.9144 86.996 17.2025 87.0255C16.461 87.055 15.7196 87.0846 14.9929 87.0255C14.2069 86.9665 13.7175 86.3613 13.7175 85.6085C13.7175 84.8262 14.2811 84.2357 15.1115 84.1767C15.4378 84.1472 15.764 84.1767 16.0903 84.1767V84.0881V84.1029Z" fill="#C50C33"/>
<path d="M27.969 87.1289C27.5835 87.0994 27.1831 87.1142 26.8271 87.0109C26.1153 86.8042 25.7297 86.2433 25.7742 85.5495C25.8335 84.8263 26.2784 84.2801 27.0644 84.1916C27.6279 84.1325 28.1915 84.162 28.755 84.1916C29.6151 84.2211 30.1787 84.7525 30.2083 85.5495C30.2528 86.3909 29.7486 86.9813 28.844 87.0847C28.5474 87.1142 28.2508 87.0847 27.9542 87.0847V87.1289H27.969Z" fill="#C50C33"/>
<path d="M8.11189 33.7688C8.86821 33.7688 9.52072 34.4035 9.53555 35.1858C9.56521 36.0124 8.95718 36.6767 8.12672 36.7209C7.40006 36.7505 6.62891 35.9977 6.62891 35.2449C6.62891 34.4626 7.31108 33.7836 8.11189 33.7688Z" fill="#C50C33"/>
</svg>
