<svg width="77" height="78" viewBox="0 0 77 78" fill="none" xmlns="http://www.w3.org/2000/svg">
<path d="M38.5 77.116C17.2696 77.116 0 59.821 0 38.5595C0 17.2979 17.2696 0.00292969 38.5 0.00292969C59.7304 0.00292969 77 17.2979 77 38.5595C77 59.821 59.7304 77.116 38.5 77.116ZM38.5 3.15327C19.0144 3.15327 3.14572 19.0452 3.14572 38.5595C3.14572 58.0737 19.0017 73.9657 38.5 73.9657C57.9983 73.9657 73.8543 58.0864 73.8543 38.5595C73.8543 19.0325 57.9983 3.15327 38.5 3.15327Z" fill="#B12D36"/>
<path d="M38.5 43.2021C41.0603 43.2021 43.1358 41.1235 43.1358 38.5595C43.1358 35.9954 41.0603 33.9169 38.5 33.9169C35.9397 33.9169 33.8642 35.9954 33.8642 38.5595C33.8642 41.1235 35.9397 43.2021 38.5 43.2021Z" stroke="#B12D36" stroke-width="2.47" stroke-miterlimit="10"/>
<path d="M12.29 22.5655C14.4678 19.2366 17.1932 16.2776 20.3644 13.8032C24.6181 19.2876 28.8846 24.7847 33.1383 30.2691C31.7883 31.3277 30.6293 32.5904 29.6996 34.0062C28.7699 35.4219 28.0822 36.9907 27.6492 38.6488C20.9248 36.9269 14.2003 35.2051 7.47586 33.4832C8.46924 29.5804 10.0994 25.8944 12.2772 22.5782M10.2522 21.2518C7.90887 24.8358 6.18955 28.7514 5.11976 32.8838C4.78863 34.1847 5.56551 35.4984 6.86455 35.8428L16.9512 38.4319L27.0379 41.0211C28.0695 41.2889 29.1138 40.8425 29.6614 40.0007C29.8015 39.7839 29.9162 39.5416 29.9798 39.2737C30.3364 37.8835 30.9223 36.5571 31.6991 35.3581C32.476 34.1592 33.4567 33.1006 34.6029 32.2078C34.8194 32.042 34.9977 31.8379 35.1378 31.6211C35.3416 31.315 35.4689 30.9579 35.5199 30.588C35.5963 29.9503 35.418 29.2998 35.0232 28.8024L22.2493 12.3365C21.4342 11.2778 19.9059 11.0865 18.8488 11.9028C15.4739 14.5302 12.5829 17.6678 10.2395 21.2518H10.2522Z" fill="#B12D36"/>
<path d="M64.3153 22.5655C66.4931 25.8944 68.1232 29.5676 69.1166 33.4705C62.3922 35.1923 55.6677 36.9142 48.9433 38.636C48.523 36.9779 47.8225 35.4092 46.8928 33.9934C45.9631 32.5777 44.8042 31.315 43.4542 30.2564C47.7079 24.772 51.9744 19.2748 56.2281 13.7905C59.3993 16.2648 62.1247 19.2238 64.3025 22.5527M66.3275 21.2263C63.9841 17.6423 61.0931 14.5047 57.7182 11.8773C56.6611 11.061 55.1328 11.2523 54.3177 12.3109L41.5438 28.7769C41.149 29.287 40.9707 29.9248 41.0471 30.5625C41.0981 30.9324 41.2254 31.2895 41.4292 31.5956C41.5693 31.8124 41.7603 32.0165 41.9641 32.1823C43.0976 33.0623 44.0782 34.121 44.8678 35.3326C45.6575 36.5315 46.2306 37.858 46.5872 39.2482C46.6508 39.5161 46.7655 39.7584 46.9056 39.9752C47.4532 40.817 48.4975 41.2634 49.5291 40.9956L59.6158 38.4064L69.7024 35.8173C71.0015 35.4857 71.7784 34.1592 71.4472 32.8583C70.3902 28.7131 68.6581 24.7975 66.3148 21.2263H66.3275Z" fill="#B12D36"/>
<path d="M38.5 69.4506C34.5265 69.4506 30.5657 68.8001 26.7577 67.4992C28.9992 60.9179 31.2534 54.3494 33.4949 47.7681C35.1123 48.3293 36.8061 48.5972 38.5 48.5972C40.1938 48.5972 41.8749 48.3166 43.5051 47.7681C45.7593 54.3494 48.0008 60.9179 50.2423 67.4992C46.4343 68.8001 42.4735 69.4506 38.5 69.4506ZM38.5 71.8739C42.7664 71.8739 46.982 71.1724 51.0319 69.7822C52.2927 69.3486 52.9677 67.9711 52.5347 66.6956L49.1598 56.8365L45.7848 46.9773C45.4409 45.9698 44.4985 45.332 43.4924 45.332C43.2377 45.332 42.9702 45.3703 42.7028 45.4596C41.34 45.9315 39.9264 46.1611 38.4873 46.1611C37.0481 46.1611 35.6345 45.9187 34.2717 45.4596C34.017 45.3703 33.7496 45.332 33.4821 45.332C33.1128 45.332 32.7562 45.4213 32.4123 45.5744C31.8392 45.855 31.3935 46.3651 31.1897 46.9646L24.4525 66.6956C24.0195 67.9583 24.6945 69.3486 25.9553 69.7822C29.9925 71.1724 34.2081 71.8739 38.4873 71.8739H38.5Z" fill="#B12D36"/>
</svg>
