<svg width="66" height="83" viewBox="0 0 66 83" fill="none" xmlns="http://www.w3.org/2000/svg">
<g clip-path="url(#clip0_59_1417)">
<path d="M30.6668 82.9999C30.5586 82.9999 30.4503 82.9863 30.3421 82.9454C28.6106 82.277 26.825 81.745 24.9312 81.1994C21.3194 80.1355 17.5723 79.0443 14.3257 76.8619C14.2716 76.8346 14.231 76.7937 14.1904 76.7528C13.0542 75.607 13.1083 73.9566 13.6223 72.9063C13.6494 72.8653 13.6629 72.8244 13.6899 72.7835C14.9615 70.983 15.3538 68.9234 15.7461 66.9319C15.9084 66.0589 16.0843 65.1451 16.3278 64.2857C16.3413 64.2312 16.3684 64.1766 16.3819 64.122C16.6389 63.5901 17.0988 63.1263 17.5452 62.6898C17.8834 62.3488 18.2351 61.9942 18.3704 61.735C18.8709 60.4256 19.4391 59.0343 19.9937 57.6566C22.3069 51.9823 24.6877 46.1171 24.9988 40.1427C25.0664 39.7472 24.9988 39.6653 24.9853 39.6244C24.7283 39.2425 23.5649 39.0379 22.8074 38.9015C22.4557 38.8333 22.1175 38.7787 21.8199 38.7105L10.024 38.1104L7.62968 37.9194C7.54851 37.9194 7.48088 37.8921 7.41324 37.8785L7.25091 37.8239C6.66924 37.6602 5.99287 37.5784 5.27592 37.4829C3.23329 37.2374 0.446649 36.91 0.08141 33.9229C-0.256774 31.1539 0.717196 28.7533 1.74528 26.2162C2.0023 25.5888 2.25932 24.9613 2.50281 24.3066C3.92318 19.7781 5.28944 16.218 6.47985 13.0671C7.81906 9.56164 8.98241 6.5199 9.99697 2.82343C11.0521 0.109051 13.9875 -0.286512 16.1925 0.149971C16.2466 0.149971 16.2872 0.177252 16.3278 0.190892C24.4848 3.27355 32.777 4.84217 41.5563 6.50626C42.8955 6.76542 44.2347 7.01094 45.5739 7.2701L58.5331 9.72532C58.939 9.84808 59.3177 9.889 59.6694 9.92992C60.4811 10.0118 61.9826 10.1754 62.0367 11.7168C62.7402 15.4542 61.2521 19.1097 59.8047 22.6425C59.6018 23.1335 59.3989 23.6382 59.196 24.1293C58.2761 25.9843 56.5446 27.3892 54.6102 27.8667C52.4729 28.0985 50.552 28.194 48.6852 28.2895C46.8455 28.385 44.9517 28.4941 42.9902 28.6851C38.3503 28.8897 33.6022 28.7942 29.0164 28.6851C24.4577 28.5896 19.7502 28.4805 15.2321 28.6851C12.1613 28.9988 10.8086 31.9996 10.511 34.9731L14.1363 35.1232C14.3392 34.8777 14.4204 34.5367 14.5422 33.9774C14.6639 33.3773 14.7992 32.7089 15.2321 32.0542C15.2591 31.9996 15.2997 31.9587 15.3403 31.9178C15.4485 31.8086 15.5432 31.6722 15.6514 31.5222C16.0031 31.0448 16.4495 30.4446 17.1665 30.4446C29.774 28.8487 41.9215 28.8487 54.7725 28.8487C56.1659 28.8487 57.8838 29.7081 59.0607 30.5128C59.3583 30.6765 59.683 31.0039 59.7912 31.4813C59.94 32.1224 59.6965 32.8453 59.0607 33.6091C58.9525 33.7319 58.8984 34.1002 58.8578 34.4003C58.7496 35.1368 58.5061 36.6645 56.7475 36.6645C55.3136 36.8555 53.8121 37.1556 52.3782 37.442C50.9849 37.7284 49.551 38.0149 48.0359 38.2195C47.9818 38.2604 47.9277 38.3013 47.8871 38.3423C47.576 38.5878 47.3731 38.7787 47.3731 38.9424C47.3731 40.8384 47.3731 42.6252 46.1556 43.3072C45.4522 43.8256 44.6676 44.1939 43.8965 44.5485C42.8549 45.0259 41.881 45.476 41.2993 46.2126C40.0548 48.7496 39.446 51.7232 38.8644 54.6012C38.5532 56.1017 38.2421 57.643 37.8363 59.1434C36.2536 64.313 34.6438 69.619 32.236 74.8568C31.749 75.8525 31.8301 76.9983 31.9248 78.1986C32.033 79.5354 32.1413 81.0494 31.4378 82.468C31.2755 82.7817 30.9644 82.9727 30.6262 82.9727L30.6668 82.9999ZM15.4214 75.3888C18.411 77.3802 21.9822 78.4169 25.4317 79.4262C26.9873 79.8764 28.5836 80.3538 30.1257 80.8994C30.3015 80.1219 30.2339 79.2489 30.1663 78.3623C30.058 77.0256 29.9498 75.5115 30.6532 74.0929C32.9935 68.9916 34.5897 63.7538 36.1318 58.6796C36.5106 57.2611 36.8217 55.7334 37.1193 54.2739C37.7416 51.2458 38.3774 48.1222 39.7436 45.3533C39.7707 45.2987 39.7977 45.2578 39.8248 45.2169C40.677 44.0711 41.9351 43.4846 43.1661 42.9253C43.8965 42.5843 44.6 42.257 45.1546 41.8478C45.1952 41.8205 45.2493 41.7796 45.2899 41.7659C45.5739 41.5068 45.5739 39.8699 45.5739 38.997C45.5739 37.9467 46.3179 37.3465 46.7643 36.9782C46.859 36.8964 46.9537 36.8282 47.0214 36.76C47.1702 36.61 47.346 36.5281 47.5489 36.5008C49.1046 36.3099 50.5926 36.0098 52.04 35.7097C53.5145 35.4096 55.0431 35.1095 56.6528 34.9049C56.8963 34.9049 56.9369 34.8777 56.9369 34.8777C56.991 34.7958 57.0451 34.4139 57.0857 34.1957C57.1669 33.6773 57.2616 33.0226 57.6944 32.5043C57.8703 32.2997 57.965 32.1496 58.0056 32.0542C57.0316 31.3858 55.6924 30.7447 54.7861 30.7447C42.0298 30.7447 29.9769 30.7447 17.3964 32.3133C17.3153 32.4088 17.1935 32.5725 17.1124 32.6816C16.9771 32.8589 16.8418 33.0363 16.7065 33.1863C16.5036 33.5273 16.4089 33.9501 16.3142 34.4003C16.179 35.0823 16.0031 35.9143 15.3403 36.5554L21.9687 36.8964C21.9687 36.8964 22.0904 36.8964 22.1445 36.9237C22.4286 36.9919 22.7533 37.0464 23.105 37.1146C24.363 37.3329 25.7834 37.592 26.4733 38.6151C26.7033 38.9561 26.9468 39.5562 26.7844 40.3883C26.4733 46.54 24.0248 52.5552 21.6576 58.3659C21.1029 59.7436 20.5348 61.1212 20.0072 62.4989C19.7096 63.1127 19.2497 63.5628 18.8168 64.0129C18.5057 64.3266 18.181 64.654 18.0322 64.9132C17.8158 65.677 17.667 66.4681 17.5047 67.3138C17.0853 69.469 16.666 71.7059 15.1915 73.8065C14.975 74.2839 14.9886 74.9659 15.3944 75.4297L15.4214 75.3888ZM7.8867 36.078L8.71187 36.1462C8.68481 36.0507 8.67128 35.9552 8.67128 35.8598C8.7795 32.0132 10.5245 27.3483 15.1238 26.8846C19.7502 26.68 24.4983 26.7754 29.0841 26.8846C33.6428 26.98 38.3638 27.0892 42.8955 26.8846C44.8435 26.6936 46.7643 26.5845 48.6176 26.489C50.4573 26.3935 52.3647 26.2844 54.3261 26.0934C55.5977 25.7661 56.9234 24.7022 57.5592 23.4063C57.7215 22.9699 57.9379 22.4788 58.1408 21.9741C59.5612 18.5095 60.9004 15.2496 60.2511 12.0305C60.2511 11.9896 60.2376 11.9487 60.2376 11.8941C60.0617 11.8395 59.7235 11.7986 59.4801 11.7713C59.0472 11.7304 58.5602 11.6759 58.0867 11.5122L45.2493 9.08424C43.9101 8.82507 42.5709 8.56591 41.2316 8.32039C32.777 6.7245 24.0519 5.06041 15.7732 1.95046C14.2716 1.66402 12.3237 1.86862 11.7149 3.39632C10.7004 7.09278 9.4694 10.3118 8.17077 13.7082C6.98036 16.8318 5.62763 20.3646 4.20726 24.8795C3.93671 25.5888 3.67969 26.2435 3.40914 26.8846C2.42164 29.2989 1.58295 31.3722 1.86702 33.6637C2.04288 35.0823 3.09801 35.3551 5.47883 35.6415C6.23636 35.737 7.02095 35.8325 7.72437 36.0371C7.76495 36.0371 7.81906 36.0644 7.87317 36.078H7.8867ZM17.3559 32.2997H17.3153C17.3153 32.2997 17.3423 32.2997 17.3559 32.2997Z" fill="#C50C33"/>
<path d="M60.5621 32.2178C58.2354 32.2178 56.1251 29.4488 55.8816 29.1214C55.841 29.0669 55.8005 28.9987 55.7734 28.9305C55.327 27.8666 55.2729 26.0251 56.9368 25.3159C57.9919 24.6748 61.5225 16.9136 60.9679 12.1259C60.9138 11.6894 61.1844 11.2802 61.5902 11.1438C61.996 11.0074 64.0386 10.4209 65.229 11.3348C65.5943 11.6212 66.0272 12.1532 66.0001 13.108C66.0001 13.2989 63.9304 32.1768 60.6027 32.2178H60.5621ZM57.4102 28.1394C58.0866 29.0123 59.3852 30.2672 60.3998 30.39C61.8201 28.7941 64.0792 15.495 64.1739 13.0534C64.1739 12.9579 64.1739 12.8352 64.1198 12.7943C63.9169 12.6442 63.3758 12.6442 62.8212 12.7397C63.0105 18.0866 59.5881 26.1888 57.6402 27.0209C57.1667 27.2255 57.3291 27.8938 57.4102 28.153V28.1394Z" fill="#C50C33"/>
<path d="M31.4511 75.4161C31.4511 75.4161 31.3294 75.4161 31.2617 75.4024C31.0994 75.3615 27.2847 74.5431 24.9039 71.0376C23.1724 68.5005 25.0527 62.3898 27.8934 54.0147C28.6645 51.7505 29.3814 49.5954 29.7602 48.1086C30.2336 46.2262 31.3294 45.4624 32.1681 45.1487C35.2388 43.9893 39.6487 46.9628 40.1492 47.3038C40.555 47.5903 40.6632 48.1631 40.3792 48.5723C40.0951 48.9952 39.5269 49.0907 39.1211 48.8042C37.9983 48.0267 34.6706 46.158 32.8174 46.8673C32.1816 47.1129 31.7622 47.6585 31.5323 48.5723C31.14 50.1273 30.4366 52.2143 29.6249 54.6149C27.8122 59.9618 25.0797 68.0504 26.4189 70.0146C28.3804 72.8926 31.627 73.6156 31.654 73.6156C32.141 73.7247 32.4521 74.2021 32.3574 74.6931C32.2627 75.1296 31.8975 75.4161 31.4782 75.4161H31.4511Z" fill="#C50C33"/>
</g>
<defs>
<clipPath id="clip0_59_1417">
<rect width="66" height="83" fill="white"/>
</clipPath>
</defs>
</svg>
