<svg width="69" height="87" viewBox="0 0 69 87" fill="none" xmlns="http://www.w3.org/2000/svg">
<path d="M34.6454 6.66302C36.2411 6.66302 37.3321 7.22054 37.6322 7.51969C37.564 7.66927 37.3867 8.02282 36.8684 8.53954C35.2046 9.99453 23.1893 20.5466 20.2571 24.8843C16.4521 30.5139 14.0927 44.2207 25.5215 51.9444C29.1629 54.4056 32.9543 55.6566 36.8002 55.6566C43.5511 55.6566 50.152 51.89 55.921 44.751L56.0846 44.547C56.9029 43.568 61.158 39.135 63.913 36.2795C64.6085 35.7627 65.5768 35.2188 66.2451 35.0013C66.2724 35.1644 66.286 35.382 66.286 35.6676C66.286 42.7113 66.286 59.2057 46.3742 66.6302L44.6013 67.2965V84.294H17.8568V64.4001L16.6294 63.5978C15.9747 63.1627 0.768154 52.8146 4.23225 32.5808C7.73727 12.0614 29.3947 7.4517 33.6907 6.74461C33.9908 6.69022 34.3181 6.66302 34.6454 6.66302ZM34.6454 3.94342C34.1681 3.94342 33.7044 3.98421 33.2407 4.0522C28.9583 4.7729 5.36422 9.76337 1.54553 32.1049C-2.27316 54.4464 15.1292 65.8551 15.1292 65.8551V87H47.3016V69.173C68.9864 61.0958 68.9864 42.5617 68.9864 35.6676C68.9864 33.0023 67.9499 32.1865 66.6815 32.1865C64.6767 32.1865 62.0718 34.2398 62.0718 34.2398C62.0718 34.2398 55.1572 41.3651 53.9707 42.7929C53.0706 43.8807 46.3061 52.9234 36.7866 52.9234C33.7862 52.9234 30.4994 52.0259 27.0353 49.6871C16.7657 42.7521 19.6434 30.6227 22.5074 26.3937C25.3714 22.1647 38.7232 10.5249 38.7232 10.5249C42.7874 6.55424 38.6278 3.94342 34.6454 3.94342Z" fill="#C50C33"/>
<path d="M38.3004 23.4158C44.7104 23.4158 49.9338 28.6238 49.9338 35.0149C49.9338 41.4059 44.7104 46.614 38.3004 46.614C31.8905 46.614 26.6671 41.4059 26.6671 35.0149C26.6671 28.6238 31.8905 23.4158 38.3004 23.4158ZM38.3004 20.6962C30.363 20.6962 23.9394 27.1008 23.9394 35.0149C23.9394 42.9289 30.363 49.3336 38.3004 49.3336C46.2379 49.3336 52.6614 42.9289 52.6614 35.0149C52.6614 27.1008 46.2379 20.6962 38.3004 20.6962Z" fill="#C50C33"/>
<path d="M38.4641 42.7793C38.4641 42.7793 38.5732 42.8201 38.5732 42.8881C38.5732 42.9561 38.5323 42.9969 38.4641 42.9969C38.3959 42.9969 38.355 42.9561 38.355 42.8881C38.355 42.8201 38.3959 42.7793 38.4641 42.7793ZM38.4641 40.0597C36.8957 40.0597 35.6273 41.3243 35.6273 42.8881C35.6273 44.4518 36.8957 45.7165 38.4641 45.7165C40.0325 45.7165 41.3008 44.4518 41.3008 42.8881C41.3008 41.3243 40.0325 40.0597 38.4641 40.0597Z" fill="#C50C33"/>
<path d="M38.4641 26.7473C38.4641 26.7473 38.5732 26.8017 38.5732 26.8561V35.4772C38.5732 35.4772 38.5186 35.586 38.4641 35.586C38.4095 35.586 38.355 35.5316 38.355 35.4772V26.8561C38.355 26.8561 38.4095 26.7473 38.4641 26.7473ZM38.4641 24.0277C36.9093 24.0277 35.6273 25.2923 35.6273 26.8561V35.4772C35.6273 37.0274 36.8957 38.3056 38.4641 38.3056C40.0325 38.3056 41.3008 37.041 41.3008 35.4772V26.8561C41.3008 25.3059 40.0325 24.0277 38.4641 24.0277Z" fill="#C50C33"/>
<path d="M52.3614 0C51.4749 0 50.6021 0.40794 50.0566 1.16943L45.0104 8.1588C44.0967 9.42341 44.3967 11.1912 45.6514 12.1022C46.1424 12.4558 46.7288 12.6325 47.3017 12.6325C48.1881 12.6325 49.061 12.2246 49.6065 11.4631L54.6526 4.47374C55.5664 3.20913 55.2664 1.44139 54.0116 0.530322C53.5207 0.176774 52.9342 0 52.3614 0Z" fill="#C50C33"/>
<path d="M60.0397 6.32306C59.1532 6.32306 58.2804 6.731 57.7348 7.49249L52.6887 14.4819C51.775 15.7465 52.075 17.5142 53.3297 18.4253C53.8207 18.7788 54.4071 18.9556 54.9799 18.9556C55.8664 18.9556 56.7393 18.5477 57.2848 17.7862L62.3309 10.7968C63.2447 9.53219 62.9446 7.76445 61.6899 6.85338C61.1989 6.49983 60.6125 6.32306 60.0397 6.32306Z" fill="#C50C33"/>
<path d="M66.1769 13.7612C65.2904 13.7612 64.4176 14.1692 63.8721 14.9307L58.8259 21.92C57.9122 23.1846 58.2122 24.9524 59.4669 25.8635C59.9579 26.217 60.5443 26.3938 61.1171 26.3938C62.0036 26.3938 62.8765 25.9858 63.422 25.2243L68.4681 18.235C69.3819 16.9704 69.0818 15.2026 67.8271 14.2916C67.3362 13.938 66.7497 13.7612 66.1769 13.7612Z" fill="#C50C33"/>
</svg>
