<svg width="115" height="76" viewBox="0 0 115 76" fill="none" xmlns="http://www.w3.org/2000/svg">
<path d="M66.684 5.20586C66.808 5.42563 66.9319 5.6454 67.0558 5.85144L67.5239 6.66185L68.9009 9.03813C71.7786 14.0105 74.7528 19.1477 77.6718 24.2299C77.2863 24.3947 76.9421 24.6282 76.6529 24.9304L74.8629 26.771C73.5411 28.1308 72.233 29.4907 70.9249 30.8368C70.0437 31.7434 69.1487 32.6637 68.2537 33.5702C66.3673 35.4795 64.4259 37.4712 62.5533 39.4629C61.4104 40.6716 60.006 41.2348 57.8442 41.3584C55.9579 41.4545 54.0577 41.6194 52.2264 41.7842C51.4278 41.8529 50.6154 41.9216 49.803 41.9902C48.1921 42.1276 46.9666 43.46 46.9666 45.0671V48.1713C46.9666 49.8746 48.3573 51.2619 50.0647 51.2619H66.4086C66.4086 52.9376 66.4086 54.6271 66.4086 56.3166H64.8114C64.4121 56.3166 64.0266 56.3991 63.6686 56.5364H62.8837C61.5481 55.0117 59.5929 54.0777 57.3761 53.9816C57.2797 53.9816 57.1833 53.9816 57.0869 53.9816C54.994 53.9816 53.0113 54.9431 51.6343 56.5364H50.6292C50.3125 56.4265 49.982 56.3716 49.6378 56.3716H19.4283C19.0841 56.3716 18.7398 56.4265 18.4231 56.5364H17.418C16.0411 54.9431 14.017 53.9816 11.869 53.9816C9.67972 53.9816 7.64189 54.9431 6.2512 56.5364H5.42505C5.05329 56.3853 4.66775 56.3166 4.26844 56.3166H3.11183V55.5337C3.11183 53.803 3.11183 52.0173 3.1256 50.2729C3.1256 50.2317 3.1256 50.1768 3.1256 50.1768C4.86052 46.8802 6.6092 43.5836 8.34411 40.2733C10.2305 36.702 12.1169 33.1444 13.9895 29.5594C16.1788 29.5594 18.3543 29.5594 20.5436 29.5594H28.1442C28.1442 33.7213 28.1442 37.897 28.1442 42.0589V48.0889C28.1442 49.7922 29.5348 51.1795 31.2422 51.1795H37.7826C39.4211 51.1795 40.7842 49.902 40.8806 48.2675V48.0477C40.9219 47.773 40.9357 47.512 40.9357 47.2373V45.5203C40.9357 42.004 40.9357 38.3503 40.9357 34.7652C40.9357 33.8312 40.6741 32.8697 40.2059 32.0455C38.7051 29.3945 36.9977 26.3864 35.2766 23.5019C37.576 20.274 40.0269 16.7851 42.409 13.1589C43.3315 11.7578 44.6809 11.0023 47.4072 10.3568C51.7996 9.29911 56.247 8.18652 60.543 7.10139C62.1402 6.70305 63.7237 6.30472 65.3209 5.90638C66.0369 5.72781 66.4913 5.35695 66.6978 5.17838M66.2434 0C65.968 0 65.6651 0.0686788 65.3897 0.206037C64.6875 0.549431 64.3433 1.48346 64.6187 2.32134C64.66 2.47244 64.7288 2.6098 64.7839 2.74715C64.6737 2.82957 64.6187 2.89825 64.5498 2.92572C58.5878 4.40918 52.6395 5.94759 46.6637 7.37611C43.9098 8.03542 41.4589 8.98319 39.8066 11.4968C37.4934 15.0269 35.0563 18.4746 32.6191 21.9223C31.8756 22.9525 31.8343 23.8316 32.4814 24.9029C34.2026 27.7737 35.8549 30.6857 37.5072 33.5977C37.7137 33.9548 37.8376 34.4081 37.8376 34.8202C37.8652 38.9684 37.8514 43.1166 37.8376 47.2785C37.8376 47.567 37.8101 47.8554 37.7963 48.1301H31.256V47.1137C31.256 41.0013 31.256 34.8888 31.256 28.7627C31.256 27.0732 30.7052 26.51 28.9978 26.51C28.1442 26.51 27.3042 26.51 26.4506 26.51C24.4816 26.51 22.5126 26.51 20.5436 26.51C18.2717 26.51 15.986 26.51 13.7141 26.51H13.6865C12.585 26.51 11.8828 26.9358 11.3596 27.9248C7.71073 34.8888 4.0206 41.8254 0.371772 48.7757C0.137696 49.2152 0.027543 49.7509 0.0137738 50.2454C-0.0275336 52.5668 4.67617e-06 54.8881 4.67617e-06 57.2095C4.67617e-06 58.8166 0.592078 59.4072 2.23061 59.4209C2.47845 59.4209 2.7263 59.4209 2.98791 59.4209C3.41476 59.4209 3.82783 59.4209 4.26844 59.4209C4.25467 59.5033 4.2409 59.572 4.22714 59.6407H7.91727C8.59196 58.1435 10.1203 57.0858 11.8828 57.0858C13.5902 57.0858 15.091 58.1435 15.7657 59.6407H19.4696C19.4696 59.6407 19.4558 59.5308 19.4421 59.4759H49.6516C49.6516 59.4759 49.6378 59.5858 49.624 59.6407H53.3142C53.9889 58.171 55.4622 57.0858 57.1145 57.0858C57.1695 57.0858 57.2246 57.0858 57.2659 57.0858C59.1248 57.1683 60.5981 58.1435 61.2314 59.6407H64.8803C64.8665 59.572 64.8527 59.4896 64.839 59.4209C65.3897 59.4209 65.913 59.4209 66.4086 59.4209C66.7116 59.4209 67.0145 59.4209 67.3036 59.4209C68.8733 59.4072 69.5205 58.7616 69.5205 57.1683C69.5205 54.9293 69.5205 52.6904 69.5205 50.4515C69.5205 48.8169 68.8871 48.1851 67.2348 48.1851H66.5326C62.2779 48.1851 58.0232 48.1851 53.7686 48.1851C53.3279 48.1851 52.8873 48.1851 52.4467 48.1851C51.6619 48.1851 50.877 48.1851 50.0784 48.1851V45.0808C52.7496 44.861 55.3796 44.5863 58.0232 44.4489C60.6669 44.3116 62.9664 43.5699 64.8252 41.5919C67.5515 38.6799 70.3879 35.8641 73.1555 33.007C75.0557 31.0566 76.9421 29.0924 78.8835 27.0869C79.2966 27.6776 79.806 27.9523 80.3706 27.9523C80.5771 27.9523 80.7837 27.9111 81.004 27.8424C81.6511 27.6364 82.1055 27.1007 82.0779 26.4414C82.0504 25.8507 81.8163 25.2326 81.5134 24.7106C77.7682 18.1724 73.9817 11.6617 70.2089 5.13718C69.3828 3.69492 68.5566 2.25267 67.6892 0.837882C67.3449 0.288451 66.808 0.0137358 66.2434 0.0137358V0Z" fill="#B12D36"/>
<path d="M11.8415 57.388C13.9757 57.388 15.7106 59.1187 15.7106 61.2478C15.7106 63.3768 13.9757 65.1075 11.8415 65.1075C9.70725 65.1075 7.97234 63.3768 7.97234 61.2478C7.97234 59.1187 9.70725 57.388 11.8415 57.388ZM11.8415 54.0914C7.87595 54.0914 4.66774 57.2919 4.66774 61.2478C4.66774 65.2037 7.87595 68.4041 11.8415 68.4041C15.807 68.4041 19.0152 65.2037 19.0152 61.2478C19.0152 57.2919 15.807 54.0914 11.8415 54.0914Z" fill="#B12D36"/>
<path d="M57.6102 57.388C59.7444 57.388 61.4793 59.1187 61.4793 61.2478C61.4793 63.3768 59.7444 65.1075 57.6102 65.1075C55.4759 65.1075 53.741 63.3768 53.741 61.2478C53.741 59.1187 55.4759 57.388 57.6102 57.388ZM57.6102 54.0914C53.6446 54.0914 50.4364 57.2919 50.4364 61.2478C50.4364 65.2037 53.6446 68.4041 57.6102 68.4041C61.5757 68.4041 64.7839 65.2037 64.7839 61.2478C64.7839 57.2919 61.5757 54.0914 57.6102 54.0914Z" fill="#B12D36"/>
<path d="M29.4522 50.6575H2.32698C1.41822 50.6575 0.674683 49.9158 0.674683 49.0092C0.674683 48.1026 1.41822 47.3609 2.32698 47.3609H29.4522C30.361 47.3609 31.1045 48.1026 31.1045 49.0092C31.1045 49.9158 30.361 50.6575 29.4522 50.6575Z" fill="#B12D36"/>
<path d="M21.1081 44.0231H11.8552C11.1943 44.0231 10.5885 43.6248 10.3269 43.0204C10.0653 42.416 10.2029 41.7018 10.6711 41.2348L19.924 31.7434C20.3921 31.2626 21.1081 31.1115 21.7277 31.3588C22.3473 31.606 22.7604 32.2104 22.7604 32.8834V42.3748C22.7604 43.2814 22.0169 44.0231 21.1081 44.0231ZM15.7657 40.7265H19.4558V36.9355L15.7657 40.7265Z" fill="#B12D36"/>
<path d="M61.0662 43.1853C60.5154 43.1853 59.9647 42.8968 59.648 42.3886L52.8185 31.2214C52.3366 30.4385 52.5844 29.422 53.3692 28.955C54.1541 28.4742 55.173 28.7215 55.6412 29.5044L62.4707 40.6716C62.9526 41.4545 62.7047 42.471 61.9199 42.938C61.6445 43.1028 61.3554 43.1853 61.0662 43.1853Z" fill="#B12D36"/>
<path d="M49.5139 25.164C48.9631 25.164 48.4124 24.8755 48.0957 24.3673L41.2662 13.2001C40.7842 12.4172 41.0321 11.4007 41.8169 10.9337C42.6018 10.4529 43.6207 10.7002 44.0888 11.4831L50.9183 22.6503C51.4003 23.4332 51.1524 24.4497 50.3676 24.9167C50.0922 25.0815 49.803 25.164 49.5139 25.164Z" fill="#B12D36"/>
<path d="M47.5724 50.5751H39.7516C38.8841 50.5751 38.1819 49.8746 38.1819 49.0092V28.2682C38.1819 27.4029 38.8841 26.7023 39.7516 26.7023H47.5724C48.4399 26.7023 49.1421 27.4029 49.1421 28.2682V49.0092C49.1421 49.8746 48.4399 50.5751 47.5724 50.5751ZM41.3212 47.4433H46.0165V29.8203H41.3212V47.4433Z" fill="#B12D36"/>
<path d="M86.8972 12.0463C87.1863 12.1287 87.4755 12.1836 87.7508 12.2798C89.7061 13.049 90.5735 15.178 89.7198 17.101C89.6923 17.1697 89.651 17.2521 89.5959 17.3757H95.3927V19.1614H107.868C107.868 19.3262 107.868 19.4636 107.868 19.5872C107.868 25.6721 107.868 31.7434 107.868 37.8283C107.868 38.0755 107.95 38.1717 108.157 38.2816C111.324 39.9436 113.485 42.4435 114.477 45.8775C116.005 51.1245 114.064 56.5364 109.547 59.6544C109.093 59.9704 108.611 60.2176 108.129 60.4786C107.936 60.5885 107.868 60.6846 107.868 60.9181C107.868 64.146 107.868 67.3739 107.868 70.5881C107.868 72.3051 107.868 74.022 107.868 75.7253C107.868 75.8077 107.868 75.8901 107.868 76H65.1281V19.1614H77.5754V17.4169H83.3998C83.0418 16.7439 82.8903 16.0708 82.9454 15.3566C83.0693 13.7495 84.2259 12.4446 85.8094 12.1287C85.892 12.1149 85.9608 12.0737 86.0435 12.06H86.8972V12.0463ZM95.4065 26.249H77.5754V22.7464H68.6943V72.4562H104.274V61.7697C103.269 61.7697 102.291 61.8521 101.327 61.756C97.6509 61.3989 94.718 59.6956 92.4874 56.7699C92.336 56.5639 92.1707 56.4952 91.9229 56.4952C89.0589 56.4952 86.1949 56.4952 83.3309 56.4952H82.9592V52.9376H90.5735C89.8713 50.5476 89.8988 48.2125 90.5735 45.8225H82.9729V42.2649H83.3722C86.2087 42.2649 89.0451 42.2649 91.8954 42.2649C92.1845 42.2649 92.3635 42.1688 92.5425 41.9353C95.2275 38.5014 98.7386 36.8118 103.117 36.9492C103.503 36.9492 103.888 36.9904 104.301 37.0179V22.7327H95.4203V26.2353L95.4065 26.249ZM113.224 49.3801C113.224 43.4874 108.418 38.6937 102.525 38.7074C96.5493 38.7211 91.9367 43.5149 91.8265 49.1878C91.7164 55.204 96.6457 60.0802 102.566 60.0528C108.432 60.0116 113.224 55.2453 113.21 49.3801H113.224ZM88.2603 15.6176C88.2603 14.6286 87.4755 13.8456 86.4565 13.8456C85.4927 13.8456 84.6941 14.6561 84.6941 15.6176C84.6941 16.5791 85.5202 17.4032 86.4703 17.4032C87.4479 17.4032 88.2603 16.5928 88.2603 15.6176Z" fill="#B12D36"/>
<path d="M95.4065 26.249V22.7464H104.288V37.0316C103.875 37.0041 103.489 36.9767 103.103 36.9629C98.7249 36.8256 95.2137 38.5151 92.5287 41.949C92.3497 42.1825 92.1707 42.2787 91.8816 42.2787C89.0451 42.2787 86.2087 42.2787 83.3585 42.2787H82.9592V45.8362H90.5597C89.8851 48.2125 89.8713 50.5613 90.5597 52.9514H82.9454V56.5089H83.3172C86.1812 56.5089 89.0451 56.5089 91.9091 56.5089C92.157 56.5089 92.3222 56.5776 92.4737 56.7836C94.7043 59.7094 97.6371 61.4263 101.313 61.7697C102.277 61.8659 103.255 61.7835 104.26 61.7835V72.4699H68.6806V22.7327H77.5617V26.2353H95.3927L95.4065 26.249ZM82.9592 31.6197V35.1361H100.708V31.6197H82.9592ZM82.9592 67.1404H100.721V63.624H82.9592V67.1404ZM72.2605 29.8478V36.9217H79.3517V29.8478H72.2605ZM72.2605 47.5669H79.3517V40.5067H72.2605V47.5669ZM79.3792 61.8384H72.2743V68.8986H79.3792V61.8384ZM79.3792 58.2396V51.1657H72.2881V58.2396H79.3792Z" fill="white"/>
<path d="M113.224 49.3663C113.224 55.2315 108.446 59.9978 102.58 60.039C96.6595 60.0802 91.7301 55.204 91.8403 49.174C91.9367 43.5012 96.5493 38.7074 102.539 38.6936C108.418 38.6799 113.224 43.4737 113.238 49.3663H113.224ZM100.708 51.097C100.611 50.9734 100.556 50.8635 100.46 50.7811C99.7025 50.0119 98.9314 49.2427 98.1603 48.4872C97.8436 48.1713 97.4581 48.0065 96.99 48.0752C96.4667 48.1576 96.0812 48.446 95.916 48.9543C95.737 49.4899 95.8746 49.957 96.274 50.3553C97.4168 51.4954 98.5596 52.6492 99.7162 53.7892C100.363 54.4348 101.121 54.4348 101.768 53.7892C104.095 51.4816 106.408 49.1603 108.721 46.8527C109.313 46.262 109.341 45.4379 108.79 44.8885C108.267 44.3665 107.441 44.4077 106.835 44.9846C106.339 45.4654 105.857 45.9599 105.362 46.4406C103.833 47.9653 102.291 49.5037 100.694 51.1108L100.708 51.097Z" fill="white"/>
<path d="M88.2741 15.6038C88.2741 16.5928 87.4617 17.3895 86.4841 17.3895C85.534 17.3895 84.7216 16.5653 84.7079 15.6038C84.7079 14.6286 85.5065 13.8182 86.4703 13.8319C87.4755 13.8319 88.2741 14.6148 88.2741 15.6038Z" fill="white"/>
<path d="M82.9729 31.6198H100.721V35.1361H82.9729V31.6198Z" fill="#B12D36"/>
<path d="M82.9592 67.1404V63.6241H100.721V67.1404H82.9592Z" fill="#B12D36"/>
<path d="M72.2605 29.8478H79.3517V36.9218H72.2605V29.8478ZM74.0368 31.6198V35.1361H77.5617V31.6198H74.0368Z" fill="#B12D36"/>
<path d="M72.2605 47.567V40.5068H79.3517V47.567H72.2605ZM77.5754 45.8088V42.2787H74.0505V45.8088H77.5754Z" fill="#B12D36"/>
<path d="M79.3654 61.8384V68.8986H72.2605V61.8384H79.3654ZM74.023 67.1267H77.5479V63.6104H74.023V67.1267Z" fill="#B12D36"/>
<path d="M79.3654 58.2534H72.2743V51.1794H79.3654V58.2534ZM77.5617 56.4815V52.9788H74.0505V56.4815H77.5617Z" fill="#B12D36"/>
<path d="M100.708 51.0971C102.305 49.49 103.847 47.9653 105.375 46.4269C105.857 45.9324 106.353 45.4517 106.849 44.9709C107.441 44.394 108.267 44.3528 108.804 44.8748C109.355 45.4242 109.327 46.2483 108.735 46.839C106.422 49.1466 104.095 51.4679 101.782 53.7755C101.134 54.4211 100.377 54.4211 99.73 53.7755C98.5872 52.6355 97.4443 51.4817 96.2877 50.3416C95.8884 49.9433 95.7507 49.4625 95.9297 48.9406C96.095 48.4323 96.4805 48.1439 97.0037 48.0615C97.4581 47.9928 97.8436 48.1576 98.1741 48.4735C98.9452 49.2427 99.7025 49.9982 100.474 50.7674C100.556 50.8498 100.625 50.9597 100.721 51.0833L100.708 51.0971Z" fill="#B12D36"/>
<path d="M74.0368 31.6198H77.5617V35.1361H74.0368V31.6198Z" fill="white"/>
<path d="M77.5617 45.8088H74.0368V42.2787H77.5617V45.8088Z" fill="white"/>
<path d="M74.0368 67.1267V63.6104H77.5617V67.1267H74.0368Z" fill="white"/>
<path d="M77.5617 56.4677H74.0505V52.9651H77.5617V56.4677Z" fill="white"/>
</svg>
