<svg width="60" height="96" viewBox="0 0 60 96" fill="none" xmlns="http://www.w3.org/2000/svg">
<path d="M10.6103 65.083C10.07 65.054 9.58981 65.0685 9.12457 64.9814C7.69886 64.7494 6.70836 63.821 6.12307 62.211C5.02752 59.2085 3.94698 56.1915 2.83642 53.189C1.74087 50.23 0.675338 47.2421 0.30015 43.993C0.135068 42.528 0.030015 41.0485 0.030015 39.569C0 32.7227 0 25.8765 0 19.0302C0 16.7675 0.765384 15.0124 2.32617 13.794C3.07654 13.2138 3.90196 12.9237 4.7874 12.9237C13.6268 12.9237 22.4513 12.9092 31.2907 12.9237C33.947 12.9237 36.0481 15.5491 36.0631 18.8561C36.0781 25.8475 36.0631 32.8243 36.0631 39.8156C36.0631 43.964 35.1926 47.8513 33.8119 51.608C32.5063 55.1327 31.2307 58.6573 29.91 62.1675C29.2497 63.9081 28.0641 64.7494 26.5333 64.8944C26.1581 64.9234 25.7829 64.8944 25.3777 64.8944C25.3777 65.17 25.3477 65.3876 25.3477 65.6196C25.3477 74.4241 25.3477 83.2285 25.3477 92.0184C25.3477 92.7726 25.3027 93.4979 24.9725 94.1651C24.4172 95.3255 23.5918 95.9637 22.4963 95.9782C19.4798 96.0072 16.4482 96.0072 13.4317 95.9782C11.7959 95.9637 10.6103 94.4117 10.5953 92.352C10.5803 89.8427 10.5953 87.3333 10.5953 84.824C10.5953 78.4419 10.5953 72.0453 10.5953 65.6632C10.5953 65.4746 10.5953 65.286 10.5953 65.054L10.6103 65.083ZM18.039 15.4765C13.6719 15.4765 9.30466 15.4765 4.95248 15.4765C3.69185 15.4765 2.74638 16.2598 2.26614 17.6087C2.05603 18.2034 2.16108 18.7981 2.16108 19.4073C2.16108 25.9925 2.1911 32.5922 2.16108 39.1774C2.14608 43.0212 2.7914 46.6909 4.06704 50.1865C5.41772 53.8853 6.76839 57.584 8.11907 61.2827C8.32917 61.8629 8.70436 62.1965 9.1846 62.3706C9.46975 62.4721 9.79991 62.5011 10.1001 62.5011C14.0771 62.5011 18.054 62.5011 22.031 62.5011C23.4868 62.5011 24.9425 62.5156 26.4132 62.5011C27.2387 62.4866 27.854 62.037 28.1691 61.0216C28.4693 60.0498 28.8144 59.0925 29.1446 58.1352C30.3152 54.8716 31.5308 51.637 32.6414 48.3444C33.5118 45.7481 33.992 43.0212 34.007 40.1927C34.007 33.0999 34.007 25.9925 34.007 18.8997C34.007 18.6821 34.007 18.45 33.962 18.2469C33.7069 16.5789 32.5963 15.4765 31.1406 15.4765C26.7734 15.4765 22.4062 15.4765 18.054 15.4765H18.039ZM12.7864 64.9089V65.4021C12.7864 74.308 12.7864 83.214 12.7864 92.1344C12.7864 93.1353 13.0565 93.4544 13.882 93.4544C16.6734 93.4544 19.4648 93.4399 22.2411 93.4544C23.0365 93.4544 23.4868 93.0918 23.4868 91.8878C23.4868 83.0689 23.4868 74.2645 23.4868 65.4456C23.4868 65.0249 23.4117 64.8799 23.0365 64.8799C19.7649 64.8944 16.4783 64.8799 13.2066 64.8799C13.0866 64.8799 12.9515 64.8799 12.7714 64.8799L12.7864 64.9089Z" fill="#C50C33"/>
<path d="M17.9941 19.741C21.761 19.741 25.5279 19.741 29.3098 19.741C30.3003 19.741 30.6154 20.1181 30.6154 21.322C30.6154 27.2254 30.5854 33.1144 30.6154 39.0179C30.6455 42.2814 30.1352 45.371 28.9796 48.3154C28.7995 48.7651 28.6344 49.2292 28.4694 49.6934C28.1992 50.5057 27.9741 50.6942 27.2387 50.6942C24.1472 50.6942 21.0707 50.6942 17.9791 50.6942C14.9026 50.6942 11.826 50.6942 8.76449 50.6942C7.95408 50.6942 7.75898 50.5347 7.44383 49.6354C7.05363 48.4895 6.60341 47.3581 6.25823 46.1977C5.61291 44.0655 5.34277 41.8463 5.34277 39.569C5.34277 33.4915 5.34277 27.4285 5.34277 21.351C5.34277 20.1036 5.64292 19.741 6.66344 19.741C10.4303 19.741 14.1972 19.741 17.9791 19.741H17.9941ZM7.42882 22.1633C7.42882 22.3953 7.42882 22.5839 7.42882 22.7725C7.42882 28.0667 7.47384 33.3755 7.41381 38.6697C7.3838 41.8318 7.87905 44.8053 9.01962 47.6337C9.15468 47.9528 9.27474 48.0544 9.55989 48.0544C13.5519 48.0544 17.5439 48.0544 21.5359 48.0544C23.1717 48.0544 24.8225 48.0544 26.4584 48.0544C26.6084 48.0544 26.8335 47.9528 26.8786 47.8078C27.8991 45.1969 28.5744 42.47 28.5594 39.5255C28.5294 33.9122 28.5594 28.2988 28.5594 22.6854C28.5594 22.5259 28.5594 22.3518 28.5294 22.1778H7.42882V22.1633Z" fill="#C50C33"/>
<path d="M21.2356 56.6123C21.2356 58.73 19.7949 60.5141 18.069 60.5141C16.3131 60.5141 14.8574 58.7736 14.8424 56.6268C14.8424 54.4946 16.2831 52.696 18.039 52.696C19.7949 52.696 21.2356 54.4511 21.2356 56.6123ZM18.054 55.2344C17.4537 55.2344 16.9435 55.8146 16.9134 56.5543C16.8834 57.3086 17.3937 57.9468 18.009 57.9613C18.6393 57.9613 19.1496 57.3521 19.1496 56.5978C19.1496 55.8726 18.6393 55.2344 18.039 55.2344H18.054Z" fill="#C50C33"/>
<path d="M40.4903 93.3239C39.6648 93.3239 38.9895 92.6712 38.9895 91.8735C38.9895 91.0757 39.6648 90.423 40.4903 90.423C49.5998 90.423 56.9985 83.2721 56.9985 74.4677V18.8563C56.9985 10.0518 49.5998 2.90096 40.4903 2.90096H37.1736C25.918 2.90096 20.6653 6.28058 20.6653 13.5475C20.6653 14.3453 19.99 14.998 19.1646 14.998C18.3392 14.998 17.6638 14.3453 17.6638 13.5475C17.6638 4.55451 24.2221 0 37.1736 0H40.4903C51.2506 0 60 8.4563 60 18.8563V74.4677C60 84.8676 51.2506 93.3239 40.4903 93.3239Z" fill="#C50C33"/>
<path d="M41.8711 95.5721C41.3608 95.5721 40.8656 95.4705 40.3853 95.253C39.5149 94.8759 38.8546 94.1796 38.5244 93.3238C38.1942 92.4681 38.2242 91.5252 38.6294 90.6985C39.0346 89.8717 39.74 89.219 40.6254 88.8999L49.3598 85.7668C50.2453 85.4477 51.2208 85.4767 52.0762 85.8684C52.9466 86.2455 53.6069 86.9417 53.9371 87.7975C54.2673 88.6533 54.2373 89.5961 53.8321 90.4229C53.4419 91.2642 52.7215 91.9024 51.8361 92.2215L43.1017 95.3545C42.6965 95.4996 42.2763 95.5721 41.8711 95.5721ZM50.5904 88.4502C50.5904 88.4502 50.4704 88.4502 50.3953 88.4792L41.661 91.6123C41.4809 91.6848 41.3908 91.8153 41.3458 91.9024C41.3008 91.9894 41.2558 92.1344 41.3308 92.323C41.4058 92.4971 41.5409 92.5841 41.6309 92.6276C41.706 92.6566 41.8711 92.7146 42.0662 92.6421L50.8005 89.5091C50.9806 89.4366 51.0707 89.306 51.1157 89.219C51.1457 89.1465 51.2057 88.9869 51.1307 88.7983C51.0557 88.6243 50.9206 88.5373 50.8306 88.4937C50.7855 88.4647 50.6955 88.4357 50.5904 88.4357V88.4502Z" fill="#C50C33"/>
</svg>
