<svg width="87" height="87" viewBox="0 0 87 87" fill="none" xmlns="http://www.w3.org/2000/svg">
<g clip-path="url(#clip0_6_442)">
<path d="M36.5613 65.8072C20.2343 65.8072 6.94482 52.5922 6.94482 36.3566C6.94482 20.121 20.2343 6.90594 36.5613 6.90594C52.8884 6.90594 66.1778 20.121 66.1778 36.3566C66.1778 52.5922 52.8884 65.8072 36.5613 65.8072ZM36.5613 9.3419C21.5816 9.3419 9.39449 21.4608 9.39449 36.3566C9.39449 51.2524 21.5816 63.3713 36.5613 63.3713C51.541 63.3713 63.7282 51.2524 63.7282 36.3566C63.7282 21.4608 51.541 9.3419 36.5613 9.3419Z" fill="#B12D36"/>
<path d="M36.5613 72.7253C16.4005 72.7253 0 56.4045 0 36.3566C0 16.3087 16.4005 0 36.5613 0C56.7221 0 73.1226 16.3087 73.1226 36.3566C73.1226 56.4045 56.7221 72.7132 36.5613 72.7132V72.7253ZM36.5613 2.43595C17.7479 2.43595 2.44967 17.6485 2.44967 36.3566C2.44967 55.0647 17.7479 70.2772 36.5613 70.2772C55.3748 70.2772 70.673 55.0647 70.673 36.3566C70.673 17.6485 55.3748 2.43595 36.5613 2.43595Z" fill="#B12D36"/>
<path d="M19.7566 38.1226C16.2658 38.1226 13.4242 35.2969 13.4242 31.8257C13.4242 28.3545 16.2658 25.5287 19.7566 25.5287C23.2474 25.5287 26.089 28.3545 26.089 31.8257C26.089 35.2969 23.2474 38.1226 19.7566 38.1226ZM19.7566 27.9647C17.6131 27.9647 15.8739 29.6942 15.8739 31.8257C15.8739 33.9571 17.6131 35.6867 19.7566 35.6867C21.9 35.6867 23.6393 33.9571 23.6393 31.8257C23.6393 29.6942 21.9 27.9647 19.7566 27.9647Z" fill="#B12D36"/>
<path d="M34.0749 52.3608C30.5841 52.3608 27.7425 49.5351 27.7425 46.0638C27.7425 42.5926 30.5841 39.7669 34.0749 39.7669C37.5657 39.7669 40.4073 42.5926 40.4073 46.0638C40.4073 49.5351 37.5657 52.3608 34.0749 52.3608ZM34.0749 42.2029C31.9314 42.2029 30.1922 43.9324 30.1922 46.0638C30.1922 48.1953 31.9314 49.9248 34.0749 49.9248C36.2183 49.9248 37.9576 48.1953 37.9576 46.0638C37.9576 43.9324 36.2183 42.2029 34.0749 42.2029Z" fill="#B12D36"/>
<path d="M51.7982 34.7488C48.3075 34.7488 45.4659 31.9231 45.4659 28.4519C45.4659 24.9807 48.3075 22.155 51.7982 22.155C55.289 22.155 58.1306 24.9807 58.1306 28.4519C58.1306 31.9231 55.289 34.7488 51.7982 34.7488ZM51.7982 24.5909C49.6548 24.5909 47.9155 26.3204 47.9155 28.4519C47.9155 30.5834 49.6548 32.3129 51.7982 32.3129C53.9417 32.3129 55.681 30.5834 55.681 28.4519C55.681 26.3204 53.9417 24.5909 51.7982 24.5909Z" fill="#B12D36"/>
<path d="M72.3142 14.3478C68.8235 14.3478 65.9818 11.5221 65.9818 8.05084C65.9818 4.57961 68.8235 1.75391 72.3142 1.75391C75.805 1.75391 78.6466 4.57961 78.6466 8.05084C78.6466 11.5221 75.805 14.3478 72.3142 14.3478ZM72.3142 4.18986C70.1708 4.18986 68.4315 5.91938 68.4315 8.05084C68.4315 10.1823 70.1708 11.9118 72.3142 11.9118C74.4577 11.9118 76.197 10.1823 76.197 8.05084C76.197 5.91938 74.4577 4.18986 72.3142 4.18986Z" fill="#B12D36"/>
<path d="M14.649 28.9269H8.8678V31.3629H14.649V28.9269Z" fill="#B12D36"/>
<path d="M24.333 34.4499L22.6009 36.1724L29.7028 43.2346L31.435 41.5121L24.333 34.4499Z" fill="#B12D36"/>
<path d="M46.7423 31.8691L37.3434 40.9865L39.054 42.7301L48.4528 33.6128L46.7423 31.8691Z" fill="#B12D36"/>
<path d="M59.3286 19.8064L55.4587 23.4481L57.1425 25.2174L61.0124 21.5757L59.3286 19.8064Z" fill="#B12D36"/>
<path d="M67.9449 10.9012L64.206 14.7607L65.9702 16.4508L69.7091 12.5912L67.9449 10.9012Z" fill="#B12D36"/>
<path d="M86.9387 6.90594H78.1199V9.3419H86.9387V6.90594Z" fill="#B12D36"/>
<path d="M79.5775 87C77.679 87 75.7805 86.2814 74.323 84.8442L55.8402 66.4649L57.8612 65.0277L76.0622 83.1268C78.0097 85.0512 81.1698 85.0512 83.105 83.1268C85.0403 81.2024 85.0403 78.06 83.105 76.1235L64.8672 57.9878L66.4473 56.1121L84.8443 74.4061C87.7349 77.2805 87.7349 81.9697 84.8443 84.8563C83.399 86.2936 81.4882 87.0122 79.5898 87.0122L79.5775 87Z" fill="#B12D36"/>
<path d="M63.4342 71.0079L61.7072 69.2662L70.1463 60.8744L71.1016 63.3712L63.4342 71.0079Z" fill="#B12D36"/>
</g>
<defs>
<clipPath id="clip0_6_442">
<rect width="87" height="87" fill="white"/>
</clipPath>
</defs>
</svg>
