<svg width="117" height="71" viewBox="0 0 117 71" fill="none" xmlns="http://www.w3.org/2000/svg">
<path d="M19.8173 48.4735L19.5809 48.4291C18.0296 47.7928 16.9806 46.7865 16.4635 45.4695C15.5326 43.1167 16.6408 40.601 16.6851 40.4974C16.8919 40.1275 21.088 32.5954 22.4029 30.9381C23.5406 29.5027 23.4519 26.6467 23.4372 26.6171V21.6302H24.6487V26.5875C24.6487 26.6911 24.7669 29.9022 23.3485 31.6927C22.0926 33.2613 17.808 40.9562 17.7636 41.045C17.7636 41.045 16.8476 43.1759 17.5863 45.0404C17.9705 46.017 18.7683 46.7717 19.9355 47.2749H34.2375C34.3262 47.2749 37.5471 46.9641 37.6209 42.8651L30.4404 30.1834V21.5562H31.6519V29.8726L38.8325 42.5543V42.7171C38.8325 48.1035 34.3262 48.4883 34.2818 48.4883H19.8173V48.4735Z" fill="#C50C33"/>
<path d="M30.7507 22.4145H28.5788V21.2011H30.7507C31.1644 21.2011 31.5337 20.6832 31.5337 20.0765C31.5337 19.4697 31.1644 18.9518 30.7507 18.9518H24.2646C23.8509 18.9518 23.4815 19.4845 23.4815 20.0765C23.4815 20.6684 23.8509 21.2011 24.2646 21.2011H25.8011V22.4145H24.2646C23.1712 22.4145 22.27 21.3639 22.27 20.0765C22.27 18.789 23.1564 17.7384 24.2646 17.7384H30.7507C31.844 17.7384 32.7453 18.789 32.7453 20.0765C32.7453 21.3639 31.8588 22.4145 30.7507 22.4145Z" fill="#C50C33"/>
<path d="M20.9106 46.017L20.6447 45.9578C19.64 45.4695 17.9852 44.0045 18.8569 41.918C19.7582 39.7576 22.2995 36.5612 22.4177 36.4133L22.595 36.1913H30.0415V37.4047H23.1712C22.5802 38.1742 20.6742 40.7046 19.9651 42.3916C19.4036 43.7382 20.6299 44.5668 21.0436 44.8036H34.0306C34.6807 44.6704 34.8433 44.3153 34.9024 44.2117C35.2717 43.4126 34.5921 41.9624 34.3261 41.5185C33.1442 39.7132 31.6076 37.5971 31.253 37.3307L31.7406 36.2357C31.9179 36.2949 32.4645 36.502 35.3456 40.8822C35.4933 41.1338 36.6753 43.2202 35.9957 44.7148C35.7741 45.1884 35.2865 45.7951 34.1341 46.017H20.9106Z" fill="#C50C33"/>
<path d="M29.6278 42.0512C29.0368 42.0512 28.564 41.5776 28.564 40.9857C28.564 40.3938 29.0368 39.9203 29.6278 39.9203C30.2187 39.9203 30.6915 40.3938 30.6915 40.9857C30.6915 41.5776 30.2187 42.0512 29.6278 42.0512ZM29.6278 40.8378C29.5539 40.8378 29.48 40.8969 29.48 40.9857C29.48 41.1485 29.7755 41.1485 29.7755 40.9857C29.7755 40.9117 29.7164 40.8378 29.6278 40.8378Z" fill="#C50C33"/>
<path d="M116.415 49.4945C116.356 47.7187 115.661 46.1797 114.376 45.0255C111.613 42.5691 109.352 40.5714 107.225 38.7512C105.23 37.0347 102.955 36.1764 100.443 36.2356C100.414 36.2356 100.325 36.206 100.31 36.1764C97.2962 33.3648 94.2822 30.5385 91.2681 27.7121C87.9142 24.5749 84.5751 21.4378 81.2065 18.3007C79.7881 16.9837 78.5766 15.9626 77.4094 15.1043C75.991 14.0537 74.3362 13.5358 72.4746 13.5358H72.445C68.9286 13.5358 65.427 13.5358 61.9106 13.5358C62.7676 14.0537 63.3881 14.8084 63.787 15.6667C66.6681 15.6667 69.564 15.6667 72.445 15.6667H72.4746C73.893 15.6667 75.0897 16.0514 76.1535 16.8209C77.2616 17.6348 78.3993 18.6114 79.7586 19.8692C83.1124 22.9916 86.4663 26.1287 89.8054 29.2658C92.8195 32.0922 95.8335 34.9186 98.8476 37.7302C99.2613 38.1149 99.9114 38.3517 100.473 38.3517C102.467 38.3073 104.226 38.9732 105.836 40.3494C107.949 42.1547 110.209 44.1524 112.957 46.5941C113.785 47.334 114.243 48.355 114.287 49.5241C114.361 52.3356 114.361 55.2064 114.346 57.9884V58.7283C114.346 59.5274 113.947 60.1933 113.09 60.8296C111.997 61.6435 110.682 61.8802 109.412 62.0282C108.924 62.0874 108.451 62.117 107.993 62.117C107.905 62.117 107.831 62.117 107.786 62.117C107.786 62.0578 107.757 61.9838 107.742 61.8802C107.476 59.9269 106.826 58.1364 105.806 56.5382C104.048 53.7858 101.477 52.2173 98.1679 51.8769C95.1982 51.5662 92.7604 52.2173 90.7067 53.8302C88.8746 55.2804 87.604 57.3225 86.8357 60.0749C86.7175 60.4744 86.6436 60.9036 86.555 61.3179V61.4067H32.4941C32.3463 61.4067 32.2429 61.4067 32.169 61.4067C32.1395 61.2587 32.1099 61.0811 32.0951 60.9924C31.4746 56.7602 29.4357 54.0078 26.0375 52.7944C21.7676 51.2702 17.8523 51.8917 14.6905 54.5997C12.8436 56.1831 11.7207 58.4027 11.2775 61.3919V61.4215C10.5831 61.4215 9.88865 61.4215 9.19423 61.4215C7.65766 61.4215 6.07675 61.4067 4.51063 61.4511C3.53549 61.4955 2.85585 60.8296 2.8263 59.8677C2.76721 58.5951 2.79676 57.2633 2.8263 55.9907V55.014C2.85585 53.3271 2.90018 51.6549 2.9445 49.968L3.0036 47.3932C3.07748 44.3892 3.15135 41.3853 3.26955 38.3813C3.38775 35.2294 3.52072 32.625 3.69802 30.1537L3.77189 28.9847C3.93441 26.5578 4.11171 24.0422 4.7027 21.6746C5.19027 19.7508 5.92901 18.3451 7.03712 17.2796C8.14522 16.2142 9.40108 15.6962 10.8786 15.6962C18.6205 15.6962 26.3477 15.6962 34.0897 15.6962H39.4382C39.5859 14.9268 39.8814 14.1869 40.3247 13.5654H34.075C26.3477 13.5654 18.6058 13.5654 10.8638 13.5654C8.82486 13.5654 7.03712 14.3053 5.53009 15.7554C4.14126 17.102 3.1809 18.8778 2.60468 21.1714C1.96937 23.7315 1.79207 26.3359 1.61477 28.8663L1.5409 30.0353C1.3636 32.5214 1.23063 35.1702 1.11243 38.3369C1.00901 41.3409 0.935133 44.3596 0.846485 47.3636L0.787386 49.9384C0.743061 51.6253 0.698737 53.3271 0.683962 55.014V55.9759C0.654413 57.2781 0.624863 58.6395 0.683962 59.9713C0.772611 62.1022 2.44216 63.656 4.56973 63.6116C6.1063 63.5672 7.67243 63.582 9.17946 63.582C9.82955 63.582 10.4944 63.582 11.1445 63.582C12.4742 63.5968 13.213 63.0345 13.405 61.7323C13.7744 59.2462 14.6314 57.5001 16.0941 56.2423C18.6649 54.0374 21.7823 53.5639 25.3431 54.8217C27.973 55.7539 29.4948 57.8848 29.9971 61.3179C30.2335 62.8717 30.6472 63.5672 32.5088 63.5672H86.6584C87.6631 63.5672 88.387 62.9753 88.5939 61.9986L88.6382 61.7619C88.7121 61.4067 88.7712 61.0368 88.8746 60.6816C89.5247 58.3436 90.5294 56.7158 92.0069 55.5468C93.6025 54.289 95.5528 53.7858 97.9315 54.0374C100.591 54.3185 102.571 55.5172 103.989 57.722C104.846 59.0539 105.393 60.5632 105.614 62.2058C105.821 63.6856 106.486 64.2923 107.919 64.2923C107.949 64.2923 107.978 64.2923 108.008 64.2923C108.54 64.2923 109.086 64.2479 109.633 64.1887C111.111 64.0259 112.839 63.7004 114.346 62.5905C115.75 61.5547 116.459 60.2673 116.459 58.7727V58.0328C116.474 55.236 116.489 52.3504 116.4 49.5093L116.415 49.4945Z" fill="#C50C33"/>
<path d="M60.2706 38.6181H39.8519C39.9848 39.0176 40.0735 39.4172 40.103 39.8315H60.2706C61.0684 39.8315 61.7185 40.4826 61.7185 41.2669V43.8861C61.7185 44.6852 61.0684 45.3363 60.2706 45.3363H39.8519C39.7632 45.7506 39.6155 46.165 39.4382 46.5497H60.2706C61.7333 46.5497 62.9153 45.3659 62.9153 43.9009V41.2817C62.9153 39.8167 61.7333 38.6329 60.2706 38.6329V38.6181Z" fill="#C50C33"/>
<path d="M45.5549 26.6466C42.201 26.6466 39.4825 29.3694 39.4825 32.7285V37.8042C39.7484 38.2777 39.9405 38.7808 40.0439 39.2988H40.694V32.7285C40.694 30.0353 42.8807 27.8601 45.5549 27.8601C48.2291 27.8601 50.4158 30.0501 50.4158 32.7285V39.2988H51.6273V32.7285C51.6273 29.3694 48.9088 26.6466 45.5549 26.6466Z" fill="#C50C33"/>
<path d="M45.6731 37.0791C43.7081 37.0791 42.0976 35.4661 42.0976 33.498C42.0976 31.5299 43.7081 29.917 45.6731 29.917C47.6382 29.917 49.2486 31.5299 49.2486 33.498C49.2486 35.4661 47.6382 37.0791 45.6731 37.0791ZM45.6731 31.1304C44.3729 31.1304 43.3092 32.1958 43.3092 33.498C43.3092 34.8002 44.3729 35.8657 45.6731 35.8657C46.9733 35.8657 48.0371 34.8002 48.0371 33.498C48.0371 32.1958 46.9733 31.1304 45.6731 31.1304Z" fill="#C50C33"/>
<path d="M49.8396 18.1971C47.7416 18.1971 46.0277 16.4806 46.0277 14.3793C46.0277 12.278 47.7416 10.5614 49.8396 10.5614C51.9376 10.5614 53.6515 12.278 53.6515 14.3793C53.6515 16.4806 51.9376 18.1971 49.8396 18.1971ZM49.8396 11.7601C48.4064 11.7601 47.2392 12.9291 47.2392 14.3645C47.2392 15.7999 48.4064 16.9689 49.8396 16.9689C51.2728 16.9689 52.44 15.7999 52.44 14.3645C52.44 12.9291 51.2728 11.7601 49.8396 11.7601Z" fill="#C50C33"/>
<path d="M41.3884 28.1856H32.6713V29.399H41.3884V28.1856Z" fill="#C50C33"/>
<path d="M34.6807 32.6694H40.0883V31.4707H33.4692L34.6807 32.6694Z" fill="#C50C33"/>
<path d="M58.1578 32.6693H51.0216V31.4559H58.1578C60.1229 31.4559 61.7185 29.8578 61.7185 27.8897V19.884C61.7185 17.9159 60.1229 16.3178 58.1578 16.3178H53.0458V15.1043H58.1578C60.7877 15.1043 62.9153 17.25 62.9153 19.8692V27.8749C62.9153 30.5089 60.773 32.6398 58.1578 32.6398V32.6693Z" fill="#C50C33"/>
<path d="M58.2169 34.9186H50.9182V33.7052H58.2169C61.7776 33.7052 64.6883 30.8048 64.6883 27.2238V20.2688C64.6883 16.7025 61.7924 13.7873 58.2169 13.7873H52.8094V12.5739H58.2169C62.4425 12.5739 65.8998 16.0218 65.8998 20.2688V27.2238C65.8998 31.4707 62.4573 34.9186 58.2169 34.9186Z" fill="#C50C33"/>
<path d="M44.8753 22.5625L37.0594 17.5312L46.5891 2.67419L54.405 7.72025L51.849 11.6861L50.8443 11.035L52.7355 8.0754L46.9585 4.34635L38.729 17.1761L44.5059 20.8903L47.2983 16.5545L48.3178 17.2056L44.8753 22.5625Z" fill="#C50C33"/>
<path d="M51.8933 7.2763L47.7859 4.90865L50.1499 0.794861L54.2573 3.16251L51.8933 7.2763ZM49.4407 4.46472L51.4501 5.61895L52.6025 3.60645L50.5931 2.45222L49.4407 4.46472Z" fill="#C50C33"/>
<path d="M41.1964 24.279L37.089 21.9113L39.453 17.8123L43.5603 20.18L41.1964 24.2938V24.279ZM38.7438 21.4674L40.7531 22.6364L41.9056 20.6239L39.8962 19.4697L38.7438 21.4822V21.4674Z" fill="#C50C33"/>
<path d="M97.0598 70.4926C93.0559 70.4926 89.8054 67.2371 89.8054 63.2269C89.8054 59.2167 93.0559 55.9464 97.0598 55.9464C101.064 55.9464 104.314 59.2167 104.314 63.2269C104.314 67.2371 101.064 70.4926 97.0598 70.4926ZM97.0598 57.3669C93.8389 57.3669 91.209 60.0009 91.209 63.2269C91.209 66.4528 93.8389 69.0868 97.0598 69.0868C100.281 69.0868 102.911 66.4528 102.911 63.2269C102.911 60.0009 100.281 57.3669 97.0598 57.3669Z" fill="#C50C33"/>
<path d="M97.0598 66.4972C98.8713 66.4972 100.34 65.0264 100.34 63.2121C100.34 61.3978 98.8713 59.927 97.0598 59.927C95.2484 59.927 93.7798 61.3978 93.7798 63.2121C93.7798 65.0264 95.2484 66.4972 97.0598 66.4972Z" fill="#C50C33"/>
<path d="M21.4573 70.0339C17.4533 70.0339 14.2029 66.7783 14.2029 62.7681C14.2029 58.7579 17.4533 55.4876 21.4573 55.4876C25.4613 55.4876 28.7117 58.7579 28.7117 62.7681C28.7117 66.7783 25.4613 70.0339 21.4573 70.0339ZM21.4573 56.9082C18.2364 56.9082 15.6065 59.5422 15.6065 62.7681C15.6065 65.9941 18.2364 68.6281 21.4573 68.6281C24.6782 68.6281 27.3081 65.9941 27.3081 62.7681C27.3081 59.5422 24.6782 56.9082 21.4573 56.9082Z" fill="#C50C33"/>
<path d="M21.4573 66.0533C23.2688 66.0533 24.7373 64.5825 24.7373 62.7681C24.7373 60.9538 23.2688 59.483 21.4573 59.483C19.6458 59.483 18.1773 60.9538 18.1773 62.7681C18.1773 64.5825 19.6458 66.0533 21.4573 66.0533Z" fill="#C50C33"/>
<path d="M90.5146 38.6625H71.3369C70.9528 38.6625 70.6277 38.3518 70.6277 37.9522V21.0383C70.6277 20.7571 70.7903 20.5056 71.0414 20.3872C71.2926 20.2688 71.5881 20.3132 71.795 20.5056L90.9726 37.4195C91.1942 37.6119 91.2681 37.9226 91.1647 38.2038C91.0613 38.4849 90.7953 38.6625 90.4998 38.6625H90.5146ZM72.0461 37.2419H88.653L72.0461 22.5921V37.2419Z" fill="#C50C33"/>
</svg>
