<svg width="80" height="87" viewBox="0 0 80 87" fill="none" xmlns="http://www.w3.org/2000/svg">
<path d="M31.8711 87C26.0273 87 20.1236 85.2202 15.014 81.5399L12.0322 79.383C-0.914028 70.0012 -3.88087 51.7656 5.42424 38.7186L30.0281 4.28363L32.4555 6.04837L7.86664 40.4834C-0.479489 52.1729 2.17269 68.5231 13.7854 76.9244L16.7672 79.0813C28.3798 87.4827 44.6226 84.8129 52.9687 73.1234L77.5576 38.6884L79.985 40.4532L55.3961 74.8882C49.7472 82.7918 40.8616 87 31.8711 87Z" fill="#C50C33"/>
<path d="M29.4287 70.0314C27.0463 70.0314 24.7687 69.3074 22.8507 67.9197L22.3712 67.5728C19.809 65.7176 18.1607 62.8819 17.7412 59.6089C17.3366 56.366 18.1757 53.0929 20.1086 50.378L43.6486 17.406L29.7134 7.31537L31.4666 4.87189L47.8442 16.7273L22.551 52.1125C21.0526 54.2091 20.4083 56.728 20.723 59.2016C21.0376 61.6451 22.2364 63.7417 24.1244 65.0992L24.6039 65.4461C26.4919 66.8036 28.8444 67.3013 31.2418 66.8187C33.6842 66.3209 35.8419 64.9031 37.3403 62.8065L62.6335 27.4062L79.0111 39.2616L77.2579 41.7051L63.3227 31.6144L39.7827 64.5713C37.8498 67.2862 35.0178 69.1415 31.8412 69.775C31.032 69.9409 30.2379 70.0163 29.4437 70.0163L29.4287 70.0314Z" fill="#C50C33"/>
<path d="M23.5255 24.0217L21.7763 26.4712L33.1401 34.694L34.8893 32.2445L23.5255 24.0217Z" fill="#C50C33"/>
<path d="M57.8573 48.8593L56.1081 51.3087L65.5252 58.1229L67.2744 55.6734L57.8573 48.8593Z" fill="#C50C33"/>
<path d="M28.9043 25.3096C28.6046 25.3096 28.2899 25.2191 28.0352 25.0231C27.3609 24.5404 27.2111 23.5901 27.6906 22.9114L33.3845 14.9324C33.864 14.2536 34.808 14.1028 35.4823 14.5855C36.1566 15.0681 36.3064 16.0184 35.8269 16.6971L30.133 24.6761C29.8333 25.0834 29.3838 25.3096 28.9193 25.3096H28.9043Z" fill="#C50C33"/>
<path d="M61.0601 48.583C60.7604 48.583 60.4458 48.4925 60.191 48.2964C59.5168 47.8138 59.3669 46.8635 59.8464 46.1848L65.5404 38.2058C66.0199 37.527 66.9638 37.3762 67.6381 37.8588C68.3124 38.3415 68.4623 39.2918 67.9828 39.9705L62.2888 47.9495C61.9891 48.3568 61.5396 48.583 61.0751 48.583H61.0601Z" fill="#C50C33"/>
<path d="M35.7071 24.1935C35.4074 24.1935 35.0927 24.103 34.838 23.9069L26.9114 18.1753C26.2371 17.6926 26.0873 16.7424 26.5668 16.0636C27.0463 15.3849 27.9903 15.234 28.6645 15.7167L36.5911 21.4483C37.2654 21.931 37.4152 22.8812 36.9358 23.56C36.6361 23.9672 36.1866 24.1935 35.722 24.1935H35.7071Z" fill="#C50C33"/>
<path d="M51.5602 20.3623C51.2605 20.3623 50.9459 20.2718 50.6911 20.0758C50.0169 19.5931 49.867 18.6429 50.3465 17.9641L54.4372 12.2325L50.6612 10.9052C50.2116 10.7543 49.867 10.3923 49.7322 9.93984C49.5973 9.48734 49.6722 8.9896 49.9419 8.61252L55.6359 0.633494C56.1154 -0.0452505 57.0594 -0.196083 57.7337 0.28658C58.4079 0.769243 58.5578 1.71949 58.0783 2.39823L53.5531 8.73318L57.3291 10.0605C57.7786 10.2113 58.1232 10.5733 58.2581 11.0258C58.393 11.4783 58.318 11.9761 58.0483 12.3532L52.7889 19.7288C52.4892 20.1361 52.0397 20.3623 51.5752 20.3623H51.5602Z" fill="#C50C33"/>
<path d="M66.0199 23.8164C65.7202 23.8164 65.4055 23.7259 65.1508 23.5298C64.4765 23.0471 64.3266 22.0969 64.8061 21.4182L68.8968 15.6865L65.1208 14.3592C64.6713 14.2084 64.3267 13.8464 64.1918 13.3939C64.0569 12.9414 64.1319 12.4436 64.4016 12.0666L70.0955 4.08753C70.575 3.40879 71.519 3.25796 72.1933 3.74062C72.8676 4.22328 73.0174 5.17353 72.5379 5.85227L68.0127 12.1872L71.7887 13.5145C72.2382 13.6654 72.5829 14.0274 72.7177 14.4799C72.8526 14.9324 72.7777 15.4301 72.508 15.8072L67.2485 23.1678C66.9489 23.5751 66.4993 23.8013 66.0348 23.8013L66.0199 23.8164Z" fill="#C50C33"/>
</svg>
