<svg width="45" height="92" viewBox="0 0 45 92" fill="none" xmlns="http://www.w3.org/2000/svg">
<g clip-path="url(#clip0_59_1419)">
<path d="M13.2423 58.083C12.5757 58.0512 11.9832 58.0671 11.3907 57.9717C9.62805 57.7173 8.36899 56.6996 7.64319 54.9346C6.28045 51.6431 4.91771 48.3356 3.54016 45.0441C2.16261 41.8003 0.844305 38.5246 0.370309 34.9628C0.162936 33.3568 0.0444371 31.7349 0.0296248 30.1129C0 22.6076 0 15.1023 0 7.59695C0 5.11637 0.947992 3.19234 2.90323 1.85664C3.85122 1.2365 4.88808 0.902575 5.9842 0.902575C17.0046 0.902575 28.0102 0.886674 39.0306 0.902575C42.3338 0.902575 44.9704 3.78068 44.9852 7.40614C45.0148 15.0705 44.9852 22.7189 44.9852 30.3833C44.9852 34.931 43.8891 39.1925 42.1708 43.3109C40.5563 47.1749 38.9566 51.0388 37.3124 54.8869C36.4977 56.795 35.0165 57.7173 33.1057 57.8763C32.6465 57.9081 32.1725 57.8763 31.654 57.8763C31.654 58.1784 31.6244 58.417 31.6244 58.6714C31.6244 68.3234 31.6244 77.9753 31.6244 87.6114C31.6244 88.4383 31.5652 89.2333 31.1652 89.9648C30.4691 91.2369 29.4322 91.9365 28.0843 91.9524C24.3219 91.9842 20.5448 91.9842 16.7824 91.9524C14.7531 91.9365 13.2571 90.2351 13.2423 87.9771C13.2275 85.2263 13.2423 82.4754 13.2423 79.7245C13.2423 72.728 13.2423 65.7156 13.2423 58.7191C13.2423 58.5124 13.2423 58.3056 13.2423 58.0512V58.083ZM22.5 3.70117C17.0639 3.70117 11.6129 3.70117 6.17676 3.70117C4.60665 3.70117 3.43647 4.55983 2.82916 6.03864C2.56254 6.69059 2.69585 7.34253 2.71066 8.01038C2.71066 15.2295 2.74029 22.4645 2.71066 29.6836C2.69585 33.8974 3.49572 37.9204 5.09546 41.7526C6.78407 45.8074 8.47268 49.8621 10.1465 53.9169C10.4131 54.553 10.8871 54.9187 11.4648 55.1095C11.8203 55.2208 12.2202 55.2526 12.6053 55.2526C17.5675 55.2526 22.5296 55.2526 27.477 55.2526C29.2989 55.2526 31.1208 55.2685 32.9279 55.2526C33.9648 55.2367 34.7202 54.7438 35.1053 53.6307C35.4756 52.5653 35.9052 51.5159 36.3348 50.4664C37.7864 46.8886 39.2972 43.3427 40.6896 39.7331C41.7857 36.8868 42.3782 33.8974 42.393 30.7967C42.393 23.021 42.393 15.2295 42.393 7.45384C42.393 7.21532 42.393 6.9609 42.3338 6.73829C42.0079 4.90966 40.6303 3.70117 38.8084 3.70117C33.3723 3.70117 27.9213 3.70117 22.4852 3.70117H22.5ZM15.9529 57.8922V58.4329C15.9529 68.1962 15.9529 77.9594 15.9529 87.7386C15.9529 88.8358 16.2788 89.1856 17.3157 89.1856C20.7966 89.1856 24.2775 89.1697 27.7436 89.1856C28.736 89.1856 29.2989 88.7881 29.2989 87.4683C29.3137 77.8004 29.2989 68.1484 29.3137 58.4806C29.3137 58.0194 29.21 57.8604 28.7508 57.8604C24.6626 57.8763 20.5744 57.8604 16.4862 57.8604C16.3232 57.8604 16.1751 57.8604 15.9381 57.8604L15.9529 57.8922Z" fill="#C50C33"/>
<path d="M22.4407 8.37598C27.1362 8.37598 31.8466 8.37598 36.5421 8.37598C37.7715 8.37598 38.1715 8.78941 38.1715 10.1092C38.1715 16.581 38.127 23.0368 38.1863 29.5086C38.2159 33.0863 37.579 36.4733 36.157 39.7012C35.9348 40.1941 35.7274 40.703 35.52 41.2118C35.1794 42.1023 34.8979 42.309 33.9796 42.309C30.1283 42.309 26.2771 42.309 22.4259 42.309C18.5895 42.309 14.7531 42.309 10.9315 42.309C9.92425 42.309 9.68725 42.1341 9.28732 41.1482C8.79851 39.892 8.23564 38.6517 7.80608 37.3796C7.00621 35.0422 6.66553 32.6093 6.66553 30.1128C6.66553 23.4502 6.66553 16.8036 6.66553 10.141C6.66553 8.7735 7.05065 8.37598 8.3097 8.37598C13.0052 8.37598 17.7156 8.37598 22.4111 8.37598H22.4407ZM9.25769 11.0315C9.25769 11.2859 9.25769 11.4926 9.25769 11.6993C9.25769 17.5032 9.31694 23.323 9.24288 29.1269C9.19844 32.5934 9.82056 35.8531 11.2426 38.9538C11.4055 39.3037 11.5684 39.415 11.9239 39.415C16.9009 39.415 21.8778 39.415 26.8548 39.415C28.8989 39.415 30.943 39.415 32.9871 39.415C33.1649 39.415 33.4463 39.3037 33.5204 39.1447C34.7942 36.2825 35.6237 33.293 35.6089 30.0651C35.5793 23.9114 35.6089 17.7576 35.6089 11.6039C35.6089 11.429 35.5941 11.2382 35.5793 11.0474H9.27251L9.25769 11.0315Z" fill="#C50C33"/>
<path d="M26.4845 48.7965C26.4845 51.118 24.6922 53.0739 22.5296 53.0739C20.3374 53.0739 18.5303 51.1657 18.5155 48.8124C18.5007 46.4749 20.3226 44.5032 22.5 44.5032C24.6922 44.5032 26.4845 46.4272 26.4993 48.7965H26.4845ZM22.5148 47.2859C21.7594 47.2859 21.1224 47.9219 21.0928 48.7329C21.0632 49.5597 21.6853 50.2594 22.4704 50.2753C23.2554 50.2753 23.8924 49.6074 23.8924 48.7806C23.8924 47.9855 23.2554 47.2859 22.5148 47.2859Z" fill="#C50C33"/>
<path d="M26.0846 25.2151C26.0846 27.314 24.4256 29.0791 22.4704 29.0632C20.5004 29.0473 18.8858 27.2822 18.9006 25.1674C18.9006 23.1002 20.5744 21.3352 22.4852 21.3352C24.4256 21.3352 26.0846 23.132 26.0698 25.2151H26.0846ZM22.4704 26.2964C22.9592 26.3123 23.5073 25.7557 23.5073 25.2151C23.5073 24.6744 23.0481 24.1497 22.5296 24.1179C22.0112 24.0861 21.4928 24.5949 21.4632 25.1515C21.4483 25.6762 21.952 26.2646 22.4556 26.2805L22.4704 26.2964Z" fill="#C50C33"/>
<path d="M21.4631 33.4201C21.4631 32.7681 21.4631 32.1162 21.4631 31.4483C21.4779 30.5738 21.9371 30.0649 22.6926 30.0331C23.4184 30.0013 24.0109 30.5102 24.0405 31.3529C24.0849 32.7681 24.0849 34.1833 24.0405 35.5985C24.0257 36.33 23.4628 36.7911 22.7666 36.807C22.0704 36.807 21.5372 36.3459 21.4928 35.6144C21.4483 34.8989 21.4928 34.1674 21.4928 33.436L21.4631 33.4201Z" fill="#C50C33"/>
<path d="M23.5369 17.0896C23.5369 17.7097 23.5369 18.3299 23.5369 18.95C23.5221 19.8405 23.0184 20.3652 22.2482 20.3811C21.5224 20.3811 20.9595 19.7928 20.9447 18.95C20.9299 17.6779 20.9299 16.3899 20.9447 15.1178C20.9447 14.291 21.4483 13.7822 22.1889 13.7663C22.9592 13.7504 23.4776 14.2274 23.5221 15.0701C23.5517 15.738 23.5221 16.4217 23.5221 17.0896H23.5369Z" fill="#C50C33"/>
<path d="M30.0691 26.3123C29.4767 26.3123 28.8842 26.3123 28.2769 26.3123C27.4918 26.2964 27.0326 25.8034 27.003 25.0084C26.9734 24.2292 27.4622 23.5773 28.2028 23.5455C29.4618 23.4978 30.7209 23.5137 31.9651 23.5455C32.7206 23.5773 33.1501 24.1497 33.1353 24.9607C33.1353 25.7557 32.6613 26.2805 31.8911 26.3123C31.2838 26.3282 30.6616 26.3123 30.0543 26.3123H30.0691Z" fill="#C50C33"/>
<path d="M30.3506 17.9325C30.2469 18.1233 30.1284 18.4891 29.9062 18.7594C29.1063 19.6657 28.262 20.5562 27.4177 21.4308C26.8697 22.0032 26.0994 22.0509 25.6402 21.558C25.0478 20.9219 25.0181 20.1428 25.6106 19.5067C26.4401 18.6004 27.2844 17.694 28.1287 16.8035C28.5287 16.3742 29.0175 16.247 29.5507 16.5014C30.0395 16.7399 30.3061 17.1852 30.3506 17.9484V17.9325Z" fill="#C50C33"/>
<path d="M16.101 34.0402C15.4345 33.9925 15.0345 33.7381 14.7975 33.2293C14.5605 32.7204 14.605 32.1798 14.9753 31.7823C15.864 30.7805 16.7676 29.7946 17.7007 28.8564C18.2044 28.3317 18.9598 28.4112 19.4338 28.9519C19.9078 29.4766 19.9522 30.2239 19.4782 30.7805C18.6043 31.7664 17.7007 32.7363 16.7824 33.6745C16.575 33.8812 16.2491 33.9607 16.101 34.0561V34.0402Z" fill="#C50C33"/>
<path d="M30.7357 31.9414C30.7061 32.6728 30.4395 33.0863 29.9803 33.3407C29.5211 33.5951 29.0471 33.5633 28.6768 33.1817C27.7288 32.2117 26.7808 31.2099 25.8773 30.1922C25.4181 29.6675 25.4921 28.8725 25.9661 28.3636C26.4401 27.8548 27.1807 27.7912 27.6696 28.2841C28.6175 29.2382 29.5211 30.24 30.4247 31.2417C30.6024 31.4484 30.6765 31.7824 30.7357 31.9255V31.9414Z" fill="#C50C33"/>
<path d="M18.0266 22.3847C17.76 22.2257 17.4341 22.0985 17.2119 21.8759C16.3528 20.9854 15.5085 20.095 14.679 19.1727C14.1162 18.5367 14.1162 17.7575 14.6642 17.201C15.1826 16.6603 15.9085 16.6603 16.4861 17.2487C17.3601 18.155 18.2044 19.0614 19.0487 19.9996C19.4486 20.4448 19.5227 20.9695 19.2857 21.542C19.0783 22.0349 18.5747 22.3529 18.0414 22.4006L18.0266 22.3847Z" fill="#C50C33"/>
<path d="M14.8272 26.8529C14.2347 26.8529 13.6422 26.8529 13.0349 26.8529C12.2498 26.837 11.7018 26.2646 11.7018 25.4695C11.7018 24.6268 12.1906 24.118 13.0349 24.1021C14.2051 24.1021 15.3901 24.1021 16.5602 24.1021C17.4045 24.1021 17.8785 24.6268 17.8785 25.4695C17.8785 26.3123 17.4045 26.8211 16.5751 26.8529C15.9974 26.8529 15.4197 26.8529 14.842 26.8529H14.8272Z" fill="#C50C33"/>
</g>
<defs>
<clipPath id="clip0_59_1419">
<rect width="45" height="91.0976" fill="white" transform="translate(0 0.902344)"/>
</clipPath>
</defs>
</svg>
