<svg width="55" height="78" viewBox="0 0 55 78" fill="none" xmlns="http://www.w3.org/2000/svg">
<g clip-path="url(#clip0_6_1371)">
<path d="M45.0536 77.1358H23.818C18.3284 77.1358 13.8717 72.6791 13.8717 67.1894V9.94634C13.8717 4.45667 18.3284 0 23.818 0H45.0536C50.5433 0 55 4.45667 55 9.94634V67.1894C55 72.6791 50.5433 77.1358 45.0536 77.1358ZM23.818 1.97746C19.4204 1.97746 15.8492 5.5487 15.8492 9.94634V67.1894C15.8492 71.5871 19.4204 75.1583 23.818 75.1583H45.0536C49.4513 75.1583 53.0225 71.5871 53.0225 67.1894V9.94634C53.0225 5.5487 49.4513 1.97746 45.0536 1.97746H23.818Z" fill="#C50C33"/>
<path d="M40.8479 31.1229H26.5924C22.5195 31.1229 19.1991 27.8026 19.1991 23.7296V14.0489C19.1991 9.97588 22.5195 6.65552 26.5924 6.65552H40.8479C44.9209 6.65552 48.2412 9.97588 48.2412 14.0489V23.7296C48.2412 27.8026 44.9209 31.1229 40.8479 31.1229ZM26.5777 8.61822C23.5967 8.61822 21.1618 11.0532 21.1618 14.0341V23.7148C21.1618 26.7105 23.5967 29.1307 26.5777 29.1307H40.8331C43.8141 29.1307 46.249 26.6958 46.249 23.7148V14.0341C46.249 11.0384 43.8141 8.61822 40.8331 8.61822H26.5777Z" fill="#C50C33"/>
<path d="M14.8605 19.4205H4.11725C1.84465 19.4205 0 17.5759 0 15.3033C0 13.0307 1.84465 11.186 4.11725 11.186H14.8605C15.4065 11.186 15.8492 11.6288 15.8492 12.1748V18.4466C15.8492 18.9926 15.4065 19.4353 14.8605 19.4353V19.4205ZM4.11725 13.1487C2.93668 13.1487 1.97746 14.108 1.97746 15.2885C1.97746 16.4691 2.93668 17.4283 4.11725 17.4283H13.8717V13.1487H4.11725Z" fill="#C50C33"/>
<path d="M14.8605 61.6849H4.11725C1.84465 61.6849 0 59.8403 0 57.5677C0 55.2951 1.84465 53.4504 4.11725 53.4504H14.8605C15.4065 53.4504 15.8492 53.8932 15.8492 54.4392V60.711C15.8492 61.257 15.4065 61.6997 14.8605 61.6997V61.6849ZM4.11725 55.4131C2.93668 55.4131 1.97746 56.3724 1.97746 57.5529C1.97746 58.7335 2.93668 59.6927 4.11725 59.6927H13.8717V55.4131H4.11725Z" fill="#C50C33"/>
<path d="M26.0021 14.4916H25.1609C24.0689 14.4916 23.1982 13.6061 23.1982 12.5289C23.1982 11.4516 24.0837 10.5662 25.1609 10.5662H26.0021C27.0941 10.5662 27.9648 11.4516 27.9648 12.5289C27.9648 13.6061 27.0794 14.4916 26.0021 14.4916Z" fill="#C50C33"/>
<path d="M33.7349 13.9308H32.2149C31.2852 13.9308 30.5326 13.1782 30.5326 12.2485C30.5326 11.3188 31.2852 10.5662 32.2149 10.5662H33.7349C34.6646 10.5662 35.4172 11.3188 35.4172 12.2485C35.4172 13.1782 34.6646 13.9308 33.7349 13.9308Z" fill="#C50C33"/>
<path d="M40.8478 13.5176H38.7523C37.9407 13.5176 37.2766 12.8535 37.2766 12.0419C37.2766 11.2302 37.9407 10.5662 38.7523 10.5662H40.8478C41.6595 10.5662 42.3236 11.2302 42.3236 12.0419C42.3236 12.8535 41.6595 13.5176 40.8478 13.5176Z" fill="#C50C33"/>
<path d="M34.2956 18.594H25.2495C24.4231 18.594 23.7443 17.9151 23.7443 17.0887C23.7443 16.2623 24.4231 15.5835 25.2495 15.5835H34.2956C35.122 15.5835 35.8009 16.2623 35.8009 17.0887C35.8009 17.9151 35.122 18.594 34.2956 18.594Z" fill="#C50C33"/>
<path d="M41.1872 18.594H38.7671C37.9407 18.594 37.2618 17.9151 37.2618 17.0887C37.2618 16.2623 37.9407 15.5835 38.7671 15.5835H41.1872C42.0137 15.5835 42.6925 16.2623 42.6925 17.0887C42.6925 17.9151 42.0137 18.594 41.1872 18.594Z" fill="#C50C33"/>
<path d="M28.2305 22.6967H25.161C24.3788 22.6967 23.759 22.0621 23.759 21.28C23.759 20.4978 24.3936 19.8633 25.161 19.8633H28.2305C29.0126 19.8633 29.6324 20.4978 29.6324 21.28C29.6324 22.0621 28.9978 22.6967 28.2305 22.6967Z" fill="#C50C33"/>
<path d="M33.2184 24.2756C32.0083 24.2756 31.0195 23.2868 31.0195 22.0767C31.0195 20.8667 32.0083 19.8779 33.2184 19.8779C34.4284 19.8779 35.4172 20.8667 35.4172 22.0767C35.4172 23.2868 34.4284 24.2756 33.2184 24.2756ZM33.2184 21.8554C33.1003 21.8554 32.997 21.9587 32.997 22.0767C32.997 22.3129 33.4397 22.3129 33.4397 22.0767C33.4397 21.9587 33.3364 21.8554 33.2184 21.8554Z" fill="#C50C33"/>
<path d="M37.9702 23.9067C36.8634 23.9067 35.9485 23.0066 35.9485 21.885C35.9485 20.7635 36.8487 19.8633 37.9702 19.8633C39.0918 19.8633 39.9772 20.7635 39.9772 21.885C39.9772 23.0066 39.077 23.9067 37.9702 23.9067ZM37.9997 21.885L37.9702 21.9145C37.9702 21.9145 37.9997 21.8998 37.9997 21.885Z" fill="#C50C33"/>
</g>
<defs>
<clipPath id="clip0_6_1371">
<rect width="55" height="77.1358" fill="white"/>
</clipPath>
</defs>
</svg>
