<svg width="75" height="90" viewBox="0 0 75 90" fill="none" xmlns="http://www.w3.org/2000/svg">
<path d="M49.3668 28L22.989 45.5769L8.39465 23.7564L34.7724 6.16669L49.3539 28H49.3668ZM23.9389 40.8077L44.5918 27.0385L33.8225 10.9359L13.1696 24.7052L23.9389 40.8077Z" fill="#C50C33"/>
<path d="M55.2713 28.9487L54.2187 29.6539C51.1124 31.7308 46.8894 30.8846 44.81 27.7821L33.7583 11.2564C31.6789 8.15385 32.5261 3.9359 35.6324 1.85898L36.6849 1.15385C39.7912 -0.923072 44.0142 -0.0769186 46.0936 3.02565L57.1453 19.5513C59.2247 22.6539 58.3775 26.8718 55.2713 28.9487ZM37.8016 5.07693C36.4795 5.96154 36.1201 7.75641 37.0058 9.07693L48.0575 25.6026C48.9432 26.9231 50.7402 27.2821 52.0623 26.3974L53.1148 25.6923C54.4369 24.8077 54.7963 23.0128 53.9107 21.6923L42.859 5.16667C41.9733 3.84616 40.1763 3.48718 38.8542 4.3718L37.8016 5.07693Z" fill="#C50C33"/>
<path d="M22.6553 50.6923L21.6028 51.3974C18.4965 53.4744 14.2735 52.6282 12.1941 49.5257L1.1424 32.9872C-0.937014 29.8846 -0.0898464 25.6667 3.01643 23.5898L4.06898 22.8846C7.17526 20.8077 11.3983 21.6539 13.4777 24.7564L24.5294 41.2821C26.6088 44.3846 25.7616 48.6026 22.6553 50.6795V50.6923ZM5.17286 26.8205C3.85077 27.7051 3.49136 29.5 4.37704 30.8205L15.4287 47.3462C16.3144 48.6667 18.1114 49.0257 19.4335 48.141L20.4861 47.4359C21.8082 46.5513 22.1676 44.7564 21.2819 43.4359L10.243 26.9103C9.35736 25.5898 7.56033 25.2308 6.23824 26.1154L5.1857 26.8205H5.17286Z" fill="#C50C33"/>
<path d="M46.0808 38.8975L34.4386 46.6539C31.9356 48.3205 28.5341 47.641 26.8655 45.141C25.1968 42.641 25.8771 39.2436 28.3801 37.5769L40.0223 29.8205C42.5252 28.1539 45.9268 28.8334 47.5954 31.3334C49.2641 33.8334 48.5838 37.2308 46.0808 38.8975ZM30.5365 40.8077C29.8177 41.2821 29.6252 42.2564 30.1001 42.9744C30.575 43.6923 31.5506 43.8846 32.2694 43.4103L43.9115 35.6539C44.6303 35.1795 44.8229 34.2051 44.3479 33.4872C43.873 32.7693 42.8975 32.5769 42.1787 33.0513L30.5365 40.8077Z" fill="#C50C33"/>
<path d="M70.623 88.3462C66.1047 91.359 59.982 90.141 56.9656 85.6282L56.9014 85.5257L33.6172 45.5898L36.9802 43.6282L60.2259 83.5C62.0614 86.1923 65.7325 86.9103 68.4537 85.1026C71.1749 83.2949 71.9194 79.6282 70.1352 76.9103L41.9476 40.3333L45.0411 37.9615L73.3442 74.7051C76.3606 79.218 75.1412 85.3333 70.623 88.3462Z" fill="#C50C33"/>
<path d="M59.0057 60.7697L49.5998 67.0399L51.766 70.2816L61.1719 64.0114L59.0057 60.7697Z" fill="#C50C33"/>
<path d="M62.7014 66.3244L53.2955 72.5946L55.4617 75.8363L64.8675 69.5662L62.7014 66.3244Z" fill="#C50C33"/>
</svg>
