<svg width="85" height="85" viewBox="0 0 85 85" fill="none" xmlns="http://www.w3.org/2000/svg">
<g clip-path="url(#clip0_6_513)">
<path d="M83.5141 85H1.17033V63.4312C1.17033 58.4104 5.2599 54.3227 10.2831 54.3227H73.8359C79.1747 54.3227 83.5141 58.6601 83.5141 63.9964V85ZM4.60241 81.5695H80.082V63.9964C80.082 60.5528 77.2811 57.7532 73.8359 57.7532H10.2831C7.15346 57.7532 4.60241 60.3031 4.60241 63.4312V81.5695Z" fill="#C50C33"/>
<path d="M20.2506 55.0324H16.4109C16.4109 39.7464 28.3377 26.8262 42.4606 26.8262C56.5834 26.8262 68.5102 38.5109 68.5102 52.8638H64.6705C64.6705 40.6139 54.703 30.6641 42.4606 30.6641C30.2181 30.6641 20.2506 42.0465 20.2506 55.0324Z" fill="#C50C33"/>
<path d="M59.1476 58.0292C59.1476 48.0926 51.7706 43.1506 45.4455 41.9414C38.6208 40.627 30.1787 43.1769 26.7334 51.8254L23.1699 50.4059C27.4304 39.7201 37.7924 36.5657 46.1688 38.1692C54.532 39.7727 62.9742 46.5417 62.9873 58.0292H59.1476Z" fill="#C50C33"/>
<path d="M43.7098 56.7937C43.4205 56.7937 43.1312 56.728 42.855 56.5966C41.9083 56.1234 41.5138 54.9799 41.9872 54.0204L44.6434 48.6709C45.1168 47.7246 46.274 47.3303 47.2208 47.8035C48.1675 48.2766 48.562 49.4201 48.0886 50.3796L45.4324 55.7291C45.1036 56.3994 44.4199 56.7937 43.7098 56.7937Z" fill="#C50C33"/>
<path d="M67.3925 23.5797C63.6185 23.5797 60.5546 20.5173 60.5546 16.745C60.5546 12.9728 63.6185 9.91034 67.3925 9.91034C71.1665 9.91034 74.2304 12.9728 74.2304 16.745C74.2304 20.5173 71.1665 23.5797 67.3925 23.5797ZM67.3925 13.7614C65.7356 13.7614 64.3943 15.1021 64.3943 16.7582C64.3943 18.4143 65.7356 19.7549 67.3925 19.7549C69.0494 19.7549 70.3906 18.4143 70.3906 16.7582C70.3906 15.1021 69.0494 13.7614 67.3925 13.7614Z" fill="#C50C33"/>
<path d="M18.3308 24.0135C14.4384 24.0135 11.2825 20.859 11.2825 16.9685C11.2825 13.0779 14.4384 9.92346 18.3308 9.92346C22.2231 9.92346 25.379 13.0779 25.379 16.9685C25.379 20.859 22.2231 24.0135 18.3308 24.0135ZM18.3308 13.7614C16.5555 13.7614 15.1222 15.2072 15.1222 16.9685C15.1222 18.7297 16.5687 20.1755 18.3308 20.1755C20.0928 20.1755 21.5393 18.7297 21.5393 16.9685C21.5393 15.2072 20.0928 13.7614 18.3308 13.7614Z" fill="#C50C33"/>
<path d="M37.1218 16.5216L33.2952 11.711L26.1417 13.6825C25.116 13.9586 24.0641 13.3671 23.7748 12.3419C23.4986 11.3167 24.0904 10.2652 25.116 9.97603L34.7285 7.32101L36.6747 9.77888L42.5132 0L46.9578 9.10855L54.3085 4.71857L60.8965 8.09649C61.8433 8.5828 62.2115 9.73945 61.7249 10.6858C61.2384 11.6321 60.0812 12.0002 59.1344 11.5138L54.44 9.10855L45.3272 14.55L42.1713 8.05706L37.1218 16.5216Z" fill="#C50C33"/>
<path d="M25.6289 29.3498C24.9977 29.3498 24.3796 29.0474 24.0115 28.4691L20.5399 23.1197C19.9613 22.2259 20.2112 21.043 21.1054 20.4646C21.9995 19.8863 23.183 20.1361 23.7616 21.0298L27.2331 26.3793C27.8117 27.2731 27.5619 28.456 26.6677 29.0343C26.339 29.2446 25.9839 29.3498 25.6289 29.3498Z" fill="#C50C33"/>
<path d="M60.0155 27.904C59.6341 27.904 59.2396 27.7857 58.8977 27.5491C58.0299 26.9313 57.8326 25.7353 58.4506 24.8678L62.4876 19.216C63.1057 18.3485 64.3023 18.1514 65.1702 18.7691C66.0381 19.3869 66.2353 20.583 65.6173 21.4504L61.5803 27.1022C61.1989 27.628 60.6204 27.904 60.0155 27.904Z" fill="#C50C33"/>
<path d="M26.6414 36.0005C26.1549 36.0005 25.6552 35.8164 25.287 35.4353L20.8029 30.9533C20.4084 30.559 20.198 30.0069 20.2506 29.4418C20.3032 28.8766 20.5794 28.3771 21.0396 28.0354L27.6934 23.1985C28.1536 22.8568 28.7585 22.7517 29.3108 22.8962C29.8631 23.0408 30.3365 23.4351 30.5732 23.9477L33.3215 29.9412C33.7686 30.9007 33.3346 32.0442 32.3747 32.478C31.4148 32.9248 30.2707 32.4911 29.8368 31.5316L28.0616 27.6674L25.1292 29.8098L28.0221 32.7014C28.7717 33.4506 28.7717 34.6598 28.0221 35.409C27.6539 35.7902 27.1542 35.9742 26.6677 35.9742L26.6414 36.0005Z" fill="#C50C33"/>
<path d="M58.3455 35.3433C57.7932 35.3433 57.2409 35.1067 56.8595 34.6467C56.1889 33.8318 56.2941 32.6225 57.1225 31.9391L60.3968 29.2315L57.5696 26.9445L55.5183 30.4801C54.9923 31.4002 53.8088 31.7156 52.8883 31.1767C51.9678 30.651 51.6522 29.4681 52.1914 28.548L55.3605 23.0671C55.6366 22.5808 56.1232 22.2391 56.6754 22.147C57.2146 22.0419 57.7932 22.1865 58.2271 22.5414L64.6179 27.72C65.065 28.088 65.328 28.6269 65.328 29.2052C65.328 29.7835 65.0781 30.3224 64.631 30.6904L59.5421 34.8832C59.187 35.1856 58.7531 35.317 58.3192 35.317L58.3455 35.3433Z" fill="#C50C33"/>
<path d="M68.6943 69.2276H51.7837C50.7186 69.2276 49.8639 68.3733 49.8639 67.3086C49.8639 66.244 50.7186 65.3896 51.7837 65.3896H68.6943C69.7594 65.3896 70.6142 66.244 70.6142 67.3086C70.6142 68.3733 69.7594 69.2276 68.6943 69.2276Z" fill="#C50C33"/>
<path d="M68.6943 74.8663H51.7837C50.7186 74.8663 49.8639 74.0119 49.8639 72.9473C49.8639 71.8827 50.7186 71.0283 51.7837 71.0283H68.6943C69.7594 71.0283 70.6142 71.8827 70.6142 72.9473C70.6142 74.0119 69.7594 74.8663 68.6943 74.8663Z" fill="#C50C33"/>
<path d="M18.8699 74.0645C16.2794 74.0645 14.1623 71.9615 14.1623 69.359C14.1623 66.7566 16.2662 64.6667 18.8699 64.6667C21.4735 64.6667 23.5775 66.7697 23.5775 69.359C23.5775 71.9483 21.4735 74.0645 18.8699 74.0645ZM18.8699 68.5047C18.3965 68.5047 18.002 68.8859 18.002 69.3722C18.002 69.8585 18.3833 70.2397 18.8699 70.2397C19.3564 70.2397 19.7378 69.8585 19.7378 69.3722C19.7378 68.8859 19.3564 68.5047 18.8699 68.5047Z" fill="#C50C33"/>
<path d="M30.2707 74.0645C27.6802 74.0645 25.5631 71.9615 25.5631 69.359C25.5631 66.7566 27.6671 64.6667 30.2707 64.6667C32.8744 64.6667 34.9783 66.7697 34.9783 69.359C34.9783 71.9483 32.8744 74.0645 30.2707 74.0645ZM30.2707 68.5047C29.7973 68.5047 29.4029 68.8859 29.4029 69.3722C29.4029 69.8585 29.7842 70.2397 30.2707 70.2397C30.7573 70.2397 31.1386 69.8585 31.1386 69.3722C31.1386 68.8859 30.7573 68.5047 30.2707 68.5047Z" fill="#C50C33"/>
<path d="M41.5664 74.0645C38.9759 74.0645 36.8588 71.9615 36.8588 69.359C36.8588 66.7566 38.9627 64.6667 41.5664 64.6667C44.17 64.6667 46.274 66.7697 46.274 69.359C46.274 71.9483 44.17 74.0645 41.5664 74.0645ZM41.5664 68.5047C41.093 68.5047 40.6985 68.8859 40.6985 69.3722C40.6985 69.8585 41.0798 70.2397 41.5664 70.2397C42.0529 70.2397 42.4343 69.8585 42.4343 69.3722C42.4343 68.8859 42.0529 68.5047 41.5664 68.5047Z" fill="#C50C33"/>
<path d="M6.83787 12.5916C6.46968 12.5916 6.08833 12.4865 5.74644 12.2499L2.70885 10.1732C1.84096 9.56858 1.61742 8.3725 2.20916 7.50502C2.81404 6.63754 3.99752 6.4141 4.87856 7.00556L7.91615 9.08226C8.78403 9.68687 9.00758 10.8829 8.41584 11.7504C8.04765 12.2893 7.44276 12.5785 6.82472 12.5785L6.83787 12.5916Z" fill="#C50C33"/>
<path d="M5.82534 18.664H1.91986C0.854734 18.664 0 17.8097 0 16.745C0 15.6804 0.854734 14.826 1.91986 14.826H5.82534C6.89047 14.826 7.7452 15.6804 7.7452 16.745C7.7452 17.8097 6.89047 18.664 5.82534 18.664Z" fill="#C50C33"/>
<path d="M3.86603 26.6816C3.27429 26.6816 2.68255 26.4056 2.31435 25.893C1.69632 25.0387 1.88041 23.8294 2.73515 23.2117L6.41708 20.5435C7.27181 19.9258 8.48159 20.1098 9.09963 20.9641C9.71767 21.8185 9.53357 23.0277 8.67883 23.6454L4.9969 26.3136C4.65501 26.5633 4.26052 26.6816 3.86603 26.6816Z" fill="#C50C33"/>
<path d="M80.0425 25.9719C79.7138 25.9719 79.3851 25.893 79.0695 25.709L75.7031 23.7506C74.7826 23.2117 74.4802 22.0419 75.0193 21.1219C75.5585 20.2018 76.7288 19.8995 77.6493 20.4384L81.0156 22.3968C81.9361 22.9357 82.2386 24.1055 81.6994 25.0255C81.3444 25.6302 80.7 25.9719 80.0425 25.9719Z" fill="#C50C33"/>
<path d="M83.0801 18.1514H78.3594C77.2942 18.1514 76.4395 17.297 76.4395 16.2324C76.4395 15.1678 77.2942 14.3134 78.3594 14.3134H83.0801C84.1453 14.3134 85 15.1678 85 16.2324C85 17.297 84.1453 18.1514 83.0801 18.1514Z" fill="#C50C33"/>
<path d="M77.1102 12.5916C76.4527 12.5916 75.7952 12.2499 75.4401 11.6321C74.9141 10.7121 75.2297 9.54229 76.1371 9.00341L79.7401 6.92671C80.6606 6.40096 81.8309 6.71641 82.3701 7.62332C82.896 8.54338 82.5804 9.71316 81.6731 10.2521L78.0701 12.3287C77.7676 12.4996 77.4389 12.5916 77.1102 12.5916Z" fill="#C50C33"/>
<path d="M29.5212 50.7739C29.2319 50.7739 28.9295 50.7082 28.6533 50.5636L25.9839 49.1967C25.0371 48.7104 24.6689 47.5537 25.1555 46.6074C25.642 45.6611 26.7992 45.293 27.746 45.7793L30.4154 47.1463C31.3622 47.6326 31.7303 48.7892 31.2438 49.7356C30.9019 50.3928 30.2313 50.7871 29.5343 50.7871L29.5212 50.7739Z" fill="#C50C33"/>
<path d="M35.0572 46.5417C34.4655 46.5417 33.8738 46.2657 33.4924 45.7399L31.4937 42.9666C30.8756 42.1123 31.0729 40.9031 31.9276 40.2853C32.7823 39.6676 33.9921 39.8647 34.6101 40.719L36.6089 43.4924C37.2269 44.3467 37.0297 45.5559 36.175 46.1737C35.8331 46.4234 35.4386 46.5417 35.0572 46.5417Z" fill="#C50C33"/>
<path d="M41.5795 45.1616C41.4217 45.1616 41.2639 45.1485 41.1061 45.0959C40.0804 44.833 39.4493 43.7947 39.7123 42.7695L40.6064 39.2207C40.8694 38.1955 41.9083 37.5646 42.9339 37.8274C43.9596 38.0903 44.5908 39.1287 44.3278 40.1539L43.4336 43.7027C43.2101 44.5701 42.4343 45.1485 41.5795 45.1485V45.1616Z" fill="#C50C33"/>
<path d="M49.259 46.5417C48.8908 46.5417 48.5226 46.4365 48.1938 46.2131C47.3128 45.6216 47.0761 44.4387 47.6679 43.5581L49.522 40.7848C50.1137 39.9041 51.2972 39.6675 52.1782 40.259C53.0592 40.8505 53.2959 42.0334 52.7042 42.914L50.8501 45.6873C50.4819 46.2394 49.877 46.5417 49.2458 46.5417H49.259Z" fill="#C50C33"/>
<path d="M54.5715 51.4442C53.8614 51.4442 53.1907 51.0499 52.8488 50.3796C52.3755 49.4333 52.7699 48.2766 53.7167 47.8034L56.4256 46.4628C57.3724 45.9896 58.5295 46.3708 59.0029 47.3303C59.4763 48.2766 59.0818 49.4333 58.135 49.9064L55.4262 51.2471C55.1501 51.3785 54.8608 51.4442 54.5715 51.4442Z" fill="#C50C33"/>
</g>
<defs>
<clipPath id="clip0_6_513">
<rect width="85" height="85" fill="white"/>
</clipPath>
</defs>
</svg>
