<svg width="104" height="86" viewBox="0 0 104 86" fill="none" xmlns="http://www.w3.org/2000/svg">
<path d="M51.6468 85.586C35.065 85.586 18.4832 85.586 1.90145 85.5999C1.10452 85.5999 0.657115 85.155 0.125827 84.7656C0.0279583 84.6961 0.0139771 84.4458 0.0139771 84.2929C0.0139771 83.3195 0.0139771 82.3601 0.0139771 81.3868C0.0139771 56.984 0.0279583 32.595 0.0559209 8.19223C0.0559209 6.00918 0.15379 3.81223 0.237677 1.62919C0.26564 0.628049 1.16044 0.155288 1.99932 0.739287C3.52328 1.80995 5.03325 2.92233 6.47332 4.10423C20.2868 15.3949 34.1003 26.6994 47.8858 38.0179C60.5808 48.4325 73.2898 58.8472 85.9568 69.2896C91.2138 73.614 96.4148 77.994 101.63 82.3601C101.951 82.6382 102.259 82.9302 102.581 83.2222C103 83.6115 103.112 84.0704 102.902 84.5988C102.692 85.1133 102.315 85.3913 101.728 85.3913C98.4002 85.4192 95.0726 85.5026 91.7311 85.5026C78.365 85.5026 64.9989 85.5026 51.6328 85.5026V85.586H51.6468ZM3.34152 5.41128L3.15976 5.50861C3.11782 5.88404 3.06189 6.27337 3.04791 6.6488C3.00597 8.1227 2.95004 9.59661 2.95004 11.0705C2.93606 28.5488 2.92208 46.027 2.92208 63.5053C2.92208 69.2618 2.99199 75.0184 3.06189 80.775C3.07587 82.3323 3.11782 82.3323 4.66974 82.3323C23.6144 82.3323 42.545 82.3462 61.4896 82.3462C73.0801 82.3462 84.6705 82.3184 96.275 82.3045C96.4847 82.3045 96.6805 82.3045 96.9321 82.3045C96.8762 82.1793 96.8622 82.1376 96.8343 82.1098C93.8702 79.6904 90.8922 77.271 87.9282 74.8515C87.6625 74.6291 87.4388 74.6847 87.2151 74.8933C86.7538 75.3382 86.3064 75.7971 85.845 76.242C85.2857 76.7843 84.7405 77.3405 84.1393 77.8133C83.608 78.2304 83.1047 78.1748 82.5734 77.7854C82.07 77.4239 82.0001 76.9373 82.1959 76.395C82.3077 76.0891 82.4335 75.7693 82.5873 75.4912C83.1746 74.49 83.7758 73.4889 84.349 72.4738C84.4329 72.3209 84.4748 72.0011 84.3769 71.9316C83.3983 71.0556 82.4056 70.2074 81.3989 69.3453C81.2312 69.4982 81.1473 69.5817 81.0774 69.6512C80.0847 70.6662 79.12 71.7091 78.1133 72.6963C77.6659 73.1413 76.8271 73.0578 76.2538 72.5851C75.8064 72.2096 75.6806 71.6396 76.0301 71.0556C76.3237 70.555 76.6872 70.0961 77.0647 69.6512C77.6939 68.9142 78.365 68.219 79.0641 67.4403L75.4849 64.5342C74.7858 65.3129 74.1846 65.9942 73.5554 66.6478C73.15 67.0788 72.7306 67.5238 72.2552 67.8992C71.7519 68.3024 70.885 68.2051 70.4097 67.774C69.9343 67.343 69.8784 66.8146 70.2978 66.1472C70.5774 65.7022 70.899 65.2851 71.2346 64.8958C71.8497 64.1727 72.4789 63.4775 73.15 62.7127C72.1993 61.9201 71.2765 61.1693 70.3817 60.4045C70.0182 60.0986 69.7665 60.1403 69.4589 60.474C68.3125 61.7116 67.138 62.9352 65.9636 64.1449C65.67 64.4508 65.3484 64.7428 64.9989 64.9792C64.4816 65.3268 63.6567 65.1878 63.2233 64.7289C62.7759 64.2561 62.7479 63.7556 63.1813 63.1577C63.6008 62.5737 64.0622 62.0175 64.5375 61.4891C65.5442 60.3628 66.5648 59.2504 67.6134 58.0824C66.4949 57.1925 65.4323 56.3304 64.3558 55.4683C64.2579 55.3849 64.1321 55.3154 64.0062 55.2459C63.2512 56.0662 62.5382 56.8727 61.7832 57.6514C61.4616 57.9851 61.1261 58.3049 60.7346 58.5691C60.2033 58.9306 59.4903 58.8611 59.0569 58.4718C58.5955 58.0546 58.4697 57.3594 58.8192 56.7754C59.0569 56.3721 59.3505 56.0106 59.6441 55.6491C60.3152 54.8704 61.0003 54.1196 61.7413 53.2992C60.7486 52.5066 59.7839 51.7558 58.8332 51.0049C58.5675 50.7964 58.3298 50.7824 58.0782 51.0605C57.5609 51.6167 57.0436 52.1729 56.4983 52.7013C55.981 53.2019 55.4777 53.7303 54.8765 54.1057C54.0516 54.6341 52.989 54.0222 53.0309 53.0489C53.0449 52.604 53.2267 52.0895 53.5063 51.728C54.1494 50.8798 54.8905 50.1011 55.6175 49.3224C55.939 48.9748 55.967 48.6828 55.6175 48.3908C54.6248 47.5565 53.6321 46.7223 52.5975 45.8602C52.4018 46.0826 52.248 46.2495 52.0942 46.4164C51.2134 47.3202 50.3605 48.2518 49.4517 49.1139C48.9065 49.6284 48.0676 49.5727 47.5363 49.1C46.991 48.5994 46.9351 47.9459 47.4105 47.2785C47.6621 46.9308 47.9418 46.611 48.2214 46.2912C48.9065 45.5543 49.5916 44.8173 50.3186 44.0386L46.991 41.2021C46.7534 41.4524 46.5436 41.6887 46.3339 41.8973C45.4811 42.7455 44.6701 43.6354 43.7753 44.4419C43.1881 44.9842 42.4052 44.9007 41.8739 44.4002C41.3566 43.8857 41.3146 43.2183 41.8459 42.5786C42.3912 41.8973 42.9784 41.2577 43.5516 40.5903C43.8872 40.2009 44.2088 39.7977 44.6282 39.2971C43.5097 38.3933 42.4611 37.5451 41.3845 36.7108C41.2867 36.6274 40.9371 36.7108 40.8113 36.8499C40.0983 37.5034 39.4132 38.1987 38.7141 38.8661C37.8333 39.6865 36.9665 40.5207 36.0577 41.3133C35.5544 41.7444 35.0091 41.7026 34.5197 41.3133C34.0164 40.9101 33.8486 40.2705 34.2122 39.6447C34.6036 38.9773 35.065 38.3516 35.5404 37.7398C36.5051 36.5301 37.4978 35.3343 38.5184 34.0968L35.2188 31.441C35.0231 31.6495 34.8972 31.7886 34.7574 31.9276C33.8906 32.8453 33.0517 33.7909 32.1429 34.6669C31.5837 35.2091 30.7448 35.2091 30.2275 34.7503C29.6962 34.2775 29.6123 33.5128 30.0737 32.8592C30.4931 32.2752 30.9685 31.733 31.4439 31.1907C31.9052 30.6484 32.3946 30.1339 32.8979 29.5916C31.9891 28.8408 31.1642 28.1038 30.2834 27.4364C29.3047 26.6994 29.5564 26.5048 28.4938 27.5893C27.7248 28.368 26.9978 29.1606 26.2149 29.9114C25.6556 30.4398 24.8587 30.3981 24.3134 29.9114C23.7542 29.4109 23.6982 28.7434 24.1876 28.0899C24.5651 27.5893 24.9705 27.1166 25.376 26.6577C25.9213 26.032 26.4805 25.4341 27.0677 24.7945C26.4945 24.3217 25.9772 23.8907 25.4459 23.4596C24.9845 23.0981 24.5092 22.7644 24.0618 22.389C23.7542 22.1387 23.5724 22.2499 23.3347 22.5002C22.6217 23.2928 21.8807 24.0714 21.1537 24.8362C20.93 25.0726 20.6783 25.2951 20.4126 25.4897C19.9093 25.8512 19.2802 25.7539 18.7629 25.309C18.2036 24.8223 18.0778 24.3634 18.4553 23.7655C18.9726 22.973 19.5598 22.2221 20.119 21.4434C20.4406 20.9846 20.7622 20.5396 21.1537 19.9974C20.2589 19.2326 19.42 18.4956 18.5531 17.7865C17.7702 17.1469 17.7422 17.1608 17.0432 17.856C16.1903 18.7042 15.3374 19.5663 14.4986 20.4145C14.149 20.776 13.7156 20.8316 13.2542 20.6926C12.2476 20.4006 11.8841 19.3438 12.5272 18.5374C13.3102 17.5501 14.1351 16.5907 14.9739 15.6452C15.2536 15.3254 15.2396 15.089 14.904 14.8387C14.1211 14.2269 13.3521 13.6012 12.5971 12.9755C12.2616 12.6974 12.0099 12.7252 11.7163 13.045C10.7096 14.1296 9.68901 15.1863 8.6544 16.257C8.19302 16.7297 7.73164 17.2164 7.22831 17.6196C6.66906 18.0646 5.92805 17.9673 5.3688 17.4389C4.87946 16.98 4.82353 16.5629 5.2989 15.8815C5.80222 15.1724 6.36147 14.505 6.9347 13.8376C7.8295 12.7947 8.75227 11.7657 9.74494 10.6534L3.34152 5.41128Z" fill="#B12D36"/>
<path d="M37.6516 71.5145C31.5278 71.5145 25.418 71.5145 19.2942 71.5145C18.2176 71.5145 17.155 71.4588 16.0785 71.4171C15.8268 71.4171 15.5612 71.4032 15.3235 71.3337C14.8202 71.2085 14.5126 70.9861 14.5126 70.3465C14.5405 58.444 14.5266 46.5554 14.5266 34.653C14.5266 33.7631 15.7429 33.0678 16.4979 33.5823C17.5885 34.3332 18.651 35.1257 19.6717 35.96C27.8088 42.5926 35.9459 49.2113 44.055 55.8716C48.9205 59.8762 53.73 63.9364 58.5536 67.9827C59.1128 68.4554 59.6441 68.9699 60.2034 69.4566C60.5389 69.7486 60.7067 70.0962 60.469 70.4855C60.2173 70.9165 60.0635 71.4727 59.3785 71.4727C57.0576 71.4727 54.7367 71.5005 52.4298 71.5005C47.4944 71.5005 42.573 71.5005 37.6376 71.5005V71.5284L37.6516 71.5145ZM17.7003 38.0597V68.6084C17.952 68.6084 18.1617 68.6084 18.3574 68.6084C27.4592 68.6084 36.5471 68.6084 45.6489 68.6084C48.3333 68.6084 51.0177 68.5388 53.716 68.4971C53.9817 68.4971 54.2613 68.4276 54.6528 68.372C42.2794 58.2215 30.0178 48.1684 17.7003 38.0597Z" fill="#B12D36"/>
<path d="M17.7003 38.0596C30.0318 48.1683 42.2794 58.2214 54.6528 68.3719C54.2473 68.4275 53.9817 68.4831 53.716 68.497C51.0316 68.5388 48.3472 68.6083 45.6488 68.6083C36.547 68.6222 27.4592 68.6083 18.3574 68.6083C18.1477 68.6083 17.938 68.6083 17.7003 68.6083V38.0596Z" fill="white"/>
</svg>
