<svg width="75" height="70" viewBox="0 0 75 70" fill="none" xmlns="http://www.w3.org/2000/svg">
<g clip-path="url(#clip0_6_1395)">
<path d="M19.4917 41.9942C19.334 41.9942 19.2337 41.9942 19.1334 41.9942C14.8624 41.9942 10.5914 41.9942 6.30613 41.9942C5.07357 41.9942 3.91267 41.7067 2.85209 41.0741C2.23581 40.7003 1.69119 40.2403 1.23256 39.6652C0.415632 38.6301 0 37.4656 0 36.1429C0 26.0361 0 15.915 0 5.80817C0 5.13247 0.100325 4.45677 0.358303 3.82419C0.687942 3.03348 1.14657 2.31464 1.77718 1.73958C3.05274 0.575067 4.55761 0 6.26314 0C22.9027 0 39.5423 0 56.1819 0C57.3428 0 58.4464 0.25878 59.464 0.848223C60.2666 1.32265 60.9832 1.88334 61.4705 2.70281C61.7141 3.11974 61.9148 3.56541 62.1297 3.99671C62.4451 4.61491 62.4737 5.29061 62.4737 5.96632C62.4737 12.6946 62.4737 19.4085 62.4737 26.1368C62.4737 26.4387 62.5884 26.5681 62.832 26.7119C63.391 27.0281 63.9643 27.3588 64.4946 27.7182C65.1252 28.1495 65.2398 28.6815 64.8959 29.429C64.6952 29.8603 64.6092 30.3348 64.4659 30.7804C64.3799 31.068 64.2652 31.3411 64.1649 31.6287C64.1076 31.7868 64.1219 31.8875 64.2796 32.0168C64.6809 32.3475 65.0392 32.7213 65.4261 33.0663C65.5551 33.1814 65.6698 33.3251 65.8131 33.4258C65.8561 33.4689 65.9564 33.4689 66.0138 33.4545C66.9024 33.2101 67.7909 32.9657 68.6652 32.7069C69.4821 32.4625 69.9837 32.635 70.471 33.3251C70.8293 33.8427 71.1877 34.3746 71.5316 34.9066C71.7753 35.2947 72.0046 35.6829 72.2196 36.0854C72.3772 36.373 72.5349 36.6749 72.6925 36.9624C73.0078 37.5375 72.8215 38.2419 72.2769 38.5726C71.9902 38.7451 71.7609 39.0183 71.503 39.2483C71.073 39.6221 70.643 39.9959 70.2131 40.3697C70.0554 40.4991 70.1844 40.6285 70.2131 40.7435C70.3564 41.261 70.514 41.7642 70.6717 42.2674C70.7004 42.3393 70.7147 42.4112 70.729 42.4974C70.729 42.6412 70.8293 42.6843 70.9583 42.7131C71.9186 42.9144 72.8645 43.1013 73.8104 43.3313C74.5414 43.5038 74.785 43.8057 74.8567 44.5533C74.8853 44.8408 74.8997 45.1284 74.914 45.4159C74.9427 45.9478 75 46.4798 74.9857 47.0117C74.957 47.7162 74.8997 48.4206 74.8137 49.1251C74.7564 49.5995 74.4124 49.887 73.9538 50.0021C72.9648 50.2321 71.9759 50.4477 70.987 50.6634C70.8293 50.6921 70.7434 50.7353 70.7147 50.9078C70.6144 51.3822 70.4854 51.8423 70.3564 52.3023C70.3134 52.4748 70.2131 52.6474 70.1701 52.8199C70.1557 52.8774 70.1701 52.978 70.2274 53.0212C70.6287 53.3806 71.03 53.7256 71.4313 54.0707C71.7466 54.3438 72.0619 54.617 72.3915 54.8757C72.8358 55.2352 72.9935 55.8246 72.7355 56.3422C72.4059 56.9891 72.0762 57.6361 71.7036 58.2543C71.3023 58.9156 70.8437 59.5625 70.3851 60.1807C69.9694 60.7271 69.5108 60.8996 68.7942 60.6983C67.8769 60.4395 66.9453 60.1664 66.0281 59.922C65.9708 59.9076 65.8704 59.922 65.8274 59.9651C65.7128 60.0513 65.5981 60.1664 65.4835 60.2814C65.0535 60.6695 64.6235 61.0577 64.2079 61.4603C64.1649 61.5034 64.1506 61.6184 64.1649 61.6759C64.3942 62.3947 64.6235 63.1136 64.8672 63.8324C64.9245 63.9906 64.9962 64.1199 65.0392 64.2781C65.2112 64.8963 65.0965 65.2269 64.6235 65.5864C64.0789 65.9889 63.4913 66.3196 62.918 66.6502C62.4164 66.9378 61.9148 67.1965 61.3988 67.441C60.9975 67.6279 60.6105 67.8291 60.1949 67.9729C59.636 68.1742 59.1487 67.9729 58.7474 67.556C58.1598 66.9665 57.5721 66.3627 56.9845 65.7733C56.7982 65.5864 56.6262 65.5145 56.3396 65.6007C55.7376 65.7876 55.107 65.917 54.4907 66.0752C54.4047 66.1039 54.3044 66.1902 54.2901 66.2764C54.0608 67.1534 53.8601 68.0448 53.6165 68.9217C53.4731 69.4681 53.1005 69.8419 52.5272 69.8994C50.8217 70.0719 49.1162 70.0575 47.425 69.8994C46.995 69.8562 46.5937 69.4968 46.4791 69.0799C46.3787 68.7061 46.2928 68.3323 46.2068 67.9441C46.0634 67.3691 45.9201 66.8084 45.7625 66.2477C45.7481 66.1758 45.6478 66.1039 45.5761 66.0752C44.9169 65.9026 44.2433 65.7445 43.5697 65.572C43.3977 65.5289 43.283 65.5432 43.154 65.687C42.6237 66.2477 42.0791 66.8084 41.5202 67.3403C41.2478 67.5991 41.0329 67.9585 40.6172 68.0016C40.3449 68.0304 40.0296 68.0735 39.786 67.9729C39.1124 67.6997 38.4531 67.3978 37.8081 67.0528C36.9912 66.6071 36.1886 66.1183 35.4003 65.6295C35.085 65.4426 34.8557 64.925 34.956 64.5225C35.0994 63.9762 35.3 63.4299 35.472 62.8979C35.601 62.481 35.73 62.0641 35.8446 61.6472C35.859 61.5897 35.8016 61.4746 35.7443 61.4171C35.257 60.9427 34.7554 60.4683 34.2394 60.0082C34.1821 59.9507 34.0531 59.9363 33.9671 59.9507C33.0212 60.2095 32.0896 60.4683 31.158 60.7558C30.6277 60.9139 29.9398 60.7271 29.6532 60.2382C29.5385 60.037 29.3952 59.8357 29.2375 59.6632C29.1802 59.6057 29.0655 59.5769 28.9796 59.5769C27.9476 59.5769 26.9157 59.5769 25.8838 59.5769C21.7848 59.5769 17.6858 59.5769 13.6012 59.5769C12.5693 59.5769 11.5947 59.3038 10.6918 58.815C9.9035 58.398 9.21556 57.8517 8.6996 57.1185C8.42729 56.716 8.21231 56.2703 7.96866 55.839C7.62469 55.2208 7.58169 54.5451 7.5387 53.8694C7.48137 53.1218 8.08332 52.633 8.72826 52.6042C9.14389 52.5899 9.54519 52.6042 9.96082 52.6042C11.7093 52.6042 13.4579 52.6042 15.1921 52.6042C15.364 52.6042 15.4357 52.5467 15.5074 52.3886C15.8513 51.4397 16.2096 50.5052 16.5679 49.5708C16.7686 49.0388 16.9836 48.5213 17.1842 47.9893C17.4279 47.3424 17.6858 46.7098 17.9295 46.0628C18.1301 45.5309 18.3451 44.999 18.5601 44.467C18.8037 43.8488 19.0331 43.2306 19.2767 42.6124C19.3484 42.4399 19.4344 42.2962 19.5347 42.0805L19.4917 41.9942ZM7.4957 30.3348V30.0616C7.4957 22.0394 7.4957 14.0173 7.4957 5.99507C7.4957 5.92319 7.4957 5.83693 7.4957 5.76504C7.51003 5.47751 7.61036 5.20435 7.82534 5.01746C8.11198 4.75868 8.45595 4.65804 8.85725 4.65804C9.91783 4.65804 10.9784 4.65804 12.039 4.65804C25.8838 4.65804 39.7286 4.65804 53.5735 4.65804C54.3617 4.65804 55.0067 5.18998 54.9924 6.08133C54.9637 10.955 54.9924 15.8431 54.9924 20.7168V20.9756H52.4986V7.00144H10.0038V14.0029H22.4441V16.3175H10.0038V30.3204H35.3287C35.3287 30.3204 35.3287 30.2198 35.3144 30.1766C35.1854 29.7453 35.0564 29.3284 34.9417 28.8971C34.8414 28.4658 35.042 27.9626 35.3717 27.7613C35.8446 27.4594 36.3176 27.1575 36.8192 26.8844C37.7795 26.3812 38.7397 25.9068 39.7143 25.418C40.001 25.2742 40.3163 25.3029 40.6172 25.3748C41.0185 25.4611 41.2335 25.7774 41.4915 26.0218C42.0504 26.5537 42.5951 27.1144 43.1254 27.6751C43.2543 27.8045 43.369 27.8476 43.541 27.8045C44.2003 27.632 44.8739 27.4738 45.5475 27.3013C45.6191 27.2869 45.7195 27.1863 45.7338 27.1144C45.9058 26.4962 46.0634 25.8636 46.2211 25.2311C46.2928 24.9291 46.3787 24.6272 46.4361 24.3253C46.5364 23.8509 47.0094 23.5059 47.4537 23.4771C47.898 23.434 48.3279 23.4052 48.7722 23.3765C50.0191 23.3046 51.2517 23.3477 52.4842 23.4627C52.9429 23.5059 53.2725 23.7215 53.4588 24.1384C53.5591 24.3685 53.6308 24.5985 53.6881 24.8285C53.8888 25.5905 54.0751 26.3524 54.2757 27.1144C54.2901 27.1863 54.3761 27.2725 54.4477 27.2869C55.1213 27.4594 55.8093 27.632 56.4972 27.8045C56.5832 27.8189 56.6979 27.8045 56.7552 27.747C57.3858 27.1432 58.0021 26.5393 58.6184 25.9068C58.9767 25.533 59.378 25.2742 59.9226 25.3317C59.9369 25.3317 59.9656 25.3173 59.9943 25.3029C59.9943 25.2023 59.9943 25.0873 59.9943 24.9866C59.9943 18.6753 59.9943 12.3639 59.9943 6.05258C59.9943 5.29061 59.8653 4.58616 59.4067 3.93921C59.0913 3.49353 58.7187 3.13411 58.2744 2.86096C57.5721 2.44403 56.7982 2.30027 55.9813 2.30027C39.657 2.30027 23.3184 2.30027 6.99408 2.30027C6.66444 2.30027 6.3348 2.30027 6.01949 2.30027C4.80126 2.37215 3.81234 2.88971 3.09574 3.85295C2.66578 4.42801 2.45079 5.13247 2.45079 5.8513C2.45079 13.9166 2.45079 21.9819 2.45079 30.0616C2.45079 30.1479 2.45079 30.2198 2.45079 30.3204H7.4957V30.3348ZM65.5408 35.9848C65.1252 35.9561 64.7812 35.8698 64.5232 35.5823C64.2939 35.3235 64.0646 35.0791 63.8209 34.8347C63.5343 34.5471 63.2333 34.2596 62.9324 33.9864C62.574 33.6702 62.1871 33.3826 61.8288 33.0663C61.4561 32.7213 61.3272 32.3044 61.5135 31.8012C61.6138 31.5424 61.7141 31.2693 61.8001 30.9961C61.9864 30.4498 62.1727 29.9035 62.3447 29.3428C62.3734 29.2421 62.4164 29.1415 62.2874 29.0696C61.8574 28.8396 61.4418 28.5808 61.0118 28.3508C60.7252 28.1926 60.4242 28.0633 60.1376 27.9339C60.0946 27.9051 59.9943 27.9339 59.9513 27.977C59.3063 28.6096 58.647 29.2278 58.0308 29.8891C57.5865 30.3491 57.0848 30.4498 56.4829 30.2485C55.9383 30.0616 55.3793 29.9035 54.806 29.7741C54.1611 29.6159 53.5161 29.5009 52.8712 29.3572C52.4126 29.2565 52.1546 28.9259 52.0399 28.5089C51.7963 27.632 51.5956 26.755 51.3807 25.878C51.352 25.7486 51.2947 25.6911 51.1657 25.6911C50.3631 25.6911 49.5748 25.6911 48.7722 25.6911C48.7006 25.6911 48.6002 25.7917 48.5859 25.8636C48.3709 26.6975 48.1416 27.5313 47.9553 28.3795C47.812 29.0265 47.468 29.314 46.7944 29.429C45.7051 29.6159 44.6302 29.846 43.5983 30.2341C43.0107 30.4498 42.4661 30.4067 42.0075 29.961C41.3768 29.3572 40.7749 28.7102 40.1729 28.092C40.1156 28.0345 40.0583 27.9914 39.9866 27.9482C39.9436 27.9195 39.872 27.9195 39.829 27.9482C39.1267 28.322 38.4388 28.6958 37.7508 29.0696C37.6218 29.1415 37.6218 29.2134 37.6505 29.3284C37.7365 29.5872 37.8081 29.8603 37.8941 30.1335C38.0948 30.7517 38.3098 31.3843 38.4961 32.0025C38.6107 32.405 38.4101 32.9082 38.1091 33.1238C37.8368 33.3251 37.5502 33.5264 37.2922 33.7708C36.7046 34.3315 36.1313 34.9209 35.5437 35.496C35.171 35.8698 34.7267 36.0567 34.1964 35.9129C33.8095 35.8123 33.4225 35.6973 33.0355 35.5823C32.5053 35.4385 31.975 35.2803 31.4447 35.1366C31.3587 35.1078 31.1867 35.1366 31.1437 35.1797C30.7281 35.8267 30.3124 36.4736 29.9111 37.1349C29.8825 37.1781 29.9111 37.3218 29.9541 37.365C30.2551 37.6381 30.5704 37.8969 30.8857 38.1701C31.244 38.4863 31.5737 38.817 31.9463 39.1045C32.4909 39.5502 32.6199 39.9671 32.3763 40.6428C32.2186 41.0598 32.0466 41.4623 31.932 41.8792C31.7743 42.4687 31.6453 43.0725 31.5307 43.6763C31.4303 44.1651 31.1007 44.5821 30.6134 44.6971C29.6532 44.9127 28.6929 45.1284 27.7327 45.3296C27.5607 45.3728 27.5033 45.4446 27.5033 45.6028C27.5033 46.3216 27.5033 47.0548 27.5033 47.7737C27.5033 47.9031 27.5607 47.9462 27.6753 47.9749C28.4779 48.1475 29.2662 48.32 30.0545 48.4925C30.5418 48.5931 31.0577 48.665 31.3157 49.1682C31.4447 49.3982 31.4877 49.6714 31.545 49.9302C31.674 50.4765 31.7886 51.0228 31.932 51.5547C32.0753 52.0292 32.2903 52.4892 32.4193 52.978C32.5626 53.4381 32.3619 53.8262 32.018 54.1425C31.6883 54.4444 31.3444 54.7176 31.0004 55.0195C30.6564 55.3214 30.3554 55.6521 29.9828 55.9109C29.7678 56.069 29.8108 56.1553 29.9398 56.299C29.9685 56.3278 29.9971 56.3565 30.0115 56.3853C30.3411 56.9316 30.6851 57.4779 31.0147 58.0242C31.115 58.2111 31.2297 58.2399 31.4303 58.1824C32.2473 57.938 33.0642 57.7223 33.8811 57.4635C34.4831 57.2766 35.0277 57.3342 35.4863 57.7942C35.988 58.2974 36.4753 58.815 36.9912 59.3038C37.2922 59.5913 37.6075 59.8645 37.9515 60.1089C38.4388 60.4683 38.5964 60.8996 38.4101 61.4746C38.1521 62.2941 37.8798 63.128 37.6075 63.9474C37.5502 64.1056 37.5788 64.2062 37.7365 64.2781C38.3671 64.6087 39.012 64.9394 39.6283 65.2988C39.829 65.4138 39.958 65.3851 40.1013 65.2413C40.6746 64.6519 41.2622 64.0912 41.8211 63.4874C42.3228 62.9554 42.8817 62.8404 43.541 63.0848C44.5872 63.4586 45.6621 63.7174 46.7514 63.8899C47.2673 63.9762 47.683 64.1918 47.8263 64.7381C47.9266 65.1119 48.0413 65.4857 48.1416 65.8739C48.2706 66.3915 48.3852 66.9234 48.5142 67.441C48.5286 67.5128 48.6146 67.6135 48.6719 67.6135C49.4888 67.6135 50.3201 67.6135 51.137 67.6135C51.1943 67.6135 51.2803 67.556 51.2947 67.4985C51.3807 67.2397 51.4667 66.9665 51.5383 66.7077C51.6816 66.1327 51.8106 65.5576 51.9396 64.9825C52.0829 64.3643 52.4412 63.9906 53.0718 63.8899C53.1578 63.8899 53.2438 63.8612 53.3298 63.8468C54.4334 63.6599 55.5083 63.3724 56.5689 63.0129C57.0275 62.8548 57.4431 62.9411 57.8158 63.243C57.9878 63.3867 58.1454 63.5449 58.3031 63.703C58.8334 64.235 59.3493 64.7669 59.8939 65.2988C59.9513 65.3563 60.0803 65.3707 60.1376 65.342C60.4672 65.1982 60.7969 65.04 61.1122 64.8675C61.4848 64.6663 61.8574 64.4506 62.2301 64.2493C62.3591 64.1774 62.3734 64.1056 62.3304 63.9906C62.2157 63.6743 62.1011 63.3724 62.0008 63.0561C61.8288 62.5529 61.6711 62.0497 61.4848 61.5465C61.3702 61.2302 61.3272 60.8996 61.5135 60.6264C61.6711 60.382 61.9004 60.1664 62.1297 59.9795C62.9467 59.3469 63.692 58.6281 64.3799 57.8517C64.7812 57.406 65.2542 57.2623 65.8131 57.4204C66.716 57.6792 67.6333 57.938 68.5362 58.1968C68.6079 58.2111 68.7369 58.1968 68.7655 58.1392C69.1668 57.521 69.5538 56.8885 69.9551 56.2703C70.0554 56.1265 70.0411 56.0259 69.8978 55.8965C69.2098 55.3214 68.5505 54.7176 67.8769 54.1282C67.4613 53.7687 67.2893 53.3231 67.5043 52.7767C67.533 52.6905 67.6046 52.6186 67.6333 52.5323C67.9056 51.5979 68.1922 50.6634 68.4072 49.7145C68.5505 49.082 68.7799 48.7369 69.4678 48.5788C70.3994 48.3631 71.3453 48.1762 72.2769 47.9606C72.3486 47.9462 72.4345 47.8456 72.4345 47.7881C72.4345 47.0405 72.4345 46.2929 72.4345 45.5453C72.4345 45.4159 72.3772 45.3584 72.2482 45.344C71.3023 45.1427 70.3564 44.9415 69.4105 44.7258C68.8802 44.5964 68.5219 44.2945 68.4216 43.7194C68.3499 43.3313 68.2639 42.9575 68.1492 42.5693C67.9486 41.908 67.7336 41.2467 67.5043 40.5853C67.3896 40.2691 67.3323 39.9384 67.5043 39.6365C67.6189 39.4208 67.8053 39.2483 67.9916 39.0758C68.6079 38.5295 69.2242 37.9975 69.8404 37.4656C70.0411 37.3075 70.0554 37.1637 69.9121 36.9624C69.5395 36.3873 69.1668 35.8123 68.8085 35.2228C68.7082 35.0647 68.6222 35.0647 68.4646 35.1078C67.7479 35.3235 67.017 35.5247 66.3004 35.726C66.0138 35.8123 65.7128 35.8698 65.4691 35.9417L65.5408 35.9848ZM30.1978 32.6782H2.45079C2.45079 32.7788 2.45079 32.8794 2.45079 32.9657C2.45079 33.9289 2.45079 34.8922 2.45079 35.8554C2.45079 36.1573 2.49379 36.4592 2.55112 36.7611C2.66577 37.48 2.99541 38.0982 3.5257 38.587C4.31397 39.3346 5.27422 39.6652 6.34913 39.6652C13.7875 39.6652 21.2259 39.6652 28.6642 39.6652C28.7502 39.6652 28.8219 39.6652 28.9079 39.6652L28.9509 39.6077C28.9509 39.6077 28.8076 39.5071 28.7502 39.464C28.3059 39.0758 27.876 38.6876 27.4317 38.2994C27.231 38.1413 27.1594 37.9257 27.1307 37.6956C27.0877 37.3362 27.2597 37.0343 27.4173 36.718C27.876 35.8123 28.3919 34.9641 28.9509 34.1302C29.3092 33.6127 29.6102 33.052 30.1835 32.6782H30.1978ZM18.0155 52.5036H29.7105C29.6962 52.4317 29.6818 52.3598 29.6675 52.3023C29.5242 51.8279 29.3809 51.3678 29.2519 50.879C29.2089 50.7209 29.1515 50.6634 28.9939 50.6346C28.005 50.419 27.0161 50.2033 26.0271 49.9877C25.5828 49.887 25.1815 49.4557 25.1242 49.0101C24.9522 47.4574 24.9522 45.9047 25.1242 44.352C25.1815 43.8632 25.5542 43.4607 26.0558 43.3457C27.0447 43.13 28.0193 42.9144 29.0082 42.6987C29.0942 42.6843 29.1945 42.6268 29.2232 42.5693C29.2949 42.3968 29.3092 42.1955 29.3665 41.9942C29.2519 41.9942 29.1515 41.9942 29.0655 41.9942C26.8441 41.9942 24.6083 41.9942 22.3868 41.9942C22.3294 41.9942 22.2721 41.9942 22.2291 41.9942C22.1861 41.9942 22.1288 42.0374 22.1145 42.0805C22.0285 42.2387 21.9568 42.4112 21.8852 42.5837C21.6702 43.1013 21.4695 43.6332 21.2689 44.1507C21.0252 44.7833 20.7816 45.4015 20.5379 46.0341C20.3373 46.566 20.1223 47.098 19.9073 47.6299C19.6637 48.2769 19.4057 48.9094 19.162 49.5564C18.9901 50.0164 18.8181 50.4909 18.6461 50.9509C18.4454 51.4541 18.2448 51.9717 18.0298 52.4892L18.0155 52.5036ZM27.618 54.9189L27.5607 54.847H10.2045C10.2045 54.847 10.2045 54.9333 10.2188 54.9476C10.4625 55.5371 10.8494 55.9971 11.351 56.3853C12.0247 56.9029 12.7843 57.1616 13.6155 57.176C18.2448 57.176 22.8597 57.176 27.489 57.176C27.5463 57.176 27.6037 57.176 27.7183 57.1616C27.5893 56.9316 27.4747 56.716 27.3457 56.5291C27.0734 56.1696 27.0161 55.5658 27.274 55.192C27.36 55.077 27.489 55.0051 27.6037 54.9189H27.618ZM34.9847 32.6782H31.3873C32.2616 32.9657 33.1359 33.2245 34.0245 33.4689C34.0818 33.4833 34.1535 33.4689 34.1964 33.4401C34.4544 33.1957 34.7124 32.9513 34.9847 32.6782Z" fill="#C50C33"/>
<path d="M26.2421 27.9771H23.7484V27.7327C23.7484 25.4899 23.7484 23.2472 23.7484 21.0044C23.7484 20.5443 23.7913 20.0843 23.906 19.6386C24.164 18.7329 24.5653 17.8847 25.2246 17.1946C26.5288 15.8288 28.1483 15.1531 30.0402 15.1531C35.1567 15.1531 40.2733 15.1531 45.4042 15.1531H45.7482L42.8674 12.4647L44.6016 10.8401C44.7306 10.9551 44.8739 11.0557 44.9886 11.1708C45.7768 11.9183 46.5651 12.6515 47.3534 13.3991C48.0126 14.0173 48.6719 14.6212 49.3169 15.2393C49.4458 15.3544 49.5892 15.455 49.6895 15.5844C50.0908 16.0876 50.0191 16.8064 49.5318 17.209C49.2452 17.4534 48.9442 17.7121 48.6719 17.9853C48.0843 18.546 47.4967 19.1067 46.9091 19.6674C46.2211 20.3143 45.5332 20.9613 44.8452 21.5938C44.7736 21.6657 44.6876 21.7088 44.6016 21.7664L42.8674 20.1562L45.7195 17.4821C45.6048 17.4821 45.5332 17.4677 45.4615 17.4677C40.302 17.4677 35.1424 17.4677 29.9828 17.4677C29.0226 17.4677 28.177 17.7696 27.446 18.3878C26.6578 19.0779 26.2278 19.9261 26.2278 20.99C26.2278 23.2184 26.2278 25.4468 26.2278 27.6608V27.9483L26.2421 27.9771Z" fill="#C50C33"/>
<path d="M12.4833 9.34473H14.9484V11.6306H12.4833V9.34473Z" fill="#C50C33"/>
<path d="M19.979 11.645H17.5139V9.35913H19.979V11.645Z" fill="#C50C33"/>
<path d="M24.9665 9.34473V11.6306H22.5014V9.34473H24.9665Z" fill="#C50C33"/>
<path d="M50.1338 54.847C48.4139 54.8039 46.952 54.4732 45.5905 53.7256C44.8452 53.3087 44.1716 52.8199 43.584 52.2161C43.025 51.6554 42.5807 51.0228 42.1938 50.3471C41.8498 49.7433 41.6778 49.0963 41.4772 48.4494C41.1762 47.4574 41.1619 46.451 41.3482 45.459C41.5058 44.6971 41.7495 43.9351 42.0791 43.245C42.3658 42.6268 42.7957 42.0661 43.2257 41.5486C44.0283 40.5854 45.0315 39.8809 46.1781 39.3633C46.8947 39.047 47.64 38.817 48.4139 38.6733C49.5891 38.472 50.7644 38.4864 51.9253 38.7451C53.2008 39.0183 54.3761 39.5359 55.4223 40.3266C55.9096 40.7004 56.3539 41.1029 56.7552 41.563C57.3428 42.2243 57.7871 42.9719 58.1311 43.7913C58.8907 45.6028 58.8764 47.4143 58.2887 49.2401C58.0021 50.1171 57.5291 50.9222 56.9415 51.6266C56.3826 52.3023 55.7376 52.8918 54.9924 53.3662C53.8315 54.1138 52.5702 54.5882 51.1943 54.7607C50.7787 54.8039 50.3631 54.8326 50.1194 54.8614L50.1338 54.847ZM50.1194 52.5324C50.2484 52.5324 50.5207 52.5036 50.7787 52.4749C52.1116 52.3311 53.2868 51.7992 54.3044 50.9222C54.8347 50.4765 55.2503 49.9158 55.5943 49.3264C55.9383 48.7369 56.1103 48.0612 56.2249 47.3999C56.3396 46.7529 56.2966 46.106 56.1103 45.4734C55.9383 44.8984 55.7663 44.352 55.451 43.8201C54.8777 42.8569 54.0894 42.138 53.1149 41.6205C51.8536 40.9304 50.4921 40.7004 49.0732 40.9016C47.8693 41.0742 46.7944 41.5342 45.8485 42.3106C45.0029 43.0006 44.3723 43.8489 44.0426 44.8696C43.4407 46.6954 43.6986 48.4206 44.8595 50.0021C45.4185 50.764 46.1064 51.3391 46.9377 51.7704C47.898 52.2736 48.9155 52.518 50.1194 52.5324Z" fill="#C50C33"/>
<path d="M64.7382 49.1539L62.3591 48.7514L62.5454 46.6667H64.9962C65.0535 47.4862 64.8529 48.2913 64.7382 49.1395V49.1539Z" fill="#C50C33"/>
<path d="M53.3298 60.3533L50.6784 60.684L50.5781 58.3693L52.7995 58.0962L53.3298 60.3533Z" fill="#C50C33"/>
<path d="M59.4066 38.932L57.7871 37.5087L59.335 35.6973L61.2698 37.4081L59.4066 38.932Z" fill="#C50C33"/>
<path d="M36.4466 40.5853L37.8081 38.4575L39.8433 39.8377C39.6857 40.0533 39.528 40.2402 39.399 40.4559C39.2127 40.7434 39.0407 41.0453 38.8687 41.3616C38.7254 41.6348 38.7254 41.6348 38.4531 41.5054C37.8511 41.2322 37.2349 40.9734 36.6329 40.7003C36.5899 40.6859 36.5469 40.6428 36.4466 40.5996V40.5853Z" fill="#C50C33"/>
<path d="M62.0868 43.5039L61.2842 41.5774L63.4913 40.571C63.9213 41.2899 64.1363 42.095 64.4802 42.8857L62.0868 43.5039Z" fill="#C50C33"/>
<path d="M62.1441 54.89L60.1663 53.5386L61.3128 51.7703L63.4913 52.7479C63.133 53.5386 62.6457 54.2143 62.1441 54.9044V54.89Z" fill="#C50C33"/>
<path d="M57.8158 55.8389L59.378 57.6503L57.1565 59.0305L55.9669 56.989L57.8301 55.8389H57.8158Z" fill="#C50C33"/>
<path d="M55.8236 33.7708C55.5226 34.4609 55.236 35.1222 54.935 35.7691C54.9064 35.8123 54.7917 35.8698 54.7487 35.8554C54.0894 35.6541 53.4302 35.4385 52.7709 35.2228L53.2868 33.0232C54.1611 33.1813 54.9924 33.4545 55.8236 33.7708Z" fill="#C50C33"/>
<path d="M43.9709 36.4016C43.5696 36.646 43.1683 36.8905 42.7814 37.1349C42.6381 37.2355 42.4804 37.3218 42.3514 37.4368C42.2224 37.5374 42.1364 37.523 42.0361 37.408C41.6778 36.9767 41.3195 36.5454 40.9469 36.1141C40.8465 35.9991 40.7319 35.8841 40.5886 35.7259C41.3052 35.2946 41.9931 34.8633 42.6954 34.4608C42.7527 34.432 42.896 34.4608 42.9104 34.5039C43.2687 35.1221 43.6126 35.7403 43.9709 36.3585C43.9709 36.3585 43.9709 36.3873 43.9709 36.416V36.4016Z" fill="#C50C33"/>
<path d="M40.6316 57.6505L38.6967 55.9253L40.5599 54.4014L42.1651 55.8247L40.6172 57.6505H40.6316Z" fill="#C50C33"/>
<path d="M38.6824 51.7704L36.4609 52.7768L35.515 50.4478L37.9228 49.8296L38.6967 51.7704H38.6824Z" fill="#C50C33"/>
<path d="M44.1286 59.5482L45.0745 57.4636L47.1957 58.0962L46.6511 60.3102C45.7911 60.1377 44.9742 59.8933 44.1286 59.5482Z" fill="#C50C33"/>
<path d="M37.4642 46.6667H34.9704L35.1854 44.2083L37.6505 44.6108L37.4785 46.6523L37.4642 46.6667Z" fill="#C50C33"/>
<path d="M49.2595 32.7212L49.3598 34.9783L47.167 35.2659C47.0954 34.9352 47.0237 34.6189 46.952 34.2882C46.8661 33.9288 46.7514 33.5838 46.6511 33.2244C46.6224 33.1237 46.6081 33.0231 46.7657 33.0087C47.5397 32.9225 48.2993 32.8218 49.0732 32.7212C49.1305 32.7212 49.1735 32.7212 49.2595 32.7212Z" fill="#C50C33"/>
</g>
<defs>
<clipPath id="clip0_6_1395">
<rect width="75" height="70" fill="white"/>
</clipPath>
</defs>
</svg>
