<svg width="82" height="81" viewBox="0 0 82 81" fill="none" xmlns="http://www.w3.org/2000/svg">
<path d="M41.0967 80.3657C26.3287 80.3657 14.3204 68.4827 14.3204 53.869C14.3204 39.2552 26.3287 27.3723 41.0967 27.3723C55.8646 27.3723 67.8729 39.2552 67.8729 53.869C67.8729 68.4827 55.8646 80.3657 41.0967 80.3657ZM41.0967 30.6321C28.1561 30.6321 17.6146 41.0511 17.6146 53.869C17.6146 66.6868 28.1436 77.1059 41.0967 77.1059C54.0497 77.1059 64.5787 66.6868 64.5787 53.869C64.5787 41.0511 54.0497 30.6321 41.0967 30.6321Z" fill="#B12D36"/>
<path d="M41.0967 55.505C40.6865 55.505 40.2638 55.3451 39.9406 55.0376C39.2942 54.4102 39.2693 53.3769 39.9157 52.725L57.4434 34.9129C58.0773 34.2732 59.1215 34.2486 59.7804 34.8883C60.4268 35.5156 60.4516 36.5489 59.8052 37.2009L42.2776 55.013C41.9544 55.3451 41.5318 55.505 41.0967 55.505Z" fill="#B12D36"/>
<path d="M71.5773 26.794C71.1671 26.794 70.7445 26.6464 70.4337 26.3389C69.7748 25.7115 69.7624 24.6782 70.3964 24.0263L78.1657 16.1043C78.7997 15.4647 79.8439 15.4401 80.5027 16.0674C81.1616 16.6948 81.174 17.7281 80.54 18.3801L72.7707 26.302C72.4475 26.6341 72.0124 26.794 71.5898 26.794H71.5773Z" fill="#B12D36"/>
<path d="M63.9448 19.9423C63.721 19.9423 63.4973 19.8931 63.2735 19.7947C62.4406 19.4257 62.0677 18.4662 62.4406 17.642L66.9904 7.55505C67.3633 6.73087 68.3329 6.36183 69.1658 6.73087C69.9986 7.0999 70.3716 8.05939 69.9986 8.88357L65.4489 18.9705C65.1754 19.5733 64.5788 19.9423 63.9448 19.9423Z" fill="#B12D36"/>
<path d="M53.3287 15.2802C53.2293 15.2802 53.1174 15.2802 53.0179 15.2556C52.1229 15.0834 51.5386 14.2346 51.7127 13.3489L53.8259 2.49928C54 1.6136 54.8701 1.03544 55.7527 1.20766C56.6478 1.37987 57.232 2.22865 57.058 3.11434L54.9447 13.964C54.7956 14.7389 54.0994 15.2802 53.3287 15.2802Z" fill="#B12D36"/>
<path d="M41.7431 14.5298C40.8853 14.5298 40.1643 13.8778 40.1022 13.0168L39.2445 2.00722C39.1699 1.10923 39.8536 0.321959 40.761 0.260453C41.6312 0.186646 42.4641 0.86321 42.5262 1.7612L43.384 12.7707C43.4585 13.6687 42.7748 14.456 41.8674 14.5175C41.8301 14.5175 41.7804 14.5175 41.7431 14.5175V14.5298Z" fill="#B12D36"/>
<path d="M30.8412 15.0218C30.1823 15.0218 29.5484 14.6159 29.2997 13.9762L25.3343 3.65557C25.0111 2.81909 25.4337 1.8719 26.2915 1.55207C27.1368 1.23224 28.0939 1.65048 28.4171 2.49926L32.3826 12.8199C32.7058 13.6564 32.2832 14.6036 31.4254 14.9234C31.2265 14.9972 31.0401 15.0341 30.8412 15.0341V15.0218Z" fill="#B12D36"/>
<path d="M20.7224 19.315C20.1505 19.315 19.5911 19.0197 19.2928 18.4908L13.7362 8.90819C13.2887 8.12092 13.5621 7.12452 14.3453 6.68168C15.1409 6.23884 16.1478 6.50947 16.5953 7.28444L22.1519 16.867C22.5994 17.6543 22.326 18.6507 21.5428 19.0936C21.2818 19.2412 20.9958 19.315 20.7224 19.315Z" fill="#B12D36"/>
<path d="M10.6906 26.0683C10.3549 26.0683 10.0193 25.9699 9.72097 25.7608L0.683676 19.2781C-0.0497496 18.7491 -0.211352 17.7281 0.310748 17.0023C0.845278 16.2766 1.87705 16.1167 2.61047 16.6333L11.6478 23.116C12.3812 23.645 12.5428 24.666 12.0207 25.3917C11.6975 25.8346 11.2003 26.0683 10.6906 26.0683Z" fill="#B12D36"/>
</svg>
