<svg width="24" height="24" viewBox="0 0 24 24" fill="none" xmlns="http://www.w3.org/2000/svg">
<path d="M22.7555 12.4994C22.9295 18.5536 17.6748 23.7663 11.5268 23.7196C5.39046 23.6728 0.356096 18.5536 0.367696 12.4293C0.390896 6.38672 5.43686 1.22075 11.6312 1.23244C17.7096 1.23244 22.9643 6.41009 22.7671 12.4994H22.7555Z" stroke="white" stroke-width="0.5" stroke-miterlimit="10"/>
<path d="M12.6868 11.576C12.6868 11.0033 12.6868 10.4306 12.6868 9.84622C12.6868 9.63584 12.7332 9.42546 12.8028 9.22677C12.9536 8.79432 13.2668 8.59563 13.7308 8.58394C14.2528 8.58394 14.7632 8.58394 15.2852 8.58394C15.3896 8.58394 15.436 8.57226 15.436 8.44369C15.436 7.49699 15.436 6.55029 15.436 5.60358C15.436 5.58021 15.436 5.55683 15.436 5.51008C15.378 5.51008 15.3316 5.51008 15.2852 5.51008C14.624 5.51008 13.9512 5.49839 13.29 5.51008C12.7564 5.52177 12.2344 5.59189 11.7356 5.76721C10.6568 6.12953 10.0188 6.90092 9.72882 7.98787C9.57803 8.57226 9.53163 9.15664 9.52003 9.75272C9.52003 10.3488 9.52003 10.9449 9.52003 11.5409V11.7279H7.74524C7.74524 11.7864 7.73364 11.8331 7.73364 11.8799C7.73364 12.8032 7.73364 13.7265 7.73364 14.6382C7.73364 14.7667 7.76844 14.8135 7.90764 14.8135C8.38324 14.8135 8.85883 14.8135 9.33443 14.8135H9.50843V23.5676C9.86803 23.6143 10.2044 23.6845 10.5176 23.7896C10.564 23.7896 10.622 23.7896 10.6684 23.7896C11.0164 23.7896 11.3412 23.8247 11.666 23.8715C12.0024 23.7429 12.3504 23.626 12.7216 23.5559V14.8135C12.7912 14.8135 12.8492 14.8135 12.9072 14.8135C13.5568 14.8135 14.1948 14.8135 14.8444 14.8135C14.972 14.8135 15.0184 14.7784 15.03 14.6499C15.1576 13.7382 15.2968 12.8149 15.436 11.9033C15.436 11.8565 15.436 11.7981 15.4476 11.7279H12.7216C12.7216 11.6578 12.7216 11.6111 12.7216 11.5643L12.6868 11.576Z" fill="white"/>
</svg>
