<svg width="9" height="6" viewBox="0 0 9 6" fill="none" xmlns="http://www.w3.org/2000/svg">
<path d="M0.0943647 0.23998C0.224116 0.122671 0.353867 0.064016 0.507209 0.0288233C0.566186 0.0170924 0.63696 0.0170898 0.695937 0.0170898C3.24377 0.0170898 5.77982 0.0170898 8.32765 0.0170898C8.4692 0.0170898 8.59895 0.0405518 8.70511 0.122668C8.75229 0.157861 8.79948 0.204785 8.84666 0.251709C8.77588 0.310363 8.71691 0.369017 8.65793 0.415941C7.69069 1.22537 6.71166 2.03481 5.74443 2.84424C5.39056 3.13751 5.0249 3.44252 4.67104 3.73579C4.47051 3.90002 4.30537 3.87656 4.14024 3.73579C3.7038 3.34867 3.25557 2.97328 2.81914 2.58616C1.92267 1.81192 1.02621 1.03768 0.129751 0.263442C0.129751 0.263442 0.10616 0.251711 0.0825691 0.23998H0.0943647Z" fill="#C50C33"/>
<path d="M0.483616 5.92964L3.36173 3.66557C3.53866 3.81807 3.7156 3.97058 3.89253 4.12308C3.99869 4.21692 4.10485 4.31077 4.21101 4.40462C4.31717 4.49847 4.45871 4.5102 4.57667 4.42808C4.77719 4.27558 4.96592 4.11135 5.16645 3.94712C5.2962 3.84154 5.42595 3.73596 5.5675 3.61865L8.50459 5.92964H0.483616Z" fill="#C50C33"/>
<path d="M6.00393 3.24331L8.98821 0.744629C9.02359 0.979247 8.98821 5.43699 8.95282 5.56603L6.00393 3.24331Z" fill="#C50C33"/>
<path d="M0.0235911 5.57774C0.0235911 5.49562 0 5.42523 0 5.36658C0 3.86502 0 2.35174 0 0.850182C0 0.826721 0 0.803259 0 0.768066L2.92529 3.29021L0.0235911 5.57774Z" fill="#C50C33"/>
</svg>
