<svg width="7" height="10" viewBox="0 0 7 10" fill="none" xmlns="http://www.w3.org/2000/svg">
<path d="M3.61206 9.89597H3.38794C3.30538 9.81385 3.21101 9.74347 3.14024 9.66135C2.64483 9.05134 2.12582 8.44134 1.654 7.80787C1.135 7.11575 0.674969 6.40016 0.344694 5.60246C0.214943 5.29746 0.14417 4.96899 0.0380096 4.65225C0.0380096 4.46456 0.0380096 4.27687 0.0380096 4.08917C0.0380096 4.05398 0.0616007 4.00705 0.0616007 3.97186C0.238534 2.55242 1.31193 1.3676 2.7156 1.05087C2.84535 1.0274 2.9751 0.992212 3.09306 0.96875C3.31717 0.96875 3.54129 0.96875 3.7654 0.96875C3.85977 0.980481 3.95413 0.992211 4.0367 1.01567C5.47576 1.29721 6.4076 2.15357 6.82045 3.54955C6.86763 3.72551 6.89122 3.90148 6.9384 4.07744V4.64052C6.9384 4.64052 6.91481 4.66399 6.91481 4.67572C6.84404 5.19188 6.64351 5.66111 6.4076 6.11862C5.82962 7.23305 5.07471 8.23018 4.27261 9.19212C4.06029 9.4502 3.82438 9.68481 3.58847 9.93116L3.61206 9.89597ZM5.21625 4.38244C5.25164 3.47916 4.42595 2.64627 3.45872 2.68146C2.53867 2.70492 1.78375 3.4557 1.78375 4.40591C1.78375 5.34438 2.55046 6.09516 3.4941 6.09516C4.48493 6.09516 5.22805 5.36784 5.22805 4.38244H5.21625Z" fill="#C50C33"/>
<path d="M3.4941 5.42646C2.93971 5.42646 2.4561 4.95722 2.4561 4.40587C2.4561 3.84279 2.92792 3.36182 3.4941 3.36182C4.0485 3.36182 4.52032 3.84278 4.52032 4.39414C4.52032 4.95722 4.0485 5.42646 3.48231 5.42646H3.4941Z" fill="#C50C33"/>
</svg>
