<svg width="7" height="10" viewBox="0 0 7 10" fill="none" xmlns="http://www.w3.org/2000/svg">
<path d="M0.10878 2.17002C0.10878 1.77117 0.179553 1.38405 0.356486 1.02039C0.450851 0.809238 0.592397 0.633275 0.781126 0.492504C0.958059 0.363464 1.13499 0.222693 1.30013 0.081922C1.46527 -0.047118 1.66579 -0.0119253 1.78375 0.164038C2.20839 0.820969 2.62123 1.4779 3.03408 2.14656C3.15203 2.33426 3.09305 2.53368 2.89253 2.62753C2.692 2.73311 2.49148 2.83869 2.29096 2.94426C2.07864 3.04984 2.00786 3.20234 2.04325 3.43696C2.07864 3.68331 2.173 3.91793 2.31455 4.12909C2.65662 4.66871 2.99869 5.22006 3.35255 5.74795C3.52949 6.01776 3.74181 6.26411 3.98951 6.47527C4.07208 6.54565 4.16645 6.61604 4.2844 6.62777C4.37877 6.6395 4.46134 6.62777 4.53211 6.55738C4.72084 6.39315 4.89777 6.24065 5.0865 6.08815C5.23984 5.95911 5.46396 5.98257 5.57012 6.15853C5.99476 6.81546 6.4194 7.48412 6.83224 8.15279C6.9502 8.32875 6.87942 8.53991 6.69069 8.63375C6.47837 8.73933 6.26605 8.83318 6.05373 8.93876C5.80603 9.0678 5.54653 9.09126 5.27523 9.0678C4.69725 9.00914 4.20183 8.77452 3.73001 8.45779C3.16383 8.07067 2.68021 7.57797 2.25557 7.03835C1.52425 6.11161 0.910877 5.10275 0.486237 4.00005C0.309304 3.55427 0.191349 3.08503 0.132371 2.60407C0.120575 2.4633 0.10878 2.31079 0.10878 2.17002Z" fill="#C50C33"/>
</svg>
