<svg width="24" height="24" viewBox="0 0 24 24" fill="none" xmlns="http://www.w3.org/2000/svg">
<path d="M6.51191 9.81744C6.51191 8.92918 7.2891 8.13441 8.1127 8.18116C8.2635 8.18116 8.44909 8.25129 8.56509 8.35648C9.12189 8.84736 9.56269 9.42006 9.87589 10.0863C10.1079 10.5655 10.0615 10.846 9.63229 11.1615C9.00589 11.629 9.06389 11.9329 9.30749 12.4589C9.79468 13.4757 10.5835 14.1653 11.6159 14.5627C11.8595 14.6562 12.0683 14.5977 12.2423 14.399C12.3467 14.2821 12.4395 14.1653 12.5555 14.0484C12.8571 13.7328 13.2051 13.651 13.5763 13.8614C14.0055 14.1068 14.3998 14.3873 14.7942 14.6678C14.9798 14.7964 15.1422 14.9483 15.293 15.1003C15.5482 15.3457 15.583 15.6262 15.4554 15.9418C15.177 16.5846 14.7246 17.0404 14.0403 17.2391C13.8315 17.3093 13.6227 17.3209 13.4255 17.2391C12.7643 16.9236 12.0915 16.608 11.4419 16.2457C10.7923 15.8834 10.2007 15.4275 9.66709 14.925C9.26109 14.5393 8.86669 14.1185 8.49549 13.6861C7.6951 12.7277 7.09191 11.6524 6.62791 10.4953C6.58151 10.3785 6.54671 10.2499 6.52351 10.1213C6.50031 10.0161 6.50031 9.91094 6.48871 9.80575L6.51191 9.81744Z" fill="white"/>
<path d="M15.4438 12.2486C15.4438 12.3421 15.4438 12.4356 15.4438 12.5291C15.4438 12.681 15.3858 12.7745 15.2234 12.7862C15.0611 12.7979 14.9566 12.7394 14.9218 12.5641C14.887 12.3421 14.8639 12.1083 14.8291 11.8862C14.7015 11.0564 14.4231 10.285 13.8315 9.67726C13.3327 9.163 12.6947 8.8825 12.0103 8.71887C11.7319 8.64875 11.4535 8.61368 11.1751 8.56693C10.9663 8.53187 10.8851 8.45005 10.8967 8.28643C10.8967 8.1228 11.0127 8.0293 11.1983 8.0293C12.3351 8.06436 13.3675 8.35655 14.2027 9.17469C14.8987 9.86427 15.2814 10.7058 15.3858 11.6759C15.409 11.8629 15.4206 12.0382 15.4322 12.2252H15.4206L15.4438 12.2486Z" fill="white"/>
<path d="M14.365 11.8511C14.3534 11.9563 14.3418 12.0614 14.3302 12.1666C14.307 12.2952 14.249 12.377 14.1098 12.377C13.9706 12.377 13.8662 12.3186 13.8314 12.1666C13.7966 11.9796 13.7618 11.7926 13.7386 11.6056C13.5878 10.5888 12.9731 10.0161 12.0103 9.79403C11.8479 9.75897 11.6739 9.72391 11.5115 9.68885C11.3143 9.65378 11.2447 9.57197 11.2563 9.39665C11.2679 9.22134 11.3723 9.11615 11.5463 9.12784C13.1238 9.19796 14.2954 10.2732 14.365 11.8628V11.8511Z" fill="white"/>
<path d="M11.9639 10.25C12.7062 10.2968 13.2978 10.8694 13.3094 11.6642C13.3094 11.7343 13.3094 11.8278 13.263 11.8746C13.205 11.9447 13.1122 12.0265 13.031 12.0265C12.9614 12.0265 12.8686 11.9564 12.8106 11.8863C12.7642 11.8278 12.7526 11.746 12.741 11.6642C12.6714 11.2084 12.4047 10.9279 11.9523 10.811C11.8943 10.7993 11.8363 10.7876 11.7783 10.7643C11.6391 10.7292 11.5579 10.6357 11.5695 10.4838C11.5811 10.3318 11.6855 10.2734 11.8131 10.25C11.8595 10.25 11.9175 10.25 11.9523 10.25H11.9639Z" fill="white"/>
<path d="M23.007 12.307C23.181 18.3612 17.9262 23.574 11.7783 23.5272C5.64192 23.4805 0.607561 18.3612 0.619161 12.2369C0.64236 6.19434 5.68832 1.02837 11.8827 1.04006C17.961 1.04006 23.2158 6.21771 23.0186 12.307H23.007Z" stroke="white" stroke-width="0.5" stroke-miterlimit="10"/>
</svg>
