<svg width="23" height="24" viewBox="0 0 23 24" fill="none" xmlns="http://www.w3.org/2000/svg">
<path d="M22.6778 11.559C22.8518 17.6132 17.5971 22.8259 11.4491 22.7792C5.31276 22.7324 0.266797 17.6132 0.289997 11.4888C0.313196 5.4346 5.35916 0.280324 11.5535 0.292012C17.6319 0.292012 22.8866 5.46967 22.6894 11.559H22.6778Z" stroke="white" stroke-width="0.5" stroke-miterlimit="10"/>
<path d="M17.2259 7.51477C17.0867 8.21603 16.9011 9.17443 16.6923 10.1211C16.4371 11.2548 16.1703 12.3885 15.8919 13.5106C15.6831 14.3755 15.4859 15.2403 15.2539 16.0935C15.0567 16.8649 14.4535 17.0519 13.8039 16.5844C13.1543 16.1052 12.4931 15.6494 11.8435 15.1585C11.5999 14.9715 11.4491 15.0183 11.2519 15.217C10.8923 15.591 10.4979 15.9416 10.1151 16.2922C9.65112 16.713 9.32633 16.6779 9.05953 16.1286C8.81593 15.6377 8.64193 15.1118 8.45633 14.5975C8.25913 14.0599 8.09674 13.5106 7.86474 12.9846C7.78354 12.8093 7.58634 12.634 7.40074 12.5639C6.72795 12.3067 6.04355 12.0964 5.35916 11.886C5.06916 11.7925 4.76756 11.6873 4.73276 11.3367C4.69796 10.951 4.99956 10.7873 5.28956 10.6705C6.83235 10.051 8.37513 9.43156 9.94112 8.84717C11.9943 8.07578 14.0707 7.33946 16.1355 6.57976C16.1703 6.56807 16.2051 6.54469 16.2399 6.53301C16.9243 6.31094 17.2375 6.53301 17.2259 7.51477ZM12.9107 9.88738L12.8179 9.79388C12.7367 9.82894 12.6439 9.85231 12.5627 9.89907C11.2519 10.7055 9.95272 11.5237 8.64193 12.3301C8.32873 12.5288 8.25913 12.7976 8.39833 13.1366C8.54913 13.5223 8.66513 13.9079 8.82753 14.2936C8.89713 14.469 9.02473 14.6092 9.12913 14.7612C9.19873 14.5741 9.32633 14.3988 9.32633 14.2118C9.32633 13.4872 9.61632 12.9496 10.1615 12.482C11.0315 11.7457 11.8551 10.951 12.6903 10.1679C12.7831 10.0861 12.8411 9.96919 12.9107 9.87569V9.88738ZM9.63952 15.6845C9.63952 15.6845 9.68592 15.813 9.75552 15.8598C9.80192 15.8949 9.92952 15.8598 9.98752 15.813C10.3239 15.5209 10.6487 15.217 10.9735 14.9131C11.1359 14.7612 11.0895 14.6326 10.9271 14.5157C10.6719 14.3404 10.4167 14.1651 10.1499 14.0014C9.95272 13.8729 9.81352 13.9313 9.79032 14.1651C9.73232 14.6443 9.69752 15.1352 9.63952 15.6845Z" fill="white"/>
</svg>
