<svg width="24" height="24" viewBox="0 0 24 24" fill="none" xmlns="http://www.w3.org/2000/svg">
<path d="M23.3033 12.4994C23.4773 18.5536 18.2226 23.7663 12.0746 23.7196C5.93828 23.6728 0.903917 18.5536 0.915517 12.4293C0.938717 6.38672 5.98468 1.22075 12.179 1.23244C18.2574 1.23244 23.5121 6.41009 23.3149 12.4994H23.3033Z" stroke="white" stroke-width="0.5" stroke-miterlimit="10"/>
<path d="M19.7306 6.87773C19.5334 7.6608 19.0462 8.19844 18.4546 8.66595L18.4778 8.7127L20.1946 8.24519C19.9858 8.50232 19.7886 8.75945 19.5798 8.9932C19.3478 9.26202 19.1158 9.50746 18.8722 9.76459C18.791 9.8464 18.7678 9.92822 18.7678 10.0334C18.7098 11.845 18.3154 13.5631 17.4106 15.1409C16.1578 17.3032 14.3018 18.6472 11.9006 19.255C10.903 19.5004 9.89384 19.6056 8.87305 19.5472C7.85226 19.4888 6.88947 19.2199 5.97307 18.7875C5.54388 18.5888 5.12628 18.3551 4.69708 18.1213C6.40227 18.2382 7.95666 17.8291 9.32545 16.7655C7.85226 16.6136 6.85467 15.8539 6.34427 14.4514H7.58546L7.60866 14.4046C6.03107 13.902 5.21908 12.8268 5.13788 11.1554C5.53228 11.3892 5.94987 11.5061 6.42547 11.5061C5.71787 10.9918 5.38148 10.2788 5.21908 9.48409C5.04508 8.67763 5.07988 7.89456 5.50908 7.09979C5.55548 7.16992 5.59028 7.22836 5.63667 7.27511C6.36747 8.05818 7.17946 8.75945 8.10746 9.30877C9.12825 9.90484 10.2186 10.2905 11.3902 10.4542C11.6106 10.4892 11.831 10.5126 12.0514 10.536C12.0746 10.536 12.0978 10.536 12.1326 10.536C12.1094 10.3957 12.0862 10.2672 12.0746 10.1386C11.9354 8.82957 12.4574 7.83612 13.5478 7.14654C14.4642 6.57385 15.4618 6.41022 16.5174 6.76085C16.9582 6.91279 17.3294 7.16992 17.631 7.52055C17.7006 7.60236 17.7586 7.61405 17.8514 7.59068C18.3154 7.50886 18.7562 7.33355 19.1854 7.13486C19.371 7.05304 19.5566 6.97123 19.7654 6.87773H19.7306Z" fill="white"/>
</svg>
