<svg width="23" height="24" viewBox="0 0 23 24" fill="none" xmlns="http://www.w3.org/2000/svg">
<path d="M22.6984 11.8217C22.8724 17.8759 17.6176 23.0886 11.4697 23.0419C5.33333 22.9951 0.298967 17.8759 0.310567 11.7515C0.333767 5.70899 5.37973 0.54302 11.5741 0.554707C17.6524 0.554707 22.9072 5.73236 22.71 11.8217H22.6984Z" stroke="white" stroke-width="0.5" stroke-miterlimit="10"/>
<path d="M12.6645 9.64762C12.6645 10.1502 12.6413 10.6528 12.6645 11.1436C12.6761 11.3306 12.7805 11.5527 12.9197 11.6696C12.9893 11.728 13.2561 11.5995 13.3953 11.4943C14.2073 10.8631 14.6481 9.9515 15.1353 9.08661C15.3209 8.75935 15.4832 8.42041 15.634 8.08147C15.7848 7.74252 16.0284 7.57889 16.388 7.56721C16.8752 7.55552 17.3624 7.54383 17.838 7.56721C18.2788 7.59058 18.4528 7.80096 18.2556 8.21003C17.8844 8.99311 17.4436 9.75281 17.0028 10.5008C16.7592 10.9216 16.4576 11.3073 16.1908 11.7047C16.0168 11.9618 16.0052 12.2072 16.2256 12.4527C16.7592 13.0254 17.3044 13.5981 17.8032 14.1941C18.0816 14.5214 18.3368 14.8954 18.5224 15.2811C18.7312 15.7135 18.5804 15.9707 18.1048 15.994C17.5596 16.0291 17.0144 16.0291 16.4692 15.994C16.2604 15.9824 16.0285 15.8304 15.8661 15.6785C15.2861 15.1175 14.7293 14.5214 14.1377 13.9721C13.9173 13.7617 13.6273 13.6098 13.3373 13.5162C12.8965 13.3643 12.6645 13.5396 12.6529 14.0071C12.6529 14.4396 12.6529 14.8837 12.6529 15.3162C12.6529 15.7837 12.5253 15.9473 12.0381 15.994C11.1333 16.0759 10.2749 15.8772 9.4397 15.4798C7.94331 14.7435 6.98052 13.4929 6.12212 12.1254C5.41453 10.9917 4.79973 9.81125 4.45173 8.50222C4.26614 7.78927 4.41694 7.56721 5.12453 7.56721C5.50733 7.56721 5.89013 7.56721 6.28452 7.56721C6.64412 7.56721 6.87612 7.73083 7.02692 8.06978C7.45611 9.03986 7.88531 10.0099 8.3841 10.945C8.6161 11.3891 8.9641 11.7865 9.3121 12.1605C9.4165 12.2774 9.68329 12.3475 9.83409 12.3007C9.95009 12.2657 10.0429 12.0085 10.0429 11.8449C10.0661 11.0151 10.0893 10.1969 10.0429 9.36711C10.0197 9.00479 9.78769 8.65416 9.66009 8.30353C9.60209 8.1399 9.4629 7.90615 9.5209 7.81265C9.6021 7.68408 9.8457 7.59058 10.0197 7.57889C10.7041 7.55552 11.3885 7.55552 12.0729 7.57889C12.5369 7.57889 12.6529 7.71915 12.6645 8.19834C12.6645 8.68923 12.6645 9.16842 12.6645 9.65931V9.64762Z" fill="white"/>
</svg>
