<svg width="24" height="24" viewBox="0 0 24 24" fill="none" xmlns="http://www.w3.org/2000/svg">
<path d="M6.27774 17.1574C6.40534 16.6665 6.52134 16.2224 6.64894 15.7666C6.77654 15.264 6.92734 14.7731 7.04333 14.2706C7.07813 14.1069 7.06654 13.8966 6.98534 13.7446C6.54454 12.833 6.31254 11.8746 6.35894 10.8578C6.42854 9.11629 7.10133 7.63195 8.42372 6.47487C9.35172 5.64504 10.4421 5.16584 11.6601 5.02559C13.3653 4.83859 14.9081 5.29441 16.2305 6.41643C17.2861 7.31638 17.9705 8.46178 18.2373 9.82924C18.5968 11.6525 18.1909 13.3005 17.0657 14.7731C16.1029 16.012 14.8269 16.7484 13.2957 17.0055C12.1125 17.2042 10.9525 17.0522 9.87372 16.5263C9.59532 16.386 9.35172 16.4211 9.07332 16.4912C8.19173 16.7133 7.31013 16.9237 6.41694 17.1457C6.39374 17.1457 6.35894 17.1457 6.28934 17.1574H6.27774ZM7.71613 15.7549C8.24973 15.6147 8.76012 15.4861 9.27052 15.3341C9.47932 15.2757 9.66492 15.2874 9.86211 15.4043C10.7785 15.9185 11.7413 16.1523 12.7969 16.0471C13.9801 15.9185 15.0241 15.4627 15.8477 14.6095C16.9729 13.4524 17.4717 12.0499 17.2745 10.4253C17.1005 8.98772 16.4393 7.83064 15.2793 6.98913C13.7597 5.89048 12.1009 5.69179 10.3609 6.41643C8.53972 7.17613 7.36813 8.96435 7.32173 10.9513C7.29853 11.8629 7.51893 12.7278 7.97133 13.5226C8.13373 13.8031 8.15693 14.0953 8.06413 14.4108C7.93653 14.8433 7.83213 15.2874 7.70453 15.7666L7.71613 15.7549Z" fill="white"/>
<path d="M10.3493 8.21612C10.6045 8.19275 10.7553 8.29794 10.8365 8.53169C10.9525 8.84726 11.0685 9.15114 11.2193 9.44333C11.3469 9.71215 11.2773 9.91084 11.1265 10.1212C10.8017 10.5654 10.8017 10.577 11.1265 11.0329C11.5789 11.6874 12.1705 12.1549 12.8897 12.4704C13.0869 12.5523 13.2377 12.5406 13.3537 12.3419C13.4581 12.1783 13.5973 12.0497 13.7133 11.8977C13.8409 11.7341 13.9801 11.7107 14.1541 11.7926C14.5137 11.9679 14.8617 12.1549 15.2213 12.3185C15.4069 12.4003 15.4533 12.5406 15.4301 12.7393C15.3025 13.5808 14.5137 13.9782 13.8757 13.908C12.2053 13.7093 11.0453 12.7393 10.0709 11.477C9.81572 11.1497 9.60692 10.7874 9.42132 10.4134C9.08492 9.74721 9.27053 8.88232 9.82732 8.39144C9.96652 8.27456 10.1521 8.22781 10.3261 8.146L10.3493 8.20443V8.21612Z" fill="white"/>
<path d="M22.9584 11.559C23.1324 17.6132 17.8776 22.8259 11.7297 22.7792C5.59334 22.7324 0.558977 17.6132 0.570577 11.4888C0.593776 5.44629 5.63974 0.280324 11.8341 0.292012C17.9124 0.292012 23.1672 5.46967 22.97 11.559H22.9584Z" stroke="white" stroke-width="0.5" stroke-miterlimit="10"/>
</svg>
