<svg width="24" height="24" viewBox="0 0 24 24" fill="none" xmlns="http://www.w3.org/2000/svg">
<path d="M23.0129 12.4994C23.1869 18.5536 17.9321 23.7663 11.7842 23.7196C5.64784 23.6728 0.613481 18.5536 0.625081 12.4293C0.648281 6.38672 5.69425 1.22075 11.8886 1.23244C17.967 1.23244 23.2217 6.41009 23.0245 12.4994H23.0129Z" stroke="white" stroke-width="0.5" stroke-miterlimit="10"/>
<path d="M11.9466 6.92432C13.6634 6.98275 15.3802 7.04119 17.0854 7.11132C17.6074 7.13469 18.1062 7.25157 18.5238 7.62558C19.0458 8.09309 19.2082 8.7476 19.2778 9.40211C19.4982 11.4475 19.4866 13.5045 19.2778 15.5615C19.2546 15.807 19.185 16.0524 19.1154 16.2979C18.8602 17.2446 18.257 17.7939 17.2826 17.8406C15.647 17.9224 14.0114 18.0043 12.3758 18.0043C10.6474 18.0043 8.91903 17.9341 7.19065 17.8874C6.94705 17.8874 6.69185 17.8523 6.44825 17.8173C5.34626 17.6419 4.75466 16.9641 4.61547 15.655C4.38347 13.5512 4.38347 11.4475 4.61547 9.34367C4.66187 8.92291 4.80106 8.50216 4.98666 8.12815C5.33466 7.42689 5.98426 7.15807 6.73825 7.12301C8.47824 7.05288 10.2182 6.99444 11.9466 6.936V6.92432ZM14.4406 12.324L10.4038 10.1151V14.5213L14.4406 12.324Z" fill="white"/>
</svg>
