<svg width="16" height="10" viewBox="0 0 16 10" fill="none" xmlns="http://www.w3.org/2000/svg">
<path d="M0.205497 0.376989C0.424954 0.178576 0.644411 0.0793694 0.903769 0.0198455C1.00352 4.239e-06 1.12323 0 1.22298 0C5.53231 0 9.8217 0 14.131 0C14.3704 0 14.5899 0.0396753 14.7694 0.178564C14.8493 0.238088 14.9291 0.317455 15.0089 0.39682C14.8892 0.496026 14.7894 0.595232 14.6896 0.674597C13.0537 2.04365 11.3978 3.41271 9.76184 4.78176C9.16332 5.27779 8.54486 5.79365 7.94634 6.28969C7.60718 6.56747 7.32787 6.52778 7.04856 6.28969C6.31039 5.63492 5.55226 5.00001 4.81409 4.34525C3.29784 3.03572 1.7816 1.72619 0.265349 0.416665C0.265349 0.416665 0.225448 0.396831 0.185547 0.376989H0.205497Z" fill="#C50C33"/>
<path d="M0.863281 10L5.73123 6.17063C6.03049 6.42857 6.32975 6.6865 6.62901 6.94444C6.80857 7.10317 6.98812 7.2619 7.16768 7.42063C7.34723 7.57936 7.58664 7.59921 7.78615 7.46032C8.12531 7.20238 8.44452 6.92459 8.78368 6.64682C9.00313 6.46824 9.22259 6.28968 9.462 6.09126L14.4297 10H0.863281Z" fill="#C50C33"/>
<path d="M10.1992 5.47621L15.2467 1.25C15.3066 1.64683 15.2467 9.18652 15.1869 9.40477L10.1992 5.47621Z" fill="#C50C33"/>
<path d="M0.0848231 9.40476C0.0848231 9.26587 0.0449219 9.14683 0.0449219 9.04762C0.0449219 6.50793 0.0449219 3.94841 0.0449219 1.40872C0.0449219 1.36904 0.0449219 1.32936 0.0449219 1.26984L4.99268 5.53572L0.0848231 9.40476Z" fill="#C50C33"/>
</svg>
