<svg width="12" height="15" viewBox="0 0 12 15" fill="none" xmlns="http://www.w3.org/2000/svg">
<path d="M5.77532 14.4255H5.41317C5.27975 14.2928 5.12726 14.1791 5.0129 14.0464C4.21236 13.0607 3.3737 12.075 2.61128 11.0514C1.77262 9.93295 1.02926 8.77664 0.495572 7.48763C0.285907 6.99477 0.171544 6.464 0 5.95219C0 5.64889 0 5.3456 0 5.0423C0 4.98543 0.0381209 4.90961 0.0381209 4.85274C0.324028 2.55906 2.05853 0.644504 4.32673 0.132692C4.53639 0.0947795 4.74606 0.037912 4.93666 0C5.29881 0 5.66096 0 6.02311 0C6.17559 0.018956 6.32807 0.0379101 6.4615 0.0758222C8.78687 0.530766 10.2927 1.91456 10.9598 4.17032C11.036 4.45466 11.0741 4.739 11.1504 5.02334V5.93323C11.1504 5.93323 11.1122 5.97114 11.1122 5.9901C10.9979 6.82416 10.6739 7.5824 10.2927 8.32169C9.35869 10.1225 8.13882 11.7338 6.84271 13.2882C6.49962 13.7052 6.11841 14.0843 5.7372 14.4824L5.77532 14.4255ZM8.36754 5.5162C8.42472 4.05659 7.09049 2.71071 5.52753 2.76758C4.04082 2.80549 2.82095 4.01868 2.82095 5.55411C2.82095 7.07059 4.05988 8.28378 5.58472 8.28378C7.18579 8.28378 8.3866 7.1085 8.3866 5.5162H8.36754Z" fill="#C50C33"/>
<path d="M5.58455 7.20328C4.68871 7.20328 3.90723 6.44504 3.90723 5.55411C3.90723 4.64422 4.66964 3.86702 5.58455 3.86702C6.48039 3.86702 7.24281 4.64422 7.24281 5.53515C7.24281 6.44504 6.48039 7.20328 5.56549 7.20328H5.58455Z" fill="#C50C33"/>
</svg>
