<svg width="10" height="13" viewBox="0 0 10 13" fill="none" xmlns="http://www.w3.org/2000/svg">
<path d="M0 3.10349C0 2.53191 0.104368 1.97715 0.365288 1.456C0.504445 1.1534 0.713181 0.901229 0.991496 0.699495C1.25242 0.514572 1.51334 0.312834 1.75686 0.1111C2.00039 -0.073823 2.2961 -0.0233836 2.47004 0.228784C3.09625 1.17021 3.70506 2.11163 4.31388 3.06987C4.48782 3.33885 4.40085 3.62464 4.10514 3.75913C3.80943 3.91043 3.51372 4.06173 3.21801 4.21303C2.90491 4.36433 2.80054 4.58287 2.85272 4.9191C2.90491 5.27213 3.04407 5.60836 3.2528 5.91096C3.75725 6.68427 4.26169 7.4744 4.78353 8.2309C5.04445 8.61756 5.35756 8.97059 5.72285 9.27319C5.84461 9.37406 5.98376 9.47493 6.15771 9.49174C6.29687 9.50855 6.41863 9.49174 6.523 9.39087C6.80131 9.15551 7.06223 8.93697 7.34055 8.71843C7.56668 8.5335 7.89718 8.56712 8.05373 8.81929C8.67994 9.76072 9.30615 10.719 9.91496 11.6772C10.0889 11.9294 9.98454 12.232 9.70622 12.3664C9.39312 12.5178 9.08002 12.6522 8.76691 12.8035C8.40162 12.9885 8.01894 13.0221 7.61886 12.9885C6.76653 12.9044 6.03595 12.5682 5.34016 12.1143C4.50522 11.5595 3.79204 10.8534 3.16583 10.0801C2.08736 8.75205 1.18284 7.30628 0.556629 5.72603C0.295709 5.08721 0.121763 4.41476 0.0347893 3.72551C0.0173946 3.52377 0 3.30523 0 3.10349Z" fill="#C50C33"/>
</svg>
