<svg width="24" height="24" viewBox="0 0 24 24" fill="none" xmlns="http://www.w3.org/2000/svg">
<path d="M23.4655 12.2072C23.6395 18.2614 18.3847 23.4741 12.2368 23.4274C6.10042 23.3806 1.06606 18.2614 1.07766 12.137C1.10086 6.09449 6.14682 0.928518 12.3412 0.940205C18.4195 0.940205 23.6743 6.11786 23.4771 12.2072H23.4655Z" stroke="black" stroke-width="0.5" stroke-miterlimit="10"/>
<path d="M13.3968 11.2838C13.3968 10.7111 13.3968 10.1384 13.3968 9.55398C13.3968 9.3436 13.4432 9.13322 13.5128 8.93453C13.6636 8.50209 13.9768 8.3034 14.4408 8.29171C14.9628 8.29171 15.4731 8.29171 15.9951 8.29171C16.0995 8.29171 16.1459 8.28002 16.1459 8.15145C16.1459 7.20475 16.1459 6.25805 16.1459 5.31134C16.1459 5.28797 16.1459 5.26459 16.1459 5.21784C16.0879 5.21784 16.0415 5.21784 15.9951 5.21784C15.3339 5.21784 14.6612 5.20615 14 5.21784C13.4664 5.22953 12.9444 5.29966 12.4456 5.47497C11.3668 5.83729 10.7288 6.60868 10.4388 7.69564C10.288 8.28002 10.2416 8.86441 10.23 9.46048C10.23 10.0566 10.23 10.6526 10.23 11.2487V11.4357H8.4552C8.4552 11.4941 8.4436 11.5409 8.4436 11.5876C8.4436 12.511 8.4436 13.4343 8.4436 14.3459C8.4436 14.4745 8.4784 14.5213 8.6176 14.5213C9.0932 14.5213 9.56879 14.5213 10.0444 14.5213H10.2184V23.2753C10.578 23.3221 10.9144 23.3922 11.2276 23.4974C11.274 23.4974 11.332 23.4974 11.3784 23.4974C11.7264 23.4974 12.0512 23.5325 12.376 23.5792C12.7124 23.4507 13.0604 23.3338 13.4316 23.2637V14.5213C13.5012 14.5213 13.5592 14.5213 13.6172 14.5213C14.2668 14.5213 14.9048 14.5213 15.5543 14.5213C15.6819 14.5213 15.7283 14.4862 15.7399 14.3576C15.8675 13.446 16.0067 12.5227 16.1459 11.611C16.1459 11.5643 16.1459 11.5058 16.1575 11.4357H13.4316C13.4316 11.3656 13.4316 11.3188 13.4316 11.2721L13.3968 11.2838Z" fill="black"/>
</svg>
