<svg width="23" height="24" viewBox="0 0 23 24" fill="none" xmlns="http://www.w3.org/2000/svg">
<path d="M6.22193 9.52548C6.22193 8.63721 6.99913 7.84245 7.82272 7.8892C7.97352 7.8892 8.15912 7.95933 8.27512 8.06452C8.83191 8.5554 9.27271 9.1281 9.58591 9.7943C9.81791 10.2735 9.77151 10.554 9.34231 10.8696C8.71591 11.3371 8.77391 11.641 9.01751 12.1669C9.50471 13.1837 10.2935 13.8733 11.3259 14.2707C11.5695 14.3642 11.7783 14.3058 11.9523 14.1071C12.0567 13.9902 12.1495 13.8733 12.2655 13.7564C12.5671 13.4409 12.9151 13.359 13.2863 13.5694C13.7155 13.8149 14.1099 14.0954 14.5043 14.3759C14.6899 14.5044 14.8523 14.6564 15.0031 14.8083C15.2583 15.0538 15.2931 15.3343 15.1655 15.6498C14.8871 16.2927 14.4347 16.7485 13.7503 16.9472C13.5415 17.0173 13.3327 17.029 13.1355 16.9472C12.4743 16.6316 11.8015 16.316 11.1519 15.9537C10.5023 15.5914 9.9107 15.1356 9.37711 14.633C8.97111 14.2473 8.57671 13.8266 8.20551 13.3941C7.40512 12.4357 6.80193 11.3604 6.33793 10.2034C6.29153 10.0865 6.25673 9.95793 6.23353 9.82936C6.21033 9.72417 6.21033 9.61898 6.19873 9.51379L6.22193 9.52548Z" fill="black"/>
<path d="M15.1537 11.9565C15.1537 12.05 15.1537 12.1435 15.1537 12.237C15.1537 12.389 15.0957 12.4825 14.9333 12.4942C14.7709 12.5059 14.6665 12.4474 14.6317 12.2721C14.5969 12.05 14.5737 11.8163 14.5389 11.5942C14.4113 10.7644 14.1329 9.993 13.5413 9.38524C13.0425 8.87098 12.4045 8.59048 11.7201 8.42685C11.4417 8.35672 11.1633 8.32166 10.8849 8.27491C10.6761 8.23985 10.5949 8.15803 10.6065 7.9944C10.6065 7.83078 10.7225 7.73727 10.9081 7.73727C12.0449 7.77234 13.0773 8.06453 13.9125 8.88267C14.6085 9.57224 14.9913 10.4138 15.0957 11.3838C15.1189 11.5708 15.1305 11.7462 15.1421 11.9332H15.1305L15.1537 11.9565Z" fill="black"/>
<path d="M14.0748 11.5591C14.0632 11.6643 14.0516 11.7695 14.04 11.8747C14.0168 12.0033 13.9588 12.0851 13.8196 12.0851C13.6804 12.0851 13.5761 12.0266 13.5413 11.8747C13.5065 11.6877 13.4717 11.5007 13.4485 11.3137C13.2977 10.2969 12.6829 9.72417 11.7201 9.5021C11.5577 9.46704 11.3837 9.43198 11.2213 9.39691C11.0241 9.36185 10.9545 9.28004 10.9661 9.10472C10.9777 8.92941 11.0821 8.82422 11.2561 8.8359C12.8337 8.90603 14.0052 9.9813 14.0748 11.5708V11.5591Z" fill="black"/>
<path d="M11.6738 9.95795C12.4162 10.0047 13.0078 10.5774 13.0194 11.3722C13.0194 11.4423 13.0194 11.5358 12.973 11.5825C12.915 11.6527 12.8222 11.7345 12.741 11.7345C12.6714 11.7345 12.5786 11.6644 12.5206 11.5942C12.4742 11.5358 12.4626 11.454 12.451 11.3722C12.3814 10.9163 12.1146 10.6358 11.6622 10.519C11.6042 10.5073 11.5462 10.4956 11.4882 10.4722C11.349 10.4371 11.2678 10.3436 11.2794 10.1917C11.291 10.0398 11.3954 9.98132 11.523 9.95795C11.5694 9.95795 11.6274 9.95795 11.6622 9.95795H11.6738Z" fill="black"/>
<path d="M22.717 12.015C22.891 18.0692 17.6362 23.2819 11.4882 23.2352C5.35188 23.1884 0.317522 18.0692 0.329122 11.9449C0.352321 5.90231 5.39828 0.736348 11.5926 0.748036C17.671 0.748036 22.9258 5.92569 22.7286 12.015H22.717Z" stroke="black" stroke-width="0.5" stroke-miterlimit="10"/>
</svg>
