<svg width="24" height="24" viewBox="0 0 24 24" fill="none" xmlns="http://www.w3.org/2000/svg">
<path d="M23.3879 12.267C23.5619 18.3212 18.3071 23.5339 12.1592 23.4872C6.02284 23.4404 0.97688 18.3212 1.00008 12.1968C1.02328 6.14261 6.06924 0.988332 12.2636 1.00002C18.3419 1.00002 23.5967 6.17767 23.3995 12.267H23.3879Z" stroke="black" stroke-width="0.5" stroke-miterlimit="10"/>
<path d="M17.9358 8.22302C17.7966 8.92429 17.611 9.88268 17.4022 10.8294C17.147 11.9631 16.8802 13.0968 16.6018 14.2188C16.393 15.0837 16.1958 15.9486 15.9638 16.8018C15.7666 17.5732 15.1634 17.7602 14.5138 17.2927C13.8642 16.8135 13.203 16.3577 12.5534 15.8668C12.3098 15.6798 12.159 15.7265 11.9618 15.9252C11.6022 16.2992 11.2078 16.6499 10.8251 17.0005C10.3611 17.4212 10.0363 17.3862 9.76946 16.8369C9.52586 16.346 9.35186 15.82 9.16626 15.3058C8.96906 14.7681 8.80667 14.2188 8.57467 13.6929C8.49347 13.5176 8.29627 13.3422 8.11067 13.2721C7.43788 13.015 6.75348 12.8046 6.06909 12.5942C5.77909 12.5007 5.47749 12.3955 5.44269 12.0449C5.40789 11.6592 5.70949 11.4956 5.99949 11.3787C7.54228 10.7593 9.08506 10.1398 10.6511 9.55542C12.7042 8.78403 14.7806 8.04771 16.8454 7.28801C16.8802 7.27632 16.915 7.25295 16.9498 7.24126C17.6342 7.01919 17.9474 7.24126 17.9358 8.22302ZM13.6206 10.5956L13.5278 10.5021C13.4466 10.5372 13.3538 10.5606 13.2726 10.6073C11.9618 11.4138 10.6627 12.2319 9.35186 13.0384C9.03866 13.2371 8.96906 13.5059 9.10826 13.8448C9.25906 14.2305 9.37506 14.6162 9.53746 15.0019C9.60706 15.1772 9.73466 15.3175 9.83906 15.4694C9.90866 15.2824 10.0363 15.1071 10.0363 14.9201C10.0363 14.1954 10.3263 13.6578 10.8715 13.1903C11.7414 12.454 12.565 11.6592 13.4002 10.8761C13.493 10.7943 13.551 10.6774 13.6206 10.5839V10.5956ZM10.3495 16.3927C10.3495 16.3927 10.3959 16.5213 10.4655 16.568C10.5119 16.6031 10.6395 16.568 10.6975 16.5213C11.0338 16.2291 11.3586 15.9252 11.6834 15.6213C11.8458 15.4694 11.7994 15.3408 11.637 15.224C11.3818 15.0486 11.1266 14.8733 10.8599 14.7097C10.6627 14.5811 10.5235 14.6396 10.5003 14.8733C10.4423 15.3525 10.4075 15.8434 10.3495 16.3927Z" fill="black"/>
</svg>
