<svg width="24" height="24" viewBox="0 0 24 24" fill="none" xmlns="http://www.w3.org/2000/svg">
<path d="M23.0133 12.2071C23.1873 18.2614 17.9326 23.4741 11.7846 23.4273C5.64827 23.3806 0.613908 18.2614 0.625508 12.137C0.648708 6.09445 5.69467 0.928487 11.889 0.940175C17.9674 0.940175 23.2221 6.11783 23.0249 12.2071H23.0133Z" stroke="black" stroke-width="0.5" stroke-miterlimit="10"/>
<path d="M19.4407 6.58534C19.2435 7.36841 18.7563 7.90605 18.1647 8.37356L18.1879 8.42031L19.9047 7.9528C19.6959 8.20993 19.4987 8.46706 19.2899 8.70081C19.0579 8.96963 18.8259 9.21507 18.5823 9.4722C18.5011 9.55402 18.4779 9.63583 18.4779 9.74102C18.4199 11.5526 18.0255 13.2707 17.1207 14.8485C15.8679 17.0108 14.012 18.3549 11.6108 18.9626C10.6132 19.2081 9.60399 19.3132 8.5832 19.2548C7.5624 19.1964 6.59961 18.9276 5.68322 18.4951C5.25402 18.2964 4.83642 18.0627 4.40723 17.8289C6.11241 17.9458 7.6668 17.5367 9.03559 16.4731C7.5624 16.3212 6.56481 15.5615 6.05441 14.159H7.2956L7.3188 14.1122C5.74122 13.6096 4.92922 12.5344 4.84802 10.863C5.24242 11.0968 5.66002 11.2137 6.13561 11.2137C5.42802 10.6994 5.09162 9.98646 4.92922 9.1917C4.75522 8.38525 4.79002 7.60217 5.21922 6.8074C5.26562 6.87753 5.30042 6.93597 5.34682 6.98272C6.07761 7.7658 6.88961 8.46706 7.8176 9.01638C8.83839 9.61245 9.92879 9.99815 11.1004 10.1618C11.3208 10.1968 11.5412 10.2202 11.7616 10.2436C11.7848 10.2436 11.808 10.2436 11.8428 10.2436C11.8196 10.1033 11.7964 9.97477 11.7848 9.84621C11.6456 8.53718 12.1676 7.54373 13.258 6.85416C14.1744 6.28146 15.1719 6.11783 16.2275 6.46846C16.6683 6.6204 17.0395 6.87753 17.3411 7.22816C17.4107 7.30998 17.4687 7.32166 17.5615 7.29829C18.0255 7.21647 18.4663 7.04116 18.8955 6.84247C19.0811 6.76065 19.2667 6.67884 19.4755 6.58534H19.4407Z" fill="black"/>
</svg>
