<svg width="24" height="23" viewBox="0 0 24 23" fill="none" xmlns="http://www.w3.org/2000/svg">
<path d="M23.4084 11.5292C23.5824 17.5835 18.3276 22.7962 12.1796 22.7494C6.04329 22.7027 1.00893 17.5835 1.02053 11.4591C1.04373 5.41657 6.08969 0.2506 12.284 0.262288C18.3624 0.262288 23.6172 5.43994 23.42 11.5292H23.4084Z" stroke="black" stroke-width="0.5" stroke-miterlimit="10"/>
<path d="M13.3743 9.35532C13.3743 9.85789 13.3511 10.3605 13.3743 10.8513C13.3859 11.0384 13.4903 11.2604 13.6295 11.3773C13.6991 11.4357 13.9659 11.3072 14.1051 11.202C14.9171 10.5708 15.3579 9.6592 15.8451 8.79431C16.0307 8.46706 16.1931 8.12811 16.3439 7.78917C16.4947 7.45023 16.7383 7.2866 17.0979 7.27491C17.5851 7.26322 18.0723 7.25153 18.5479 7.27491C18.9887 7.29828 19.1627 7.50866 18.9655 7.91773C18.5943 8.70081 18.1535 9.46051 17.7127 10.2085C17.4691 10.6293 17.1675 11.015 16.9007 11.4124C16.7267 11.6695 16.7151 11.9149 16.9355 12.1604C17.4691 12.7331 18.0143 13.3058 18.5131 13.9018C18.7915 14.2291 19.0467 14.6031 19.2323 14.9888C19.4411 15.4212 19.2903 15.6784 18.8147 15.7017C18.2695 15.7368 17.7243 15.7368 17.1791 15.7017C16.9703 15.6901 16.7383 15.5381 16.5759 15.3862C15.9959 14.8252 15.4391 14.2291 14.8475 13.6798C14.6271 13.4694 14.3371 13.3175 14.0471 13.224C13.6063 13.072 13.3743 13.2473 13.3627 13.7148C13.3627 14.1473 13.3627 14.5914 13.3627 15.0239C13.3627 15.4914 13.2351 15.655 12.7479 15.7017C11.8431 15.7836 10.9847 15.5849 10.1495 15.1875C8.65315 14.4512 7.69036 13.2006 6.83196 11.8331C6.12437 10.6994 5.50957 9.51895 5.16157 8.20993C4.97597 7.49698 5.12678 7.27491 5.83437 7.27491C6.21717 7.27491 6.59996 7.27491 6.99436 7.27491C7.35396 7.27491 7.58596 7.43854 7.73675 7.77748C8.16595 8.74756 8.59515 9.71764 9.09394 10.6527C9.32594 11.0968 9.67394 11.4942 10.0219 11.8682C10.1263 11.9851 10.3931 12.0552 10.5439 12.0084C10.6599 11.9734 10.7527 11.7162 10.7527 11.5526C10.7759 10.7228 10.7991 9.90464 10.7527 9.07482C10.7295 8.7125 10.4975 8.36187 10.3699 8.01123C10.3119 7.84761 10.1727 7.61385 10.2307 7.52035C10.3119 7.39179 10.5555 7.29829 10.7295 7.2866C11.4139 7.26322 12.0983 7.26322 12.7827 7.2866C13.2467 7.2866 13.3627 7.42685 13.3743 7.90605C13.3743 8.39693 13.3743 8.87612 13.3743 9.36701V9.35532Z" fill="black"/>
</svg>
