<svg width="23" height="24" viewBox="0 0 23 24" fill="none" xmlns="http://www.w3.org/2000/svg">
<path d="M5.98779 17.8654C6.11539 17.3745 6.23139 16.9304 6.35899 16.4745C6.48659 15.972 6.63739 15.4811 6.75339 14.9785C6.78819 14.8149 6.77659 14.6045 6.69539 14.4526C6.25459 13.5409 6.02259 12.5825 6.06899 11.5657C6.13859 9.82424 6.81139 8.3399 8.13378 7.18281C9.06177 6.35299 10.1522 5.87379 11.3702 5.73354C13.0753 5.54654 14.6181 6.00236 15.9405 7.12438C16.9961 8.02433 17.6805 9.16972 17.9473 10.5372C18.3069 12.3605 17.9009 14.0084 16.7757 15.4811C15.8129 16.72 14.5369 17.4563 13.0057 17.7134C11.8225 17.9121 10.6626 17.7602 9.58377 17.2342C9.30537 17.094 9.06177 17.1291 8.78337 17.1992C7.90178 17.4212 7.02019 17.6316 6.12699 17.8537C6.10379 17.8537 6.06899 17.8537 5.99939 17.8654H5.98779ZM7.42618 16.4629C7.95978 16.3226 8.47018 16.194 8.98057 16.0421C9.18937 15.9837 9.37497 15.9953 9.57217 16.1122C10.4886 16.6265 11.4514 16.8602 12.5069 16.755C13.6901 16.6265 14.7341 16.1707 15.5577 15.3175C16.6829 14.1604 17.1817 12.7578 16.9845 11.1333C16.8105 9.69567 16.1493 8.53859 14.9893 7.69707C13.4697 6.59843 11.8109 6.39974 10.071 7.12438C8.24978 7.88408 7.07819 9.6723 7.03179 11.6592C7.00859 12.5708 7.22898 13.4357 7.68138 14.2305C7.84378 14.511 7.86698 14.8032 7.77418 15.1188C7.64658 15.5512 7.54218 15.9953 7.41458 16.4745L7.42618 16.4629Z" fill="black"/>
<path d="M10.0594 8.92428C10.3146 8.90091 10.4654 9.0061 10.5466 9.23985C10.6626 9.55542 10.7786 9.8593 10.9294 10.1515C11.057 10.4203 10.9874 10.619 10.8366 10.8294C10.5118 11.2735 10.5118 11.2852 10.8366 11.741C11.289 12.3955 11.8806 12.863 12.5998 13.1786C12.797 13.2604 12.9478 13.2487 13.0638 13.05C13.1682 12.8864 13.3074 12.7579 13.4234 12.6059C13.551 12.4423 13.6902 12.4189 13.8642 12.5007C14.2238 12.676 14.5718 12.863 14.9314 13.0267C15.117 13.1085 15.1634 13.2487 15.1402 13.4474C15.0126 14.2889 14.2238 14.6863 13.5858 14.6162C11.9154 14.4175 10.7554 13.4474 9.781 12.1852C9.5258 11.8579 9.317 11.4956 9.1314 11.1216C8.79501 10.4554 8.98061 9.59048 9.5374 9.0996C9.6766 8.98272 9.8622 8.93597 10.0362 8.85416L10.0594 8.9126V8.92428Z" fill="black"/>
<path d="M22.6686 12.267C22.8426 18.3212 17.5879 23.5339 11.4399 23.4872C5.30354 23.4404 0.269182 18.3212 0.280782 12.1968C0.303982 6.1543 5.34994 0.988332 11.5443 1.00002C17.6227 1.00002 22.8774 6.17767 22.6802 12.267H22.6686Z" stroke="black" stroke-width="0.5" stroke-miterlimit="10"/>
</svg>
