<svg width="23" height="24" viewBox="0 0 23 24" fill="none" xmlns="http://www.w3.org/2000/svg">
<path d="M22.7228 12.2072C22.8968 18.2614 17.642 23.4741 11.4941 23.4274C5.35774 23.3806 0.323381 18.2614 0.334981 12.137C0.358181 6.09449 5.40415 0.928518 11.5985 0.940205C17.6769 0.940205 22.9316 6.11786 22.7344 12.2072H22.7228Z" stroke="black" stroke-width="0.5" stroke-miterlimit="10"/>
<path d="M11.6565 6.63208C13.3733 6.69052 15.0901 6.74896 16.7953 6.81908C17.3173 6.84246 17.8161 6.95934 18.2337 7.33334C18.7557 7.80085 18.9181 8.45536 18.9877 9.10987C19.2081 11.1552 19.1965 13.2123 18.9877 15.2693C18.9645 15.5147 18.8949 15.7602 18.8253 16.0056C18.5701 16.9523 17.9669 17.5016 16.9925 17.5484C15.3569 17.6302 13.7213 17.712 12.0857 17.712C10.3573 17.712 8.62894 17.6419 6.90055 17.5951C6.65695 17.5951 6.40175 17.5601 6.15815 17.525C5.05616 17.3497 4.46456 16.6718 4.32537 15.3628C4.09337 13.259 4.09337 11.1552 4.32537 9.05143C4.37177 8.63068 4.51096 8.20992 4.69656 7.83591C5.04456 7.13465 5.69416 6.86583 6.44815 6.83077C8.18814 6.76064 9.92812 6.70221 11.6565 6.64377V6.63208ZM14.1505 12.0318L10.1137 9.82282V14.2291L14.1505 12.0318Z" fill="black"/>
</svg>
