<svg width="219" height="127" viewBox="0 0 219 127" fill="none" xmlns="http://www.w3.org/2000/svg">
<g clip-path="url(#clip0_80_2411)">
<g style="mix-blend-mode:multiply" opacity="0.1">
<path d="M84.6377 1.07373L0 50.0483L133.584 127L219 77.2493L84.6377 1.07373Z" fill="#D1D3D4"/>
</g>
<g style="mix-blend-mode:multiply" opacity="0.12">
<path d="M84.6819 1.20068L0.254883 50.0532L133.505 126.819L218.716 77.1908L84.6819 1.20068Z" fill="#D0D2D3"/>
</g>
<g style="mix-blend-mode:multiply" opacity="0.14">
<path d="M84.7311 1.32751L0.509766 50.058L133.432 126.634L218.432 77.1273L84.7311 1.32751Z" fill="#CFD1D2"/>
</g>
<g style="mix-blend-mode:multiply" opacity="0.16">
<path d="M84.7744 1.44958L0.758789 50.063L133.358 126.448L218.147 77.0688L84.7744 1.44958Z" fill="#CED0D1"/>
</g>
<g style="mix-blend-mode:multiply" opacity="0.19">
<path d="M84.8187 1.57642L1.01367 50.0678L133.285 126.268L217.859 77.0052L84.8187 1.57642Z" fill="#CDCFD0"/>
</g>
<g style="mix-blend-mode:multiply" opacity="0.21">
<path d="M84.8679 1.70337L1.26855 50.0727L133.206 126.082L217.575 76.9418L84.8679 1.70337Z" fill="#CCCECF"/>
</g>
<g style="mix-blend-mode:multiply" opacity="0.23">
<path d="M84.9121 1.83032L1.52344 50.0776L133.133 125.897L217.291 76.8833L84.9121 1.83032Z" fill="#CBCDCE"/>
</g>
<g style="mix-blend-mode:multiply" opacity="0.25">
<path d="M84.9564 1.95715L1.77832 50.0873L133.06 125.716L217.007 76.8198L84.9564 1.95715Z" fill="#CACCCD"/>
</g>
<g style="mix-blend-mode:multiply" opacity="0.27">
<path d="M85.0046 2.08411L2.03223 50.0923L132.986 125.531L216.722 76.7613L85.0046 2.08411Z" fill="#C9CBCC"/>
</g>
<g style="mix-blend-mode:multiply" opacity="0.29">
<path d="M85.0489 2.20605L2.28223 50.0971L132.907 125.345L216.438 76.6977L85.0489 2.20605Z" fill="#C8CACB"/>
</g>
<g style="mix-blend-mode:multiply" opacity="0.31">
<path d="M85.0931 2.33301L2.53711 50.102L132.834 125.165L216.149 76.6392L85.0931 2.33301Z" fill="#C7C9CA"/>
</g>
<g style="mix-blend-mode:multiply" opacity="0.34">
<path d="M85.1423 2.45984L2.79199 50.1068L132.761 124.979L215.865 76.5757L85.1423 2.45984Z" fill="#C6C8C9"/>
</g>
<g style="mix-blend-mode:multiply" opacity="0.36">
<path d="M85.1866 2.58679L3.04688 50.1117L132.683 124.799L215.582 76.5172L85.1866 2.58679Z" fill="#C5C7C8"/>
</g>
<g style="mix-blend-mode:multiply" opacity="0.38">
<path d="M85.2299 2.71375L3.30078 50.1215L132.608 124.613L215.297 76.4538L85.2299 2.71375Z" fill="#C4C6C7"/>
</g>
<g style="mix-blend-mode:multiply" opacity="0.4">
<path d="M85.279 2.84058L3.55078 50.1264L132.535 124.428L215.013 76.3903L85.279 2.84058Z" fill="#C3C5C6"/>
</g>
<g style="mix-blend-mode:multiply" opacity="0.42">
<path d="M85.3233 2.96265L3.80566 50.1313L132.462 124.247L214.729 76.3317L85.3233 2.96265Z" fill="#C2C4C5"/>
</g>
<g style="mix-blend-mode:multiply" opacity="0.44">
<path d="M85.3676 3.08948L4.06055 50.1361L132.384 124.062L214.44 76.2682L85.3676 3.08948Z" fill="#C1C3C4"/>
</g>
<g style="mix-blend-mode:multiply" opacity="0.46">
<path d="M85.4118 3.21643L4.31543 50.141L132.31 123.876L214.156 76.2097L85.4118 3.21643Z" fill="#C0C2C3"/>
</g>
<g style="mix-blend-mode:multiply" opacity="0.49">
<path d="M85.461 3.34338L4.57031 50.146L132.237 123.696L213.872 76.1463L85.461 3.34338Z" fill="#BFC1C2"/>
</g>
<g style="mix-blend-mode:multiply" opacity="0.51">
<path d="M85.5043 3.47021L4.82422 50.1508L132.163 123.51L213.587 76.0877L85.5043 3.47021Z" fill="#BEC0C1"/>
</g>
<g style="mix-blend-mode:multiply" opacity="0.53">
<path d="M85.5486 3.59717L5.07422 50.1606L132.085 123.325L213.303 76.0243L85.5486 3.59717Z" fill="#BDBFC0"/>
</g>
<g style="mix-blend-mode:multiply" opacity="0.55">
<path d="M85.5977 3.71912L5.3291 50.1654L132.011 123.144L213.015 75.9607L85.5977 3.71912Z" fill="#BDBFC0"/>
</g>
<g style="mix-blend-mode:multiply" opacity="0.57">
<path d="M85.642 3.84607L5.58398 50.1703L131.938 122.959L212.731 75.9022L85.642 3.84607Z" fill="#BCBEBF"/>
</g>
<g style="mix-blend-mode:multiply" opacity="0.59">
<path d="M85.6863 3.97302L5.83887 50.1753L131.86 122.773L212.447 75.8388L85.6863 3.97302Z" fill="#BBBDBE"/>
</g>
<g style="mix-blend-mode:multiply" opacity="0.61">
<path d="M85.7345 4.09985L6.09277 50.1801L131.786 122.593L212.162 75.7802L85.7345 4.09985Z" fill="#BABCBD"/>
</g>
<g style="mix-blend-mode:multiply" opacity="0.64">
<path d="M85.7787 4.22681L6.34766 50.185L131.712 122.407L211.878 75.7168L85.7787 4.22681Z" fill="#B9BBBC"/>
</g>
<g style="mix-blend-mode:multiply" opacity="0.66">
<path d="M85.823 4.35364L6.59766 50.1898L131.639 122.226L211.594 75.6581L85.823 4.35364Z" fill="#B8BABB"/>
</g>
<g style="mix-blend-mode:multiply" opacity="0.68">
<path d="M85.8722 4.47571L6.85254 50.1996L131.561 122.041L211.305 75.5947L85.8722 4.47571Z" fill="#B7B9BA"/>
</g>
<g style="mix-blend-mode:multiply" opacity="0.7">
<path d="M85.9165 4.60254L7.10742 50.2044L131.488 121.855L211.022 75.5312L85.9165 4.60254Z" fill="#B6B8B9"/>
</g>
<g style="mix-blend-mode:multiply" opacity="0.72">
<path d="M85.9598 4.72949L7.36133 50.2094L131.413 121.675L210.737 75.4727L85.9598 4.72949Z" fill="#B5B7B8"/>
</g>
<g style="mix-blend-mode:multiply" opacity="0.74">
<path d="M86.0089 4.85645L7.61621 50.2143L131.34 121.489L210.453 75.4093L86.0089 4.85645Z" fill="#B4B6B7"/>
</g>
<g style="mix-blend-mode:multiply" opacity="0.76">
<path d="M86.0532 4.98328L7.86621 50.2191L131.262 121.304L210.169 75.3506L86.0532 4.98328Z" fill="#B3B5B6"/>
</g>
<g style="mix-blend-mode:multiply" opacity="0.79">
<path d="M86.0975 5.10535L8.12109 50.224L131.189 121.123L209.885 75.2872L86.0975 5.10535Z" fill="#B2B4B5"/>
</g>
<g style="mix-blend-mode:multiply" opacity="0.81">
<path d="M86.1417 5.23218L8.37598 50.2288L131.115 120.938L209.596 75.2286L86.1417 5.23218Z" fill="#B1B3B4"/>
</g>
<g style="mix-blend-mode:multiply" opacity="0.83">
<path d="M86.1899 5.35913L8.62988 50.2386L131.041 120.752L209.311 75.1652L86.1899 5.35913Z" fill="#B0B2B3"/>
</g>
<g style="mix-blend-mode:multiply" opacity="0.85">
<path d="M86.2342 5.48608L8.88477 50.2436L130.963 120.572L209.027 75.1018L86.2342 5.48608Z" fill="#AFB1B2"/>
</g>
<g style="mix-blend-mode:multiply" opacity="0.87">
<path d="M86.2785 5.61292L9.13965 50.2484L130.89 120.386L208.744 75.0432L86.2785 5.61292Z" fill="#AEB0B1"/>
</g>
<g style="mix-blend-mode:multiply" opacity="0.89">
<path d="M86.3277 5.73987L9.38965 50.2533L130.816 120.206L208.46 74.9798L86.3277 5.73987Z" fill="#ADAFB0"/>
</g>
<g style="mix-blend-mode:multiply" opacity="0.91">
<path d="M86.3719 5.86182L9.64453 50.2581L130.738 120.02L208.176 74.9211L86.3719 5.86182Z" fill="#ACAEAF"/>
</g>
<g style="mix-blend-mode:multiply" opacity="0.94">
<path d="M86.4152 5.98877L9.89844 50.2631L130.664 119.835L207.886 74.8577L86.4152 5.98877Z" fill="#ABADAE"/>
</g>
<g style="mix-blend-mode:multiply" opacity="0.96">
<path d="M86.4644 6.1156L10.1533 50.2679L130.591 119.654L207.602 74.7991L86.4644 6.1156Z" fill="#AAACAD"/>
</g>
<g style="mix-blend-mode:multiply" opacity="0.98">
<path d="M86.5086 6.24255L10.4082 50.2777L130.517 119.469L207.318 74.7357L86.5086 6.24255Z" fill="#A9ABAC"/>
</g>
<g style="mix-blend-mode:multiply">
<path d="M86.5529 6.36951L10.6582 50.2826L130.439 119.283L207.034 74.6771L86.5529 6.36951Z" fill="#A8AAAB"/>
</g>
<path d="M133.584 125.926L219 76.1756L187.751 50.7414L155.556 40.0328L123.998 15.6432L84.6377 0L0 48.9746L38.709 64.6177L70.7567 89.5687L102.324 100.204L133.584 125.926Z" fill="white"/>
<path d="M103.535 98.0321L71.9375 87.3918L39.9486 62.4848L5.5498 48.5841L84.8389 2.70886L122.769 17.781L154.381 42.2145L186.551 52.9134L214.719 75.8437L133.824 122.959L103.535 98.0321Z" fill="url(#paint0_linear_80_2411)"/>
<path d="M87.3958 28.0991L84.457 29.8904L88.0473 34.1221L93.2735 31.5157L87.3958 28.0991Z" fill="#D1D3D4"/>
<path d="M67.5683 83.9899L85.5734 72.7249L91.6861 77.2543C91.7498 77.2983 91.8184 77.3373 91.8918 77.3617L95.6731 78.6356L86.4501 84.0094L87.1897 85.2736L97.8037 79.0895C98.0535 78.9431 98.1907 78.6698 98.1662 78.3818C98.1368 78.0987 97.9409 77.8547 97.6715 77.7619L92.4747 76.0097L86.9105 71.8854L92.1906 68.581L91.4069 67.3413L66.334 83.0333L67.5634 83.9899H67.5683Z" fill="#D1D3D4"/>
<path d="M27.8798 41.3604L11.5352 51.0001L13.2495 51.6932L29.5647 42.073L29.5011 41.9656L36.9314 44.7282L37.4457 43.3567L23.5304 38.1781L21.8847 39.1299L27.8798 41.3604Z" fill="#D1D3D4"/>
<path d="M70.3997 44.3085C70.4977 44.3525 70.5956 44.372 70.6985 44.372C70.8356 44.372 70.9679 44.3329 71.0903 44.2597L77.1932 40.4429L79.4806 41.4142L92.6122 53.5285L93.6114 52.4547L90.5354 49.6189L106.635 39.7889C106.836 39.6668 106.963 39.457 106.983 39.2276C107.003 38.9982 106.909 38.7688 106.738 38.6175L97.76 30.7251C97.7306 30.7007 97.7012 30.6763 97.6669 30.6568L88.0325 24.5557L87.244 25.7906L96.8294 31.8623L101.355 35.8354L85.8431 45.2896L80.3867 40.2525C80.3231 40.194 80.2545 40.15 80.1761 40.1159L59.6045 31.3694L59.0265 32.7165L75.5475 39.7401L70.6397 42.8052L45.2435 31.5207L55.1571 25.5904L54.4028 24.3361L43.6076 30.7934L39.4687 28.9534L37.9014 29.8612L70.3997 44.3037V44.3085ZM102.506 36.8506L105.019 39.0616L89.4138 48.5891L86.9599 46.3243L102.506 36.8506Z" fill="#D1D3D4"/>
<path d="M160.229 96.2311L159.21 97.2853L166.288 104.05L167.605 103.284L160.229 96.2311Z" fill="#D1D3D4"/>
<path d="M105.754 92.8145L104.95 91.5894L97.9463 96.153L99.7194 96.7484L105.754 92.8145Z" fill="#D1D3D4"/>
<path d="M169.609 68.8982C169.658 69.1764 169.859 69.401 170.133 69.4791L181.56 72.7346L181.962 71.3289L170.981 68.2003L170.354 64.5201L188.241 54.2947L187.022 53.3039L170.089 62.9826L169.751 61.0108C169.712 60.7814 169.57 60.5861 169.359 60.4836L165.887 58.7168L179.866 50.6975L177.999 50.0776L164.319 57.9212L153.681 52.5083L153.015 53.8115L168.36 61.616L169.604 68.8982H169.609Z" fill="#D1D3D4"/>
<path d="M130.322 23.6185L124.743 26.8155L125.473 28.0845L131.576 24.5849L130.322 23.6185Z" fill="#D1D3D4"/>
<path d="M106.17 50.229L126.09 49.4139L144.213 45.6703L153.029 50.229L137.679 59.6637L132.129 58.1995L106.988 67.1461L99.3125 52.9916L106.17 50.229Z" fill="#CFE4BD"/>
<path d="M84.2904 1.90845L52.6982 20.6998L64.4535 26.5568L77.6781 21.1878L86.9843 21.92L102.658 13.3785L101.189 8.74165L84.2904 1.90845Z" fill="#CFE4BD"/>
<path d="M113.923 71.4607L98.4941 76.8297L98.739 80.0022L100.943 86.1033L113.188 91.4722L115.392 92.9365L116.617 93.9127L139.148 98.7935L144.535 102.454L155.801 95.621L150.413 86.5914L155.801 76.0975L150.658 71.9488L132.78 63.8954L113.923 71.4607Z" fill="#CFE4BD"/>
<path d="M117.778 109.756L131.066 120.689C132.398 113.734 134.774 99.3255 135.562 89.1099C136.302 79.5336 128.117 74.8431 123.807 70.2356C121.157 67.4047 120.158 64.7153 119.076 61.4012C117.689 57.1598 118.498 53.2648 119.428 48.7549C120.388 44.123 122.793 38.2904 121.191 32.4919C119.394 25.9857 110.333 22.6667 101.364 18.1519C94.3161 14.6035 88.1495 8.92223 84.1772 3.0896L72.084 10.0888C78.2212 17.454 89.5111 20.895 98.3324 25.3366C103.75 28.065 109.784 33.3265 110.426 35.6596C111.4 39.1982 110.675 42.7173 109.833 46.7879C108.77 51.9177 106.047 58.0823 108.236 64.7837C109.99 70.1526 113.511 73.9158 116.622 77.2348C120.927 81.8325 124.865 84.3266 124.473 89.3881C123.939 96.2945 120.452 104.416 117.778 109.756Z" fill="url(#paint1_linear_80_2411)"/>
<path d="M147.103 106.613L183.515 84.1753C183.96 83.902 184.225 83.4139 184.21 82.8916L183.74 65.3889L193.649 58.6923L191.273 56.7595L181.428 63.4121C181.012 63.6903 180.772 64.1638 180.781 64.6616L181.247 82.1253L144.742 104.621L144.771 104.665L139.604 100.35C139.413 100.189 139.183 100.082 138.938 100.033L115.378 95.4794L113.003 93.1122C112.856 92.9609 112.675 92.8486 112.474 92.7754L82.3559 81.6421L57.8805 60.4446L86.7592 43.181C87.3715 42.8149 87.631 42.0681 87.3763 41.4043L82.6008 28.8556L103.501 17.1855L114.408 21.4855L145.344 45.7581C145.413 45.8117 145.491 45.8606 145.57 45.9045L153.994 50.3119L136.655 61.1816L138.223 63.6611L166.185 46.129L162.58 44.9283L156.61 48.6719L156.737 48.4328L147.059 43.3713L116.064 19.05C115.951 18.9621 115.829 18.8889 115.697 18.8401L103.941 14.2033C103.53 14.0422 103.07 14.0715 102.683 14.2863L80.6857 26.5714L64.0373 27.7379L52.1155 21.6368L49.0984 23.3842L60.7263 29.3388L19.6074 54.2605L23.0017 55.632L64.1794 30.6713L79.7354 29.578L84.1975 41.297L54.638 58.9705C54.2364 59.2097 53.9719 59.6295 53.9327 60.098C53.8935 60.5666 54.0747 61.0254 54.4323 61.3329L80.6367 84.0289C80.7689 84.146 80.9257 84.2339 81.0873 84.2973L90.0849 87.6261L84.1681 91.5112L87.6996 92.7022L93.5038 88.8951L111.151 95.4208L113.62 97.8808C113.826 98.0858 114.09 98.2273 114.379 98.281L138.007 102.845L150.482 113.26L153.176 111.689L147.098 106.618L147.103 106.613Z" fill="#FEE2A6"/>
<path d="M154.665 68.2979C154.514 68.1613 154.337 68.049 154.146 67.966L133.575 58.9364C133.119 58.7363 132.605 58.7168 132.135 58.8828L98.3921 70.7237L87.7242 62.0797C88.4345 61.2549 88.8263 60.2884 88.8263 59.2732C88.8263 58.7998 88.7332 58.3361 88.5667 57.8871L102.991 49.9508L125.096 48.2767C125.395 48.2522 125.689 48.1644 125.948 48.0082L146.295 35.9671L142.969 33.3949L124.342 44.4159L102.266 46.09C101.987 46.1095 101.713 46.1925 101.468 46.3292L85.7699 54.9683C84.374 54.2411 82.6303 53.8408 80.8033 53.8408C79.8188 53.8408 78.8588 53.958 77.9625 54.1776L69.1167 47.0125C68.9697 46.8954 68.813 46.7977 68.6367 46.7294L33.8804 32.1991L29.6338 34.6591L66.8636 50.2241L74.2106 56.1739C73.3437 57.0524 72.8588 58.1165 72.8588 59.2391C72.8588 59.9712 73.0694 60.674 73.4514 61.3232L53.7516 73.2471L57.0529 75.8193L76.7086 63.9198C77.9478 64.4128 79.3878 64.6812 80.8768 64.6812C82.018 64.6812 83.1299 64.5202 84.1438 64.2273L96.7709 74.4576C97.2999 74.8871 98.015 75.0091 98.6566 74.7846L132.703 62.8411L152.28 71.4315L179.89 96.153L183.441 94.0835L154.665 68.3175V68.2979ZM84.134 60.0151C83.3111 60.4886 82.1258 60.7619 80.8817 60.7619C79.6376 60.7619 78.418 60.4837 77.5804 60.0005C76.9829 59.6588 76.7821 59.3269 76.7821 59.2293C76.7821 59.1317 76.978 58.8144 77.5511 58.4825C78.3739 58.0091 79.5592 57.7358 80.8033 57.7358C82.0474 57.7358 83.267 58.014 84.1046 58.4972C84.7022 58.8388 84.903 59.1707 84.903 59.2732C84.903 59.3757 84.7071 59.6881 84.134 60.02V60.0151Z" fill="url(#paint2_linear_80_2411)"/>
<path d="M183.965 93.4246L178.822 88.2997L185.679 83.9069L193.761 62.9192L196.7 61.699L214.088 75.8535L183.965 93.4246Z" fill="#CFE4BD"/>
<path d="M53.4323 71.9487L40.9424 62.6751L39.7179 53.4015L34.3301 49.9849L46.0853 42.6636L64.208 49.7408L62.9835 53.1574L53.4323 58.7704L49.269 61.4549L55.6364 63.1632L57.5956 70.2404L53.4323 71.9487Z" fill="#CFE4BD"/>
<path d="M158.172 57.9164C158.089 57.9164 158.005 57.8968 157.922 57.8627L157.026 57.4624C156.717 57.3258 156.58 56.9646 156.717 56.6571C156.854 56.3496 157.217 56.2129 157.525 56.3496L158.422 56.7498C158.73 56.8865 158.867 57.2477 158.73 57.5552C158.627 57.7797 158.407 57.9164 158.172 57.9164Z" fill="url(#paint3_linear_80_2411)"/>
<path d="M155.522 56.7352C155.439 56.7352 155.356 56.7157 155.272 56.6815L153.519 55.9006C153.21 55.7639 153.073 55.4027 153.21 55.0952C153.348 54.7877 153.71 54.6511 154.019 54.7877L155.772 55.5687C156.081 55.7053 156.218 56.0665 156.081 56.374C155.978 56.5985 155.757 56.7352 155.522 56.7352Z" fill="url(#paint4_linear_80_2411)"/>
<path d="M150.286 55.2855C150.081 55.2855 149.88 55.183 149.762 54.9927C149.586 54.7047 149.679 54.3289 149.968 54.1532L150.805 53.6456C150.977 53.5431 151.187 53.5284 151.374 53.6114L152.27 54.0116C152.579 54.1483 152.716 54.5095 152.579 54.817C152.441 55.1245 152.079 55.2611 151.77 55.1245L151.168 54.856L150.605 55.1977C150.507 55.2563 150.394 55.2855 150.286 55.2855Z" fill="url(#paint5_linear_80_2411)"/>
<path d="M139.991 61.499C139.786 61.499 139.585 61.3965 139.467 61.2061C139.291 60.9181 139.384 60.5423 139.673 60.3666L141.387 59.3319C141.676 59.1562 142.053 59.2489 142.23 59.5369C142.406 59.8248 142.313 60.2007 142.024 60.3764L140.31 61.4111C140.212 61.4697 140.099 61.499 139.991 61.499ZM143.425 59.4295C143.219 59.4295 143.018 59.327 142.901 59.1366C142.724 58.8487 142.818 58.4728 143.106 58.2971L144.821 57.2624C145.11 57.0867 145.487 57.1794 145.663 57.4674C145.84 57.7553 145.747 58.1312 145.458 58.3069L143.743 59.3416C143.645 59.4002 143.533 59.4295 143.425 59.4295ZM146.858 57.36C146.653 57.36 146.452 57.2575 146.334 57.0671C146.158 56.7792 146.251 56.4033 146.54 56.2276L148.254 55.1929C148.543 55.0172 148.92 55.1099 149.097 55.3979C149.273 55.6859 149.18 56.0617 148.891 56.2374L147.177 57.2721C147.079 57.3307 146.966 57.36 146.858 57.36Z" fill="url(#paint6_linear_80_2411)"/>
<path d="M137.435 63.0412C137.361 63.0412 137.293 63.0266 137.224 63.0022L136.303 62.6654C135.985 62.5483 135.823 62.1968 135.941 61.8796C136.058 61.5623 136.411 61.4013 136.729 61.5184L137.371 61.7527L137.959 61.4013C138.248 61.2256 138.625 61.3183 138.801 61.6063C138.977 61.8942 138.884 62.2701 138.595 62.4458L137.758 62.9534C137.66 63.0119 137.552 63.0412 137.439 63.0412H137.435Z" fill="url(#paint7_linear_80_2411)"/>
<path d="M100.724 72.5784C100.469 72.5784 100.234 72.4222 100.146 72.1733C100.033 71.8561 100.199 71.5046 100.518 71.3973L102.31 70.7676C102.629 70.6554 102.977 70.8213 103.089 71.1386C103.202 71.4558 103.035 71.8073 102.717 71.9146L100.924 72.5443C100.856 72.5687 100.787 72.5784 100.719 72.5784H100.724ZM104.304 71.3192C104.049 71.3192 103.814 71.163 103.726 70.9141C103.613 70.5968 103.78 70.2454 104.098 70.138L105.891 69.5084C106.209 69.3961 106.557 69.5621 106.67 69.8793C106.782 70.1966 106.616 70.548 106.297 70.6554L104.505 71.285C104.436 71.3094 104.368 71.3192 104.299 71.3192H104.304ZM107.884 70.0648C107.63 70.0648 107.395 69.9086 107.306 69.6597C107.194 69.3424 107.36 68.991 107.679 68.8836L109.471 68.254C109.79 68.1417 110.142 68.3077 110.25 68.6249C110.363 68.9422 110.196 69.2936 109.878 69.401L108.085 70.0306C108.017 70.055 107.948 70.0648 107.88 70.0648H107.884ZM111.465 68.8055C111.21 68.8055 110.975 68.6493 110.887 68.4004C110.774 68.0832 110.941 67.7317 111.259 67.6244L113.052 66.9947C113.37 66.8825 113.723 67.0484 113.831 67.3657C113.943 67.6829 113.777 68.0344 113.458 68.1417L111.666 68.7714C111.597 68.7958 111.529 68.8055 111.46 68.8055H111.465ZM115.045 67.5511C114.791 67.5511 114.556 67.395 114.467 67.146C114.355 66.8288 114.521 66.4774 114.84 66.37L116.632 65.7404C116.951 65.6281 117.303 65.794 117.411 66.1113C117.524 66.4286 117.357 66.78 117.039 66.8873L115.246 67.517C115.178 67.5414 115.109 67.5511 115.045 67.5511ZM118.626 66.2919C118.371 66.2919 118.136 66.1357 118.048 65.8868C117.935 65.5695 118.102 65.2181 118.42 65.1107L120.213 64.4811C120.531 64.3688 120.884 64.5348 120.992 64.852C121.104 65.1693 120.938 65.5207 120.619 65.6281L118.827 66.2577C118.758 66.2821 118.689 66.2919 118.621 66.2919H118.626ZM122.206 65.0375C121.952 65.0375 121.716 64.8813 121.628 64.6324C121.516 64.3151 121.682 63.9637 122.001 63.8563L123.793 63.2267C124.112 63.1144 124.459 63.2804 124.572 63.5977C124.685 63.9149 124.518 64.2663 124.2 64.3737L122.407 65.0033C122.338 65.0277 122.27 65.0375 122.206 65.0375ZM125.787 63.7782C125.532 63.7782 125.297 63.6221 125.209 63.3683C125.096 63.051 125.263 62.6996 125.581 62.5922L127.374 61.9626C127.692 61.8503 128.04 62.0163 128.152 62.3335C128.265 62.6508 128.099 63.0022 127.78 63.1096L125.987 63.7392C125.919 63.7636 125.85 63.7734 125.782 63.7734L125.787 63.7782ZM129.367 62.5239C129.112 62.5239 128.877 62.3677 128.789 62.1188C128.677 61.8015 128.843 61.4501 129.161 61.3427L130.954 60.7131C131.272 60.6008 131.625 60.7668 131.733 61.084C131.846 61.4013 131.679 61.7527 131.361 61.8601L129.568 62.4897C129.499 62.5141 129.431 62.5239 129.362 62.5239H129.367ZM134.73 62.0455C134.662 62.0455 134.588 62.0358 134.52 62.0065L132.737 61.3525C132.419 61.2353 132.257 60.8839 132.375 60.5666C132.492 60.2494 132.845 60.0883 133.163 60.2055L134.946 60.8595C135.264 60.9766 135.426 61.3281 135.308 61.6404C135.215 61.8894 134.985 62.0407 134.735 62.0407L134.73 62.0455Z" fill="url(#paint8_linear_80_2411)"/>
<path d="M98.0052 73.5351C97.8681 73.5351 97.7309 73.4863 97.6183 73.3985L96.8591 72.7835C96.5946 72.5687 96.5554 72.188 96.7709 71.9244C96.9864 71.6609 97.3685 71.6218 97.633 71.8366L98.1277 72.2368L98.7301 72.0269C99.0485 71.9147 99.3962 72.0806 99.5089 72.3979C99.6216 72.7151 99.455 73.0666 99.1367 73.1739L98.2109 73.4961C98.1424 73.5205 98.0738 73.5302 98.0101 73.5302L98.0052 73.5351Z" fill="url(#paint9_linear_80_2411)"/>
<path d="M95.8945 71.822C95.7574 71.822 95.6202 71.7781 95.5076 71.6853L94.1557 70.592C93.8912 70.3773 93.8521 69.9965 94.0676 69.733C94.2831 69.4694 94.6651 69.4304 94.9296 69.6451L96.2815 70.7384C96.546 70.9532 96.5852 71.3339 96.3696 71.5975C96.2472 71.7439 96.0709 71.822 95.8945 71.822ZM93.1908 69.6305C93.0537 69.6305 92.9165 69.5866 92.8039 69.4938L91.452 68.4005C91.1875 68.1857 91.1484 67.805 91.3639 67.5415C91.5794 67.2779 91.9614 67.2389 92.2259 67.4536L93.5778 68.5469C93.8423 68.7617 93.8814 69.1424 93.6659 69.406C93.5435 69.5524 93.3672 69.6305 93.1908 69.6305ZM90.4871 67.4438C90.35 67.4438 90.2128 67.3999 90.1002 67.3072L88.7483 66.2139C88.4838 65.9991 88.4446 65.6184 88.6602 65.3548C88.8757 65.0913 89.2577 65.0522 89.5222 65.267L90.8741 66.3603C91.1386 66.5751 91.1777 66.9558 90.9622 67.2193C90.8398 67.3658 90.6635 67.4438 90.4871 67.4438ZM87.7834 65.2523C87.6463 65.2523 87.5091 65.2084 87.3965 65.1157L86.0446 64.0224C85.7801 63.8076 85.741 63.4269 85.9565 63.1633C86.172 62.8998 86.554 62.8607 86.8185 63.0755L88.1704 64.1688C88.4349 64.3836 88.474 64.7643 88.2585 65.0278C88.1361 65.1742 87.9597 65.2523 87.7834 65.2523Z" fill="url(#paint10_linear_80_2411)"/>
<path d="M85.0894 63.0657C84.9523 63.0657 84.8151 63.0218 84.7025 62.9291L83.9433 62.3141C83.7963 62.1969 83.7131 62.0163 83.718 61.8309C83.718 61.6454 83.811 61.4697 83.958 61.3574C83.958 61.3574 84.2519 61.1329 84.58 60.762C84.8053 60.5082 85.1923 60.4886 85.4421 60.7083C85.6968 60.9328 85.7164 61.3184 85.496 61.5673C85.4176 61.6552 85.3441 61.7381 85.2706 61.8114L85.4813 61.9822C85.7458 62.1921 85.7849 62.5776 85.5694 62.8412C85.447 62.9876 85.2706 63.0657 85.0943 63.0657H85.0894Z" fill="url(#paint11_linear_80_2411)"/>
<path d="M85.9511 60.2689C85.8875 60.2689 85.8238 60.2591 85.7601 60.2396C85.4368 60.1371 85.2654 59.7906 85.3683 59.4684C85.4417 59.2488 85.476 59.0389 85.476 58.8339C85.476 58.5997 85.4319 58.38 85.3389 58.1555C85.2066 57.8431 85.3536 57.4868 85.667 57.355C85.9805 57.2232 86.3381 57.3697 86.4703 57.682C86.6271 58.0481 86.7054 58.4386 86.7054 58.829C86.7054 59.1609 86.6466 59.5026 86.5389 59.8394C86.4556 60.0981 86.2156 60.2591 85.956 60.2591L85.9511 60.2689ZM84.7903 57.1696C84.6581 57.1696 84.5258 57.1256 84.4181 57.0427C84.036 56.7498 83.5658 56.5155 83.027 56.3447C82.7037 56.2422 82.5274 55.9005 82.6254 55.5784C82.7282 55.2563 83.0711 55.0806 83.3944 55.1782C84.0703 55.3929 84.6679 55.6907 85.1675 56.0762C85.4368 56.2812 85.4858 56.6668 85.2801 56.9304C85.1577 57.0866 84.9764 57.1696 84.7952 57.1696H84.7903ZM81.4597 56.0421C81.4597 56.0421 81.4254 56.0421 81.4107 56.0421C80.867 55.9982 80.2645 55.9982 79.7209 56.0323C79.3731 56.0616 79.0939 55.798 79.0694 55.4613C79.0498 55.1245 79.3045 54.8365 79.6425 54.8121C80.2449 54.7731 80.9111 54.7731 81.5135 54.8219C81.8515 54.8511 82.1013 55.144 82.0719 55.4808C82.0474 55.798 81.778 56.0421 81.4597 56.0421Z" fill="url(#paint12_linear_80_2411)"/>
<path d="M76.9432 56.4521C76.8012 56.4521 76.6592 56.4033 76.5514 56.3105L75.802 55.6809C75.5424 55.4661 75.5081 55.0806 75.7285 54.8219C75.9441 54.5632 76.331 54.529 76.5906 54.7487L77.1049 55.1782C77.2763 55.1391 77.5114 55.0903 77.7955 55.0415C78.1286 54.9781 78.4469 55.2026 78.5057 55.5345C78.5645 55.8664 78.3441 56.1836 78.011 56.2422C77.4575 56.3398 77.1098 56.4326 77.1049 56.4326C77.051 56.4472 76.9971 56.4521 76.9432 56.4521Z" fill="url(#paint13_linear_80_2411)"/>
<path d="M74.6518 54.534C74.5146 54.534 74.3726 54.4852 74.2599 54.3924L72.717 53.1039C72.4575 52.8891 72.4232 52.5035 72.6436 52.2448C72.8591 51.9862 73.246 51.952 73.5056 52.1716L75.0485 53.4602C75.3081 53.6749 75.3424 54.0605 75.122 54.3192C74.9995 54.4608 74.8281 54.5388 74.6518 54.5388V54.534Z" fill="url(#paint14_linear_80_2411)"/>
<path d="M71.5705 51.952C71.4334 51.952 71.2913 51.9031 71.1787 51.8104L70.4293 51.1808C70.2774 51.0539 70.1942 50.8586 70.2138 50.6585C70.2334 50.4584 70.346 50.2827 70.5174 50.1851L71.3648 49.697C71.6538 49.5262 72.0309 49.6287 72.2024 49.9166C72.3738 50.2095 72.2709 50.5804 71.982 50.7513L71.8889 50.805L71.9722 50.8733C72.2317 51.088 72.266 51.4736 72.0456 51.7323C71.9232 51.8739 71.7517 51.952 71.5754 51.952H71.5705Z" fill="url(#paint15_linear_80_2411)"/>
<path d="M73.1669 49.9655C72.9563 49.9655 72.7506 49.8581 72.638 49.6629C72.4665 49.37 72.5694 48.9991 72.8584 48.8282L74.3572 47.9594C74.651 47.7886 75.0233 47.8911 75.1947 48.1791C75.3662 48.4719 75.2633 48.8429 74.9743 49.0137L73.4755 49.8825C73.3776 49.9362 73.2747 49.9655 73.1669 49.9655ZM76.1645 48.2328C75.9539 48.2328 75.7482 48.1254 75.6355 47.9302C75.4641 47.6373 75.567 47.2664 75.856 47.0955L77.3547 46.2267C77.6486 46.0559 78.0209 46.1584 78.1923 46.4464C78.3637 46.7392 78.2609 47.1102 77.9719 47.281L76.4731 48.1498C76.3751 48.2035 76.2723 48.2328 76.1645 48.2328ZM79.1621 46.5001C78.9515 46.5001 78.7458 46.3927 78.6331 46.1975C78.4617 45.9046 78.5646 45.5337 78.8535 45.3628L80.3523 44.494C80.6462 44.3232 81.0185 44.4257 81.1899 44.7137C81.3613 45.0065 81.2585 45.3775 80.9695 45.5483L79.4707 46.4171C79.3727 46.4708 79.2699 46.5001 79.1621 46.5001ZM82.1597 44.7674C81.9491 44.7674 81.7434 44.66 81.6307 44.4647C81.4593 44.1719 81.5621 43.801 81.8511 43.6301L83.3499 42.7613C83.6438 42.5905 84.016 42.693 84.1875 42.981C84.3589 43.2738 84.256 43.6448 83.9671 43.8156L82.4683 44.6844C82.3703 44.7381 82.2675 44.7674 82.1597 44.7674Z" fill="url(#paint16_linear_80_2411)"/>
<path d="M85.1572 43.0297C84.9466 43.0297 84.7409 42.9224 84.6282 42.7271C84.4568 42.4343 84.5596 42.0633 84.8486 41.8925L85.2845 41.6387L85.1474 41.1506C85.0543 40.8285 85.2454 40.4917 85.5735 40.399C85.8968 40.3111 86.2347 40.4966 86.3278 40.8236L86.5923 41.7656C86.6658 42.034 86.5531 42.3171 86.3082 42.4587L85.4609 42.9468C85.3629 43.0005 85.26 43.0297 85.1523 43.0297H85.1572Z" fill="url(#paint17_linear_80_2411)"/>
<path d="M85.2554 39.862C84.986 39.862 84.7411 39.6863 84.6676 39.4179L84.1827 37.6852C84.0897 37.3581 84.2807 37.0262 84.6089 36.9335C84.9321 36.8408 85.2701 37.0311 85.3632 37.3581L85.8481 39.0908C85.9411 39.4179 85.7501 39.7498 85.4219 39.8425C85.3681 39.8571 85.3093 39.8669 85.2554 39.8669V39.862Z" fill="url(#paint18_linear_80_2411)"/>
<path d="M84.2854 36.3917C84.016 36.3917 83.7711 36.216 83.6976 35.9476L83.4331 35.0056C83.3548 34.7273 83.4821 34.4345 83.7368 34.3027L84.6037 33.8488C84.9025 33.6926 85.2748 33.8049 85.4315 34.1026C85.5882 34.4003 85.4756 34.7713 85.1768 34.9275L84.7458 35.152L84.878 35.6205C84.9711 35.9427 84.7801 36.2795 84.4519 36.3722C84.398 36.3868 84.3442 36.3966 84.2854 36.3966V36.3917Z" fill="url(#paint19_linear_80_2411)"/>
<path d="M86.8231 33.9465C86.6027 33.9465 86.3921 33.8293 86.2794 33.6194C86.1227 33.3217 86.2354 32.9508 86.539 32.7946L87.7635 32.1942C88.0623 32.038 88.4346 32.1503 88.5913 32.4529C88.748 32.7507 88.6354 33.1216 88.3317 33.2778L87.1072 33.8781C87.0141 33.9269 86.9211 33.9465 86.8231 33.9465Z" fill="url(#paint20_linear_80_2411)"/>
<path d="M89.9916 33.0484C89.3989 33.39 88.434 33.3851 87.8414 33.0484C87.2438 32.7067 87.2438 32.1503 87.8365 31.8086C88.4291 31.467 89.394 31.4718 89.9867 31.8086C90.5842 32.1503 90.5842 32.7067 89.9916 33.0484Z" fill="url(#paint21_linear_80_2411)"/>
<path d="M160.866 93.3417L169.682 88.1338L159.068 78.3721L155.968 80.4904L161.845 86.9966L157.927 89.437L160.866 93.3417Z" fill="#D1D3D4"/>
<path d="M139.315 118.073L148.131 112.865L140.049 105.788L136.944 107.901L136.376 114.168L139.315 118.073Z" fill="#D1D3D4"/>
<path d="M152.539 56.5741L145.516 60.9669L150.164 63.5635L154.592 62.2554L159.558 65.0326L164.946 61.943L152.539 56.5741Z" fill="#D1D3D4"/>
<path d="M70.0862 31.6816L68.127 32.9799L77.4332 37.0506L79.3924 35.0982L77.5997 31.6816H70.0862Z" fill="#D1D3D4"/>
<path d="M76.9436 74.3063L83.9674 69.9135L81.1902 67.1461L78.2514 68.7763L75.4742 66.1699L70.2529 69.2644L76.9436 74.3063Z" fill="#D1D3D4"/>
<path d="M124.944 41.9315L131.639 37.3728L124.944 31.5157L122.661 33.634L126.251 36.3966L123.151 39.003L124.944 41.9315Z" fill="#D1D3D4"/>
<path d="M174.413 83.741L179.312 80.6514L179.15 72.842L175.393 72.1929L174.413 77.2348L172.621 78.538L164.617 71.5388L162.007 73.0031L174.413 83.741Z" fill="#D1D3D4"/>
<path d="M98.4941 69.2643L103.882 66.4968L97.681 54.2947L92.783 56.8962L92.6165 60.4787L90.0059 62.4311L98.4941 69.2643Z" fill="#D1D3D4"/>
<g style="mix-blend-mode:multiply">
<path d="M155.556 40.0328L123.998 15.6432L38.709 64.6177L70.7567 89.5687L155.556 40.0328Z" fill="#C8CACC"/>
</g>
<g style="mix-blend-mode:multiply">
<path d="M102.324 100.204L133.583 125.926L219 76.1756L187.75 50.7415L102.324 100.204Z" fill="#C8CACC"/>
</g>
<path style="mix-blend-mode:multiply" d="M160.968 63.4268C168.01 63.4268 173.718 60.5248 173.718 56.945C173.718 53.3652 168.01 50.4633 160.968 50.4633C153.927 50.4633 148.219 53.3652 148.219 56.945C148.219 60.5248 153.927 63.4268 160.968 63.4268Z" fill="url(#paint22_radial_80_2411)"/>
<path d="M161.164 8.49759C157.01 6.10597 153.288 6.03764 150.707 7.82403L147.719 9.2102L148.086 11.1186C147.444 12.5926 147.082 14.3888 147.082 16.4924C147.082 22.5838 150.349 32.1893 153.738 40.516L157.27 58.8876L161.164 56.945C161.164 56.945 175.241 45.3335 175.241 32.692C175.241 23.7991 168.937 12.9685 161.164 8.49271V8.49759Z" fill="url(#paint23_linear_80_2411)"/>
<path d="M171.347 34.6346C171.347 47.276 157.27 58.8876 157.27 58.8876C157.27 58.8876 143.193 31.0765 143.193 18.435C143.193 9.54211 149.497 5.96443 157.27 10.4353C165.043 14.9111 171.347 25.7417 171.347 34.6346Z" fill="url(#paint24_linear_80_2411)"/>
<path style="mix-blend-mode:color-dodge" d="M158.162 9.95204C154.101 7.6141 150.452 7.49208 147.881 9.16134C150.374 8.03874 153.656 8.36088 157.27 10.4352C165.043 14.911 171.347 25.7416 171.347 34.6346C171.347 45.4701 161.017 55.5344 158.059 58.1993C158.118 58.3214 158.162 58.4043 158.162 58.4043C158.162 58.4043 172.239 46.7928 172.239 34.1513C172.239 25.2584 165.935 14.4278 158.162 9.95204Z" fill="url(#paint25_radial_80_2411)"/>
<path d="M163.392 30.0563C163.392 33.922 160.65 35.479 157.27 33.5364C153.89 31.5889 151.147 26.8789 151.147 23.0133C151.147 19.1476 153.89 17.5906 157.27 19.5332C160.65 21.4807 163.392 26.1907 163.392 30.0563Z" fill="url(#paint26_linear_80_2411)"/>
<g style="mix-blend-mode:multiply">
<path d="M159.161 32.6676C155.781 30.7202 153.038 26.0101 153.038 22.1445C153.038 20.6119 153.474 19.4503 154.204 18.7181C152.382 18.8792 151.152 20.4264 151.152 23.0133C151.152 26.8789 153.895 31.589 157.275 33.5364C159.317 34.7127 161.12 34.6005 162.232 33.4827C161.33 33.5657 160.282 33.3119 159.161 32.6676Z" fill="#D1D3D4"/>
</g>
</g>
<defs>
<linearGradient id="paint0_linear_80_2411" x1="161.488" y1="160.59" x2="73.4832" y2="-9.18966" gradientUnits="userSpaceOnUse">
<stop offset="0.08" stop-color="#F0EFF2"/>
<stop offset="1" stop-color="white"/>
</linearGradient>
<linearGradient id="paint1_linear_80_2411" x1="72.2897" y1="129.187" x2="134.948" y2="-8.29779" gradientUnits="userSpaceOnUse">
<stop offset="0.04" stop-color="#138BBD"/>
<stop offset="0.23" stop-color="#169AC6"/>
<stop offset="0.59" stop-color="#1EC2DF"/>
<stop offset="1" stop-color="#2AF6FF"/>
</linearGradient>
<linearGradient id="paint2_linear_80_2411" x1="118.719" y1="62.4604" x2="-11.5962" y2="7.30143" gradientUnits="userSpaceOnUse">
<stop offset="0.04" stop-color="#FFA98C"/>
<stop offset="0.32" stop-color="#FEB892"/>
<stop offset="0.86" stop-color="#FEE0A3"/>
<stop offset="1" stop-color="#FEECA8"/>
</linearGradient>
<linearGradient id="paint3_linear_80_2411" x1="158.745" y1="57.7797" x2="73.336" y2="0.885367" gradientUnits="userSpaceOnUse">
<stop offset="0.04" stop-color="#9F19AB"/>
<stop offset="0.24" stop-color="#AE24B0"/>
<stop offset="0.65" stop-color="#D643BF"/>
<stop offset="1" stop-color="#FF63CE"/>
</linearGradient>
<linearGradient id="paint4_linear_80_2411" x1="158.437" y1="58.2434" x2="73.0277" y2="1.34906" gradientUnits="userSpaceOnUse">
<stop offset="0.04" stop-color="#9F19AB"/>
<stop offset="0.24" stop-color="#AE24B0"/>
<stop offset="0.65" stop-color="#D643BF"/>
<stop offset="1" stop-color="#FF63CE"/>
</linearGradient>
<linearGradient id="paint5_linear_80_2411" x1="157.883" y1="59.0731" x2="72.4743" y2="2.17891" gradientUnits="userSpaceOnUse">
<stop offset="0.04" stop-color="#9F19AB"/>
<stop offset="0.24" stop-color="#AE24B0"/>
<stop offset="0.65" stop-color="#D643BF"/>
<stop offset="1" stop-color="#FF63CE"/>
</linearGradient>
<linearGradient id="paint6_linear_80_2411" x1="154.078" y1="64.7838" x2="68.6692" y2="7.88477" gradientUnits="userSpaceOnUse">
<stop offset="0.04" stop-color="#9F19AB"/>
<stop offset="0.24" stop-color="#AE24B0"/>
<stop offset="0.65" stop-color="#D643BF"/>
<stop offset="1" stop-color="#FF63CE"/>
</linearGradient>
<linearGradient id="paint7_linear_80_2411" x1="150.258" y1="70.5187" x2="64.8487" y2="13.6247" gradientUnits="userSpaceOnUse">
<stop offset="0.04" stop-color="#9F19AB"/>
<stop offset="0.24" stop-color="#AE24B0"/>
<stop offset="0.65" stop-color="#D643BF"/>
<stop offset="1" stop-color="#FF63CE"/>
</linearGradient>
<linearGradient id="paint8_linear_80_2411" x1="142.073" y1="82.8087" x2="56.6637" y2="25.9146" gradientUnits="userSpaceOnUse">
<stop offset="0.04" stop-color="#9F19AB"/>
<stop offset="0.24" stop-color="#AE24B0"/>
<stop offset="0.65" stop-color="#D643BF"/>
<stop offset="1" stop-color="#FF63CE"/>
</linearGradient>
<linearGradient id="paint9_linear_80_2411" x1="133.379" y1="95.8554" x2="47.9697" y2="38.9613" gradientUnits="userSpaceOnUse">
<stop offset="0.04" stop-color="#9F19AB"/>
<stop offset="0.24" stop-color="#AE24B0"/>
<stop offset="0.65" stop-color="#D643BF"/>
<stop offset="1" stop-color="#FF63CE"/>
</linearGradient>
<linearGradient id="paint10_linear_80_2411" x1="133.634" y1="95.4746" x2="48.2249" y2="38.5805" gradientUnits="userSpaceOnUse">
<stop offset="0.04" stop-color="#9F19AB"/>
<stop offset="0.24" stop-color="#AE24B0"/>
<stop offset="0.65" stop-color="#D643BF"/>
<stop offset="1" stop-color="#FF63CE"/>
</linearGradient>
<linearGradient id="paint11_linear_80_2411" x1="134.344" y1="94.4107" x2="48.9349" y2="37.5166" gradientUnits="userSpaceOnUse">
<stop offset="0.04" stop-color="#9F19AB"/>
<stop offset="0.24" stop-color="#AE24B0"/>
<stop offset="0.65" stop-color="#D643BF"/>
<stop offset="1" stop-color="#FF63CE"/>
</linearGradient>
<linearGradient id="paint12_linear_80_2411" x1="136.156" y1="91.6919" x2="50.7469" y2="34.7977" gradientUnits="userSpaceOnUse">
<stop offset="0.04" stop-color="#9F19AB"/>
<stop offset="0.24" stop-color="#AE24B0"/>
<stop offset="0.65" stop-color="#D643BF"/>
<stop offset="1" stop-color="#FF63CE"/>
</linearGradient>
<linearGradient id="paint13_linear_80_2411" x1="134.813" y1="93.7029" x2="49.4044" y2="36.8088" gradientUnits="userSpaceOnUse">
<stop offset="0.04" stop-color="#9F19AB"/>
<stop offset="0.24" stop-color="#AE24B0"/>
<stop offset="0.65" stop-color="#D643BF"/>
<stop offset="1" stop-color="#FF63CE"/>
</linearGradient>
<linearGradient id="paint14_linear_80_2411" x1="134.868" y1="93.6199" x2="49.464" y2="36.7258" gradientUnits="userSpaceOnUse">
<stop offset="0.04" stop-color="#9F19AB"/>
<stop offset="0.24" stop-color="#AE24B0"/>
<stop offset="0.65" stop-color="#D643BF"/>
<stop offset="1" stop-color="#FF63CE"/>
</linearGradient>
<linearGradient id="paint15_linear_80_2411" x1="135.328" y1="92.9268" x2="49.924" y2="36.0327" gradientUnits="userSpaceOnUse">
<stop offset="0.04" stop-color="#9F19AB"/>
<stop offset="0.24" stop-color="#AE24B0"/>
<stop offset="0.65" stop-color="#D643BF"/>
<stop offset="1" stop-color="#FF63CE"/>
</linearGradient>
<linearGradient id="paint16_linear_80_2411" x1="139.471" y1="86.7086" x2="54.0625" y2="29.8145" gradientUnits="userSpaceOnUse">
<stop offset="0.04" stop-color="#9F19AB"/>
<stop offset="0.24" stop-color="#AE24B0"/>
<stop offset="0.65" stop-color="#D643BF"/>
<stop offset="1" stop-color="#FF63CE"/>
</linearGradient>
<linearGradient id="paint17_linear_80_2411" x1="143.757" y1="80.2756" x2="58.3481" y2="23.3816" gradientUnits="userSpaceOnUse">
<stop offset="0.04" stop-color="#9F19AB"/>
<stop offset="0.24" stop-color="#AE24B0"/>
<stop offset="0.65" stop-color="#D643BF"/>
<stop offset="1" stop-color="#FF63CE"/>
</linearGradient>
<linearGradient id="paint18_linear_80_2411" x1="145.158" y1="78.1719" x2="59.7493" y2="21.2776" gradientUnits="userSpaceOnUse">
<stop offset="0.04" stop-color="#9F19AB"/>
<stop offset="0.24" stop-color="#AE24B0"/>
<stop offset="0.65" stop-color="#D643BF"/>
<stop offset="1" stop-color="#FF63CE"/>
</linearGradient>
<linearGradient id="paint19_linear_80_2411" x1="146.554" y1="76.078" x2="61.145" y2="19.179" gradientUnits="userSpaceOnUse">
<stop offset="0.04" stop-color="#9F19AB"/>
<stop offset="0.24" stop-color="#AE24B0"/>
<stop offset="0.65" stop-color="#D643BF"/>
<stop offset="1" stop-color="#FF63CE"/>
</linearGradient>
<linearGradient id="paint20_linear_80_2411" x1="148.376" y1="73.3448" x2="62.9676" y2="16.4507" gradientUnits="userSpaceOnUse">
<stop offset="0.04" stop-color="#9F19AB"/>
<stop offset="0.24" stop-color="#AE24B0"/>
<stop offset="0.65" stop-color="#D643BF"/>
<stop offset="1" stop-color="#FF63CE"/>
</linearGradient>
<linearGradient id="paint21_linear_80_2411" x1="149.106" y1="72.2466" x2="63.6968" y2="15.3525" gradientUnits="userSpaceOnUse">
<stop offset="0.04" stop-color="#9F19AB"/>
<stop offset="0.24" stop-color="#AE24B0"/>
<stop offset="0.65" stop-color="#D643BF"/>
<stop offset="1" stop-color="#FF63CE"/>
</linearGradient>
<radialGradient id="paint22_radial_80_2411" cx="0" cy="0" r="1" gradientUnits="userSpaceOnUse" gradientTransform="translate(160.674 60.5598) scale(12.7384 6.45445)">
<stop stop-color="#C7C8C9"/>
<stop offset="1" stop-color="white"/>
</radialGradient>
<linearGradient id="paint23_linear_80_2411" x1="170.558" y1="53.0599" x2="150.394" y2="7.08855" gradientUnits="userSpaceOnUse">
<stop offset="0.04" stop-color="#931107"/>
<stop offset="0.28" stop-color="#A20F0A"/>
<stop offset="0.74" stop-color="#CA0A11"/>
<stop offset="1" stop-color="#E40817"/>
</linearGradient>
<linearGradient id="paint24_linear_80_2411" x1="134.886" y1="48.2278" x2="174.205" y2="16.084" gradientUnits="userSpaceOnUse">
<stop offset="0.04" stop-color="#931107"/>
<stop offset="0.28" stop-color="#A20F0A"/>
<stop offset="0.74" stop-color="#CA0A11"/>
<stop offset="1" stop-color="#E40817"/>
</linearGradient>
<radialGradient id="paint25_radial_80_2411" cx="0" cy="0" r="1" gradientUnits="userSpaceOnUse" gradientTransform="translate(164.279 25.7807) scale(19.8369 19.7675)">
<stop stop-color="white"/>
<stop offset="1"/>
</radialGradient>
<linearGradient id="paint26_linear_80_2411" x1="-369.484" y1="-271.871" x2="-374.75" y2="-284.372" gradientUnits="userSpaceOnUse">
<stop stop-color="#D4D1D8"/>
<stop offset="1" stop-color="white"/>
</linearGradient>
<clipPath id="clip0_80_2411">
<rect width="219" height="127" fill="white"/>
</clipPath>
</defs>
</svg>
