<svg width="81" height="54" viewBox="0 0 81 54" fill="none" xmlns="http://www.w3.org/2000/svg">
<g clip-path="url(#clip0_73_1839)">
<path d="M70.51 53.05H10.06C4.51 53.05 0 48.54 0 42.99V10.06C0 4.51 4.51 0 10.06 0H70.51C76.06 0 80.57 4.51 80.57 10.06V42.99C80.57 48.54 76.06 53.05 70.51 53.05ZM10.06 2C5.61 2 2 5.62 2 10.06V42.99C2 47.43 5.61 51.05 10.06 51.05H70.51C74.95 51.05 78.57 47.44 78.57 42.99V10.06C78.57 5.62 74.96 2 70.51 2H10.06Z" fill="white"/>
<path d="M57.9499 44.7801H22.0499C17.8299 44.7801 14.3999 41.3501 14.3999 37.1301V14.5401C14.3999 10.3201 17.8299 6.89014 22.0499 6.89014H57.9499C62.1699 6.89014 65.5999 10.3201 65.5999 14.5401V37.1401C65.5999 41.3601 62.1699 44.7901 57.9499 44.7901V44.7801ZM22.0499 8.89014C18.9299 8.89014 16.3999 11.4201 16.3999 14.5401V37.1401C16.3999 40.2601 18.9299 42.7901 22.0499 42.7901H57.9499C61.0699 42.7901 63.5999 40.2601 63.5999 37.1401V14.5401C63.5999 11.4201 61.0699 8.89014 57.9499 8.89014H22.0499Z" fill="white"/>
<path d="M30.5599 35.6298C30.5599 35.6298 30.5299 35.6298 30.5199 35.6298C30.0899 35.6098 29.7199 35.3298 29.5999 34.9198L25.2099 20.2398L24.2899 24.7298C24.1899 25.1998 23.7899 25.5298 23.3099 25.5298H15.3999C14.8499 25.5298 14.3999 25.0798 14.3999 24.5298C14.3999 23.9798 14.8499 23.5298 15.3999 23.5298H22.4999L24.0499 15.9398C24.1399 15.4898 24.5299 15.1598 24.9899 15.1398C25.4399 15.1098 25.8599 15.4098 25.9899 15.8498L30.6799 31.5498L35.5399 19.0098C35.6899 18.6298 36.0399 18.3798 36.4399 18.3698C36.8399 18.3598 37.2099 18.5898 37.3799 18.9598L39.9799 24.6798L40.6499 21.8198C40.7399 21.4398 41.0499 21.1398 41.4299 21.0698C41.8099 20.9898 42.2099 21.1498 42.4399 21.4798L45.2699 25.5298L46.3799 21.9498C46.4999 21.5498 46.8599 21.2698 47.2799 21.2498C47.6799 21.2298 48.0799 21.4598 48.2499 21.8398L49.6299 24.9198L50.5699 21.7698C50.6899 21.3698 51.0499 21.0898 51.4599 21.0598C51.8699 21.0398 52.2699 21.2698 52.4399 21.6498L54.8299 26.9498L64.5499 26.5898C65.1099 26.5698 65.5699 26.9998 65.5899 27.5498C65.6099 28.0998 65.1799 28.5698 64.6299 28.5898L54.2399 28.9698C53.8399 29.0098 53.4599 28.7498 53.2899 28.3798L51.7199 24.9098L50.7699 28.0698C50.6499 28.4698 50.2899 28.7498 49.8799 28.7798C49.4599 28.7798 49.0699 28.5698 48.8999 28.1898L47.4999 25.0798L46.5699 28.0798C46.4599 28.4398 46.1499 28.7098 45.7699 28.7698C45.3899 28.8298 45.0199 28.6698 44.7999 28.3498L42.0799 24.4598L41.2499 27.9998C41.1499 28.4198 40.7999 28.7298 40.3699 28.7698C39.9399 28.7998 39.5399 28.5798 39.3599 28.1898L36.5299 21.9598L31.4799 34.9998C31.3299 35.3898 30.9599 35.6398 30.5499 35.6398L30.5599 35.6298Z" fill="white"/>
<path d="M9.82007 15.6799H5.96007C5.05007 15.6799 4.32007 14.9399 4.32007 14.0399C4.32007 13.1399 5.06007 12.3999 5.96007 12.3999H9.82007C10.7301 12.3999 11.4601 13.1399 11.4601 14.0399C11.4601 14.9399 10.7201 15.6799 9.82007 15.6799ZM5.96007 13.3899C5.61007 13.3899 5.32007 13.6799 5.32007 14.0299C5.32007 14.3799 5.61007 14.6699 5.96007 14.6699H9.82007C10.1701 14.6699 10.4601 14.3799 10.4601 14.0299C10.4601 13.6799 10.1701 13.3899 9.82007 13.3899H5.96007Z" fill="white"/>
<path d="M9.82007 20.7302H5.96007C5.05007 20.7302 4.32007 19.9902 4.32007 19.0902C4.32007 18.1902 5.06007 17.4502 5.96007 17.4502H9.82007C10.7301 17.4502 11.4601 18.1902 11.4601 19.0902C11.4601 19.9902 10.7201 20.7302 9.82007 20.7302ZM5.96007 18.4402C5.61007 18.4402 5.32007 18.7302 5.32007 19.0802C5.32007 19.4302 5.61007 19.7202 5.96007 19.7202H9.82007C10.1701 19.7202 10.4601 19.4302 10.4601 19.0802C10.4601 18.7302 10.1701 18.4402 9.82007 18.4402H5.96007Z" fill="white"/>
<path d="M9.82007 25.7898H5.96007C5.05007 25.7898 4.32007 25.0498 4.32007 24.1498C4.32007 23.2498 5.06007 22.5098 5.96007 22.5098H9.82007C10.7301 22.5098 11.4601 23.2498 11.4601 24.1498C11.4601 25.0498 10.7201 25.7898 9.82007 25.7898ZM5.96007 23.4998C5.61007 23.4998 5.32007 23.7898 5.32007 24.1398C5.32007 24.4898 5.61007 24.7798 5.96007 24.7798H9.82007C10.1701 24.7798 10.4601 24.4898 10.4601 24.1398C10.4601 23.7898 10.1701 23.4998 9.82007 23.4998H5.96007Z" fill="white"/>
<path d="M9.82007 30.8401H5.96007C5.05007 30.8401 4.32007 30.1001 4.32007 29.2001C4.32007 28.3001 5.06007 27.5601 5.96007 27.5601H9.82007C10.7301 27.5601 11.4601 28.3001 11.4601 29.2001C11.4601 30.1001 10.7201 30.8401 9.82007 30.8401ZM5.96007 28.5501C5.61007 28.5501 5.32007 28.8401 5.32007 29.1901C5.32007 29.5401 5.61007 29.8301 5.96007 29.8301H9.82007C10.1701 29.8301 10.4601 29.5401 10.4601 29.1901C10.4601 28.8401 10.1701 28.5501 9.82007 28.5501H5.96007Z" fill="white"/>
<path d="M9.82007 35.8899H5.96007C5.05007 35.8899 4.32007 35.1499 4.32007 34.2499C4.32007 33.3499 5.06007 32.6099 5.96007 32.6099H9.82007C10.7301 32.6099 11.4601 33.3499 11.4601 34.2499C11.4601 35.1499 10.7201 35.8899 9.82007 35.8899ZM5.96007 33.5999C5.61007 33.5999 5.32007 33.8899 5.32007 34.2399C5.32007 34.5899 5.61007 34.8799 5.96007 34.8799H9.82007C10.1701 34.8799 10.4601 34.5899 10.4601 34.2399C10.4601 33.8899 10.1701 33.5999 9.82007 33.5999H5.96007Z" fill="white"/>
<path d="M73.9399 15.6799H70.0799C69.1699 15.6799 68.4399 14.9399 68.4399 14.0399C68.4399 13.1399 69.1799 12.3999 70.0799 12.3999H73.9399C74.8499 12.3999 75.5799 13.1399 75.5799 14.0399C75.5799 14.9399 74.8399 15.6799 73.9399 15.6799ZM70.0799 13.3899C69.7199 13.3899 69.4399 13.6799 69.4399 14.0299C69.4399 14.3799 69.7299 14.6699 70.0799 14.6699H73.9399C74.2999 14.6699 74.5799 14.3799 74.5799 14.0299C74.5799 13.6799 74.2899 13.3899 73.9399 13.3899H70.0799Z" fill="white"/>
<path d="M73.9399 20.7302H70.0799C69.1699 20.7302 68.4399 19.9902 68.4399 19.0902C68.4399 18.1902 69.1799 17.4502 70.0799 17.4502H73.9399C74.8499 17.4502 75.5799 18.1902 75.5799 19.0902C75.5799 19.9902 74.8399 20.7302 73.9399 20.7302ZM70.0799 18.4402C69.7199 18.4402 69.4399 18.7302 69.4399 19.0802C69.4399 19.4302 69.7299 19.7202 70.0799 19.7202H73.9399C74.2999 19.7202 74.5799 19.4302 74.5799 19.0802C74.5799 18.7302 74.2899 18.4402 73.9399 18.4402H70.0799Z" fill="white"/>
<path d="M73.9399 25.7898H70.0799C69.1699 25.7898 68.4399 25.0498 68.4399 24.1498C68.4399 23.2498 69.1799 22.5098 70.0799 22.5098H73.9399C74.8499 22.5098 75.5799 23.2498 75.5799 24.1498C75.5799 25.0498 74.8399 25.7898 73.9399 25.7898ZM70.0799 23.4998C69.7199 23.4998 69.4399 23.7898 69.4399 24.1398C69.4399 24.4898 69.7299 24.7798 70.0799 24.7798H73.9399C74.2999 24.7798 74.5799 24.4898 74.5799 24.1398C74.5799 23.7898 74.2899 23.4998 73.9399 23.4998H70.0799Z" fill="white"/>
<path d="M73.9399 30.8401H70.0799C69.1699 30.8401 68.4399 30.1001 68.4399 29.2001C68.4399 28.3001 69.1799 27.5601 70.0799 27.5601H73.9399C74.8499 27.5601 75.5799 28.3001 75.5799 29.2001C75.5799 30.1001 74.8399 30.8401 73.9399 30.8401ZM70.0799 28.5501C69.7199 28.5501 69.4399 28.8401 69.4399 29.1901C69.4399 29.5401 69.7299 29.8301 70.0799 29.8301H73.9399C74.2999 29.8301 74.5799 29.5401 74.5799 29.1901C74.5799 28.8401 74.2899 28.5501 73.9399 28.5501H70.0799Z" fill="white"/>
<path d="M73.9399 35.8899H70.0799C69.1699 35.8899 68.4399 35.1499 68.4399 34.2499C68.4399 33.3499 69.1799 32.6099 70.0799 32.6099H73.9399C74.8499 32.6099 75.5799 33.3499 75.5799 34.2499C75.5799 35.1499 74.8399 35.8899 73.9399 35.8899ZM70.0799 33.5999C69.7199 33.5999 69.4399 33.8899 69.4399 34.2399C69.4399 34.5899 69.7299 34.8799 70.0799 34.8799H73.9399C74.2999 34.8799 74.5799 34.5899 74.5799 34.2399C74.5799 33.8899 74.2899 33.5999 73.9399 33.5999H70.0799Z" fill="white"/>
<path d="M23.4099 49.6198H19.5499C18.6399 49.6198 17.9099 48.8798 17.9099 47.9798C17.9099 47.0798 18.6499 46.3398 19.5499 46.3398H23.4099C24.3199 46.3398 25.0499 47.0798 25.0499 47.9798C25.0499 48.8798 24.3099 49.6198 23.4099 49.6198ZM19.5499 47.3298C19.1999 47.3298 18.9099 47.6198 18.9099 47.9698C18.9099 48.3198 19.1999 48.6098 19.5499 48.6098H23.4099C23.7599 48.6098 24.0499 48.3198 24.0499 47.9698C24.0499 47.6198 23.7599 47.3298 23.4099 47.3298H19.5499Z" fill="white"/>
<path d="M28.57 49.6201H27.68C27.02 49.6201 26.48 49.0801 26.48 48.4201V47.5301C26.48 46.8701 27.02 46.3301 27.68 46.3301H28.57C29.23 46.3301 29.77 46.8701 29.77 47.5301V48.4201C29.77 49.0801 29.23 49.6201 28.57 49.6201ZM27.68 47.3301C27.57 47.3301 27.48 47.4201 27.48 47.5301V48.4201C27.48 48.5301 27.57 48.6201 27.68 48.6201H28.57C28.68 48.6201 28.77 48.5301 28.77 48.4201V47.5301C28.77 47.4201 28.68 47.3301 28.57 47.3301H27.68Z" fill="white"/>
<path d="M55.5901 49.6198H51.7301C50.8201 49.6198 50.0901 48.8798 50.0901 47.9798C50.0901 47.0798 50.8301 46.3398 51.7301 46.3398H55.5901C56.5001 46.3398 57.2301 47.0798 57.2301 47.9798C57.2301 48.8798 56.4901 49.6198 55.5901 49.6198ZM51.7301 47.3298C51.3801 47.3298 51.0901 47.6198 51.0901 47.9698C51.0901 48.3198 51.3801 48.6098 51.7301 48.6098H55.5901C55.9401 48.6098 56.2301 48.3198 56.2301 47.9698C56.2301 47.6198 55.9401 47.3298 55.5901 47.3298H51.7301Z" fill="white"/>
<path d="M60.7499 49.6201H59.8599C59.1999 49.6201 58.6599 49.0801 58.6599 48.4201V47.5301C58.6599 46.8701 59.1999 46.3301 59.8599 46.3301H60.7499C61.4099 46.3301 61.9499 46.8701 61.9499 47.5301V48.4201C61.9499 49.0801 61.4099 49.6201 60.7499 49.6201ZM59.8599 47.3301C59.7499 47.3301 59.6599 47.4201 59.6599 47.5301V48.4201C59.6599 48.5301 59.7499 48.6201 59.8599 48.6201H60.7499C60.8599 48.6201 60.9499 48.5301 60.9499 48.4201V47.5301C60.9499 47.4201 60.8599 47.3301 60.7499 47.3301H59.8599Z" fill="white"/>
</g>
<defs>
<clipPath id="clip0_73_1839">
<rect width="80.57" height="53.05" fill="white"/>
</clipPath>
</defs>
</svg>
