<svg width="41" height="77" viewBox="0 0 41 77" fill="none" xmlns="http://www.w3.org/2000/svg">
<path d="M12.0142 48.3465C11.4095 48.3196 10.8719 48.3331 10.3344 48.2524C8.73516 48.0373 7.59287 47.177 6.93437 45.6848C5.69801 42.9022 4.46165 40.106 3.21185 37.3234C1.96205 34.581 0.766006 31.8118 0.335968 28.8006C0.147826 27.4429 0.0403161 26.0717 0.0268774 24.7005C0 18.3555 0 12.0105 0 5.66542C0 3.56834 0.860077 1.94175 2.63399 0.812547C3.49406 0.288275 4.43477 0.00597461 5.42924 0.00597461C15.4276 0.00597461 25.4126 -0.00746826 35.411 0.00597461C38.4078 0.00597461 40.7999 2.43913 40.8134 5.50411C40.8402 11.9836 40.8134 18.4496 40.8134 24.9291C40.8134 28.7737 39.8189 32.3764 38.26 35.8581C36.7952 39.1247 35.3438 42.3913 33.8521 45.6445C33.113 47.2577 31.7691 48.0373 30.0355 48.1718C29.6189 48.1987 29.1889 48.1718 28.7185 48.1718C28.7185 48.4272 28.6916 48.6288 28.6916 48.8439C28.6916 57.0037 28.6916 65.1636 28.6916 73.3099C28.6916 74.009 28.6379 74.6811 28.275 75.2995C27.6434 76.3749 26.7027 76.9664 25.4798 76.9798C22.0664 77.0067 18.6395 77.0067 15.2261 76.9798C13.385 76.9664 12.0276 75.528 12.0142 73.6191C12.0008 71.2935 12.0142 68.9679 12.0142 66.6423C12.0142 60.7274 12.0142 54.7991 12.0142 48.8842C12.0142 48.7095 12.0142 48.5347 12.0142 48.3196V48.3465ZM20.4134 2.37192C15.4814 2.37192 10.5359 2.37192 5.60394 2.37192C4.17944 2.37192 3.11778 3.09783 2.56679 4.34802C2.3249 4.89918 2.44585 5.45034 2.45928 6.01494C2.45928 12.118 2.48616 18.2345 2.45928 24.3376C2.44585 27.8999 3.17154 31.301 4.62292 34.5407C6.15493 37.9686 7.68694 41.3966 9.20552 44.8245C9.44741 45.3622 9.87745 45.6714 10.4016 45.8327C10.7241 45.9268 11.0869 45.9537 11.4363 45.9537C15.9383 45.9537 20.4403 45.9537 24.9288 45.9537C26.5818 45.9537 28.2347 45.9671 29.8743 45.9537C30.815 45.9403 31.5003 45.5235 31.8497 44.5825C32.1857 43.6819 32.5754 42.7946 32.9652 41.9074C34.2822 38.8827 35.6529 35.885 36.9161 32.8335C37.9106 30.4272 38.4482 27.8999 38.4616 25.2786C38.4616 18.705 38.4616 12.118 38.4616 5.54444C38.4616 5.34279 38.4616 5.12771 38.4078 4.93951C38.1122 3.39358 36.8624 2.37192 35.2094 2.37192C30.2774 2.37192 25.332 2.37192 20.4 2.37192H20.4134ZM14.4735 48.1852V48.6423C14.4735 56.8962 14.4735 65.1501 14.4735 73.4175C14.4735 74.345 14.7691 74.6408 15.7099 74.6408C18.8679 74.6408 22.026 74.6273 25.1707 74.6408C26.0711 74.6408 26.5818 74.3047 26.5818 73.1889C26.5952 65.0157 26.5818 56.8559 26.5952 48.6826C26.5952 48.2928 26.5011 48.1583 26.0845 48.1583C22.3755 48.1718 18.6664 48.1583 14.9573 48.1583C14.8095 48.1583 14.6751 48.1583 14.4601 48.1583L14.4735 48.1852Z" fill="white"/>
<path d="M20.3598 6.32422C24.6199 6.32422 28.8934 6.32422 33.1535 6.32422C34.2689 6.32422 34.6317 6.67373 34.6317 7.78949C34.6317 13.2607 34.5914 18.7185 34.6452 24.1898C34.6721 27.2144 34.0942 30.0778 32.8041 32.8067C32.6025 33.2234 32.4144 33.6536 32.2262 34.0837C31.9171 34.8365 31.6618 35.0113 30.8286 35.0113C27.3345 35.0113 23.8405 35.0113 20.3464 35.0113C16.8658 35.0113 13.3851 35.0113 9.91796 35.0113C9.00412 35.0113 8.7891 34.8634 8.42626 34.03C7.98278 32.968 7.47211 31.9194 7.08239 30.844C6.3567 28.8679 6.04761 26.8112 6.04761 24.7006C6.04761 19.0681 6.04761 13.4489 6.04761 7.81638C6.04761 6.66029 6.39701 6.32422 7.5393 6.32422C11.7994 6.32422 16.0729 6.32422 20.333 6.32422H20.3598ZM8.39938 8.56918C8.39938 8.78426 8.39938 8.95902 8.39938 9.13378C8.39938 14.0404 8.45314 18.9605 8.38594 23.8672C8.34563 26.7977 8.91005 29.5535 10.2002 32.1749C10.348 32.4706 10.4958 32.5647 10.8184 32.5647C15.3338 32.5647 19.8492 32.5647 24.3646 32.5647C26.2191 32.5647 28.0737 32.5647 29.9282 32.5647C30.0895 32.5647 30.3448 32.4706 30.412 32.3362C31.5677 29.9165 32.3203 27.3892 32.3069 24.6603C32.28 19.4579 32.3069 14.2555 32.3069 9.05312C32.3069 8.90525 32.2934 8.74394 32.28 8.58262H8.41282L8.39938 8.56918Z" fill="white"/>
<path d="M24.0284 40.4958C24.0284 42.4584 22.4024 44.1119 20.4403 44.1119C18.4514 44.1119 16.8119 42.4988 16.7984 40.5092C16.785 38.5331 18.4379 36.8662 20.4134 36.8662C22.4024 36.8662 24.0284 38.4928 24.0419 40.4958H24.0284ZM20.4269 39.2187C19.7415 39.2187 19.1636 39.7564 19.1368 40.442C19.1099 41.141 19.6743 41.7325 20.3866 41.746C21.0988 41.746 21.6767 41.1814 21.6767 40.4823C21.6767 39.8102 21.0988 39.2187 20.4269 39.2187Z" fill="white"/>
<path d="M23.6656 20.5598C23.6656 22.3343 22.1604 23.8265 20.3865 23.813C18.5992 23.7996 17.1344 22.3074 17.1478 20.5195C17.1478 18.7719 18.6664 17.2798 20.4 17.2798C22.1604 17.2798 23.6656 18.7988 23.6521 20.5598H23.6656ZM20.3865 21.474C20.83 21.4874 21.3272 21.0169 21.3272 20.5598C21.3272 20.1028 20.9106 19.6592 20.4403 19.6323C19.9699 19.6054 19.4996 20.0356 19.4727 20.5061C19.4593 20.9497 19.9162 21.4471 20.3731 21.4605L20.3865 21.474Z" fill="white"/>
<path d="M19.4729 27.4968C19.4729 26.9457 19.4729 26.3945 19.4729 25.8299C19.4863 25.0906 19.9029 24.6604 20.5883 24.6335C21.2468 24.6066 21.7844 25.0368 21.8112 25.7493C21.8516 26.9457 21.8516 28.1421 21.8112 29.3385C21.7978 29.9569 21.2871 30.3467 20.6555 30.3602C20.0239 30.3602 19.5401 29.9703 19.4998 29.352C19.4595 28.747 19.4998 28.1287 19.4998 27.5103L19.4729 27.4968Z" fill="white"/>
<path d="M21.354 13.6907C21.354 14.215 21.354 14.7393 21.354 15.2636C21.3406 16.0164 20.8837 16.46 20.1849 16.4734C19.5264 16.4734 19.0157 15.976 19.0023 15.2636C18.9888 14.1881 18.9888 13.0993 19.0023 12.0238C19.0023 11.3248 19.4592 10.8946 20.1311 10.8812C20.8299 10.8677 21.3003 11.271 21.3406 11.9835C21.3675 12.5481 21.3406 13.1261 21.3406 13.6907H21.354Z" fill="white"/>
<path d="M27.2805 21.4876C26.743 21.4876 26.2054 21.4876 25.6544 21.4876C24.9422 21.4741 24.5256 21.0574 24.4987 20.3852C24.4718 19.7265 24.9153 19.1754 25.5873 19.1485C26.7295 19.1082 27.8718 19.1216 29.0007 19.1485C29.6861 19.1754 30.0758 19.6593 30.0623 20.3449C30.0623 21.0171 29.6323 21.4607 28.9335 21.4876C28.3825 21.501 27.8181 21.4876 27.2671 21.4876H27.2805Z" fill="white"/>
<path d="M27.5358 14.403C27.4417 14.5644 27.3342 14.8735 27.1327 15.1021C26.407 15.8683 25.641 16.6211 24.875 17.3605C24.3777 17.8444 23.6789 17.8847 23.2623 17.468C22.7248 16.9303 22.6979 16.2716 23.2354 15.7339C23.988 14.9676 24.754 14.2014 25.52 13.4486C25.8829 13.0856 26.3263 12.9781 26.8101 13.1932C27.2536 13.3948 27.4955 13.7712 27.5358 14.4165V14.403Z" fill="white"/>
<path d="M14.6078 28.0209C14.003 27.9806 13.6402 27.7655 13.4252 27.3353C13.2102 26.9052 13.2505 26.4481 13.5864 26.112C14.3928 25.2651 15.2125 24.4317 16.0592 23.6386C16.5161 23.1949 17.2014 23.2622 17.6315 23.7192C18.0615 24.1628 18.1018 24.7946 17.6718 25.2651C16.8789 26.0986 16.0592 26.9186 15.226 27.7117C15.0378 27.8865 14.7422 27.9537 14.6078 28.0344V28.0209Z" fill="white"/>
<path d="M27.8855 26.2466C27.8586 26.865 27.6167 27.2145 27.2001 27.4296C26.7835 27.6447 26.3535 27.6178 26.0175 27.2951C25.1574 26.4751 24.2973 25.6282 23.4776 24.7679C23.061 24.3243 23.1282 23.6521 23.5582 23.222C23.9883 22.7918 24.6602 22.738 25.1037 23.1547C25.9637 23.9613 26.7835 24.8082 27.6033 25.6551C27.7645 25.8299 27.8317 26.1122 27.8855 26.2332V26.2466Z" fill="white"/>
<path d="M16.355 18.1671C16.1131 18.0326 15.8174 17.9251 15.6158 17.7369C14.8364 16.9841 14.0704 16.2313 13.3178 15.4516C12.8071 14.9139 12.8071 14.2552 13.3044 13.7847C13.7747 13.3276 14.4332 13.3276 14.9573 13.825C15.7502 14.5913 16.5162 15.3575 17.2822 16.1506C17.6451 16.527 17.7123 16.9706 17.4972 17.4546C17.3091 17.8713 16.8522 18.1402 16.3684 18.1805L16.355 18.1671Z" fill="white"/>
<path d="M13.452 21.9448C12.9145 21.9448 12.3769 21.9448 11.8259 21.9448C11.1137 21.9313 10.6165 21.4474 10.6165 20.7752C10.6165 20.0628 11.0599 19.6326 11.8259 19.6191C12.8876 19.6191 13.9627 19.6191 15.0244 19.6191C15.7904 19.6191 16.2204 20.0628 16.2204 20.7752C16.2204 21.4877 15.7904 21.9179 15.0378 21.9448C14.5137 21.9448 13.9896 21.9448 13.4655 21.9448H13.452Z" fill="white"/>
</svg>
