<svg width="55" height="78" viewBox="0 0 55 78" fill="none" xmlns="http://www.w3.org/2000/svg">
<g clip-path="url(#clip0_73_1825)">
<path d="M45.0537 77.1358H23.8182C18.3285 77.1358 13.8718 72.6791 13.8718 67.1894V9.94634C13.8718 4.45667 18.3285 0 23.8182 0H45.0537C50.5434 0 55.0001 4.45667 55.0001 9.94634V67.1894C55.0001 72.6791 50.5434 77.1358 45.0537 77.1358ZM23.8182 1.97746C19.4205 1.97746 15.8493 5.5487 15.8493 9.94634V67.1894C15.8493 71.5871 19.4205 75.1583 23.8182 75.1583H45.0537C49.4514 75.1583 53.0226 71.5871 53.0226 67.1894V9.94634C53.0226 5.5487 49.4514 1.97746 45.0537 1.97746H23.8182Z" fill="white"/>
<path d="M40.8478 31.1227H26.5923C22.5193 31.1227 19.199 27.8023 19.199 23.7293V14.0486C19.199 9.97564 22.5193 6.65527 26.5923 6.65527H40.8478C44.9207 6.65527 48.2411 9.97564 48.2411 14.0486V23.7293C48.2411 27.8023 44.9207 31.1227 40.8478 31.1227ZM26.5776 8.61798C23.5966 8.61798 21.1617 11.0529 21.1617 14.0339V23.7146C21.1617 26.7103 23.5966 29.1305 26.5776 29.1305H40.833C43.8139 29.1305 46.2489 26.6955 46.2489 23.7146V14.0339C46.2489 11.0382 43.8139 8.61798 40.833 8.61798H26.5776Z" fill="white"/>
<path d="M14.8605 19.4205H4.11725C1.84465 19.4205 0 17.5759 0 15.3033C0 13.0307 1.84465 11.186 4.11725 11.186H14.8605C15.4065 11.186 15.8492 11.6288 15.8492 12.1748V18.4466C15.8492 18.9926 15.4065 19.4353 14.8605 19.4353V19.4205ZM4.11725 13.1487C2.93668 13.1487 1.97746 14.108 1.97746 15.2885C1.97746 16.4691 2.93668 17.4283 4.11725 17.4283H13.8717V13.1487H4.11725Z" fill="white"/>
<path d="M14.8605 61.6852H4.11725C1.84465 61.6852 0 59.8405 0 57.5679C0 55.2953 1.84465 53.4507 4.11725 53.4507H14.8605C15.4065 53.4507 15.8492 53.8934 15.8492 54.4394V60.7112C15.8492 61.2572 15.4065 61.6999 14.8605 61.6999V61.6852ZM4.11725 55.4134C2.93668 55.4134 1.97746 56.3726 1.97746 57.5532C1.97746 58.7338 2.93668 59.693 4.11725 59.693H13.8717V55.4134H4.11725Z" fill="white"/>
<path d="M26.0021 14.4913H25.1609C24.0689 14.4913 23.1982 13.6059 23.1982 12.5286C23.1982 11.4513 24.0837 10.5659 25.1609 10.5659H26.0021C27.0941 10.5659 27.9648 11.4513 27.9648 12.5286C27.9648 13.6059 27.0794 14.4913 26.0021 14.4913Z" fill="white"/>
<path d="M33.735 13.9306H32.215C31.2853 13.9306 30.5327 13.1779 30.5327 12.2482C30.5327 11.3185 31.2853 10.5659 32.215 10.5659H33.735C34.6647 10.5659 35.4173 11.3185 35.4173 12.2482C35.4173 13.1779 34.6647 13.9306 33.735 13.9306Z" fill="white"/>
<path d="M40.8478 13.5174H38.7523C37.9407 13.5174 37.2766 12.8533 37.2766 12.0416C37.2766 11.23 37.9407 10.5659 38.7523 10.5659H40.8478C41.6595 10.5659 42.3236 11.23 42.3236 12.0416C42.3236 12.8533 41.6595 13.5174 40.8478 13.5174Z" fill="white"/>
<path d="M34.2958 18.594H25.2496C24.4232 18.594 23.7444 17.9151 23.7444 17.0887C23.7444 16.2623 24.4232 15.5835 25.2496 15.5835H34.2958C35.1222 15.5835 35.801 16.2623 35.801 17.0887C35.801 17.9151 35.1222 18.594 34.2958 18.594Z" fill="white"/>
<path d="M41.1874 18.594H38.7672C37.9408 18.594 37.262 17.9151 37.262 17.0887C37.262 16.2623 37.9408 15.5835 38.7672 15.5835H41.1874C42.0138 15.5835 42.6926 16.2623 42.6926 17.0887C42.6926 17.9151 42.0138 18.594 41.1874 18.594Z" fill="white"/>
<path d="M28.2305 22.6967H25.161C24.3788 22.6967 23.759 22.0621 23.759 21.28C23.759 20.4978 24.3936 19.8633 25.161 19.8633H28.2305C29.0126 19.8633 29.6324 20.4978 29.6324 21.28C29.6324 22.0621 28.9978 22.6967 28.2305 22.6967Z" fill="white"/>
<path d="M33.2184 24.2756C32.0083 24.2756 31.0195 23.2868 31.0195 22.0767C31.0195 20.8667 32.0083 19.8779 33.2184 19.8779C34.4284 19.8779 35.4172 20.8667 35.4172 22.0767C35.4172 23.2868 34.4284 24.2756 33.2184 24.2756ZM33.2184 21.8554C33.1003 21.8554 32.997 21.9587 32.997 22.0767C32.997 22.3129 33.4397 22.3129 33.4397 22.0767C33.4397 21.9587 33.3364 21.8554 33.2184 21.8554Z" fill="white"/>
<path d="M37.9702 23.9067C36.8634 23.9067 35.9485 23.0066 35.9485 21.885C35.9485 20.7635 36.8487 19.8633 37.9702 19.8633C39.0918 19.8633 39.9772 20.7635 39.9772 21.885C39.9772 23.0066 39.077 23.9067 37.9702 23.9067ZM37.9997 21.885L37.9702 21.9145C37.9702 21.9145 37.9997 21.8998 37.9997 21.885Z" fill="white"/>
</g>
<defs>
<clipPath id="clip0_73_1825">
<rect width="55" height="77.1358" fill="white"/>
</clipPath>
</defs>
</svg>
